<svg id="Layer_1" data-name="Layer 1" xmlns="http://www.w3.org/2000/svg" viewBox="0 0 22 22"><defs><style>.cls-1{opacity:0.5;}.cls-2,.cls-3,.cls-5{fill:none;stroke-linecap:round;stroke-linejoin:round;}.cls-2,.cls-3{stroke:#fd6363;}.cls-2{stroke-width:2.2px;}.cls-3{stroke-width:1.5px;}.cls-4{fill:#808998;stroke-miterlimit:10;stroke-width:0.5px;}.cls-4,.cls-5{stroke:#808998;}.cls-5{stroke-width:0.8px;}</style></defs><title>Login-hover</title><g class="cls-1"><path class="cls-2" d="M15.38,13.43V12.2a2.47,2.47,0,0,0-2.46-2.47H8.61A2.47,2.47,0,0,0,6.14,12.2v1.23"/><circle class="cls-2" cx="10.76" cy="4.81" r="2.46"/></g><path class="cls-3" d="M15.38,13.43V12.2a2.47,2.47,0,0,0-2.46-2.47H8.61A2.47,2.47,0,0,0,6.14,12.2v1.23"/><circle class="cls-3" cx="10.76" cy="4.81" r="2.46"/><path class="cls-4" d="M17.27,14.86H4.73a2.4,2.4,0,0,0,0,4.8H17.27a2.4,2.4,0,0,0,0-4.8ZM3,17.26a1.72,1.72,0,0,1,1.71-1.72h9.42V19H4.73A1.72,1.72,0,0,1,3,17.26ZM17.27,19H14.83V15.54h2.44a1.72,1.72,0,0,1,0,3.43Z"/><line class="cls-5" x1="5.95" y1="16.87" x2="5.01" y2="17.81"/><line class="cls-5" x1="5.01" y1="16.87" x2="5.96" y2="17.81"/><line class="cls-5" x1="8.14" y1="16.85" x2="7.2" y2="17.79"/><line class="cls-5" x1="7.2" y1="16.85" x2="8.15" y2="17.79"/><line class="cls-5" x1="10.2" y1="16.81" x2="9.26" y2="17.74"/><line class="cls-5" x1="9.26" y1="16.81" x2="10.22" y2="17.75"/><line class="cls-5" x1="12.39" y1="16.78" x2="11.45" y2="17.72"/><line class="cls-5" x1="11.45" y1="16.78" x2="12.41" y2="17.73"/><path class="cls-4" d="M17.1,17.42l-.54.64a.12.12,0,0,0,0,.07.07.07,0,0,0,0,.06.1.1,0,0,0,.14,0l.67-.8a.09.09,0,0,0,0-.12l-.67-.8s-.06,0-.08,0a.08.08,0,0,0-.06,0,.09.09,0,0,0,0,.13l.54.65H15.91a.1.1,0,0,0-.1.09.11.11,0,0,0,.1.1Z"/></svg>