<?xml version="1.0" encoding="utf-8"?>
<!-- Generator: Adobe Illustrator 23.0.1, SVG Export Plug-In . SVG Version: 6.00 Build 0)  -->
<svg version="1.1" id="Layer_1" xmlns="http://www.w3.org/2000/svg" xmlns:xlink="http://www.w3.org/1999/xlink" x="0px" y="0px"
	 viewBox="0 0 22 22" style="enable-background:new 0 0 22 22;" xml:space="preserve">
<style type="text/css">
	.st0{opacity:0.5;}
	.st1{fill:none;stroke:#FD6363;stroke-width:2.5;stroke-linecap:round;stroke-linejoin:round;}
	.st2{fill:#FD6363;}
	.st3{opacity:0.5;fill:none;stroke:#FD6363;stroke-width:2.5;stroke-linecap:round;stroke-linejoin:round;}
	.st4{fill:none;stroke:#FD6363;stroke-width:1.5;stroke-linecap:round;stroke-linejoin:round;}
	.st5{fill:none;stroke:#808998;stroke-width:1.5;stroke-linecap:round;stroke-linejoin:round;}
	.st6{fill:none;stroke:#FD6363;stroke-width:2.8;stroke-linecap:round;stroke-linejoin:round;}
</style>
<g class="st0">
	<line class="st1" x1="8.8" y1="13.5" x2="3.3" y2="19.1"/>
	<line class="st1" x1="3.2" y1="13.5" x2="8.9" y2="19.1"/>
</g>
<g class="st0">
	<g>
		<path class="st2" d="M16.3,15.1c2.9,0,2.9-4.5,0-4.5C13.4,10.6,13.4,15.1,16.3,15.1L16.3,15.1z"/>
	</g>
</g>
<g class="st0">
	<g>
		<path class="st2" d="M16.4,21.7c2.9,0,2.9-4.5,0-4.5C13.5,17.2,13.5,21.7,16.4,21.7L16.4,21.7z"/>
	</g>
</g>
<g>
	<g>
		<path class="st2" d="M16.3,14.4c1.9,0,1.9-3,0-3C14.4,11.4,14.4,14.4,16.3,14.4L16.3,14.4z"/>
	</g>
</g>
<g>
	<g>
		<path class="st2" d="M16.4,21c1.9,0,1.9-3,0-3C14.4,18,14.4,21,16.4,21L16.4,21z"/>
	</g>
</g>
<line class="st3" x1="13.6" y1="6.8" x2="19.7" y2="6.8"/>
<g class="st0">
	<line class="st1" x1="5.4" y1="3.9" x2="5.4" y2="10"/>
	<line class="st1" x1="2.4" y1="6.9" x2="8.5" y2="6.9"/>
</g>
<g>
	<g>
		<line class="st2" x1="5.4" y1="3.9" x2="5.4" y2="9.9"/>
		<line class="st2" x1="2.4" y1="6.9" x2="8.4" y2="6.9"/>
	</g>
	<g>
		<line class="st4" x1="5.4" y1="3.9" x2="5.4" y2="9.9"/>
		<line class="st4" x1="2.4" y1="6.9" x2="8.4" y2="6.9"/>
	</g>
</g>
<line class="st4" x1="13.6" y1="6.8" x2="19.6" y2="6.8"/>
<g>
	<line class="st4" x1="8.9" y1="13.5" x2="3.3" y2="19.1"/>
	<line class="st4" x1="3.3" y1="13.6" x2="9" y2="19.1"/>
</g>
<g>
	<line class="st5" x1="13.4" y1="16.2" x2="19.5" y2="16.2"/>
</g>
</svg>
