<svg id="Layer_1" data-name="Layer 1" xmlns="http://www.w3.org/2000/svg" viewBox="0 0 22 22"><defs><style>.cls-1,.cls-6,.cls-7{opacity:0.5;}.cls-2,.cls-3,.cls-4,.cls-5,.cls-6,.cls-8{fill:none;}.cls-2,.cls-3,.cls-4,.cls-5,.cls-6{stroke:#fd6363;}.cls-2,.cls-4{stroke-miterlimit:10;}.cls-2,.cls-3,.cls-6{stroke-width:2.5px;}.cls-3,.cls-5,.cls-6,.cls-8{stroke-linecap:round;stroke-linejoin:round;}.cls-5,.cls-8{stroke-width:1.5px;}.cls-7,.cls-9{fill:#fd6363;}.cls-8{stroke:#808998;}</style></defs><title>Arithmetic-hover</title><g class="cls-1"><line class="cls-2" x1="5.05" y1="2.5" x2="5.05" y2="8.8"/><line class="cls-2" x1="1.95" y1="5.7" x2="8.25" y2="5.7"/><line class="cls-3" x1="5.05" y1="2.5" x2="5.05" y2="8.8"/><line class="cls-3" x1="1.95" y1="5.7" x2="8.25" y2="5.7"/></g><line class="cls-4" x1="5.05" y1="2.5" x2="5.05" y2="8.8"/><line class="cls-4" x1="1.95" y1="5.7" x2="8.25" y2="5.7"/><line class="cls-5" x1="5.05" y1="2.5" x2="5.05" y2="8.8"/><line class="cls-5" x1="1.95" y1="5.7" x2="8.25" y2="5.7"/><line class="cls-6" x1="13.75" y1="5.6" x2="20.05" y2="5.6"/><line class="cls-5" x1="13.75" y1="5.6" x2="20.05" y2="5.6"/><g class="cls-1"><line class="cls-3" x1="8.71" y1="13.29" x2="2.81" y2="19.19"/><line class="cls-3" x1="2.81" y1="13.39" x2="8.81" y2="19.19"/></g><line class="cls-5" x1="8.71" y1="13.29" x2="2.81" y2="19.19"/><line class="cls-5" x1="2.81" y1="13.39" x2="8.81" y2="19.19"/><circle class="cls-7" cx="16.6" cy="19.31" r="1.69"/><circle class="cls-7" cx="16.6" cy="13.08" r="1.69"/><line class="cls-8" x1="13.51" y1="16.19" x2="19.91" y2="16.19"/><circle class="cls-9" cx="16.6" cy="19.31" r="1.28"/><circle class="cls-9" cx="16.6" cy="13.08" r="1.28"/></svg>