<?xml version="1.0" encoding="utf-8"?>
<!-- Generator: Adobe Illustrator 23.0.1, SVG Export Plug-In . SVG Version: 6.00 Build 0)  -->
<svg version="1.1" id="Layer_1" xmlns="http://www.w3.org/2000/svg" xmlns:xlink="http://www.w3.org/1999/xlink" x="0px" y="0px"
	 viewBox="0 0 22 22" style="enable-background:new 0 0 22 22;" xml:space="preserve">
<style type="text/css">
	.st0{opacity:0.5;}
	.st1{fill:none;stroke:#FD6363;stroke-width:2.5;stroke-linecap:round;stroke-linejoin:round;}
	.st2{fill:none;stroke:#FD6363;stroke-width:1.5;stroke-linecap:round;stroke-linejoin:round;}
	.st3{fill:none;stroke:#808998;stroke-width:1.5;stroke-linecap:round;stroke-linejoin:round;}
	.st4{fill:#808998;}
	.st5{fill:#FD6363;}
	.st6{fill:none;stroke:#FD6363;stroke-width:2.8;stroke-linecap:round;stroke-linejoin:round;}
</style>
<g>
	<line class="st3" x1="3.2" y1="11.1" x2="18.8" y2="11.1"/>
</g>
<g class="st0">
	<g>
		<path class="st5" d="M10.6,17.6c2.9,0,2.9-4.5,0-4.5C7.7,13.1,7.7,17.6,10.6,17.6L10.6,17.6z"/>
	</g>
</g>
<g>
	<g>
		<path class="st5" d="M10.6,16.9c1.9,0,1.9-3,0-3C8.7,13.9,8.7,16.9,10.6,16.9L10.6,16.9z"/>
	</g>
</g>
<g class="st0">
	<g>
		<path class="st5" d="M10.6,9c2.9,0,2.9-4.5,0-4.5C7.7,4.5,7.7,9,10.6,9L10.6,9z"/>
	</g>
</g>
<g>
	<g>
		<path class="st5" d="M10.6,8.3c1.9,0,1.9-3,0-3C8.7,5.3,8.7,8.3,10.6,8.3L10.6,8.3z"/>
	</g>
</g>
</svg>
