<svg xmlns="http://www.w3.org/2000/svg" width="30.391" height="25.326" viewBox="0 0 30.391 25.326">
  <g id="bag" transform="translate(0 -42.666)">
    <g id="Group_509" data-name="Group 509" transform="translate(0 42.666)">
      <path id="Path_735" data-name="Path 735" d="M2.533,46.465H8.864V45.2A2.535,2.535,0,0,1,11.4,42.666h7.6A2.535,2.535,0,0,1,21.527,45.2v1.266h6.331A2.535,2.535,0,0,1,30.391,49V65.459a2.535,2.535,0,0,1-2.533,2.533H2.533A2.535,2.535,0,0,1,0,65.459V49A2.535,2.535,0,0,1,2.533,46.465ZM20.261,45.2a1.268,1.268,0,0,0-1.266-1.266H11.4A1.268,1.268,0,0,0,10.13,45.2v1.266h10.13ZM1.266,65.459a1.268,1.268,0,0,0,1.266,1.266H27.858a1.268,1.268,0,0,0,1.266-1.266V56.243a2.5,2.5,0,0,1-1.266.352H17.728v1.9a.633.633,0,0,1-.633.633H13.3a.633.633,0,0,1-.633-.633V56.6H2.533a2.5,2.5,0,0,1-1.266-.352v9.216Zm15.2-7.6V55.329H13.929v2.533Zm-15.2-3.8a1.268,1.268,0,0,0,1.266,1.266h10.13V54.7a.633.633,0,0,1,.633-.633h3.8a.633.633,0,0,1,.633.633v.633h10.13a1.268,1.268,0,0,0,1.266-1.266V49a1.268,1.268,0,0,0-1.266-1.266H2.533A1.268,1.268,0,0,0,1.266,49Z" transform="translate(0 -42.666)" fill="#0062cf"/>
    </g>
  </g>
</svg>
