<svg xmlns="http://www.w3.org/2000/svg" width="34" height="34" viewBox="0 0 34 34">
  <g id="company" transform="translate(-26)">
    <path id="Path_3" data-name="Path 3" d="M59.261,7.969H45.217V.664A.7.7,0,0,0,44.478,0H26.739A.7.7,0,0,0,26,.664V33.336a.7.7,0,0,0,.739.664H59.261A.7.7,0,0,0,60,33.336V8.633A.7.7,0,0,0,59.261,7.969ZM45.217,9.3h13.3V26.031h-13.3ZM33.391,32.672V27.359h4.435v5.313Zm5.174-6.641H32.652a.7.7,0,0,0-.739.664v5.977H27.478V1.328H43.739V32.672H39.3V26.7A.7.7,0,0,0,38.565,26.031Zm6.652,6.641V27.359h13.3v5.313Z" transform="translate(0)" fill="#0062cf"/>
    <path id="Path_4" data-name="Path 4" d="M136.827,43.313h1.656a.828.828,0,0,0,.828-.828V40.829a.828.828,0,0,0-.828-.828h-1.656a.828.828,0,0,0-.828.828v1.656A.828.828,0,0,0,136.827,43.313Z" transform="translate(-101.962 -36.689)" fill="#0062cf"/>
    <path id="Path_5" data-name="Path 5" d="M136.827,113.313h1.656a.828.828,0,0,0,.828-.828v-1.656a.828.828,0,0,0-.828-.828h-1.656a.828.828,0,0,0-.828.828v1.656A.828.828,0,0,0,136.827,113.313Z" transform="translate(-101.962 -102.849)" fill="#0062cf"/>
    <path id="Path_6" data-name="Path 6" d="M136.827,183.313h1.656a.828.828,0,0,0,.828-.828v-1.656a.828.828,0,0,0-.828-.828h-1.656a.828.828,0,0,0-.828.828v1.656A.828.828,0,0,0,136.827,183.313Z" transform="translate(-101.962 -168.298)" fill="#0062cf"/>
    <path id="Path_7" data-name="Path 7" d="M136.827,253.312h1.656a.828.828,0,0,0,.828-.828v-1.656a.828.828,0,0,0-.828-.828h-1.656a.828.828,0,0,0-.828.828v1.656A.828.828,0,0,0,136.827,253.312Z" transform="translate(-101.962 -233.746)" fill="#0062cf"/>
    <path id="Path_8" data-name="Path 8" d="M136.827,323.312h1.656a.828.828,0,0,0,.828-.828v-1.656a.828.828,0,0,0-.828-.828h-1.656a.828.828,0,0,0-.828.828v1.656A.828.828,0,0,0,136.827,323.312Z" transform="translate(-101.962 -299.195)" fill="#0062cf"/>
    <path id="Path_9" data-name="Path 9" d="M66.829,43.313h1.656a.828.828,0,0,0,.828-.828V40.829A.828.828,0,0,0,68.485,40H66.829a.828.828,0,0,0-.828.828v1.656A.828.828,0,0,0,66.829,43.313Z" transform="translate(-36.689 -36.689)" fill="#0062cf"/>
    <path id="Path_10" data-name="Path 10" d="M66.829,113.313h1.656a.828.828,0,0,0,.828-.828v-1.656a.828.828,0,0,0-.828-.828H66.829a.828.828,0,0,0-.828.828v1.656A.828.828,0,0,0,66.829,113.313Z" transform="translate(-36.689 -102.849)" fill="#0062cf"/>
    <path id="Path_11" data-name="Path 11" d="M66.829,183.313h1.656a.828.828,0,0,0,.828-.828v-1.656a.828.828,0,0,0-.828-.828H66.829a.828.828,0,0,0-.828.828v1.656A.828.828,0,0,0,66.829,183.313Z" transform="translate(-36.689 -168.298)" fill="#0062cf"/>
    <path id="Path_12" data-name="Path 12" d="M66.829,253.312h1.656a.828.828,0,0,0,.828-.828v-1.656a.828.828,0,0,0-.828-.828H66.829a.828.828,0,0,0-.828.828v1.656A.828.828,0,0,0,66.829,253.312Z" transform="translate(-36.689 -233.746)" fill="#0062cf"/>
    <path id="Path_13" data-name="Path 13" d="M66.829,323.312h1.656a.828.828,0,0,0,.828-.828v-1.656a.828.828,0,0,0-.828-.828H66.829a.828.828,0,0,0-.828.828v1.656A.828.828,0,0,0,66.829,323.312Z" transform="translate(-36.689 -299.195)" fill="#0062cf"/>
    <path id="Path_14" data-name="Path 14" d="M208.485,40h-1.656a.828.828,0,0,0-.828.828v1.656a.828.828,0,0,0,.828.828h1.656a.828.828,0,0,0,.828-.828V40.829A.828.828,0,0,0,208.485,40Z" transform="translate(-166.849 -36.689)" fill="#0062cf"/>
    <path id="Path_15" data-name="Path 15" d="M208.485,110h-1.656a.828.828,0,0,0-.828.828v1.656a.828.828,0,0,0,.828.828h1.656a.828.828,0,0,0,.828-.828v-1.656A.828.828,0,0,0,208.485,110Z" transform="translate(-166.849 -102.848)" fill="#0062cf"/>
    <path id="Path_16" data-name="Path 16" d="M208.485,180h-1.656a.828.828,0,0,0-.828.828v1.656a.828.828,0,0,0,.828.828h1.656a.828.828,0,0,0,.828-.828v-1.656A.828.828,0,0,0,208.485,180Z" transform="translate(-166.849 -168.297)" fill="#0062cf"/>
    <path id="Path_17" data-name="Path 17" d="M208.485,250h-1.656a.828.828,0,0,0-.828.828v1.656a.828.828,0,0,0,.828.828h1.656a.828.828,0,0,0,.828-.828v-1.656A.828.828,0,0,0,208.485,250Z" transform="translate(-166.849 -233.746)" fill="#0062cf"/>
    <path id="Path_18" data-name="Path 18" d="M208.485,320h-1.656a.828.828,0,0,0-.828.828v1.656a.828.828,0,0,0,.828.828h1.656a.828.828,0,0,0,.828-.828v-1.656A.828.828,0,0,0,208.485,320Z" transform="translate(-166.849 -299.195)" fill="#0062cf"/>
    <path id="Path_19" data-name="Path 19" d="M393.484,180h-1.656a.828.828,0,0,0-.828.828v1.656a.828.828,0,0,0,.828.828h1.656a.828.828,0,0,0,.828-.828v-1.656A.828.828,0,0,0,393.484,180Z" transform="translate(-338.867 -168.297)" fill="#0062cf"/>
    <path id="Path_20" data-name="Path 20" d="M393.484,250h-1.656a.828.828,0,0,0-.828.828v1.656a.828.828,0,0,0,.828.828h1.656a.828.828,0,0,0,.828-.828v-1.656A.828.828,0,0,0,393.484,250Z" transform="translate(-338.867 -233.746)" fill="#0062cf"/>
    <path id="Path_21" data-name="Path 21" d="M393.484,320h-1.656a.828.828,0,0,0-.828.828v1.656a.828.828,0,0,0,.828.828h1.656a.828.828,0,0,0,.828-.828v-1.656A.828.828,0,0,0,393.484,320Z" transform="translate(-338.867 -299.195)" fill="#0062cf"/>
    <path id="Path_22" data-name="Path 22" d="M323.486,180H321.83a.828.828,0,0,0-.828.828v1.656a.828.828,0,0,0,.828.828h1.656a.828.828,0,0,0,.828-.828v-1.656A.828.828,0,0,0,323.486,180Z" transform="translate(-273.447 -168.297)" fill="#0062cf"/>
    <path id="Path_23" data-name="Path 23" d="M323.486,250H321.83a.828.828,0,0,0-.828.828v1.656a.828.828,0,0,0,.828.828h1.656a.828.828,0,0,0,.828-.828v-1.656A.828.828,0,0,0,323.486,250Z" transform="translate(-273.447 -233.746)" fill="#0062cf"/>
    <path id="Path_24" data-name="Path 24" d="M323.486,320H321.83a.828.828,0,0,0-.828.828v1.656a.828.828,0,0,0,.828.828h1.656a.828.828,0,0,0,.828-.828v-1.656A.828.828,0,0,0,323.486,320Z" transform="translate(-273.447 -299.195)" fill="#0062cf"/>
  </g>
</svg>
