<svg xmlns="http://www.w3.org/2000/svg" width="34.9" height="34.902" viewBox="0 0 34.9 34.902">
  <g id="department" transform="translate(-0.484)">
    <path id="Path_697" data-name="Path 697" d="M28.442,9.29a6.924,6.924,0,0,0-4.732,1.859,7,7,0,0,0-.586.618l-3.753-2.7A5.988,5.988,0,0,0,17.017.691a.512.512,0,1,0-.479.906,4.985,4.985,0,1,1-2.323-.572c.077,0,.154,0,.231.005A.512.512,0,1,0,14.492.006C14.4,0,14.307,0,14.215,0a6,6,0,1,0,4.556,9.9l3.752,2.7a6.884,6.884,0,0,0-1,3.1.513.513,0,0,0,1.023.076,5.9,5.9,0,1,1,.239,2.17.513.513,0,0,0-.982.3,6.8,6.8,0,0,0,.324.848l-4.189,2.289A9.251,9.251,0,1,0,1.688,30.222a.513.513,0,0,0,.892-.506,8.239,8.239,0,1,1,1.354,1.769.513.513,0,1,0-.724.726,9.259,9.259,0,0,0,15.785-6.547,9.176,9.176,0,0,0-.631-3.353l4.255-2.325a6.987,6.987,0,0,0,1.654,1.773A6.934,6.934,0,1,0,28.442,9.29Z" fill="#0062cf"/>
    <path id="Path_698" data-name="Path 698" d="M65.47,292.716a.35.35,0,0,1-.128-.256,2.333,2.333,0,0,0-2.6-2.28.385.385,0,0,1-.314-.108,2.333,2.333,0,0,0-3.261,0,.385.385,0,0,1-.313.108,2.333,2.333,0,0,0-2.568,1.952,2.382,2.382,0,0,0-.028.328.351.351,0,0,1-.128.257,2.339,2.339,0,0,0-.823,2,2.307,2.307,0,0,0,.432,1.147,1.494,1.494,0,0,0-.313,1.1,2.229,2.229,0,0,0,1.3,1.908,4.22,4.22,0,0,0,8.126-.019,2.262,2.262,0,0,0,1.243-1.889,1.538,1.538,0,0,0-.272-1.047,2.3,2.3,0,0,0,.469-1.2A2.339,2.339,0,0,0,65.47,292.716Zm-8.679.784a1.369,1.369,0,0,0,.494-1.024,1.354,1.354,0,0,1,.016-.186,1.313,1.313,0,0,1,1.208-1.1,1.326,1.326,0,0,1,.233.006,1.405,1.405,0,0,0,1.145-.393,1.309,1.309,0,0,1,1.829,0,1.4,1.4,0,0,0,1.145.393,1.326,1.326,0,0,1,.233-.006,1.313,1.313,0,0,1,1.208,1.1,1.351,1.351,0,0,1,.016.186,1.369,1.369,0,0,0,.494,1.024,1.3,1.3,0,0,1,.152,1.851,3.273,3.273,0,0,0-3.228-2.735H59.841a3.273,3.273,0,0,0-3.224,2.709,1.3,1.3,0,0,1,.174-1.825Zm8.284,3.388c-.04.54-.434,1.019-.651,1.021a.512.512,0,0,0-.5.416,3.2,3.2,0,0,1-6.276,0,.512.512,0,0,0-.5-.416H57.1c-.217,0-.613-.492-.652-1.021a.45.45,0,0,1,.109-.4.706.706,0,0,1,.437-.156.335.335,0,0,1,.049,0,.512.512,0,0,0,.549-.5,2.262,2.262,0,0,1,2.248-2.193h1.893a2.235,2.235,0,0,1,2.248,2.192.512.512,0,0,0,.512.5h.037C65.112,296.376,65.087,296.722,65.075,296.888Z" transform="translate(-51.079 -269.679)" fill="#0062cf"/>
    <circle id="Ellipse_106" data-name="Ellipse 106" cx="0.498" cy="0.498" r="0.498" transform="translate(7.651 26.269)" fill="#0062cf"/>
    <circle id="Ellipse_107" data-name="Ellipse 107" cx="0.498" cy="0.498" r="0.498" transform="translate(10.804 26.269)" fill="#0062cf"/>
    <path id="Path_699" data-name="Path 699" d="M119.708,420.284h-2.215a.166.166,0,0,0-.155.226,1.354,1.354,0,0,0,2.524,0A.166.166,0,0,0,119.708,420.284Z" transform="translate(-108.863 -391.634)" fill="#0062cf"/>
    <path id="Path_700" data-name="Path 700" d="M346.706,179.206a3.48,3.48,0,0,0,6.757-.021,1.947,1.947,0,0,0,.969-1.56,1.255,1.255,0,0,0-.876-1.352,3.48,3.48,0,0,0-6.948-.013,1.257,1.257,0,0,0-.918,1.365A1.927,1.927,0,0,0,346.706,179.206Zm.348-1.992h.025a.512.512,0,0,0,.548-.511v-.234a2.455,2.455,0,0,1,4.911,0v.232a.512.512,0,0,0,.512.512h.019c.365.027.352.205.343.335a.893.893,0,0,1-.42.722.512.512,0,0,0-.478.44,2.455,2.455,0,0,1-4.86,0,.512.512,0,0,0-.507-.44h-.013c-.1,0-.391-.34-.419-.722C346.7,177.419,346.689,177.241,347.054,177.214Z" transform="translate(-321.606 -161.198)" fill="#0062cf"/>
    <path id="Path_701" data-name="Path 701" d="M395.76,260.933a1.538,1.538,0,0,0,1.761,0,.211.211,0,0,0-.126-.382h-1.508A.211.211,0,0,0,395.76,260.933Z" transform="translate(-368.197 -242.79)" fill="#0062cf"/>
    <path id="Path_702" data-name="Path 702" d="M154.427,42.026a1.032,1.032,0,0,0-.66,1.09,1.53,1.53,0,0,0,.744,1.219,2.621,2.621,0,0,0,5.053-.018,1.547,1.547,0,0,0,.71-1.2,1.031,1.031,0,0,0-.63-1.077,2.621,2.621,0,0,0-5.217-.013Zm4.2.258v.165a.515.515,0,0,0,.515.512h0a.286.286,0,0,1,.1.024.226.226,0,0,1,0,.056.592.592,0,0,1-.184.378.512.512,0,0,0-.453.438,1.6,1.6,0,0,1-3.16,0,.512.512,0,0,0-.485-.44.6.6,0,0,1-.181-.376.221.221,0,0,1,0-.056.278.278,0,0,1,.1-.024.512.512,0,0,0,.548-.511v-.166a1.6,1.6,0,0,1,3.193,0Z" transform="translate(-142.807 -36.959)" fill="#0062cf"/>
    <circle id="Ellipse_108" data-name="Ellipse 108" cx="0.487" cy="0.487" r="0.487" transform="translate(26.671 15.733)" fill="#0062cf"/>
    <circle id="Ellipse_109" data-name="Ellipse 109" cx="0.487" cy="0.487" r="0.487" transform="translate(29.25 15.733)" fill="#0062cf"/>
  </g>
</svg>
