<svg xmlns="http://www.w3.org/2000/svg" width="33.207" height="33.204" viewBox="0 0 33.207 33.204">
  <g id="Global" transform="translate(-2 -1.999)">
    <path id="Path_727" data-name="Path 727" d="M40.981,19.962A4.981,4.981,0,1,0,36,14.981,4.981,4.981,0,0,0,40.981,19.962Zm0-8.855a3.874,3.874,0,1,1-3.874,3.874,3.874,3.874,0,0,1,3.874-3.874Z" transform="translate(-15.183 -3.573)" fill="#0062cf"/>
    <path id="Path_728" data-name="Path 728" d="M35.207,11.408A9.393,9.393,0,0,0,19.584,4.362,14.875,14.875,0,0,0,17.5,4.213,15.492,15.492,0,0,0,2.891,24.883c0,.011.007.022.011.033A15.5,15.5,0,0,0,32.993,19.71a14.879,14.879,0,0,0-.123-1.9C34.2,15.462,35.207,13.124,35.207,11.408Zm-1.107,0c0,4.036-6.552,12.447-8.3,14.62-1.75-2.174-8.3-10.58-8.3-14.62a8.3,8.3,0,0,1,16.6,0ZM13.069,6.02v.96a.553.553,0,0,1-.553.553,1.669,1.669,0,0,0-1.66,1.66v2.767a.553.553,0,0,1-.553.553H8.088a1.66,1.66,0,1,0,0,3.321h5.534a1.66,1.66,0,0,1,1.66,1.66v1.66a1.66,1.66,0,0,1-1.66,1.66h-.553a1.678,1.678,0,0,0-1.328.664l-1.107,1.474a1.656,1.656,0,0,0-.332,1v4.379l-.913-.913a1.121,1.121,0,0,1-.3-.564l-.277-1.384A1.666,1.666,0,0,0,7.18,24.138H3.807A14.38,14.38,0,0,1,13.069,6.02ZM4.214,25.244H7.18a.553.553,0,0,1,.542.446L8,27.077A2.219,2.219,0,0,0,8.6,28.2l.914.915a1.107,1.107,0,0,0,1.891-.78V23.955a.538.538,0,0,1,.111-.332l1.107-1.475a.563.563,0,0,1,.443-.224h.553a2.771,2.771,0,0,0,2.767-2.767V17.5a2.771,2.771,0,0,0-2.767-2.767H8.088a.539.539,0,0,1-.394-.169.53.53,0,0,1-.159-.384.553.553,0,0,1,.553-.553H10.3a1.66,1.66,0,0,0,1.66-1.66V9.194a.539.539,0,0,1,.169-.394.53.53,0,0,1,.384-.159,1.66,1.66,0,0,0,1.66-1.66V5.712A14.347,14.347,0,0,1,17.5,5.32c.378,0,.744.014,1.107.041a9.36,9.36,0,0,0-2.214,6.047c0,3.265,3.621,8.77,6.268,12.362a1.649,1.649,0,0,0-.881,1.2l-.244,1.472a.553.553,0,0,1-.544.462H18.8a1.11,1.11,0,0,0-.709.256l-2.487,2.078a1.641,1.641,0,0,0-.427,2.02l.656,1.311V34A14.425,14.425,0,0,1,4.214,25.244ZM17.5,34.1c-.185,0-.37-.007-.553-.014V32.439a.553.553,0,0,0-.058-.247l-.717-1.43a.543.543,0,0,1,.143-.67l2.491-2.08h2.186a1.654,1.654,0,0,0,1.637-1.387l.244-1.472a.553.553,0,0,1,.485-.451c1.1,1.447,1.912,2.429,2.019,2.557a.553.553,0,0,0,.85,0c.107-.129.926-1.116,2.027-2.569h1.333a.558.558,0,0,1,.473.264l.489.81A14.406,14.406,0,0,1,17.5,34.1Zm14.39-14.39a14.327,14.327,0,0,1-.819,4.778L31,24.381a1.671,1.671,0,0,0-1.418-.8h-.508c.892-1.218,1.882-2.638,2.8-4.111C31.88,19.553,31.886,19.63,31.886,19.71Z" transform="translate(0 0)" fill="#0062cf"/>
  </g>
</svg>
