<svg id="fileupload" xmlns="http://www.w3.org/2000/svg" width="43.807" height="48.153" viewBox="0 0 43.807 48.153">
  <path id="Path_689" data-name="Path 689" d="M32.818,20.845V11.732a1.055,1.055,0,0,0-.291-.692L22.31.311A1.018,1.018,0,0,0,21.577,0H5.379A5.4,5.4,0,0,0,0,5.429v30.63a5.363,5.363,0,0,0,5.379,5.389H18.165a13.8,13.8,0,1,0,14.652-20.6ZM22.581,3.523l6.854,7.216H24.99A2.424,2.424,0,0,1,22.581,8.32ZM5.379,39.441a3.362,3.362,0,0,1-3.372-3.382V5.429A3.39,3.39,0,0,1,5.379,2.007H20.574V8.32a4.424,4.424,0,0,0,4.416,4.426H30.81v7.838c-.3-.01-.542-.04-.8-.04A14,14,0,0,0,20.855,24H8.109a1,1,0,1,0,0,2.007H18.988a15.968,15.968,0,0,0-1.766,3.111H8.109a1,1,0,0,0,0,2.007h8.46a13.773,13.773,0,0,0,.6,8.33H5.379ZM30,46.156A11.792,11.792,0,1,1,41.79,34.363,11.8,11.8,0,0,1,30,46.156Zm0,0" fill="#0062cf"/>
  <path id="Path_690" data-name="Path 690" d="M76.554,203.691H86.721a1,1,0,1,0,0-2.007H76.554a1,1,0,1,0,0,2.007Zm0,0" transform="translate(-68.445 -182.716)" fill="#0062cf"/>
  <path id="Path_691" data-name="Path 691" d="M253.175,283.532a1,1,0,0,0-1.465,0l-5.881,6.313a1,1,0,0,0,.05,1.415,1.025,1.025,0,0,0,1.435-.05l4.155-4.446v10.959a1,1,0,1,0,2.007,0V286.764l4.125,4.446a1,1,0,0,0,1.465-1.365Zm0,0" transform="translate(-222.465 -256.576)" fill="#0062cf"/>
</svg>
