<svg xmlns="http://www.w3.org/2000/svg" width="34" height="34" viewBox="0 0 34 34">
  <g id="Group_512" data-name="Group 512" transform="translate(-1365 -793)">
    <rect id="Rectangle_85" data-name="Rectangle 85" width="34" height="34" transform="translate(1365 793)" fill="none"/>
    <path id="Path_197" data-name="Path 197" d="M17.364,38.733A1.365,1.365,0,0,1,16,37.369V22.364A1.365,1.365,0,0,1,17.364,21h19.1a1.365,1.365,0,0,1,1.364,1.364V37.369a1.365,1.365,0,0,1-1.364,1.364Z" transform="translate(1355.5 786.272)" fill="none" stroke="#0062cf" stroke-linecap="round" stroke-miterlimit="10" stroke-width="2"/>
    <path id="Path_198" data-name="Path 198" d="M35.641,15.595V10.82A6.82,6.82,0,0,0,22,10.82v4.774" transform="translate(1353.5 791.677)" fill="none" stroke="#0062cf" stroke-linecap="round" stroke-miterlimit="10" stroke-width="2"/>
    <path id="Path_199" data-name="Path 199" d="M33.092,31.046a2.046,2.046,0,1,0-3.41,1.516v1.895a1.364,1.364,0,1,0,2.728,0V32.562A2.035,2.035,0,0,0,33.092,31.046Z" transform="translate(1351 783.728)" fill="#0062cf"/>
  </g>
</svg>
