<svg xmlns="http://www.w3.org/2000/svg" width="34" height="34" viewBox="0 0 34 34">
  <g id="mail" transform="translate(-0.001 -0.004)">
    <g id="Group_508" data-name="Group 508" transform="translate(0.001 0.004)">
      <g id="Group_507" data-name="Group 507" transform="translate(0 0)">
        <path id="Path_733" data-name="Path 733" d="M33.994,13a.536.536,0,0,0-.023-.115.567.567,0,0,0-.032-.1.508.508,0,0,0-.057-.087.534.534,0,0,0-.075-.088c-.009-.008-.013-.019-.023-.027l-5.45-4.233V3.969a1.7,1.7,0,0,0-1.7-1.7H20.493L18.034.36a1.68,1.68,0,0,0-2.067,0L13.508,2.269H7.366a1.7,1.7,0,0,0-1.7,1.7V8.356L.218,12.589c-.01.008-.014.019-.023.027A.532.532,0,0,0,.12,12.7a.506.506,0,0,0-.057.087.559.559,0,0,0-.032.1A.537.537,0,0,0,.008,13c0,.012-.007.022-.007.034V32.3a1.681,1.681,0,0,0,.333,1c0,.005,0,.011.008.016s.012.01.018.016A1.692,1.692,0,0,0,1.7,34H32.3a1.692,1.692,0,0,0,1.344-.671c0-.006.011-.007.015-.013s0-.011.008-.016a1.681,1.681,0,0,0,.333-1V13.036C34,13.025,33.995,13.014,33.994,13ZM16.66,1.254a.543.543,0,0,1,.676,0l1.307,1.015H15.357ZM1.842,32.871,16.66,21.361a.544.544,0,0,1,.676,0l14.822,11.51Zm31.025-.884L18.034,20.466a1.681,1.681,0,0,0-2.067,0L1.133,31.988V13.9l9.286,7.211a.567.567,0,0,0,.695-.9L1.68,12.889l3.987-3.1V14.17a.567.567,0,1,0,1.133,0V3.969A.567.567,0,0,1,7.366,3.4H26.634a.567.567,0,0,1,.567.567v10.2a.567.567,0,1,0,1.133,0V9.791l3.987,3.1L22.87,20.228a.567.567,0,1,0,.695.9l9.3-7.224V31.988Z" transform="translate(-0.001 -0.004)" fill="#0062cf"/>
        <path id="Path_734" data-name="Path 734" d="M164.764,75.7V73.832a5.6,5.6,0,1,0-5.6,5.6.466.466,0,0,0,0-.932,4.663,4.663,0,1,1,4.663-4.663V75.7a.933.933,0,0,1-1.865,0V73.832a.466.466,0,1,0-.932,0,1.865,1.865,0,1,1-1.865-1.865.466.466,0,1,0,0-.932,2.8,2.8,0,1,0,1.885,4.859,1.86,1.86,0,0,0,3.71-.2Z" transform="translate(-142.17 -64.509)" fill="#0062cf"/>
      </g>
    </g>
  </g>
</svg>
