<svg id="smartphone" xmlns="http://www.w3.org/2000/svg" width="25.01" height="42" viewBox="0 0 25.01 42">
  <path id="Path_729" data-name="Path 729" d="M21.719,0H3.291A3.344,3.344,0,0,0,0,3.387V38.613A3.344,3.344,0,0,0,3.291,42H21.719a3.344,3.344,0,0,0,3.291-3.387V3.387A3.344,3.344,0,0,0,21.719,0ZM1.316,6.774H23.694v27.1H1.316Zm0-3.387A2,2,0,0,1,3.291,1.355H21.719a2,2,0,0,1,1.974,2.032V5.419H1.316ZM23.694,38.613a2,2,0,0,1-1.974,2.032H3.291a2,2,0,0,1-1.974-2.032V35.226H23.694Zm0,0" fill="#0062cf"/>
  <path id="Path_730" data-name="Path 730" d="M110.774,32h-6.1a.677.677,0,1,0,0,1.355h6.1a.677.677,0,1,0,0-1.355Zm0,0" transform="translate(-95.546 -29.29)" fill="#0062cf"/>
  <path id="Path_731" data-name="Path 731" d="M201.355,32h-.677a.677.677,0,1,0,0,1.355h.677a.677.677,0,0,0,0-1.355Zm0,0" transform="translate(-183.587 -29.29)" fill="#0062cf"/>
  <path id="Path_732" data-name="Path 732" d="M130.032,428.065A2.032,2.032,0,1,0,128,426.032,2.032,2.032,0,0,0,130.032,428.065Zm0-2.71a.677.677,0,1,1-.677.677A.677.677,0,0,1,130.032,425.355Zm0,0" transform="translate(-117.527 -388.097)" fill="#0062cf"/>
</svg>
