<svg xmlns="http://www.w3.org/2000/svg" width="33.002" height="32.455" viewBox="0 0 33.002 32.455">
  <g id="pin" transform="translate(0 -5.246)">
    <g id="Group_511" data-name="Group 511" transform="translate(0 5.246)">
      <g id="Group_510" data-name="Group 510" transform="translate(0 0)">
        <path id="Path_736" data-name="Path 736" d="M90.666,27.562c1.359,1.916,2.716,3.63,3.615,4.734.131.161.254.31.372.453H91.94a.55.55,0,1,0,0,1.1h8.8a.55.55,0,1,0,0-1.1H98.027L98.4,32.3c.9-1.1,2.255-2.818,3.615-4.734a48.327,48.327,0,0,0,3.634-5.856,12.863,12.863,0,0,0,1.693-5.443,10.993,10.993,0,0,0-3.222-7.789.55.55,0,1,0-.778.777,9.9,9.9,0,0,1,2.9,7.012,11.857,11.857,0,0,1-1.573,4.943,47.235,47.235,0,0,1-3.551,5.72c-1.341,1.892-2.681,3.586-3.57,4.675-.3.362-.561.682-.788.953a.557.557,0,0,1-.838,0c-.227-.271-.492-.591-.788-.953-.888-1.088-2.229-2.783-3.57-4.675a47.236,47.236,0,0,1-3.551-5.72,11.841,11.841,0,0,1-1.573-4.943A9.9,9.9,0,0,1,100.2,7.127a.55.55,0,0,0,.43-1.013A11,11,0,0,0,85.34,16.264a12.884,12.884,0,0,0,1.693,5.445A48.294,48.294,0,0,0,90.666,27.562Z" transform="translate(-79.839 -5.246)" fill="#0062cf"/>
        <path id="Path_737" data-name="Path 737" d="M176.161,83.185a.55.55,0,1,0,0-1.1A5.5,5.5,0,1,0,180.05,83.7a.55.55,0,1,0-.778.778,4.4,4.4,0,1,1-3.112-1.289Z" transform="translate(-159.659 -77.132)" fill="#0062cf"/>
        <path id="Path_738" data-name="Path 738" d="M32.8,370.6l-3.383-6.05a1.71,1.71,0,0,0-1.5-.864H24a.55.55,0,0,0,0,1.1h3.92a.61.61,0,0,1,.537.3l3.382,6.05a.5.5,0,0,1,0,.508.605.605,0,0,1-.532.292H1.706a.605.605,0,0,1-.532-.292.5.5,0,0,1,0-.508l3.382-6.05a.609.609,0,0,1,.537-.3h3.92a.55.55,0,0,0,0-1.1H5.087a1.711,1.711,0,0,0-1.5.864L.207,370.6a1.6,1.6,0,0,0,.017,1.6,1.694,1.694,0,0,0,1.481.835H31.3a1.694,1.694,0,0,0,1.481-.835A1.6,1.6,0,0,0,32.8,370.6Z" transform="translate(0 -340.58)" fill="#0062cf"/>
        <path id="Path_739" data-name="Path 739" d="M354.269,406.351h-2.2a.553.553,0,0,0-.305.092l-1.65,1.1a.55.55,0,0,0,.611.915l1.51-1.008h2.035a.55.55,0,0,0,0-1.1Z" transform="translate(-327.317 -380.497)" fill="#0062cf"/>
        <path id="Path_740" data-name="Path 740" d="M366.937,458.1a.55.55,0,0,0,.55.55h4.4a.55.55,0,0,0,0-1.1h-4.4A.55.55,0,0,0,366.937,458.1Z" transform="translate(-343.285 -428.397)" fill="#0062cf"/>
        <path id="Path_741" data-name="Path 741" d="M89.737,408.55a.55.55,0,0,0,.306-1.008l-1.65-1.1a.553.553,0,0,0-.306-.092h-2.2a.55.55,0,0,0,0,1.1h2.035l1.512,1.008A.549.549,0,0,0,89.737,408.55Z" transform="translate(-79.836 -380.496)" fill="#0062cf"/>
        <path id="Path_742" data-name="Path 742" d="M60.287,457.551a.55.55,0,0,0,0,1.1h4.4a.55.55,0,0,0,0-1.1Z" transform="translate(-55.887 -428.397)" fill="#0062cf"/>
      </g>
    </g>
  </g>
</svg>
