<svg id="town" xmlns="http://www.w3.org/2000/svg" width="34" height="34" viewBox="0 0 34 34">
  <g id="Group_506" data-name="Group 506">
    <g id="Group_505" data-name="Group 505">
      <path id="Path_709" data-name="Path 709" d="M136.867,477.867h-16.8a.6.6,0,0,0-.6.6v1.2a.6.6,0,0,0,1.2,0v-.6h16.2a.6.6,0,0,0,0-1.2Z" transform="translate(-112 -446.267)" fill="#0062cf"/>
      <path id="Path_710" data-name="Path 710" d="M187.733,157.8a.6.6,0,0,0,.6.6h2.4a.6.6,0,0,0,.6-.6v-3.6a.6.6,0,0,0-.6-.6h-2.4a.6.6,0,0,0-.6.6v3.6Zm1.2-3h1.2v2.4h-1.2Z" transform="translate(-175.348 -143.492)" fill="#0062cf"/>
      <path id="Path_711" data-name="Path 711" d="M7.8,102.4H.6a.6.6,0,0,0-.6.6v12a.6.6,0,0,0,1.2,0V103.6H7.8a.6.6,0,0,0,0-1.2Z" transform="translate(0 -95.832)" fill="#0062cf"/>
      <path id="Path_712" data-name="Path 712" d="M409.6,362.6a.6.6,0,0,0,.6.6h2.4a.6.6,0,0,0,.6-.6V359a.6.6,0,0,0-.6-.6h-2.4a.6.6,0,0,0-.6.6Zm1.2-3H412V362h-1.2Z" transform="translate(-382.8 -334.815)" fill="#0062cf"/>
      <path id="Path_713" data-name="Path 713" d="M3,307.2c-2.966,0-3,7.722-3,7.8a3.005,3.005,0,0,0,2.4,2.939V321a.6.6,0,0,0,1.2,0v-3.061A3.005,3.005,0,0,0,6,315C6,314.922,5.966,307.2,3,307.2Zm0,9.6A1.8,1.8,0,0,1,1.2,315c0-2.989.8-6.6,1.8-6.6s1.8,3.611,1.8,6.6A1.8,1.8,0,0,1,3,316.8Z" transform="translate(0 -287.6)" fill="#0062cf"/>
      <path id="Path_714" data-name="Path 714" d="M54.2,256H51.8a.6.6,0,0,0-.6.6v1.2a.6.6,0,0,0,1.2,0v-.6h1.2v3a.6.6,0,0,0,1.2,0v-3.6A.6.6,0,0,0,54.2,256Z" transform="translate(-47.6 -239.154)" fill="#0062cf"/>
      <path id="Path_715" data-name="Path 715" d="M410.2,158.4h2.4a.6.6,0,0,0,.6-.6v-3.6a.6.6,0,0,0-.6-.6h-2.4a.6.6,0,0,0-.6.6v3.6A.6.6,0,0,0,410.2,158.4Zm.6-3.6H412v2.4h-1.2Z" transform="translate(-382.8 -143.493)" fill="#0062cf"/>
      <path id="Path_716" data-name="Path 716" d="M54.2,153.6H51.8a.6.6,0,0,0-.6.6v3.6a.6.6,0,0,0,.6.6h2.4a.6.6,0,0,0,.6-.6v-3.6A.6.6,0,0,0,54.2,153.6Zm-.6,3.6H52.4v-2.4h1.2v2.4Z" transform="translate(-47.6 -143.492)" fill="#0062cf"/>
      <path id="Path_717" data-name="Path 717" d="M273.067,157.8a.6.6,0,0,0,.6.6h2.4a.6.6,0,0,0,.6-.6v-3.6a.6.6,0,0,0-.6-.6h-2.4a.6.6,0,0,0-.6.6Zm1.2-3h1.2v2.4h-1.2Z" transform="translate(-255.052 -143.492)" fill="#0062cf"/>
      <path id="Path_718" data-name="Path 718" d="M400.334,102.4h-7.2a.6.6,0,0,0,0,1.2h6.6v24.11a1.714,1.714,0,0,0-.908-.083,2.4,2.4,0,0,0-4.183,0,1.764,1.764,0,0,0-.308-.027,1.8,1.8,0,0,0,0,3.6h4.8a1.8,1.8,0,0,0,1.8-1.8V103A.6.6,0,0,0,400.334,102.4Zm-1.2,27.6h-4.8a.6.6,0,0,1,0-1.2.593.593,0,0,1,.325.1.6.6,0,0,0,.91-.369,1.2,1.2,0,0,1,2.33,0,.6.6,0,0,0,.91.369.612.612,0,0,1,.925.5A.6.6,0,0,1,399.134,130Z" transform="translate(-366.934 -97.2)" fill="#0062cf"/>
      <path id="Path_719" data-name="Path 719" d="M273.667,56h2.4a.6.6,0,0,0,.6-.6V51.8a.6.6,0,0,0-.6-.6h-2.4a.6.6,0,0,0-.6.6v3.6A.6.6,0,0,0,273.667,56Zm.6-3.6h1.2v2.4h-1.2Z" transform="translate(-255.052 -47.601)" fill="#0062cf"/>
      <path id="Path_720" data-name="Path 720" d="M273.067,260.2a.6.6,0,0,0,.6.6h2.4a.6.6,0,0,0,.6-.6v-3.6a.6.6,0,0,0-.6-.6h-2.4a.6.6,0,0,0-.6.6Zm1.2-3h1.2v2.4h-1.2Z" transform="translate(-255.052 -239.154)" fill="#0062cf"/>
      <path id="Path_721" data-name="Path 721" d="M188.334,56h2.4a.6.6,0,0,0,.6-.6V51.8a.6.6,0,0,0-.6-.6h-2.4a.6.6,0,0,0-.6.6v3.6A.6.6,0,0,0,188.334,56Zm.6-3.6h1.2v2.4h-1.2Z" transform="translate(-175.349 -47.601)" fill="#0062cf"/>
      <path id="Path_722" data-name="Path 722" d="M247.64,409.873a.6.6,0,1,0,.852,0A.631.631,0,0,0,247.64,409.873Z" transform="translate(-231.066 -382.722)" fill="#0062cf"/>
      <path id="Path_723" data-name="Path 723" d="M187.733,260.2a.6.6,0,0,0,.6.6h2.4a.6.6,0,0,0,.6-.6v-3.6a.6.6,0,0,0-.6-.6h-2.4a.6.6,0,0,0-.6.6v3.6Zm1.2-3h1.2v2.4h-1.2Z" transform="translate(-175.348 -239.154)" fill="#0062cf"/>
      <path id="Path_724" data-name="Path 724" d="M170.667,359a.6.6,0,0,0,.6.6h1.8V365a.6.6,0,0,0,1.2,0v-5.4h4.8V365a.6.6,0,0,0,1.2,0v-5.4h1.8a.6.6,0,0,0,0-1.2h-10.8A.6.6,0,0,0,170.667,359Z" transform="translate(-159.667 -335.2)" fill="#0062cf"/>
      <path id="Path_725" data-name="Path 725" d="M409.6,260.2a.6.6,0,0,0,.6.6h2.4a.6.6,0,0,0,.6-.6v-3.6a.6.6,0,0,0-.6-.6h-2.4a.6.6,0,0,0-.6.6Zm1.2-3H412v2.4h-1.2Z" transform="translate(-382.8 -239.154)" fill="#0062cf"/>
      <path id="Path_726" data-name="Path 726" d="M152.734,0h-15.6a.583.583,0,0,0-.6.563V29.837a.6.6,0,0,0,1.2,0V1.126h14.4V29.837a.6.6,0,0,0,1.2,0V.563A.582.582,0,0,0,152.734,0Z" transform="translate(-127.934)" fill="#0062cf"/>
    </g>
  </g>
</svg>
