<svg xmlns="http://www.w3.org/2000/svg" width="34" height="34" viewBox="0 0 34 34">
  <path id="Zip_Code-595b40b65ba036ed117d0d5e" data-name="Zip Code-595b40b65ba036ed117d0d5e" d="M24,5.82,7,16.579v4.882l.788-.5.758-.48V39.82H39.455V20.483L41,21.461V16.579Zm0,1.231L39.97,17.158v2.422L24,9.472,8.03,19.579V17.158ZM24,10.7l14.424,9.129V36.169a.522.522,0,0,0,0,1.043v1.565H9.576V37.212a.522.522,0,0,0,0-1.043V19.83ZM15.244,22.6v1.5h3.35v.1l-3.406,4.564v1.186h5.725v-1.5H17.4v-.1l3.406-4.564V22.6Zm7.7,0v7.351H24.79V22.6Zm4.072,0v7.351h1.846V27.794h1.222a2.518,2.518,0,0,0,2.727-2.588A2.466,2.466,0,0,0,30.195,22.6Zm1.846,1.437h.845a1.176,1.176,0,1,1-.01,2.348h-.835ZM11.636,36.169a.522.522,0,1,0,.515.522A.518.518,0,0,0,11.636,36.169Zm2.061,0a.522.522,0,1,0,.515.522A.518.518,0,0,0,13.7,36.169Zm2.061,0a.522.522,0,1,0,.515.522A.518.518,0,0,0,15.758,36.169Zm2.061,0a.522.522,0,1,0,.515.522A.518.518,0,0,0,17.818,36.169Zm2.061,0a.522.522,0,1,0,.515.522A.518.518,0,0,0,19.879,36.169Zm2.061,0a.522.522,0,1,0,.515.522A.518.518,0,0,0,21.939,36.169Zm2.061,0a.522.522,0,1,0,.515.522A.518.518,0,0,0,24,36.169Zm2.061,0a.522.522,0,1,0,.515.522A.518.518,0,0,0,26.061,36.169Zm2.061,0a.522.522,0,1,0,.515.522A.518.518,0,0,0,28.121,36.169Zm2.061,0a.522.522,0,1,0,.515.522A.518.518,0,0,0,30.182,36.169Zm2.061,0a.522.522,0,1,0,.515.522A.518.518,0,0,0,32.242,36.169Zm2.061,0a.522.522,0,1,0,.515.522A.518.518,0,0,0,34.3,36.169Zm2.061,0a.522.522,0,1,0,.515.522A.518.518,0,0,0,36.364,36.169Z" transform="translate(-7 -5.82)" fill="#0062cf"/>
</svg>
