<svg id="Layer_1" data-name="Layer 1" xmlns="http://www.w3.org/2000/svg" viewBox="0 0 22 22"><defs><style>.cls-1{fill:none;stroke:#808998;stroke-linecap:round;stroke-linejoin:round;stroke-width:1.5px;}.cls-2{fill:#00a1e4;stroke:#00a1e4;stroke-miterlimit:10;stroke-width:0.6px;}</style></defs><title>UpdateUser-hover</title><path class="cls-1" d="M12.22,19.82V18.44a2.77,2.77,0,0,0-2.77-2.78H4.6a2.78,2.78,0,0,0-2.78,2.78v1.38"/><circle class="cls-1" cx="7.02" cy="10.12" r="2.77"/><polygon class="cls-2" points="18.68 2.28 17.99 2.93 17.11 2.93 18.68 1.4 20.22 2.98 19.34 2.98 18.68 2.28"/><polyline class="cls-2" points="18.68 1.4 20.22 2.98 19.34 2.98 18.68 2.28 17.99 2.93"/><polygon class="cls-2" points="18.68 4.21 17.99 4.89 17.11 4.89 18.68 3.35 20.22 4.89 19.34 4.89 18.68 4.21"/><g id="Layer_1-2" data-name="Layer 1"><path class="cls-2" d="M18.25,5.82a3,3,0,1,1-3.73-3.11V2a3.68,3.68,0,1,0,4.4,3.8Z"/></g></svg>