<svg id="Layer_1" data-name="Layer 1" xmlns="http://www.w3.org/2000/svg" viewBox="0 0 22 22"><defs><style>.cls-1{fill:none;stroke:#808998;stroke-linecap:round;stroke-linejoin:round;stroke-width:1.5px;}.cls-2{fill:#808998;}</style></defs><title>Copy</title><ellipse class="cls-1" cx="7.6" cy="9.95" rx="5.32" ry="1.77"/><path class="cls-1" d="M12.91,14.08c0,1-2.36,1.78-5.31,1.78s-5.32-.8-5.32-1.78"/><path class="cls-1" d="M2.28,10v8.27c0,1,2.36,1.77,5.32,1.77s5.31-.79,5.31-1.77V10"/><line class="cls-1" x1="7.78" y1="17.96" x2="7.78" y2="17.96"/><line class="cls-1" x1="7.74" y1="13.9" x2="7.74" y2="13.9"/><path class="cls-2" d="M13.73,2c-2.89,0-6,.76-6,2.45V6.84l1.36.09V6.08a11.56,11.56,0,0,0,4.64.83,11.63,11.63,0,0,0,4.64-.83v2.5c-.1.29-1.41,1-4,1.09V11a11,11,0,0,0,4-.81v2.49c-.1.3-1.43,1-4,1.09l0,1.37c2.7-.1,5.38-.88,5.38-2.44V4.46C19.72,2.77,16.61,2,13.73,2Zm0,3.54c-3,0-4.54-.8-4.64-1.07h0c.1-.31,1.68-1.11,4.64-1.11s4.54.81,4.64,1.08C18.27,4.75,16.69,5.55,13.73,5.55Z"/></svg>