<svg id="Layer_1" data-name="Layer 1" xmlns="http://www.w3.org/2000/svg" viewBox="0 0 22 22"><defs><style>.cls-1,.cls-2{fill:none;stroke:#808998;stroke-linecap:round;stroke-linejoin:round;}.cls-1{stroke-width:1.3px;}.cls-2{stroke-width:1.5px;}</style></defs><title>DB-User</title><path class="cls-1" d="M20.1,7.65V7a1.31,1.31,0,0,0-1.31-1.31h-2.3A1.31,1.31,0,0,0,15.18,7v.66"/><circle class="cls-1" cx="17.64" cy="3.06" r="1.31"/><ellipse class="cls-2" cx="7.21" cy="10.21" rx="5.32" ry="1.77"/><path class="cls-2" d="M12.53,14.35c0,1-2.36,1.77-5.32,1.77S1.9,15.33,1.9,14.35"/><path class="cls-2" d="M1.9,10.21v8.27c0,1,2.36,1.77,5.31,1.77s5.32-.79,5.32-1.77V10.21"/><line class="cls-2" x1="7.4" y1="18.22" x2="7.4" y2="18.22"/><line class="cls-2" x1="7.35" y1="14.16" x2="7.35" y2="14.16"/></svg>