<svg id="Layer_1" data-name="Layer 1" xmlns="http://www.w3.org/2000/svg" viewBox="0 0 22 22"><defs><style>.cls-1{opacity:0.5;}.cls-2,.cls-3{fill:#fd6363;stroke:#fd6363;stroke-miterlimit:10;}.cls-3{stroke-width:0.4px;}.cls-4{fill:none;stroke:#808998;stroke-linecap:round;stroke-linejoin:round;stroke-width:1.5px;}</style></defs><title>DBBackup-hover</title><g class="cls-1"><g id="Layer_1-2" data-name="Layer 1"><path class="cls-2" d="M20.35,4.93a.13.13,0,0,0-.12-.08h-.41a3,3,0,1,0-.35,2A.27.27,0,1,0,19,6.62a2.44,2.44,0,1,1,.27-1.77h-.4a.16.16,0,0,0-.13.08.16.16,0,0,0,0,.15l.68.81a.16.16,0,0,0,.11.05.12.12,0,0,0,.1-.05l.68-.81A.16.16,0,0,0,20.35,4.93Z"/><path class="cls-2" d="M16.89,3.09a.28.28,0,0,0-.28.27V5a.47.47,0,0,0,.28.86.71.71,0,0,0,.2,0l.94.54a.23.23,0,0,0,.14,0,.27.27,0,0,0,.13-.51l-.94-.55a.5.5,0,0,0-.2-.34V3.36A.27.27,0,0,0,16.89,3.09Zm0,2.51a.2.2,0,0,1-.21-.2.21.21,0,0,1,.21-.21.2.2,0,0,1,.2.21A.2.2,0,0,1,16.89,5.6Z"/></g></g><g id="Layer_1-3" data-name="Layer 1"><path class="cls-3" d="M20.35,4.93a.13.13,0,0,0-.12-.08h-.41a3,3,0,1,0-.35,2A.27.27,0,1,0,19,6.62a2.44,2.44,0,1,1,.27-1.77h-.4a.16.16,0,0,0-.13.08.16.16,0,0,0,0,.15l.68.81a.16.16,0,0,0,.11.05.12.12,0,0,0,.1-.05l.68-.81A.16.16,0,0,0,20.35,4.93Z"/><path class="cls-3" d="M16.89,3.09a.28.28,0,0,0-.28.27V5a.47.47,0,0,0,.28.86.71.71,0,0,0,.2,0l.94.54a.23.23,0,0,0,.14,0,.27.27,0,0,0,.13-.51l-.94-.55a.5.5,0,0,0-.2-.34V3.36A.27.27,0,0,0,16.89,3.09Zm0,2.51a.2.2,0,0,1-.21-.2.21.21,0,0,1,.21-.21.2.2,0,0,1,.2.21A.2.2,0,0,1,16.89,5.6Z"/></g><ellipse class="cls-4" cx="7.34" cy="10.09" rx="5.32" ry="1.77"/><path class="cls-4" d="M12.66,14.23c0,1-2.36,1.77-5.32,1.77S2,15.21,2,14.23"/><path class="cls-4" d="M2,10.09v8.27c0,1,2.36,1.78,5.31,1.78s5.32-.8,5.32-1.78V10.09"/><line class="cls-4" x1="7.53" y1="18.1" x2="7.53" y2="18.1"/><line class="cls-4" x1="7.48" y1="14.04" x2="7.48" y2="14.04"/></svg>