<svg id="Layer_1" data-name="Layer 1" xmlns="http://www.w3.org/2000/svg" viewBox="0 0 22 22"><defs><style>.cls-1{opacity:0.5;}.cls-2,.cls-5,.cls-6{fill:none;stroke-linecap:round;stroke-linejoin:round;}.cls-2,.cls-3,.cls-5{stroke:#fd6363;}.cls-2{stroke-width:1.2px;}.cls-3,.cls-4{fill:#fd6363;}.cls-3{stroke-miterlimit:10;stroke-width:0.5px;}.cls-5{stroke-width:0.8px;}.cls-6{stroke:#808998;stroke-width:1.5px;}</style></defs><title>DBRestore-hover</title><g class="cls-1"><polyline class="cls-2" points="14.47 4.1 14.99 4.1 19.19 4.1"/><path class="cls-2" d="M18.66,4.1V7.77a.52.52,0,0,1-.52.52H15.52A.52.52,0,0,1,15,7.77V4.1m.79,0V3.57a.52.52,0,0,1,.52-.52h1.05a.52.52,0,0,1,.53.52V4.1"/><line class="cls-2" x1="16.3" y1="5.41" x2="16.3" y2="6.98"/><line class="cls-2" x1="17.35" y1="5.41" x2="17.35" y2="6.98"/></g><g class="cls-1"><path class="cls-3" d="M13.09,3.42c-.06,0-.05-.06,0-.1l0,0a1.22,1.22,0,0,1,1.81-.1s0,.06.07,0,0-.06,0-.08a1.56,1.56,0,0,0-1.23-.71,1.52,1.52,0,0,0-1.3.55.08.08,0,0,1-.13,0,1.91,1.91,0,0,0-.25-.13c.08.41.15.81.23,1.22l1.13-.5Z"/></g><path class="cls-4" d="M13.09,3.42c-.06,0-.05-.06,0-.1l0,0a1.22,1.22,0,0,1,1.81-.1s0,.06.07,0,0-.06,0-.08a1.56,1.56,0,0,0-1.23-.71,1.52,1.52,0,0,0-1.3.55.08.08,0,0,1-.13,0,1.91,1.91,0,0,0-.25-.13c.08.41.15.81.23,1.22l1.13-.5Z"/><polyline class="cls-5" points="14.47 4.1 14.99 4.1 19.19 4.1"/><path class="cls-5" d="M18.66,4.1V7.77a.52.52,0,0,1-.52.52H15.52A.52.52,0,0,1,15,7.77V4.1m.79,0V3.57a.52.52,0,0,1,.52-.52h1.05a.52.52,0,0,1,.53.52V4.1"/><line class="cls-5" x1="16.3" y1="5.41" x2="16.3" y2="6.98"/><line class="cls-5" x1="17.35" y1="5.41" x2="17.35" y2="6.98"/><ellipse class="cls-6" cx="8.13" cy="10.06" rx="5.32" ry="1.77"/><path class="cls-6" d="M13.45,14.19c0,1-2.37,1.78-5.32,1.78s-5.32-.79-5.32-1.78"/><path class="cls-6" d="M2.81,10.06v8.27c0,1,2.36,1.77,5.32,1.77s5.32-.79,5.32-1.77V10.06"/><line class="cls-6" x1="8.32" y1="18.07" x2="8.32" y2="18.07"/><line class="cls-6" x1="8.27" y1="14.01" x2="8.27" y2="14.01"/></svg>