<svg id="Layer_1" data-name="Layer 1" xmlns="http://www.w3.org/2000/svg" viewBox="0 0 22 22"><defs><style>.cls-1{opacity:0.5;}.cls-2,.cls-3{fill:#fd6363;}.cls-2{stroke:#fd6363;stroke-miterlimit:10;stroke-width:0.6px;}.cls-4{fill:none;stroke:#808998;stroke-linecap:round;stroke-linejoin:round;stroke-width:1.5px;}</style></defs><title>GrantDBPermission-hover</title><g class="cls-1"><path class="cls-2" d="M19.62,2.83a1.14,1.14,0,0,0-1-.66H17.26a1.13,1.13,0,0,0-1.06.71l-.07.22H13.36a.42.42,0,0,0-.3.12L12.33,4a.41.41,0,0,0,0,.59l.73.75a.44.44,0,0,0,.31.13h1.37a.43.43,0,0,0,0-.85h-1.2l-.32-.33.31-.32h2.9a.41.41,0,0,0,.41-.32c0-.14.08-.28.14-.44A.29.29,0,0,1,17.26,3h1.32a.3.3,0,0,1,.27.17,2.73,2.73,0,0,1,.25,1.08,2.87,2.87,0,0,1-.25,1.09.28.28,0,0,1-.27.17H17.25A.28.28,0,0,1,17,5.34a3,3,0,0,1-.13-.42.42.42,0,0,0-.51-.31.41.41,0,0,0-.31.51,3.44,3.44,0,0,0,.17.54,1.14,1.14,0,0,0,1.05.71h1.34a1.13,1.13,0,0,0,1-.68,3.65,3.65,0,0,0,.32-1.44A3.51,3.51,0,0,0,19.62,2.83Z"/><circle class="cls-2" cx="18.23" cy="4.26" r="0.42"/></g><path class="cls-3" d="M19.62,2.83a1.14,1.14,0,0,0-1-.66H17.26a1.13,1.13,0,0,0-1.06.71l-.07.22H13.36a.42.42,0,0,0-.3.12L12.33,4a.41.41,0,0,0,0,.59l.73.75a.44.44,0,0,0,.31.13h1.37a.43.43,0,0,0,0-.85h-1.2l-.32-.33.31-.32h2.9a.41.41,0,0,0,.41-.32c0-.14.08-.28.14-.44A.29.29,0,0,1,17.26,3h1.32a.3.3,0,0,1,.27.17,2.73,2.73,0,0,1,.25,1.08,2.87,2.87,0,0,1-.25,1.09.28.28,0,0,1-.27.17H17.25A.28.28,0,0,1,17,5.34a3,3,0,0,1-.13-.42.42.42,0,0,0-.51-.31.41.41,0,0,0-.31.51,3.44,3.44,0,0,0,.17.54,1.14,1.14,0,0,0,1.05.71h1.34a1.13,1.13,0,0,0,1-.68,3.65,3.65,0,0,0,.32-1.44A3.51,3.51,0,0,0,19.62,2.83Z"/><circle class="cls-3" cx="18.23" cy="4.26" r="0.42"/><ellipse class="cls-4" cx="7.82" cy="10.08" rx="5.32" ry="1.77"/><path class="cls-4" d="M13.13,14.22c0,1-2.36,1.77-5.31,1.77S2.5,15.2,2.5,14.22"/><path class="cls-4" d="M2.5,10.08v8.27c0,1,2.36,1.78,5.32,1.78s5.31-.79,5.31-1.78V10.08"/><line class="cls-4" x1="8" y1="18.09" x2="8" y2="18.09"/><line class="cls-4" x1="7.96" y1="14.03" x2="7.96" y2="14.03"/></svg>