<svg id="Layer_1" data-name="Layer 1" xmlns="http://www.w3.org/2000/svg" viewBox="0 0 22 22"><defs><style>.cls-1{fill:none;stroke:#808998;stroke-linecap:round;stroke-linejoin:round;stroke-width:1.5px;}.cls-2,.cls-3{fill:#00a1e4;stroke:#00a1e4;stroke-miterlimit:10;}.cls-2{stroke-width:0.3px;}.cls-3{stroke-width:0.6px;}</style></defs><title>Update-hover_1</title><path class="cls-1" d="M8.72,6.47H3.17A1.38,1.38,0,0,0,1.79,7.85V18.94a1.38,1.38,0,0,0,1.38,1.39h8.32a1.38,1.38,0,0,0,1.38-1.39V10.62Z"/><polyline class="cls-1" points="8.72 6.47 8.72 10.63 12.87 10.63"/><line class="cls-1" x1="10.27" y1="14.99" x2="4.71" y2="14.99"/><polyline class="cls-1" points="6.1 12.21 5.4 12.21 4.71 12.21"/><polygon class="cls-2" points="19.18 2.15 18.72 2.58 18.13 2.58 19.18 1.56 20.21 2.62 19.63 2.62 19.18 2.15"/><polygon class="cls-2" points="19.18 3.55 18.72 4.01 18.13 4.01 19.18 2.98 20.21 4.01 19.63 4.01 19.18 3.55"/><g id="Layer_1-2" data-name="Layer 1"><path class="cls-3" d="M18.89,4.63a2,2,0,1,1-2.5-2.08V2.09a2.46,2.46,0,1,0,2.95,2.54Z"/></g></svg>