<svg id="Layer_1" data-name="Layer 1" xmlns="http://www.w3.org/2000/svg" viewBox="0 0 22 22"><defs><style>.cls-1{fill:#808998;stroke-miterlimit:10;stroke-width:0.5px;}.cls-1,.cls-2,.cls-3{stroke:#808998;}.cls-2,.cls-3{fill:none;stroke-linecap:round;stroke-linejoin:round;}.cls-2{stroke-width:0.8px;}.cls-3{stroke-width:1.5px;}</style></defs><title>VMLogin</title><path class="cls-1" d="M18,14.06H4a2.68,2.68,0,0,0,0,5.36H18a2.68,2.68,0,1,0,0-5.36ZM2,16.74A1.92,1.92,0,0,1,4,14.82H14.49v3.84H4A1.92,1.92,0,0,1,2,16.74ZM18,18.66H15.26V14.82H18a1.92,1.92,0,0,1,0,3.84Z"/><line class="cls-2" x1="5.32" y1="16.3" x2="4.27" y2="17.35"/><line class="cls-2" x1="4.27" y1="16.3" x2="5.33" y2="17.36"/><line class="cls-2" x1="7.77" y1="16.28" x2="6.72" y2="17.33"/><line class="cls-2" x1="6.72" y1="16.28" x2="7.78" y2="17.33"/><line class="cls-2" x1="10.07" y1="16.23" x2="9.02" y2="17.28"/><line class="cls-2" x1="9.02" y1="16.23" x2="10.09" y2="17.28"/><line class="cls-2" x1="12.53" y1="16.21" x2="11.48" y2="17.26"/><line class="cls-2" x1="11.48" y1="16.21" x2="12.54" y2="17.26"/><path class="cls-1" d="M17.79,16.91l-.6.72a.11.11,0,0,0,0,.08s0,.05,0,.07a.1.1,0,0,0,.15,0l.75-.89a.1.1,0,0,0,0-.14l-.75-.9a.12.12,0,0,0-.08,0l-.07,0a.11.11,0,0,0,0,.15l.6.72H16.46a.11.11,0,0,0-.11.11.1.1,0,0,0,.11.1Z"/><path class="cls-3" d="M15.24,12.06V11a2.11,2.11,0,0,0-2.11-2.1H9.45A2.1,2.1,0,0,0,7.34,11v1.06"/><circle class="cls-3" cx="11.29" cy="4.69" r="2.11"/></svg>