<svg id="Layer_1" data-name="Layer 1" xmlns="http://www.w3.org/2000/svg" viewBox="0 0 22 22"><defs><style>.cls-1,.cls-3{fill:none;stroke-linecap:round;stroke-linejoin:round;stroke-width:1.5px;}.cls-1{stroke:#808998;}.cls-2{fill:#808998;}.cls-3{stroke:#00a1e4;}</style></defs><title>SetCellValue-hover</title><line class="cls-1" x1="17.5" y1="6.5" x2="15.7" y2="6.5"/><line class="cls-1" x1="21" y1="6.5" x2="21" y2="8.3"/><line class="cls-1" x1="11.7" y1="6.5" x2="9.9" y2="6.5"/><line class="cls-1" x1="6.3" y1="6.5" x2="4.5" y2="6.5"/><line class="cls-1" x1="6.3" y1="10.8" x2="4.5" y2="10.8"/><line class="cls-1" x1="6.3" y1="15.1" x2="4.5" y2="15.1"/><path class="cls-2" d="M8.6,19.4H1.8V2.6H20.2V8.4h1.6V1.8A.79.79,0,0,0,21,1H1a.79.79,0,0,0-.8.8V20.2A.79.79,0,0,0,1,21H8.6Z"/><line class="cls-1" x1="8.7" y1="20.2" x2="6.9" y2="20.2"/><polyline class="cls-3" points="10.97 11.72 10.97 14.53 13.77 14.53"/><path class="cls-3" d="M12.7,17.7a4,4,0,0,0,4.9,1.7,4.24,4.24,0,0,0-2.8-8,5.37,5.37,0,0,0-1.6,1L11,14.5"/></svg>