<svg xmlns="http://www.w3.org/2000/svg" width="29.052" height="29.011" viewBox="0 0 29.052 29.011"><g fill="#0062cf" stroke="#0062cf" stroke-width="1" transform="translate(-13.503 -13.51)"><path d="M43.992,33.7A7.9,7.9,0,0,1,36.1,25.8v-3.9a7.895,7.895,0,1,1,15.79,0v3.9A7.9,7.9,0,0,1,43.992,33.7Zm0-18.566a6.782,6.782,0,0,0-6.774,6.775v3.9a6.774,6.774,0,0,0,13.549,0v-3.9A6.782,6.782,0,0,0,43.992,15.13Z" data-name="Path 195" transform="translate(-15.905)"/><path d="M38.745,88.431H17.314A3.314,3.314,0,0,1,14,85.12V82.674c0-1.08.547-2.529,3.154-3.288l3.205-.887a.56.56,0,0,1,.3,1.08l-3.2.885c-2.34.682-2.34,1.832-2.34,2.21V85.12a2.193,2.193,0,0,0,2.19,2.19H38.744a2.193,2.193,0,0,0,2.19-2.19V82.674c0-1.02-.789-1.764-2.345-2.212l-3.051-.853a.56.56,0,1,1,.3-1.079l3.055.854c2.612.751,3.16,2.2,3.16,3.29V85.12A3.314,3.314,0,0,1,38.745,88.431Z" data-name="Path 196" transform="translate(0 -46.41)"/></g></svg>