<svg xmlns="http://www.w3.org/2000/svg" width="28.44" height="33.611" viewBox="0 0 28.44 33.611">
  <g id="android-logo" transform="translate(-42.544 0)">
    <g id="Group_562" data-name="Group 562" transform="translate(42.544 0)">
      <path id="Path_782" data-name="Path 782" d="M44.624,179.141a2.007,2.007,0,0,0-1.474.606,1.983,1.983,0,0,0-.606,1.454v8.685a2.069,2.069,0,0,0,2.08,2.081,1.976,1.976,0,0,0,1.465-.606,2.025,2.025,0,0,0,.6-1.475V181.2a2.069,2.069,0,0,0-2.061-2.06Z" transform="translate(-42.544 -168.254)" fill="#0062cf"/>
      <path id="Path_783" data-name="Path 783" d="M136.588,3.09,138.022.445a.266.266,0,0,0-.1-.4.28.28,0,0,0-.4.121l-1.454,2.667a10.131,10.131,0,0,0-8.12,0L126.489.162a.28.28,0,0,0-.4-.121.266.266,0,0,0-.1.4l1.434,2.646a8.856,8.856,0,0,0-3.474,3.1,7.832,7.832,0,0,0-1.293,4.353h18.684a7.834,7.834,0,0,0-1.293-4.353A8.894,8.894,0,0,0,136.588,3.09ZM128.3,6.938a.757.757,0,0,1-.556.233.723.723,0,0,1-.545-.233.805.805,0,0,1,0-1.111.725.725,0,0,1,.545-.232.785.785,0,0,1,.556,1.343Zm8.514,0a.724.724,0,0,1-.545.233.788.788,0,0,1,0-1.576.726.726,0,0,1,.545.232.805.805,0,0,1,0,1.111Z" transform="translate(-117.783 0)" fill="#0062cf"/>
      <path id="Path_784" data-name="Path 784" d="M123.971,198.9a2.206,2.206,0,0,0,2.222,2.222h1.495l.02,4.586a2.008,2.008,0,0,0,.606,1.475,1.984,1.984,0,0,0,1.454.606,2.069,2.069,0,0,0,2.08-2.081v-4.585h2.787v4.585a2.08,2.08,0,1,0,4.16,0v-4.585h1.515a2.206,2.206,0,0,0,2.2-2.222V185.45H123.971Z" transform="translate(-119.022 -174.179)" fill="#0062cf"/>
      <path id="Path_785" data-name="Path 785" d="M444.436,179.141a2,2,0,0,0-1.454.6,1.975,1.975,0,0,0-.606,1.464v8.685a2.006,2.006,0,0,0,.606,1.475,1.984,1.984,0,0,0,1.454.606,2.069,2.069,0,0,0,2.08-2.081V181.2a1.975,1.975,0,0,0-.606-1.464A2.026,2.026,0,0,0,444.436,179.141Z" transform="translate(-418.077 -168.254)" fill="#0062cf"/>
    </g>
  </g>
</svg>
