<svg xmlns="http://www.w3.org/2000/svg" width="28.994" height="36.135" viewBox="0 0 28.994 36.135">
  <defs>
    <style>
      .cls-1 {
        fill: none;
        stroke: #0062cf;
        stroke-linecap: round;
        stroke-linejoin: round;
        stroke-miterlimit: 10;
        stroke-width: 2px;
      }

      .cls-2 {
        fill: #0062cf;
      }
    </style>
  </defs>
  <g id="config_alerts" transform="translate(-9952.668 1357.411)">
    <g id="Layer_1" transform="translate(9917.96 -1386.848)">
      <g id="Group_2" data-name="Group 2" transform="translate(35.724 31.99)">
        <path id="Path_110" data-name="Path 110" class="cls-1" d="M49.18,61.35H38.01c-2.562,0-2.5-2.528-2.037-3.847,1.6-4.539,4.366-3.724,4.366-7.391V41.7c0-7.1,7.115-8.017,8.865-8.017s8.865.921,8.865,8.017v8.413c0,3.667,2.763,2.852,4.366,7.391.466,1.319.526,3.847-2.037,3.847H49.18Z" transform="translate(-35.724 -33.682)"/>
      </g>
      <path id="Path_111" data-name="Path 111" class="cls-1" d="M63.942,91.484" transform="translate(-14.711 -31.826)"/>
      <path id="Path_112" data-name="Path 112" class="cls-1" d="M63.582,93.314a4.038,4.038,0,0,1-8.076,0" transform="translate(-10.313 -32.78)"/>
      <path id="Path_113" data-name="Path 113" class="cls-1" d="M58.91,32.155a2.789,2.789,0,0,1,2.443-1.718,2.426,2.426,0,0,1,2.275,1.65" transform="translate(-12.088)"/>
    </g>
    <g id="_929577" data-name="929577" transform="translate(9958.727 -1349.273)">
      <g id="Group_534" data-name="Group 534">
        <g id="Group_533" data-name="Group 533">
          <path id="Path_732" data-name="Path 732" class="cls-2" d="M16.546,9.641V6.9L14.3,6.463a6.258,6.258,0,0,0-.487-1.173l1.251-1.877L13.133,1.479,11.256,2.731a6.256,6.256,0,0,0-1.173-.487L9.641,0H6.9L6.463,2.243a6.258,6.258,0,0,0-1.173.487L3.412,1.479,1.479,3.412,2.731,5.29a6.258,6.258,0,0,0-.487,1.173L0,6.9V9.641l2.243.442a6.259,6.259,0,0,0,.487,1.173L1.479,13.134l1.933,1.933L5.29,13.815a6.258,6.258,0,0,0,1.173.487L6.9,16.546H9.641l.442-2.243a6.257,6.257,0,0,0,1.173-.487l1.877,1.251,1.933-1.933-1.251-1.877a6.258,6.258,0,0,0,.487-1.173ZM13.819,13.01l-.809.809-1.722-1.148a5.646,5.646,0,0,1-2.039.847l-.406,2.059H7.7L7.3,13.518a5.647,5.647,0,0,1-2.039-.847L3.536,13.819l-.809-.809,1.148-1.722a5.647,5.647,0,0,1-.847-2.039L.969,8.844V7.7L3.028,7.3a5.651,5.651,0,0,1,.847-2.039L2.727,3.536l.809-.809L5.258,3.875A5.647,5.647,0,0,1,7.3,3.028L7.7.969H8.844l.406,2.059a5.646,5.646,0,0,1,2.039.847L13.01,2.727l.809.809L12.671,5.258A5.649,5.649,0,0,1,13.518,7.3l2.059.406V8.844l-2.059.406a5.645,5.645,0,0,1-.847,2.039Z"/>
        </g>
      </g>
      <g id="Group_536" data-name="Group 536" transform="translate(4.88 4.88)">
        <g id="Group_535" data-name="Group 535">
          <path id="Path_733" data-name="Path 733" class="cls-2" d="M154.393,151a3.393,3.393,0,1,0,3.393,3.393A3.4,3.4,0,0,0,154.393,151Zm0,5.817a2.424,2.424,0,1,1,2.424-2.424A2.426,2.426,0,0,1,154.393,156.817Z" transform="translate(-151 -151)"/>
        </g>
      </g>
    </g>
  </g>
</svg>
