<svg xmlns="http://www.w3.org/2000/svg" width="34" height="19.267" viewBox="0 0 34 19.267">
  <g id="coupon" transform="translate(0 -104)">
    <g id="Group_532" data-name="Group 532" transform="translate(10.2 115.333)">
      <g id="Group_531" data-name="Group 531" transform="translate(0 0)">
        <rect id="Rectangle_832" data-name="Rectangle 832" width="1" height="1" transform="translate(-0.2 0.3)" fill="#0062cf"/>
      </g>
    </g>
    <g id="Group_534" data-name="Group 534" transform="translate(10.2 117.6)">
      <g id="Group_533" data-name="Group 533" transform="translate(0 0)">
        <rect id="Rectangle_833" data-name="Rectangle 833" width="1" height="1" transform="translate(-0.2 0.033)" fill="#0062cf"/>
      </g>
    </g>
    <g id="Group_536" data-name="Group 536" transform="translate(10.2 119.867)">
      <g id="Group_535" data-name="Group 535" transform="translate(0 0)">
        <rect id="Rectangle_834" data-name="Rectangle 834" width="1" height="1" transform="translate(-0.2 -0.233)" fill="#0062cf"/>
      </g>
    </g>
    <g id="Group_538" data-name="Group 538" transform="translate(10.2 113.067)">
      <g id="Group_537" data-name="Group 537" transform="translate(0 0)">
        <rect id="Rectangle_835" data-name="Rectangle 835" width="1" height="2" transform="translate(-0.2 -0.433)" fill="#0062cf"/>
      </g>
    </g>
    <g id="Group_540" data-name="Group 540" transform="translate(10.2 110.8)">
      <g id="Group_539" data-name="Group 539" transform="translate(0 0)">
        <rect id="Rectangle_836" data-name="Rectangle 836" width="1" height="1" transform="translate(-0.2 -0.167)" fill="#0062cf"/>
      </g>
    </g>
    <g id="Group_542" data-name="Group 542" transform="translate(10.2 108.533)">
      <g id="Group_541" data-name="Group 541" transform="translate(0 0)">
        <rect id="Rectangle_837" data-name="Rectangle 837" width="1" height="1" transform="translate(-0.2 0.1)" fill="#0062cf"/>
      </g>
    </g>
    <g id="Group_544" data-name="Group 544" transform="translate(10.2 106.267)">
      <g id="Group_543" data-name="Group 543">
        <rect id="Rectangle_838" data-name="Rectangle 838" width="1" height="1" transform="translate(-0.2 0.367)" fill="#0062cf"/>
      </g>
    </g>
    <g id="Group_546" data-name="Group 546" transform="translate(2.267 106.267)">
      <g id="Group_545" data-name="Group 545">
        <rect id="Rectangle_839" data-name="Rectangle 839" width="1" height="1" transform="translate(-0.267 0.367)" fill="#0062cf"/>
      </g>
    </g>
    <g id="Group_548" data-name="Group 548" transform="translate(30.6 106.267)">
      <g id="Group_547" data-name="Group 547">
        <rect id="Rectangle_840" data-name="Rectangle 840" width="1" height="1" transform="translate(0.4 0.367)" fill="#0062cf"/>
      </g>
    </g>
    <g id="Group_550" data-name="Group 550" transform="translate(30.6 119.867)">
      <g id="Group_549" data-name="Group 549" transform="translate(0 0)">
        <rect id="Rectangle_841" data-name="Rectangle 841" width="1" height="1" transform="translate(0.4 -0.233)" fill="#0062cf"/>
      </g>
    </g>
    <g id="Group_552" data-name="Group 552" transform="translate(2.267 119.867)">
      <g id="Group_551" data-name="Group 551" transform="translate(0 0)">
        <rect id="Rectangle_842" data-name="Rectangle 842" width="1" height="1" transform="translate(-0.267 -0.233)" fill="#0062cf"/>
      </g>
    </g>
    <g id="Group_554" data-name="Group 554" transform="translate(0 104)">
      <g id="Group_553" data-name="Group 553" transform="translate(0 0)">
        <path id="Path_778" data-name="Path 778" d="M33.433,110.8a.567.567,0,0,0,.567-.567v-5.667a.567.567,0,0,0-.567-.567H.567a.567.567,0,0,0-.567.567v5.667a.567.567,0,0,0,.567.567,2.833,2.833,0,0,1,0,5.667.567.567,0,0,0-.567.567V122.7a.567.567,0,0,0,.567.567H33.433A.567.567,0,0,0,34,122.7v-5.667a.567.567,0,0,0-.567-.567,2.833,2.833,0,0,1,0-5.667Zm-3.93,3.4a3.967,3.967,0,0,0,3.363,3.363v4.574H1.133V117.56a3.967,3.967,0,0,0,0-7.853v-4.574H32.867v4.574A3.967,3.967,0,0,0,29.5,114.2Z" transform="translate(0 -104)" fill="#0062cf"/>
      </g>
    </g>
    <g id="Group_556" data-name="Group 556" transform="translate(14.733 107.967)">
      <g id="Group_555" data-name="Group 555" transform="translate(0 0)">
        <path id="Path_779" data-name="Path 779" d="M210.267,160a2.267,2.267,0,1,0,2.267,2.267A2.267,2.267,0,0,0,210.267,160Zm0,3.4a1.133,1.133,0,1,1,1.133-1.133A1.133,1.133,0,0,1,210.267,163.4Z" transform="translate(-208 -160)" fill="#0062cf"/>
      </g>
    </g>
    <g id="Group_558" data-name="Group 558" transform="translate(21.533 114.767)">
      <g id="Group_557" data-name="Group 557" transform="translate(0 0)">
        <path id="Path_780" data-name="Path 780" d="M306.267,256a2.267,2.267,0,1,0,2.267,2.267A2.267,2.267,0,0,0,306.267,256Zm0,3.4a1.133,1.133,0,1,1,1.133-1.133A1.133,1.133,0,0,1,306.267,259.4Z" transform="translate(-304 -256)" fill="#0062cf"/>
      </g>
    </g>
    <g id="Group_560" data-name="Group 560" transform="translate(15.466 108.698)">
      <g id="Group_559" data-name="Group 559" transform="translate(0 0)">
        <rect id="Rectangle_843" data-name="Rectangle 843" width="12.822" height="1.133" transform="translate(0 9.066) rotate(-45)" fill="#0062cf"/>
      </g>
    </g>
  </g>
</svg>
