<svg xmlns="http://www.w3.org/2000/svg" width="32.6" height="20.699" viewBox="0 0 32.6 20.699">
  <g id="group" transform="translate(0 -92.25)">
    <g id="Group_529" data-name="Group 529" transform="translate(0 92.25)">
      <path id="Path_740" data-name="Path 740" d="M28.194,101.358a3.722,3.722,0,1,0-4.27,0,6.448,6.448,0,0,0-2.2,1.29A8.344,8.344,0,0,0,18.706,101a4.715,4.715,0,1,0-4.876,0,8.414,8.414,0,0,0-2.986,1.625,6.5,6.5,0,0,0-2.174-1.264,3.722,3.722,0,1,0-4.27,0A6.533,6.533,0,0,0,0,107.537v.426a.028.028,0,0,0,.026.026H7.914a8.676,8.676,0,0,0-.071,1.09v.439a3.43,3.43,0,0,0,3.432,3.432h10a3.43,3.43,0,0,0,3.432-3.432v-.439a8.675,8.675,0,0,0-.071-1.09h7.94a.028.028,0,0,0,.026-.026v-.426A6.558,6.558,0,0,0,28.194,101.358Zm-4.825-3.051A2.69,2.69,0,1,1,26.111,101h-.1A2.686,2.686,0,0,1,23.369,98.307Zm-10.8-1.342a3.683,3.683,0,1,1,3.9,3.677h-.426A3.688,3.688,0,0,1,12.572,96.965ZM3.825,98.307A2.69,2.69,0,1,1,6.566,101h-.1A2.69,2.69,0,0,1,3.825,98.307ZM8.1,106.95H1.045a5.511,5.511,0,0,1,5.431-4.922h.077a5.454,5.454,0,0,1,3.515,1.309A8.469,8.469,0,0,0,8.1,106.95Zm15.564,2.567a2.4,2.4,0,0,1-2.4,2.4h-10a2.4,2.4,0,0,1-2.4-2.4v-.439a7.409,7.409,0,0,1,7.179-7.4c.071.006.148.006.219.006s.148,0,.219-.006a7.409,7.409,0,0,1,7.179,7.4Zm.768-2.567a8.447,8.447,0,0,0-1.954-3.586,5.48,5.48,0,0,1,3.548-1.335H26.1a5.511,5.511,0,0,1,5.431,4.922Z" transform="translate(0 -92.25)" fill="#0062cf"/>
    </g>
  </g>
</svg>
