<svg xmlns="http://www.w3.org/2000/svg" width="27.947" height="28" viewBox="0 0 27.947 28">
  <g id="department" transform="translate(-0.484)">
    <path id="Path_741" data-name="Path 741" d="M22.872,7.453a5.539,5.539,0,0,0-3.789,1.492,5.611,5.611,0,0,0-.469.5L15.609,7.277A4.809,4.809,0,0,0,13.723.554a.411.411,0,0,0-.384.727,3.991,3.991,0,1,1-1.86-.459c.062,0,.124,0,.185,0A.411.411,0,0,0,11.7,0c-.074,0-.148,0-.222,0a4.811,4.811,0,1,0,3.649,7.944l3,2.163a5.53,5.53,0,0,0-.8,2.485.411.411,0,0,0,.819.061,4.733,4.733,0,1,1,.191,1.741.411.411,0,1,0-.786.239,5.46,5.46,0,0,0,.259.68l-3.354,1.837a7.411,7.411,0,1,0-13.011,7.1.411.411,0,0,0,.714-.406,6.6,6.6,0,1,1,1.084,1.419.411.411,0,1,0-.58.582A7.411,7.411,0,0,0,14.8,17.9l3.407-1.865a5.6,5.6,0,0,0,1.325,1.423,5.559,5.559,0,1,0,3.339-10Z" transform="translate(0 0)" fill="#0062cf"/>
    <path id="Path_742" data-name="Path 742" d="M63.459,292.062a.281.281,0,0,1-.1-.206,1.872,1.872,0,0,0-2.083-1.829.309.309,0,0,1-.252-.087,1.872,1.872,0,0,0-2.616,0,.309.309,0,0,1-.252.087,1.872,1.872,0,0,0-2.061,1.566,1.911,1.911,0,0,0-.023.263.281.281,0,0,1-.1.206,1.877,1.877,0,0,0-.66,1.608,1.85,1.85,0,0,0,.347.92,1.2,1.2,0,0,0-.251.879A1.788,1.788,0,0,0,56.445,297a3.386,3.386,0,0,0,6.519-.015,1.815,1.815,0,0,0,1-1.515,1.234,1.234,0,0,0-.218-.84,1.848,1.848,0,0,0,.376-.96A1.876,1.876,0,0,0,63.459,292.062Zm-6.963.629a1.1,1.1,0,0,0,.4-.822,1.087,1.087,0,0,1,.013-.149,1.053,1.053,0,0,1,.969-.882,1.066,1.066,0,0,1,.187,0,1.127,1.127,0,0,0,.919-.315,1.05,1.05,0,0,1,1.467,0,1.127,1.127,0,0,0,.919.315,1.066,1.066,0,0,1,.187,0,1.053,1.053,0,0,1,.969.882,1.084,1.084,0,0,1,.013.149,1.1,1.1,0,0,0,.4.822,1.045,1.045,0,0,1,.122,1.485,2.626,2.626,0,0,0-2.59-2.194H58.943a2.626,2.626,0,0,0-2.586,2.173,1.045,1.045,0,0,1,.139-1.464Zm6.646,2.718c-.032.434-.348.817-.523.819a.411.411,0,0,0-.4.334,2.564,2.564,0,0,1-5.035,0,.411.411,0,0,0-.4-.334h-.036c-.174,0-.492-.395-.523-.819a.361.361,0,0,1,.088-.321.567.567,0,0,1,.35-.125.265.265,0,0,1,.039,0,.411.411,0,0,0,.44-.4,1.815,1.815,0,0,1,1.8-1.76h1.519a1.793,1.793,0,0,1,1.8,1.759.411.411,0,0,0,.411.4h.029C63.172,295,63.151,295.275,63.142,295.409Z" transform="translate(-51.818 -273.58)" fill="#0062cf"/>
    <circle id="Ellipse_241" data-name="Ellipse 241" cx="0.399" cy="0.399" r="0.399" transform="translate(6.223 21.075)" fill="#0062cf"/>
    <circle id="Ellipse_242" data-name="Ellipse 242" cx="0.399" cy="0.399" r="0.399" transform="translate(8.747 21.075)" fill="#0062cf"/>
    <path id="Path_743" data-name="Path 743" d="M119.238,420.284h-1.777a.133.133,0,0,0-.124.181,1.086,1.086,0,0,0,2.025,0A.133.133,0,0,0,119.238,420.284Z" transform="translate(-110.454 -397.3)" fill="#0062cf"/>
    <path id="Path_744" data-name="Path 744" d="M346.5,177.977a2.791,2.791,0,0,0,5.421-.017,1.562,1.562,0,0,0,.778-1.252,1.007,1.007,0,0,0-.7-1.085,2.792,2.792,0,0,0-5.574-.011,1.008,1.008,0,0,0-.736,1.1A1.546,1.546,0,0,0,346.5,177.977Zm.279-1.6h.02a.411.411,0,0,0,.439-.41v-.187a1.97,1.97,0,0,1,3.94,0v.186a.411.411,0,0,0,.411.411h.015c.293.022.282.165.275.269a.716.716,0,0,1-.337.579.411.411,0,0,0-.384.353,1.97,1.97,0,0,1-3.9,0,.411.411,0,0,0-.407-.353h-.011c-.083,0-.314-.273-.337-.579C346.5,176.543,346.491,176.4,346.784,176.379Z" transform="translate(-326.324 -163.53)" fill="#0062cf"/>
    <path id="Path_745" data-name="Path 745" d="M395.743,260.857a1.234,1.234,0,0,0,1.413,0,.17.17,0,0,0-.1-.306h-1.21A.17.17,0,0,0,395.743,260.857Z" transform="translate(-373.577 -246.302)" fill="#0062cf"/>
    <path id="Path_746" data-name="Path 746" d="M154.3,41.558a.828.828,0,0,0-.53.874,1.227,1.227,0,0,0,.6.978,2.1,2.1,0,0,0,4.053-.014,1.241,1.241,0,0,0,.57-.964.827.827,0,0,0-.505-.864,2.1,2.1,0,0,0-4.186-.01Zm3.373.207V41.9a.413.413,0,0,0,.413.411h0a.229.229,0,0,1,.082.019.18.18,0,0,1,0,.045.475.475,0,0,1-.148.3.411.411,0,0,0-.363.351,1.28,1.28,0,0,1-2.535,0,.411.411,0,0,0-.389-.353.48.48,0,0,1-.145-.3.176.176,0,0,1,0-.045.222.222,0,0,1,.081-.019.411.411,0,0,0,.439-.41v-.133a1.281,1.281,0,0,1,2.561,0Z" transform="translate(-144.897 -37.494)" fill="#0062cf"/>
    <circle id="Ellipse_243" data-name="Ellipse 243" cx="0.391" cy="0.391" r="0.391" transform="translate(21.453 12.622)" fill="#0062cf"/>
    <circle id="Ellipse_244" data-name="Ellipse 244" cx="0.391" cy="0.391" r="0.391" transform="translate(23.51 12.622)" fill="#0062cf"/>
  </g>
</svg>
