<svg xmlns="http://www.w3.org/2000/svg" width="43" height="42" viewBox="0 0 43 42"><g stroke-width="1" data-name="Group 303" transform="translate(-2.063 -0.426)"><g fill="#fff" stroke="#c4c4c4" data-name="Rectangle 43" transform="translate(2.063 0.426)"><path stroke="none" d="M0 0H43V42H0z"/><path fill="none" d="M0.5 0.5H42.5V41.5H0.5z"/></g><g transform="translate(8.072 8.66)" style="isolation:isolate" fill="#342785" stroke="#0062cf"><path d="M33.922,47.513H11.383A4.383,4.383,0,0,1,7,43.13v-2.5a.626.626,0,0,1,1.252,0v2.5a3.13,3.13,0,0,0,3.13,3.13H33.922a3.13,3.13,0,0,0,3.13-3.13v-2.5a.626.626,0,0,1,1.252,0v2.5a4.383,4.383,0,0,1-4.383,4.383Z" data-name="Path 174" transform="translate(-7 -22.469)"/><path d="M31.626,30.157A.626.626,0,0,1,31,29.531v-16.9a.626.626,0,0,1,1.252,0v16.9A.626.626,0,0,1,31.626,30.157Z" data-name="Path 175" transform="translate(-15.974 -12)"/><path d="M27.886,37.512a.626.626,0,0,1-.445-.182L21.18,31.069a.629.629,0,0,1,.889-.889L27.886,36,33.7,30.18a.629.629,0,1,1,.889.889L28.33,37.33A.626.626,0,0,1,27.886,37.512Z" data-name="Path 176" transform="translate(-12.233 -18.729)"/></g></g></svg>