<svg xmlns="http://www.w3.org/2000/svg" width="30" height="30" viewBox="0 0 30 30">
  <g id="iconfinder_Edit_4472997" transform="translate(0.187 0.638)">
    <rect id="Edit" width="30" height="30" transform="translate(-0.187 -0.638)" fill="none"/>
    <path id="Path_634" data-name="Path 634" d="M30.106,21.239c.259.113.279.158.3.42,0,2.092.007,4.183,0,6.275a5.033,5.033,0,0,1-4.872,4.872q-6.271.019-12.543,0a5.019,5.019,0,0,1-4.871-4.871q-.02-6.272,0-12.544a5.006,5.006,0,0,1,4.9-4.871h9.851c.328.023.391.135.436.355a.467.467,0,0,1-.436.536c-3.292,0-6.584-.01-9.876,0A4.107,4.107,0,0,0,9.007,15.4q-.02,6.266,0,12.532a4.1,4.1,0,0,0,3.985,3.985q6.266.02,12.531,0A4.135,4.135,0,0,0,29.511,27.9V21.659a.462.462,0,0,1,.6-.42ZM31.244,7.606a2.157,2.157,0,0,1,1.69,3.311L25.063,22.081a.449.449,0,0,1-.145.131l-3.584,2.031a.463.463,0,0,1-.655-.485l.878-3.939a.445.445,0,0,1,.071-.16L29.5,8.5a2.13,2.13,0,0,1,1.745-.889ZM31.2,8.5a1.238,1.238,0,0,0-.977.514L22.408,20.1l-.64,2.872,2.624-1.487c2.607-3.7,5.237-7.38,7.821-11.094A1.248,1.248,0,0,0,31.262,8.5H31.2Z" transform="translate(-5.888 -5.849)" fill-rule="evenodd"/>
  </g>
</svg>
