<svg id="Layer_1" data-name="Layer 1" xmlns="http://www.w3.org/2000/svg" viewBox="0 0 32 32"><path d="M9.38,24.08l1.18-1.14c-.8-.37-1.61-.73-2.38-1.16a15.4,15.4,0,0,1-5.4-5.12.37.37,0,0,1,0-.49,15.6,15.6,0,0,1,8.11-6.39.78.78,0,0,1,.22,0,8.2,8.2,0,0,0-3.32,6.65,8.06,8.06,0,0,0,3,6.36l1.09-1.05a6.7,6.7,0,0,1-2.58-5.28,6.75,6.75,0,0,1,12.23-4l1.1-1.06A8.33,8.33,0,0,0,21,9.75l0-.08c.77.34,1.55.64,2.3,1l1.15-1.1A17.19,17.19,0,0,0,1,16.19a.51.51,0,0,0,0,.42A17.4,17.4,0,0,0,9.38,24.08Z"/><path d="M30.8,15.74a17.21,17.21,0,0,0-5-5.33L24.64,11.5a15.72,15.72,0,0,1,4.63,4.63c.11.17.17.29,0,.49a15.77,15.77,0,0,1-8.21,6.43l-.17,0a8.37,8.37,0,0,0,2.49-10.41l-1.16,1.11a6.76,6.76,0,0,1-6.2,9.38,6.66,6.66,0,0,1-2.89-.65L11,24.63a20.74,20.74,0,0,0,5,.84c.84-.07,1.61-.09,2.37-.21a17.26,17.26,0,0,0,12.48-8.2A1.08,1.08,0,0,0,30.8,15.74Z"/><rect x="-0.77" y="15.25" width="35.1" height="1.5" transform="translate(-6.41 16.08) rotate(-43.84)"/><path d="M13.44,20.12,19.8,14a4.5,4.5,0,1,0-6.36,6.1ZM16,13.8v.71a1.94,1.94,0,0,0-1.9,1.89h-.72A2.6,2.6,0,0,1,16,13.8Z"/><path d="M14.92,20.78a4.24,4.24,0,0,0,1.07.14,4.49,4.49,0,0,0,4.51-4.49,4.63,4.63,0,0,0-.09-.92Z"/></svg>