<svg xmlns="http://www.w3.org/2000/svg" width="31.78" height="27.17" viewBox="0 0 31.78 27.17">
  <g id="Group_528" data-name="Group 528" transform="translate(-1081.893 -584.23)">
    <g id="visibility" transform="translate(1082.429 587.318)">
      <g id="Group_521" data-name="Group 521" transform="translate(0 0)">
        <g id="Group_520" data-name="Group 520" transform="translate(0 0)">
          <path id="Path_737" data-name="Path 737" d="M24.362,113.5c-.193-.28-4.82-6.843-12.136-6.843-6.277,0-11.871,6.525-12.106,6.8a.511.511,0,0,0,0,.658c.235.278,5.829,6.8,12.106,6.8s11.871-6.525,12.106-6.8A.51.51,0,0,0,24.362,113.5Zm-12.136,6.4c-5.032,0-9.817-4.8-11.032-6.113,1.213-1.315,5.993-6.113,11.032-6.113,5.888,0,10.044,4.792,11.059,6.086C22.114,115.039,17.3,119.907,12.226,119.907Z" transform="translate(0 -106.662)" fill="#0062cf" stroke="#0062cf" stroke-width="1"/>
        </g>
      </g>
      <g id="Group_523" data-name="Group 523" transform="translate(8.151 3.057)">
        <g id="Group_522" data-name="Group 522" transform="translate(0 0)">
          <path id="Path_738" data-name="Path 738" d="M174.737,170.662a4.075,4.075,0,1,0,4.076,4.076A4.08,4.08,0,0,0,174.737,170.662Zm0,7.132a3.057,3.057,0,1,1,3.057-3.057A3.06,3.06,0,0,1,174.737,177.794Z" transform="translate(-170.662 -170.662)" fill="#0062cf" stroke="#0062cf" stroke-width="1"/>
        </g>
      </g>
    </g>
    <g id="Group_527" data-name="Group 527" transform="translate(1087.55 584.23)">
      <rect id="Rectangle_363" data-name="Rectangle 363" width="8.254" height="29.453" transform="translate(20.087 0) rotate(43)" fill="#fff"/>
      <g id="draw" transform="matrix(0.999, -0.035, 0.035, 0.999, 2.626, 2.624)">
        <path id="Path_739" data-name="Path 739" d="M13.326,3.559l4.359,4.359L6.65,18.953,2.293,14.594Zm7.667-1.051L19.049.563a1.929,1.929,0,0,0-2.725,0L14.461,2.426l4.359,4.359,2.172-2.172A1.486,1.486,0,0,0,20.993,2.508ZM.012,20.721a.5.5,0,0,0,.6.59L5.47,20.133,1.113,15.774Z" transform="translate(0 0)" fill="#0062cf"/>
      </g>
    </g>
  </g>
</svg>
