<svg xmlns="http://www.w3.org/2000/svg" width="95" height="95" viewBox="0 0 140 140">
<g fill="none" data-name="Group 215" transform="translate(-475 -430)">
<g data-name="Path 357"><path d="M70,0A70,70,0,1,1,0,70,70,70,0,0,1,70,0Z" transform="translate(475 430)"/>
<path fill="#0062cf" d="M 70 2 C 60.81918334960938 2 51.91403961181641 3.797637939453125 43.53195953369141 7.34295654296875 C 39.50309753417969 9.047027587890625 35.61711883544922 11.15628051757813 31.98195648193359 13.61215972900391 C 28.38079833984375 16.04503631591797 24.99437713623047 18.83910369873047 21.91674041748047 21.91674041748047 C 18.83910369873047 24.99437713623047 16.04503631591797 28.38079833984375 13.61215972900391 31.98195648193359 C 11.15628051757813 35.61711883544922 9.047027587890625 39.50309753417969 7.34295654296875 43.53195953369141 C 3.797637939453125 51.91403961181641 2 60.81918334960938 2 70 C 2 79.18081665039063 3.797637939453125 88.08596038818359 7.34295654296875 96.46804046630859 C 9.047027587890625 100.4969024658203 11.15628051757813 104.3828811645508 13.61215972900391 108.0180358886719 C 16.04503631591797 111.6192016601563 18.83910369873047 115.005615234375 21.91674041748047 118.0832595825195 C 24.99437713623047 121.1609039306641 28.38079833984375 123.9549560546875 31.98195648193359 126.3878402709961 C 35.61711883544922 128.8437194824219 39.50309753417969 130.9529724121094 43.53195953369141 132.6570434570313 C 51.91403961181641 136.2023620605469 60.81918334960938 138 70 138 C 79.18081665039063 138 88.08596038818359 136.2023620605469 96.46804046630859 132.6570434570313 C 100.4969024658203 130.9529724121094 104.3828811645508 128.8437194824219 108.0180358886719 126.3878402709961 C 111.6192016601563 123.9549560546875 115.005615234375 121.1609039306641 118.0832595825195 118.0832595825195 C 121.1609039306641 115.005615234375 123.9549560546875 111.6192016601563 126.3878402709961 108.0180358886719 C 128.8437194824219 104.3828811645508 130.9529724121094 100.4969024658203 132.6570434570313 96.46804046630859 C 136.2023620605469 88.08596038818359 138 79.18081665039063 138 70 C 138 60.81918334960938 136.2023620605469 51.91403961181641 132.6570434570313 43.53195953369141 C 130.9529724121094 39.50309753417969 128.8437194824219 35.61711883544922 126.3878402709961 31.98195648193359 C 123.9549560546875 28.38079833984375 121.1609039306641 24.99437713623047 118.0832595825195 21.91674041748047 C 115.005615234375 18.83910369873047 111.6192016601563 16.04503631591797 108.0180358886719 13.61215972900391 C 104.3828811645508 11.15628051757813 100.4969024658203 9.047027587890625 96.46804046630859 7.34295654296875 C 88.08596038818359 3.797637939453125 79.18081665039063 2 70 2 M 70 0 C 108.6599197387695 0 140 31.34008026123047 140 70 C 140 108.6599197387695 108.6599197387695 140 70 140 C 31.34008026123047 140 0 108.6599197387695 0 70 C 0 31.34008026123047 31.34008026123047 0 70 0 Z" transform="translate(475 430)"/>
</g><g stroke="#0062cf" stroke-linejoin="round" stroke-width="2" data-name="17-Report" transform="translate(508 463)">
<path d="M0 0H20V5H0z" data-name="Rectangle 4" transform="translate(48 17)"/>
<path d="M0 0L12 0" data-name="Line 3" transform="translate(47 27)"/>
<path d="M3 0L0 0" data-name="Line 4" transform="translate(66 27)"/>
<path d="M2 0L0 0" data-name="Line 5" transform="translate(62 27)"/>
<path d="M39.183,15H32.169A1.144,1.144,0,0,0,31,16.169v2.338" data-name="Path 163" transform="translate(5.071 2.366)"/>
<rect width="72" height="72" data-name="Rectangle 5" rx="2" transform="translate(1 1)"/>
<path d="M0 0L72 0" data-name="Line 6" transform="translate(1 10)"/>
<path d="M0 0L2 0" data-name="Line 7" transform="translate(5 6)"/>
<path d="M0 0L3 0" data-name="Line 8" transform="translate(9 6)"/>
<path d="M0 0L2 0" data-name="Line 9" transform="translate(68 6)"/>
<path d="M5,17H9.676a2.29,2.29,0,0,1,2.338,2.338V56.747a2.29,2.29,0,0,0,2.338,2.338H56.437a2.29,2.29,0,0,1,2.338,2.338V64.93" data-name="Path 164" transform="translate(0.676 2.704)"/>
<path d="M0 0H7V19H0z" data-name="Rectangle 6" transform="translate(19 43)"/>
<path d="M0 0H7V26H0z" data-name="Rectangle 7" transform="translate(26 36)"/>
<path d="M0 0H7V38H0z" data-name="Rectangle 8" transform="translate(33 24)"/>
<path d="M0 0H7V13H0z" data-name="Rectangle 9" transform="translate(40 49)"/>
<path d="M0 0H7V26H0z" data-name="Rectangle 10" transform="translate(47 36)"/>
</g>
</g>
</svg>