<svg xmlns="http://www.w3.org/2000/svg" width="95" height="95" viewBox="0 0 140 140">
  <g id="Group_348" data-name="Group 348" transform="translate(-741 -430)">
    <g id="Ellipse_20" data-name="Ellipse 20" transform="translate(741 430)" fill="none" stroke="#0062cf" stroke-width="2">
      <circle cx="70" cy="70" r="70" stroke="none"/>
      <circle cx="70" cy="70" r="69" fill="none"/>
    </g>
    <g id="robot_hand" transform="translate(776.783 495.917)">
      <path id="Path_457" data-name="Path 457" d="M153.89,173.647a6.741,6.741,0,0,1,11.179-7.343.825.825,0,0,0,1.08.154l2.974-1.954a.824.824,0,0,0,.356-.848l-1.94-9.841a.828.828,0,0,0-.12-.293l-8.512-12.956a2.948,2.948,0,0,0-3.759-1.025l-23.528,11.565a2.945,2.945,0,0,0-1.162,4.259l10.3,15.674a.829.829,0,0,0,.221.226l8.262,5.688a.824.824,0,0,0,.92.01L153.6,174.7A.824.824,0,0,0,153.89,173.647Zm-4.174,1.634-6.519-4.488,5.859-3.849a.824.824,0,0,0,.236-1.141l-4.278-6.513a2.931,2.931,0,1,0-2.233,1.036,2.889,2.889,0,0,0,.858-.13l3.825,5.822-5.612,3.687-10.015-15.246a1.3,1.3,0,0,1,.511-1.875l9.359-4.6,2.89,4.4a.824.824,0,0,0,1.141.237l4.392-2.885a2.949,2.949,0,1,0-.9-1.378l-3.7,2.434-2.325-3.538,12.678-6.232a1.3,1.3,0,0,1,1.655.452l4.044,6.156-9.171,6.025a.824.824,0,0,0-.237,1.141l1.393,2.121a2.945,2.945,0,1,0,1.377-.9L154,154.577,162.479,149l3.474,5.288,1.8,9.139-1.93,1.268a8.389,8.389,0,0,0-13.707,9.005Zm-7.2-16.63a1.3,1.3,0,1,1,1.521-1.009A1.3,1.3,0,0,1,142.512,158.651Zm8.815-12.241a1.3,1.3,0,1,1-.372,1.8A1.3,1.3,0,0,1,151.328,146.409Zm4.47,11.117a1.3,1.3,0,1,1-1.257.982A1.3,1.3,0,0,1,155.8,157.526Zm0,0" transform="translate(-111.969 -120.123)" fill="#0062cf"/>
      <path id="Path_458" data-name="Path 458" d="M133.645,107.375a.824.824,0,0,0,1.141.237l3.937-2.586a.824.824,0,0,0,.236-1.141l-2.975-4.529a2.472,2.472,0,0,0-3.424-.709l-1.181.776a2.476,2.476,0,0,0-.709,3.424Zm-1.362-6.577,1.181-.776a.817.817,0,0,1,.451-.136.851.851,0,0,1,.169.017.821.821,0,0,1,.522.355l2.523,3.841-2.56,1.681-2.523-3.841a.826.826,0,0,1,.238-1.142Zm0,0" transform="translate(-112.218 -84.753)" fill="#0062cf"/>
      <path id="Path_459" data-name="Path 459" d="M178.733,79.838a.824.824,0,0,0,1.141.236l3.937-2.586a.824.824,0,0,0,.237-1.141l-3.364-5.12a2.476,2.476,0,0,0-3.424-.709l-1.181.776a2.473,2.473,0,0,0-.709,3.424Zm-2.1-6.645a.818.818,0,0,1,.355-.521l1.181-.776a.826.826,0,0,1,1.143.237l2.911,4.431-2.56,1.681-2.911-4.431A.819.819,0,0,1,176.628,73.193Zm0,0" transform="translate(-150.78 -60.488)" fill="#0062cf"/>
      <path id="Path_460" data-name="Path 460" d="M232.694,65.762a.824.824,0,0,0,1.141.237l3.936-2.586a.824.824,0,0,0,.237-1.141l-2.432-3.7a2.472,2.472,0,0,0-3.424-.709l-1.181.776a2.475,2.475,0,0,0-.708,3.424Zm-.819-5.75,1.181-.775a.822.822,0,0,1,.451-.136.81.81,0,0,1,.169.018.819.819,0,0,1,.522.355l1.98,3.014-2.559,1.681-1.98-3.014A.827.827,0,0,1,231.875,60.013Zm0,0" transform="translate(-198.137 -49.566)" fill="#0062cf"/>
      <path id="Path_461" data-name="Path 461" d="M313.968,326.337a5.772,5.772,0,1,0,4.572,6.235A5.771,5.771,0,0,0,313.968,326.337Zm1.094,9.1a4.123,4.123,0,1,1,1.182-5.71,4.122,4.122,0,0,1-1.182,5.71Zm0,0" transform="translate(-264.688 -281.423)" fill="#0062cf"/>
      <path id="Path_462" data-name="Path 462" d="M333.944,352.354a2.238,2.238,0,1,0,2.6.1A2.237,2.237,0,0,0,333.944,352.354Zm1.806,1.989a.59.59,0,1,1-.085-.444A.59.59,0,0,1,335.75,354.343Zm0,0" transform="translate(-287.063 -303.659)" fill="#0062cf"/>
      <path id="Path_463" data-name="Path 463" d="M175.821,161.8a2.238,2.238,0,0,0,.775,4.061,2.264,2.264,0,0,0,.458.047,2.238,2.238,0,1,0-1.233-4.108Zm1.806,1.989a.59.59,0,1,1-.085-.443A.59.59,0,0,1,177.627,163.792Zm0,0" transform="translate(-150.65 -139.271)" fill="#0062cf"/>
      <path id="Path_464" data-name="Path 464" d="M225.025,137.647a2.238,2.238,0,1,0,1.416.962A2.237,2.237,0,0,0,225.025,137.647Zm.123,2.311a.59.59,0,1,1-.085-.444.583.583,0,0,1,.085.444Zm0,0" transform="translate(-191.646 -118.709)" fill="#0062cf"/>
      <path id="Path_465" data-name="Path 465" d="M269.238,116.447a2.238,2.238,0,0,0,.775,4.061,2.265,2.265,0,0,0,.458.047,2.238,2.238,0,1,0-1.233-4.108Zm1.722,1.546a.591.591,0,1,1-.495-.265A.59.59,0,0,1,270.96,117.993Zm0,0" transform="translate(-231.241 -100.142)" fill="#0062cf"/>
      <path id="Path_466" data-name="Path 466" d="M4.249,8.739a2.246,2.246,0,0,0-.041,2.512l2.686,4.088a2.237,2.237,0,0,0,2.323.961l1.131,1.722a2.236,2.236,0,0,0-.039,2.514l3.959,6.028a.824.824,0,0,0,1.141.236l4.725-3.1a.824.824,0,0,0,.237-1.141l-3.959-6.027a2.24,2.24,0,0,0-2.322-.961l-1.133-1.724A2.24,2.24,0,0,0,13,11.33L10.291,7.211a2.242,2.242,0,0,0-2.324-.963L6.795,4.464a2.241,2.241,0,0,0-.52-2.545L4.854.6a.837.837,0,0,0-.09-.073A2.912,2.912,0,0,0,.244,3.492.8.8,0,0,0,.276,3.6l.65,1.829A2.224,2.224,0,0,0,2.322,6.8a2.253,2.253,0,0,0,.715.118h.018ZM5.613,5.666l.9,1.364-.977.661-.9-1.377Zm6.054,9.215.958,1.458-.986.647-.958-1.458Zm3.368,2.552,3.507,5.339-3.348,2.2-3.507-5.338a.59.59,0,0,1,.169-.817l2.363-1.552a.59.59,0,0,1,.817.169Zm-6.5-9.572a.587.587,0,0,1,.377.255l2.706,4.119a.59.59,0,0,1-.169.817L9.088,14.6a.59.59,0,0,1-.817-.169L5.585,10.346a.592.592,0,0,1,.163-.813L8.09,7.951A.585.585,0,0,1,8.536,7.861ZM2.478,4.881,1.85,3.113A1.264,1.264,0,0,1,3.778,1.846L5.151,3.125a.59.59,0,0,1-.078.924L3.357,5.176a.59.59,0,0,1-.88-.3Zm0,0" transform="translate(0 0)" fill="#0062cf"/>
      <path id="Path_467" data-name="Path 467" d="M43.8,321.3l-2.526-.523a2.464,2.464,0,0,0-2.473.932l-2.32-.481.12-.578a.823.823,0,0,0-.64-.973l-3.235-.67a6.481,6.481,0,0,0-7.657,5.03.824.824,0,0,0,.64.974l8.772,1.817a.823.823,0,0,0,.973-.64l.12-.578,2.322.481a2.473,2.473,0,0,0,1.9,1.836l2.526.523a.824.824,0,0,0,.974-.64l1.146-5.537a.824.824,0,0,0-.639-.974Zm-9.792,3.747-7.09-1.468a4.836,4.836,0,0,1,5.474-2.958l2.428.5Zm2.139-2.205,2.085.432-.239,1.155L35.906,324Zm5.7,3.828-1.719-.356a.826.826,0,0,1-.64-.974l.477-2.308a.825.825,0,0,1,.975-.64l1.719.355Zm0,0" transform="translate(-21.45 -275.092)" fill="#0062cf"/>
      <path id="Path_468" data-name="Path 468" d="M169.812,351.979a2.224,2.224,0,1,0,1.421.959A2.239,2.239,0,0,0,169.812,351.979Zm.123,2.311a.59.59,0,1,1-.579-.709.567.567,0,0,1,.121.012A.589.589,0,0,1,169.936,354.289Zm0,0" transform="translate(-144.014 -303.612)" fill="#0062cf"/>
      <path id="Path_469" data-name="Path 469" d="M126.812,186.151a2.238,2.238,0,1,0,1.416.963A2.239,2.239,0,0,0,126.812,186.151Zm.123,2.31a.59.59,0,1,1-.579-.71.606.606,0,0,1,.121.012A.59.59,0,0,1,126.935,188.462Zm0,0" transform="translate(-106.917 -160.553)" fill="#0062cf"/>
      <path id="Path_470" data-name="Path 470" d="M316.326,342.2l-5.039-7.672a.824.824,0,0,0-1.141-.236l-1.082.711a.823.823,0,0,0-.286,1.052A6.741,6.741,0,0,1,297.6,343.4a.824.824,0,0,0-1.08-.154l-.966.634a.824.824,0,0,0-.236,1.141l5.04,7.672a2.5,2.5,0,0,0,3.467.718l11.786-7.743A2.5,2.5,0,0,0,316.326,342.2Zm-1.622,2.09-11.785,7.742a.857.857,0,0,1-1.186-.246l-3.914-5.958a8.391,8.391,0,0,0,13-9.013l4.131,6.289a.857.857,0,0,1-.245,1.185Zm0,0" transform="translate(-254.491 -288.282)" fill="#0062cf"/>
    </g>
    <g id="robot_fc" transform="translate(764.721 435.436)">
      <path id="Path_471" data-name="Path 471" d="M55.56,39.373a3.808,3.808,0,0,0,3.8-3.8v-.189h3.015a.859.859,0,0,0,.859-.859V22.967a.859.859,0,0,0-.859-.859H59.364V21.92a3.808,3.808,0,0,0-3.8-3.8H45.171V14.745a5.276,5.276,0,1,0-4.663,0v3.373H30.118a3.808,3.808,0,0,0-3.8,3.8v.188H23.3a.859.859,0,0,0-.859.859V34.522a.859.859,0,0,0,.859.859h3.015v.189a3.808,3.808,0,0,0,3.8,3.8H36.09v2.609H26.245a3.808,3.808,0,0,0-3.8,3.8V62.048a.859.859,0,0,0,.859.859H62.378a.859.859,0,0,0,.859-.859V45.787a3.808,3.808,0,0,0-3.8-3.8H49.588V39.373Zm5.96-15.547v9.836H59.364V23.826ZM39.281,10.019a3.559,3.559,0,1,1,3.559,3.559,3.559,3.559,0,0,1-3.559-3.559Zm2.945,5.238a4.873,4.873,0,0,0,1.227,0v2.861H42.226ZM24.158,33.663V23.826h2.156v9.836Zm3.874,1.907V21.92a2.089,2.089,0,0,1,2.086-2.086H55.56a2.089,2.089,0,0,1,2.086,2.086V35.57a2.089,2.089,0,0,1-2.086,2.086H48.753l-.024,0a.076.076,0,0,0-.024,0H36.975l-.024,0a.076.076,0,0,0-.024,0H30.118a2.089,2.089,0,0,1-2.086-2.086ZM53.024,61.189H32.654V54.1h20.37Zm8.5-15.4v15.4H54.741V53.244a.859.859,0,0,0-.859-.859H31.795a.859.859,0,0,0-.859.859v7.945H24.159v-15.4A2.089,2.089,0,0,1,26.245,43.7H59.433A2.089,2.089,0,0,1,61.519,45.787Zm-13.649-3.8H37.808V39.373H47.87Z" transform="translate(0)" fill="#0062cf"/>
      <path id="Path_472" data-name="Path 472" d="M47.359,45.7a3.8,3.8,0,1,0-3.8,3.8A3.8,3.8,0,0,0,47.359,45.7Zm-3.8,2.087A2.086,2.086,0,1,1,45.641,45.7a2.086,2.086,0,0,1-2.086,2.086Z" transform="translate(-8.814 -18.923)" fill="#0062cf"/>
      <path id="Path_473" data-name="Path 473" d="M76.554,49.508a3.8,3.8,0,1,0-3.8-3.8A3.8,3.8,0,0,0,76.554,49.508Zm0-5.89A2.086,2.086,0,1,1,74.468,45.7,2.086,2.086,0,0,1,76.554,43.618Z" transform="translate(-25.616 -18.923)" fill="#0062cf"/>
      <path id="Path_474" data-name="Path 474" d="M51.875,63.984a.859.859,0,0,0,.859.859H62.919a.859.859,0,0,0,0-1.718H52.734A.859.859,0,0,0,51.875,63.984Z" transform="translate(-14.987 -29.73)" fill="#0062cf"/>
      <path id="Path_475" data-name="Path 475" d="M92.389,91.284a2.331,2.331,0,1,0-2.331-2.331A2.331,2.331,0,0,0,92.389,91.284Zm0-2.945a.614.614,0,1,1-.614.614A.614.614,0,0,1,92.389,88.339Z" transform="translate(-34.429 -41.693)" fill="#0062cf"/>
      <path id="Path_476" data-name="Path 476" d="M28.442,88.952a2.331,2.331,0,1,0,2.331-2.331A2.331,2.331,0,0,0,28.442,88.952Zm2.331-.614a.614.614,0,1,1-.614.614A.614.614,0,0,1,30.773,88.339Z" transform="translate(-3.056 -41.693)" fill="#0062cf"/>
    </g>
  </g>
</svg>
