<svg xmlns="http://www.w3.org/2000/svg" width="95" height="95" viewBox="0 0 140 140">
<g data-name="Group 214" transform="translate(-197 -430)">
<g fill="none" stroke="#0062cf" stroke-width="2" data-name="Ellipse 18" transform="translate(197 430)">
<circle cx="70" cy="70" r="70" stroke="none"/>
<circle cx="70" cy="70" r="69"/></g>
<g fill="#0062cf" data-name="Group 38" transform="translate(230.693 461.692)">
<path d="M10.21,29.046h12.1a1.214,1.214,0,0,0,1.21-1.21V1.21A1.214,1.214,0,0,0,22.313,0H10.21A1.214,1.214,0,0,0,9,1.21V27.836A1.214,1.214,0,0,0,10.21,29.046ZM11.42,2.42H21.1v24.2H11.42Z" data-name="Path 167" transform="translate(1.892)"/>
<path d="M0 0H7V1H0z" data-name="Rectangle 15" transform="translate(5.307 56.308)"/>
<path d="M0 0H7V3H0z" data-name="Rectangle 16" transform="translate(5.307 60.308)"/>
<path d="M0 0H7V2H0z" data-name="Rectangle 17" transform="translate(5.307 65.308)"/>
<path d="M1.21,70.872H15.733a1.214,1.214,0,0,0,1.21-1.21V50.3a1.214,1.214,0,0,0-1.21-1.21H9.682V34.564a1.214,1.214,0,0,0-1.21-1.21H2.42V13.99H6.765L5.2,15.551l1.706,1.706,3.631-3.631a1.191,1.191,0,0,0,.351-.847,1.24,1.24,0,0,0-.351-.859L6.911,8.29,5.192,10.009,6.765,11.57H1.21A1.214,1.214,0,0,0,0,12.78V34.564a1.214,1.214,0,0,0,1.21,1.21H7.261V49.087H1.21A1.214,1.214,0,0,0,0,50.3V69.662A1.214,1.214,0,0,0,1.21,70.872ZM2.42,51.508h12.1V68.451H2.42Z" data-name="Path 168" transform="translate(0 1.743)"/>
<path d="M48,44.21V62.364a1.214,1.214,0,0,0,1.21,1.21h12.1a1.214,1.214,0,0,0,1.21-1.21V44.21A1.214,1.214,0,0,0,61.313,43H49.21A1.214,1.214,0,0,0,48,44.21Zm2.42,7.261H60.1V55.1H50.42Zm0,9.682V57.523H60.1v3.631ZM60.1,45.42v3.631H50.42V45.42Z" data-name="Path 169" transform="translate(10.092 9.041)"/><path d="M0 0H4V3H0z" data-name="Rectangle 18" transform="translate(16.307 21.308)"/><path d="M0 0H5V2H0z" data-name="Rectangle 19" transform="translate(15.307 5.308)"/><path d="M0 0H5V3H0z" data-name="Rectangle 20" transform="translate(15.307 9.308)"/>
<path d="M31.21,13.682h4.841v3.631a1.214,1.214,0,0,0,1.21,1.21h9.682a1.214,1.214,0,0,0,1.21-1.21V10.051a1.214,1.214,0,0,0-1.21-1.21H42.1V5.21A1.214,1.214,0,0,0,40.892,4H31.21A1.214,1.214,0,0,0,30,5.21v7.261A1.214,1.214,0,0,0,31.21,13.682ZM45.733,16.1H38.472V11.261h7.261ZM32.42,6.42h7.261v2.42h-2.42a1.214,1.214,0,0,0-1.21,1.21v1.21H32.42Z" data-name="Path 170" transform="translate(6.307 0.841)"/>
<path d="M66.569,13.313H56.887V1.21A1.214,1.214,0,0,0,55.677,0H24.21A1.214,1.214,0,0,0,23,1.21V22.995a1.214,1.214,0,0,0,1.21,1.21h12.1v2.42H31.472v2.42H48.415v-2.42H43.574V24.2h12.1a1.214,1.214,0,0,0,1.21-1.21V15.733h8.472V35.1H60.518a1.2,1.2,0,0,0-1.21,1.21V47.914l-1.561-1.561L56.04,48.059,59.67,51.69a1.191,1.191,0,0,0,.847.351,1.24,1.24,0,0,0,.859-.351l3.631-3.631L63.3,46.352l-1.573,1.561v-10.4h4.841a1.218,1.218,0,0,0,.859-.351,1.2,1.2,0,0,0,.351-.859V14.523A1.214,1.214,0,0,0,66.569,13.313ZM41.154,26.625h-2.42V24.2h2.42Zm13.313-4.841H25.42V2.42H54.466Z" data-name="Path 171" transform="translate(4.836)"/>
<path d="M24.664,40.447,16.192,53.76a1.208,1.208,0,0,0,.169,1.5l2.42,2.42a1.155,1.155,0,0,0,.847.363,1.24,1.24,0,0,0,.859-.351l9.258-9.258,15.6,17.682a1.2,1.2,0,0,0,.871.411h.036a1.218,1.218,0,0,0,.859-.351l4.841-4.841a1.213,1.213,0,0,0,.351-.9,1.2,1.2,0,0,0-.411-.871L34.213,43.957l8.048-8.048a1.205,1.205,0,0,0,0-1.706L37.42,29.361a1.205,1.205,0,0,0-1.706,0L24.821,40.254A.79.79,0,0,0,24.664,40.447ZM46.3,63.539,31.454,46.716l1.041-1.041,16.822,14.85Zm-9.73-31.624,3.135,3.135L31.6,43.158l-2.65,2.65-9.319,9.319-.883-.883,7.879-12.381Z" data-name="Path 172" transform="translate(3.365 6.099)"/>
<path d="M0 0H2.42V3.425H0z" data-name="Rectangle 21" transform="translate(22.142 40.797) rotate(-45)"/><path d="M0 0H2V3H0z" data-name="Rectangle 22" transform="translate(29.307 36.308)"/><path d="M0 0H3V3H0z" data-name="Rectangle 23" transform="translate(20.307 45.308)"/>
</g></g></svg>