<svg id="iconfinder_info2_216652" xmlns="http://www.w3.org/2000/svg" width="5" height="10.87" viewBox="0 0 5 10.87">
  <path id="Path_552" data-name="Path 552" d="M3.822,0A1.016,1.016,0,0,1,4.914,1.064,1.429,1.429,0,0,1,3.458,2.429.974.974,0,0,1,2.385,1.347,1.4,1.4,0,0,1,3.822,0ZM1.581,10.87c-.575,0-1-.355-.594-1.915l.66-2.767c.115-.443.134-.62,0-.62a4.342,4.342,0,0,0-1.36.608L0,5.7A7.6,7.6,0,0,1,3.7,3.812c.574,0,.67.691.383,1.755L3.324,8.476c-.134.514-.076.691.057.691a2.96,2.96,0,0,0,1.293-.657L5,8.954A5.978,5.978,0,0,1,1.581,10.87Z"/>
</svg>
