<svg xmlns="http://www.w3.org/2000/svg" width="10.396" height="22.601" viewBox="0 0 10.396 22.601"><path d="M7.947,0a2.113,2.113,0,0,1,2.27,2.212A2.971,2.971,0,0,1,7.19,5.05,2.026,2.026,0,0,1,4.96,2.8,2.907,2.907,0,0,1,7.947,0ZM3.287,22.6c-1.195,0-2.071-.737-1.235-3.981l1.372-5.754c.239-.921.278-1.29,0-1.29A9.028,9.028,0,0,0,.6,12.84l-.6-1C2.907,9.375,6.252,7.927,7.685,7.927c1.194,0,1.394,1.438.8,3.65L6.911,17.624c-.279,1.069-.159,1.437.119,1.437A6.155,6.155,0,0,0,9.719,17.7l.677.922C7.569,21.494,4.482,22.6,3.287,22.6Z" data-name="Path 552"/></svg>