<svg xmlns="http://www.w3.org/2000/svg" width="24.939" height="24.939" viewBox="0 0 24.939 24.939">
  <path id="check_circle_complete_correct_ok_yes_icon-1320085936314653551_0" data-name="check+circle+complete+correct+ok+yes+icon-1320085936314653551_0" d="M10.627,17.861a.624.624,0,0,1-.406-.15L6.536,14.551a.623.623,0,1,1,.812-.947l3.189,2.733,6.97-8.961a.623.623,0,1,1,.984.766L11.119,17.62a.623.623,0,0,1-.43.238C10.669,17.859,10.648,17.861,10.627,17.861ZM24.939,12.47a12.47,12.47,0,1,0-12.47,12.47A12.484,12.484,0,0,0,24.939,12.47Zm-1.247,0A11.223,11.223,0,1,1,12.47,1.247,11.236,11.236,0,0,1,23.692,12.47Z"/>
</svg>
