<svg xmlns="http://www.w3.org/2000/svg" width="23.566" height="23.49" viewBox="0 0 23.566 23.49"><g fill="#0062cf" stroke="#0062cf" stroke-width="1" transform="translate(0.5 0.5)"><path d="M10.542,21.084H1.406V1.406h9.136a.7.7,0,0,0,0-1.406H.7A.7.7,0,0,0,0,.7V21.787a.7.7,0,0,0,.7.7h9.839a.7.7,0,1,0,0-1.406Z" data-name="Path 193"/><path d="M24.367,13.134,19.518,8.215a.7.7,0,0,0-.994,0,.714.714,0,0,0,0,1l3.655,3.707H7.706a.71.71,0,0,0,0,1.42H22.179l-3.655,3.707a.714.714,0,0,0,0,1,.7.7,0,0,0,.994,0l4.849-4.919A.719.719,0,0,0,24.367,13.134Z" data-name="Path 194" transform="translate(-2.081 -2.38)"/></g></svg>