<svg id="Page-1" xmlns="http://www.w3.org/2000/svg" width="28.201" height="28.201" viewBox="0 0 28.201 28.201">
  <g id="_064---Subscription-Models" data-name="064---Subscription-Models">
    <path id="Shape" d="M10.411,7.29A.47.47,0,1,1,10,8a.47.47,0,0,0-.814.47,1.41,1.41,0,0,0,.752.611V9.17a.47.47,0,0,0,.94,0V9.084a1.407,1.407,0,0,0-.471-2.734.47.47,0,1,1,.408-.705.47.47,0,0,0,.814-.47,1.41,1.41,0,0,0-.751-.611V4.47a.47.47,0,0,0-.94,0v.086a1.407,1.407,0,0,0,.47,2.734Z" transform="translate(-4.77 -2.12)" fill="#0062cf"/>
    <path id="Shape-2" data-name="Shape" d="M8.47,22.94h2.82a.47.47,0,0,0,0-.94H8.47a.47.47,0,0,0,0,.94Z" transform="translate(-4.24 -11.66)" fill="#0062cf"/>
    <path id="Shape-3" data-name="Shape" d="M28.411,7.29A.47.47,0,1,1,28,8a.47.47,0,0,0-.814.47,1.41,1.41,0,0,0,.752.611V9.17a.47.47,0,1,0,.94,0V9.084a1.407,1.407,0,0,0-.471-2.734.47.47,0,1,1,.408-.705.47.47,0,0,0,.814-.47,1.41,1.41,0,0,0-.751-.611V4.47a.47.47,0,0,0-.94,0v.086a1.407,1.407,0,0,0,.47,2.734Z" transform="translate(-14.31 -2.12)" fill="#0062cf"/>
    <path id="Shape-4" data-name="Shape" d="M26.47,22.94h2.82a.47.47,0,0,0,0-.94H26.47a.47.47,0,0,0,0,.94Z" transform="translate(-13.779 -11.66)" fill="#0062cf"/>
    <path id="Shape-5" data-name="Shape" d="M26.47,26.94h2.82a.47.47,0,0,0,0-.94H26.47a.47.47,0,0,0,0,.94Z" transform="translate(-13.779 -13.779)" fill="#0062cf"/>
    <path id="Shape-6" data-name="Shape" d="M8.47,26.94h2.82a.47.47,0,1,0,0-.94H8.47a.47.47,0,1,0,0,.94Z" transform="translate(-4.24 -13.779)" fill="#0062cf"/>
    <path id="Shape-7" data-name="Shape" d="M46.411,7.29A.47.47,0,1,1,46,8a.47.47,0,0,0-.814.47,1.41,1.41,0,0,0,.752.611V9.17a.47.47,0,0,0,.94,0V9.084a1.407,1.407,0,0,0-.471-2.734.47.47,0,1,1,.408-.705.47.47,0,0,0,.814-.47,1.41,1.41,0,0,0-.751-.611V4.47a.47.47,0,0,0-.94,0v.086a1.407,1.407,0,0,0,.47,2.734Z" transform="translate(-23.85 -2.12)" fill="#0062cf"/>
    <path id="Shape-8" data-name="Shape" d="M44.47,22.94h2.82a.47.47,0,0,0,0-.94H44.47a.47.47,0,0,0,0,.94Z" transform="translate(-23.319 -11.66)" fill="#0062cf"/>
    <path id="Shape-9" data-name="Shape" d="M44.47,26.94h2.82a.47.47,0,0,0,0-.94H44.47a.47.47,0,0,0,0,.94Z" transform="translate(-23.319 -13.779)" fill="#0062cf"/>
    <path id="Shape-10" data-name="Shape" d="M44.47,30.94h2.82a.47.47,0,0,0,0-.94H44.47a.47.47,0,0,0,0,.94Z" transform="translate(-23.319 -15.899)" fill="#0062cf"/>
    <path id="Shape-11" data-name="Shape" d="M26.47,30.94h2.82a.47.47,0,0,0,0-.94H26.47a.47.47,0,0,0,0,.94Z" transform="translate(-13.779 -15.899)" fill="#0062cf"/>
    <path id="Shape-12" data-name="Shape" d="M44.47,34.94h2.82a.47.47,0,0,0,0-.94H44.47a.47.47,0,0,0,0,.94Z" transform="translate(-23.319 -18.019)" fill="#0062cf"/>
    <path id="Shape-13" data-name="Shape" d="M26.791,2.35h-.47v-.3A1.97,1.97,0,0,0,24.441,0h-3.76A1.97,1.97,0,0,0,18.8,2.046v.3h-.94v-.3A1.97,1.97,0,0,0,15.981,0h-3.76a1.97,1.97,0,0,0-1.88,2.046v.3H9.4v-.3A1.97,1.97,0,0,0,7.52,0H3.76A1.97,1.97,0,0,0,1.88,2.046v.3H1.41A1.41,1.41,0,0,0,0,3.76V22.091A1.41,1.41,0,0,0,1.41,23.5H9.58l-.94,1.88H7.05a1.41,1.41,0,1,0,0,2.82h14.1a1.41,1.41,0,1,0,0-2.82h-1.59l-.94-1.88h8.17a1.41,1.41,0,0,0,1.41-1.41V3.76A1.41,1.41,0,0,0,26.791,2.35ZM19.741,9.4h5.64v7.354a1.034,1.034,0,0,1-.94,1.106h-3.76a1.034,1.034,0,0,1-.94-1.106Zm0-7.354A1.034,1.034,0,0,1,20.681.94h3.76a1.034,1.034,0,0,1,.94,1.106V8.46h-5.64ZM11.28,9.4h5.64v7.354a1.034,1.034,0,0,1-.94,1.106h-3.76a1.034,1.034,0,0,1-.94-1.106Zm0-7.354A1.034,1.034,0,0,1,12.221.94h3.76a1.034,1.034,0,0,1,.94,1.106V8.46H11.28ZM2.82,9.4H8.46v7.354a1.034,1.034,0,0,1-.94,1.106H3.76a1.034,1.034,0,0,1-.94-1.106Zm0-7.354A1.034,1.034,0,0,1,3.76.94H7.52a1.034,1.034,0,0,1,.94,1.106V8.46H2.82Zm18.8,24.745a.47.47,0,0,1-.47.47H7.05a.47.47,0,1,1,0-.94h14.1A.47.47,0,0,1,21.621,26.791Zm-3.111-1.41H9.691l.94-1.88H17.57Zm8.281-2.82H1.41a.47.47,0,0,1-.47-.47v-1.41H2.82a.47.47,0,1,0,0-.94H.94V3.76a.47.47,0,0,1,.47-.47h.47V16.755A1.97,1.97,0,0,0,3.76,18.8H7.52A1.97,1.97,0,0,0,9.4,16.755V3.29h.94V16.755a1.97,1.97,0,0,0,1.88,2.046h3.76a1.97,1.97,0,0,0,1.88-2.046V3.29h.94V16.755a1.97,1.97,0,0,0,1.88,2.046h3.76a1.97,1.97,0,0,0,1.88-2.046V3.29h.47a.47.47,0,0,1,.47.47V19.741H4.7a.47.47,0,1,0,0,.94H27.261v1.41A.47.47,0,0,1,26.791,22.561Z" fill="#0062cf"/>
  </g>
</svg>
