<svg id="subscription" xmlns="http://www.w3.org/2000/svg" width="32" height="32" viewBox="0 0 32 32">
  <path id="Path_747" data-name="Path 747" d="M141.333,0H129.6A1.6,1.6,0,0,0,128,1.6V20.8a1.6,1.6,0,0,0,1.6,1.6h3.2V21.333h-3.2a.533.533,0,0,1-.533-.533V1.6a.533.533,0,0,1,.533-.533h11.733a.533.533,0,0,1,.533.533V20.8a.533.533,0,0,1-.533.533h-3.2V22.4h3.2a1.6,1.6,0,0,0,1.6-1.6V1.6A1.6,1.6,0,0,0,141.333,0Zm0,0" transform="translate(-119.467 0)" fill="#0062cf"/>
  <path id="Path_748" data-name="Path 748" d="M1.6,50.133H7.467V49.067H1.6a.533.533,0,0,1-.533-.533V33.6a.533.533,0,0,1,.533-.533H7.467V32H1.6A1.6,1.6,0,0,0,0,33.6V48.533A1.6,1.6,0,0,0,1.6,50.133Zm0,0" transform="translate(0 -29.867)" fill="#0062cf"/>
  <path id="Path_749" data-name="Path 749" d="M192,40h1.067v1.067H192Zm0,0" transform="translate(-179.2 -37.333)" fill="#0062cf"/>
  <path id="Path_750" data-name="Path 750" d="M224,40h4.267v1.067H224Zm0,0" transform="translate(-209.067 -37.333)" fill="#0062cf"/>
  <path id="Path_751" data-name="Path 751" d="M168,80h1.067v2.133H168Zm0,0" transform="translate(-156.8 -74.667)" fill="#0062cf"/>
  <path id="Path_752" data-name="Path 752" d="M200,80h1.067v2.133H200Zm0,0" transform="translate(-186.667 -74.667)" fill="#0062cf"/>
  <path id="Path_753" data-name="Path 753" d="M232,80h1.067v2.133H232Zm0,0" transform="translate(-216.533 -74.667)" fill="#0062cf"/>
  <path id="Path_754" data-name="Path 754" d="M264,80h1.067v2.133H264Zm0,0" transform="translate(-246.4 -74.667)" fill="#0062cf"/>
  <path id="Path_755" data-name="Path 755" d="M296,80h1.067v2.133H296Zm0,0" transform="translate(-276.267 -74.667)" fill="#0062cf"/>
  <path id="Path_756" data-name="Path 756" d="M232,136h3.733v1.067H232Zm0,0" transform="translate(-216.533 -126.933)" fill="#0062cf"/>
  <path id="Path_757" data-name="Path 757" d="M193.6,235.2h3.2a1.6,1.6,0,1,0,0-3.2h-3.2a1.6,1.6,0,0,0,0,3.2Zm0-2.133h3.2a.533.533,0,1,1,0,1.067h-3.2a.533.533,0,0,1,0-1.067Zm0,0" transform="translate(-179.2 -216.533)" fill="#0062cf"/>
  <path id="Path_758" data-name="Path 758" d="M88,64h1.6v1.067H88Zm0,0" transform="translate(-82.133 -59.733)" fill="#0062cf"/>
  <path id="Path_759" data-name="Path 759" d="M32,104h1.067v1.6H32Zm0,0" transform="translate(-29.867 -97.067)" fill="#0062cf"/>
  <path id="Path_760" data-name="Path 760" d="M64,104h1.067v1.6H64Zm0,0" transform="translate(-59.733 -97.067)" fill="#0062cf"/>
  <path id="Path_761" data-name="Path 761" d="M96,104h1.067v1.6H96Zm0,0" transform="translate(-89.6 -97.067)" fill="#0062cf"/>
  <path id="Path_762" data-name="Path 762" d="M56,64h1.067v1.067H56Zm0,0" transform="translate(-52.267 -59.733)" fill="#0062cf"/>
  <path id="Path_763" data-name="Path 763" d="M41.6,219.2h3.2v-1.067H41.6a.533.533,0,1,1,0-1.067h3.2V216H41.6a1.6,1.6,0,1,0,0,3.2Zm0,0" transform="translate(-37.333 -201.6)" fill="#0062cf"/>
  <path id="Path_764" data-name="Path 764" d="M373.867,32H368v1.067h5.867a.533.533,0,0,1,.533.533V48.533a.533.533,0,0,1-.533.533H368v1.067h5.867a1.6,1.6,0,0,0,1.6-1.6V33.6A1.6,1.6,0,0,0,373.867,32Zm0,0" transform="translate(-343.467 -29.867)" fill="#0062cf"/>
  <path id="Path_765" data-name="Path 765" d="M368,64h3.733v1.067H368Zm0,0" transform="translate(-343.467 -59.733)" fill="#0062cf"/>
  <path id="Path_766" data-name="Path 766" d="M432,104h1.067v1.6H432Zm0,0" transform="translate(-403.2 -97.067)" fill="#0062cf"/>
  <path id="Path_767" data-name="Path 767" d="M400,104h1.067v1.6H400Zm0,0" transform="translate(-373.333 -97.067)" fill="#0062cf"/>
  <path id="Path_768" data-name="Path 768" d="M368,104h1.067v1.6H368Zm0,0" transform="translate(-343.467 -97.067)" fill="#0062cf"/>
  <path id="Path_769" data-name="Path 769" d="M368,216v1.067h3.2a.533.533,0,0,1,0,1.067H368V219.2h3.2a1.6,1.6,0,1,0,0-3.2Zm0,0" transform="translate(-343.467 -201.6)" fill="#0062cf"/>
  <path id="Path_770" data-name="Path 770" d="M173.332,307.716v-5.81A1.645,1.645,0,0,0,172,300.271a1.608,1.608,0,0,0-1.3.359l-.032.027a1.6,1.6,0,0,0-2.133,0,1.662,1.662,0,0,0-1.6-.317v-2.7A1.645,1.645,0,0,0,165.6,296a1.6,1.6,0,0,0-1.868,1.579v6.525l-1.415-.849a1.464,1.464,0,0,0-1.418-.053l-.085.042a1.475,1.475,0,0,0-.2,2.52l3.339,2.384a.531.531,0,0,0,.31.1H172.8a.533.533,0,0,0,.533-.533Zm-1.067-.533h-7.829l-3.2-2.285a.409.409,0,0,1,.053-.7l.085-.041a.405.405,0,0,1,.392.015l2.223,1.333a.533.533,0,0,0,.809-.457v-7.467a.533.533,0,0,1,.627-.525.577.577,0,0,1,.44.582v4.21a.533.533,0,0,0,1.067,0,.533.533,0,0,1,1.067,0,.533.533,0,0,0,1.067,0,.533.533,0,0,1,1.067,0,.533.533,0,0,0,1.067,0,.533.533,0,0,1,.627-.525.577.577,0,0,1,.44.582Zm0,0" transform="translate(-149.332 -276.249)" fill="#0062cf"/>
  <path id="Path_771" data-name="Path 771" d="M192,136h1.6v1.067H192Zm0,0" transform="translate(-179.2 -126.933)" fill="#0062cf"/>
  <path id="Path_772" data-name="Path 772" d="M192,168h6.4v1.067H192Zm0,0" transform="translate(-179.2 -156.8)" fill="#0062cf"/>
  <path id="Path_773" data-name="Path 773" d="M208,200h4.267v1.067H208Zm0,0" transform="translate(-194.133 -186.667)" fill="#0062cf"/>
  <path id="Path_774" data-name="Path 774" d="M64,152h3.2v1.067H64Zm0,0" transform="translate(-59.733 -141.867)" fill="#0062cf"/>
  <path id="Path_775" data-name="Path 775" d="M80,184h2.133v1.067H80Zm0,0" transform="translate(-74.667 -171.733)" fill="#0062cf"/>
  <path id="Path_776" data-name="Path 776" d="M368,152h2.667v1.067H368Zm0,0" transform="translate(-343.467 -141.867)" fill="#0062cf"/>
  <path id="Path_777" data-name="Path 777" d="M368,184h1.6v1.067H368Zm0,0" transform="translate(-343.467 -171.733)" fill="#0062cf"/>
</svg>
