<svg id="Group_504" data-name="Group 504" xmlns="http://www.w3.org/2000/svg" width="24.94" height="24.94" viewBox="0 0 24.94 24.94">
  <path id="Path_344" data-name="Path 344" d="M12.47,0A12.47,12.47,0,1,0,24.94,12.47,12.47,12.47,0,0,0,12.47,0Zm0,23.771a11.3,11.3,0,1,1,11.3-11.3,11.3,11.3,0,0,1-11.3,11.3Z" fill="red"/>
  <path id="Path_345" data-name="Path 345" d="M47.128,35.065a.637.637,0,0,0-.9,0l-5.07,5.087-5.068-5.1a.638.638,0,0,0-.9.9l5.07,5.1-5.07,5.1a.637.637,0,0,0,.9.9l5.068-5.094,5.07,5.1a.638.638,0,0,0,.9-.9l-5.072-5.1,5.072-5.1A.637.637,0,0,0,47.128,35.065Z" transform="translate(-28.687 -28.585)" fill="red"/>
</svg>
