<svg xmlns="http://www.w3.org/2000/svg" width="26.605" height="27.872" viewBox="0 0 26.605 27.872">
  <path id="iconfinder_45.Settings_290105" d="M23.271,14.669H9.335A6.335,6.335,0,1,1,9.335,2H23.271a6.335,6.335,0,1,1,0,12.669Zm0-11.4H9.335a5.068,5.068,0,1,0,0,10.135H23.271a5.233,5.233,0,0,0,3.63-1.531,4.874,4.874,0,0,0,1.438-3.536A5.068,5.068,0,0,0,23.271,3.267ZM9.335,12.135a3.8,3.8,0,1,1,3.8-3.8A3.8,3.8,0,0,1,9.335,12.135Zm0-6.335a2.534,2.534,0,1,0,2.534,2.534A2.534,2.534,0,0,0,9.335,5.8Zm0,11.4H23.271a6.335,6.335,0,1,1,0,12.669H9.335a6.335,6.335,0,1,1,0-12.669Zm0,11.4H23.271a5.068,5.068,0,1,0,0-10.135H9.335a5.068,5.068,0,1,0,0,10.135Zm13.936-8.868a3.8,3.8,0,1,1-3.8,3.8A3.8,3.8,0,0,1,23.271,19.737Zm0,6.335a2.534,2.534,0,1,0-2.534-2.534A2.534,2.534,0,0,0,23.271,26.072Z" transform="translate(-3 -2)" fill="#006dd5" fill-rule="evenodd"/>
</svg>
