<svg xmlns="http://www.w3.org/2000/svg" width="51" height="45" viewBox="0 0 51 45">
  <g id="Group_517" data-name="Group 517" transform="translate(-773 -655)">
    <g id="Group_516" data-name="Group 516" transform="translate(13 11.312)">
      <g id="Polygon_1" data-name="Polygon 1" transform="translate(811 688.688) rotate(180)" fill="#fff">
        <path d="M 50.1419677734375 44.5 L 0.8580323457717896 44.5 L 25.5 1.014174699783325 L 50.1419677734375 44.5 Z" stroke="none"/>
        <path d="M 25.5 2.028339385986328 L 1.716060638427734 44 L 49.28393936157227 44 L 25.5 2.028339385986328 M 25.5 0 L 51 45 L 0 45 L 25.5 0 Z" stroke="none" fill="#0062cf"/>
      </g>
    </g>
    <g id="Rectangle_352" data-name="Rectangle 352" transform="translate(792 663)" fill="#0062cf" stroke="#0062cf" stroke-width="1">
      <rect width="4" height="4" rx="1" stroke="none"/>
      <rect x="0.5" y="0.5" width="3" height="3" rx="0.5" fill="none"/>
    </g>
    <g id="Rectangle_356" data-name="Rectangle 356" transform="translate(792 668)" fill="#0062cf" stroke="#0062cf" stroke-width="1">
      <rect width="4" height="4" rx="1" stroke="none"/>
      <rect x="0.5" y="0.5" width="3" height="3" rx="0.5" fill="none"/>
    </g>
    <g id="Rectangle_359" data-name="Rectangle 359" transform="translate(792 673)" fill="#0062cf" stroke="#0062cf" stroke-width="1">
      <rect width="4" height="4" rx="1" stroke="none"/>
      <rect x="0.5" y="0.5" width="3" height="3" rx="0.5" fill="none"/>
    </g>
    <g id="Rectangle_353" data-name="Rectangle 353" transform="translate(797 663)" fill="#0062cf" stroke="#0062cf" stroke-width="1">
      <rect width="4" height="4" rx="1" stroke="none"/>
      <rect x="0.5" y="0.5" width="3" height="3" rx="0.5" fill="none"/>
    </g>
    <g id="Rectangle_355" data-name="Rectangle 355" transform="translate(797 668)" fill="#0062cf" stroke="#0062cf" stroke-width="1">
      <rect width="4" height="4" rx="1" stroke="none"/>
      <rect x="0.5" y="0.5" width="3" height="3" rx="0.5" fill="none"/>
    </g>
    <g id="Rectangle_358" data-name="Rectangle 358" transform="translate(797 673)" fill="#0062cf" stroke="#0062cf" stroke-width="1">
      <rect width="4" height="4" rx="1" stroke="none"/>
      <rect x="0.5" y="0.5" width="3" height="3" rx="0.5" fill="none"/>
    </g>
    <g id="Rectangle_361" data-name="Rectangle 361" transform="translate(797 678)" fill="#0062cf" stroke="#0062cf" stroke-width="1">
      <rect width="4" height="4" rx="1" stroke="none"/>
      <rect x="0.5" y="0.5" width="3" height="3" rx="0.5" fill="none"/>
    </g>
    <g id="Rectangle_354" data-name="Rectangle 354" transform="translate(802 663)" fill="#0062cf" stroke="#0062cf" stroke-width="1">
      <rect width="4" height="4" rx="1" stroke="none"/>
      <rect x="0.5" y="0.5" width="3" height="3" rx="0.5" fill="none"/>
    </g>
    <g id="Rectangle_357" data-name="Rectangle 357" transform="translate(802 668)" fill="#0062cf" stroke="#0062cf" stroke-width="1">
      <rect width="4" height="4" rx="1" stroke="none"/>
      <rect x="0.5" y="0.5" width="3" height="3" rx="0.5" fill="none"/>
    </g>
    <g id="Rectangle_360" data-name="Rectangle 360" transform="translate(802 673)" fill="#0062cf" stroke="#0062cf" stroke-width="1">
      <rect width="4" height="4" rx="1" stroke="none"/>
      <rect x="0.5" y="0.5" width="3" height="3" rx="0.5" fill="none"/>
    </g>
  </g>
</svg>
