<svg xmlns="http://www.w3.org/2000/svg" width="31" height="27" viewBox="0 0 31 27">
  <g id="Group_561" data-name="Group 561" transform="translate(-795 -686)">
    <g id="Group_516" data-name="Group 516" transform="translate(795.234 685.8)">
      <g id="Polygon_1" data-name="Polygon 1" transform="translate(30.766 27.2) rotate(180)" fill="#fff">
        <path d="M 30.13642883300781 26.5 L 0.8635712862014771 26.5 L 15.5 1.004285454750061 L 30.13642883300781 26.5 Z" stroke="none"/>
        <path d="M 15.5 2.008563995361328 L 1.727138519287109 26 L 29.27286148071289 26 L 15.5 2.008563995361328 M 15.5 0 L 31 27 L 0 27 L 15.5 0 Z" stroke="none" fill="#0062cf"/>
      </g>
    </g>
    <g id="Rectangle_844" data-name="Rectangle 844" transform="translate(807 692)" fill="#fff" stroke="#0062cf" stroke-width="1">
      <rect width="2" height="2" stroke="none"/>
      <rect x="0.5" y="0.5" width="1" height="1" fill="none"/>
    </g>
    <g id="Rectangle_845" data-name="Rectangle 845" transform="translate(810 692)" fill="#fff" stroke="#0062cf" stroke-width="1">
      <rect width="2" height="2" stroke="none"/>
      <rect x="0.5" y="0.5" width="1" height="1" fill="none"/>
    </g>
    <g id="Rectangle_846" data-name="Rectangle 846" transform="translate(813 692)" fill="#fff" stroke="#0062cf" stroke-width="1">
      <rect width="2" height="2" stroke="none"/>
      <rect x="0.5" y="0.5" width="1" height="1" fill="none"/>
    </g>
    <g id="Rectangle_847" data-name="Rectangle 847" transform="translate(807 695)" fill="#fff" stroke="#0062cf" stroke-width="1">
      <rect width="2" height="2" stroke="none"/>
      <rect x="0.5" y="0.5" width="1" height="1" fill="none"/>
    </g>
    <g id="Rectangle_848" data-name="Rectangle 848" transform="translate(810 695)" fill="#fff" stroke="#0062cf" stroke-width="1">
      <rect width="2" height="2" stroke="none"/>
      <rect x="0.5" y="0.5" width="1" height="1" fill="none"/>
    </g>
    <g id="Rectangle_849" data-name="Rectangle 849" transform="translate(813 695)" fill="#fff" stroke="#0062cf" stroke-width="1">
      <rect width="2" height="2" stroke="none"/>
      <rect x="0.5" y="0.5" width="1" height="1" fill="none"/>
    </g>
    <g id="Rectangle_850" data-name="Rectangle 850" transform="translate(807 698)" fill="#fff" stroke="#0062cf" stroke-width="1">
      <rect width="2" height="2" stroke="none"/>
      <rect x="0.5" y="0.5" width="1" height="1" fill="none"/>
    </g>
    <g id="Rectangle_851" data-name="Rectangle 851" transform="translate(810 698)" fill="#fff" stroke="#0062cf" stroke-width="1">
      <rect width="2" height="2" stroke="none"/>
      <rect x="0.5" y="0.5" width="1" height="1" fill="none"/>
    </g>
    <g id="Rectangle_852" data-name="Rectangle 852" transform="translate(813 698)" fill="#fff" stroke="#0062cf" stroke-width="1">
      <rect width="2" height="2" stroke="none"/>
      <rect x="0.5" y="0.5" width="1" height="1" fill="none"/>
    </g>
    <g id="Rectangle_853" data-name="Rectangle 853" transform="translate(810 701)" fill="#fff" stroke="#0062cf" stroke-width="1">
      <rect width="2" height="2" stroke="none"/>
      <rect x="0.5" y="0.5" width="1" height="1" fill="none"/>
    </g>
  </g>
</svg>
