<svg xmlns="http://www.w3.org/2000/svg" width="19.586" height="22.102" viewBox="0 0 19.586 22.102"><g fill="#434343" transform="translate(-1 -0.102)"><path d="M1,11.751A9.751,9.751,0,1,0,10.751,2,9.751,9.751,0,0,0,1,11.751Zm9.751-8.358a8.358,8.358,0,1,1-8.358,8.358A8.357,8.357,0,0,1,10.751,3.393Z" data-name="Path 185" transform="translate(0 0.704)"/><path d="M0 0H6V1H0z" data-name="Rectangle 63" transform="translate(7.763 0.102)"/><path d="M0 0H1.393V2.786H0z" data-name="Rectangle 64" transform="translate(17.631 2.908) rotate(-45)"/><path d="M8,4v6.965h6.965A6.965,6.965,0,0,0,8,4Z" data-name="Path 186" transform="translate(2.751 1.489)"/></g></svg>