<svg id="Layer_1" data-name="Layer 1" xmlns="http://www.w3.org/2000/svg" viewBox="0 0 22 22"><defs><style>.cls-1{opacity:0.5;}.cls-2{fill:#808998;stroke:#fd6363;stroke-miterlimit:10;}.cls-3{fill:#fd6363;}</style></defs><title>Captcha-hover</title><g class="cls-1"><path class="cls-2" d="M10.8,1,9.61,2l2,2.25H7.44A4.75,4.75,0,0,0,2.69,9v4.35H4.28V9A3.16,3.16,0,0,1,7.44,5.86h4.17l-2,2.24,1.18,1.05,3.61-4.08Z"/><path class="cls-2" d="M17.72,8.63V13a3.16,3.16,0,0,1-3.16,3.16H10.39l2-2.24-1.18-1.05L7.57,16.93,11.2,21,12.38,20l-2-2.25h4.15A4.75,4.75,0,0,0,19.31,13V8.63Z"/></g><path class="cls-3" d="M10.8,1,9.61,2l2,2.25H7.44A4.75,4.75,0,0,0,2.69,9v4.35H4.28V9A3.16,3.16,0,0,1,7.44,5.86h4.17l-2,2.24,1.18,1.05,3.61-4.08Z"/><path class="cls-3" d="M17.72,8.63V13a3.16,3.16,0,0,1-3.16,3.16H10.39l2-2.24-1.18-1.05L7.57,16.93,11.2,21,12.38,20l-2-2.25h4.15A4.75,4.75,0,0,0,19.31,13V8.63Z"/></svg>