<svg id="Layer_1" data-name="Layer 1" xmlns="http://www.w3.org/2000/svg" viewBox="0 0 22 22"><defs><style>.cls-1{fill:#808998;}</style></defs><title>Execute-windows</title><path class="cls-1" d="M18.68,20H3A2.23,2.23,0,0,1,.74,17.77V4.44A2.23,2.23,0,0,1,3,2.2H18.68a2.23,2.23,0,0,1,2.23,2.24V17.77A2.23,2.23,0,0,1,18.68,20ZM3,2.87A1.57,1.57,0,0,0,1.4,4.44V17.77A1.58,1.58,0,0,0,3,19.34H18.68a1.58,1.58,0,0,0,1.57-1.57V4.44a1.57,1.57,0,0,0-1.57-1.57Z"/><path class="cls-1" d="M18.67,20.25H3A2.48,2.48,0,0,1,.49,17.77V4.44A2.49,2.49,0,0,1,3,2h15.7a2.49,2.49,0,0,1,2.49,2.49V17.77A2.48,2.48,0,0,1,18.67,20.25ZM3,2.45a2,2,0,0,0-2,2V17.77a2,2,0,0,0,2,2h15.7a2,2,0,0,0,2-2V4.44a2,2,0,0,0-2-2Zm15.7,17.14H3a1.83,1.83,0,0,1-1.82-1.82V4.44A1.82,1.82,0,0,1,3,2.62h15.7A1.82,1.82,0,0,1,20.5,4.44V17.77A1.83,1.83,0,0,1,18.67,19.59ZM3,3.12A1.32,1.32,0,0,0,1.65,4.44V17.77A1.33,1.33,0,0,0,3,19.09h15.7A1.33,1.33,0,0,0,20,17.77V4.44a1.33,1.33,0,0,0-1.33-1.32Z"/><path class="cls-1" d="M20.58,7.54H1.07a.34.34,0,0,1,0-.67H20.58a.34.34,0,0,1,0,.67Z"/><path class="cls-1" d="M20.58,7.78H1.07a.58.58,0,0,1,0-1.16H20.58a.58.58,0,0,1,0,1.16ZM1.07,7.12A.08.08,0,0,0,1,7.2a.07.07,0,0,0,.08.08H20.58a.07.07,0,0,0,.08-.08.09.09,0,0,0-.08-.08Z"/><path class="cls-1" d="M13.33,5.84A.86.86,0,1,1,14.19,5,.85.85,0,0,1,13.33,5.84Zm0-1.18A.32.32,0,0,0,13,5a.32.32,0,1,0,.63,0A.31.31,0,0,0,13.33,4.66Z"/><path class="cls-1" d="M15.62,5.84A.86.86,0,1,1,16.48,5,.86.86,0,0,1,15.62,5.84Zm0-1.18A.32.32,0,0,0,15.3,5a.33.33,0,0,0,.32.32A.32.32,0,0,0,15.94,5,.32.32,0,0,0,15.62,4.66Z"/><path class="cls-1" d="M17.89,5.84A.86.86,0,1,1,18.75,5,.86.86,0,0,1,17.89,5.84Zm0-1.18a.32.32,0,0,0-.32.32.32.32,0,1,0,.63,0A.31.31,0,0,0,17.89,4.66Z"/><path class="cls-1" d="M11.26,15.14a.16.16,0,0,0,0-.09,6,6,0,0,1-.41-.53,3.35,3.35,0,0,0,.15-.35l.71-.11s.05,0,.07-.05a.18.18,0,0,0,0-.09v-.85a.18.18,0,0,0,0-.09.16.16,0,0,0-.08-.05l-.7-.1a2.45,2.45,0,0,0-.15-.38,1.68,1.68,0,0,1,.21-.27l.19-.25a.16.16,0,0,0,0-.09c0-.08-.22-.33-.66-.74a.17.17,0,0,0-.1,0,.12.12,0,0,0-.09,0l-.54.41a2.45,2.45,0,0,0-.35-.15l-.1-.7a.14.14,0,0,0-.05-.08l-.09,0H8.41a.13.13,0,0,0-.14.11,6,6,0,0,0-.1.7l-.36.15-.53-.41-.09,0c-.06,0-.18.09-.37.27a3.4,3.4,0,0,0-.37.41.1.1,0,0,0,0,.09.12.12,0,0,0,0,.09c.17.21.31.38.41.53-.06.13-.11.24-.15.35L6,12.92s0,0-.07.05a.12.12,0,0,0,0,.09v.85a.12.12,0,0,0,0,.09A.08.08,0,0,0,6,14l.7.11a2.39,2.39,0,0,0,.16.38c0,.07-.12.16-.21.28a2.33,2.33,0,0,0-.19.25.16.16,0,0,0,0,.08c0,.09.22.33.66.74a.18.18,0,0,0,.1,0,.1.1,0,0,0,.09,0l.54-.4a2.31,2.31,0,0,0,.35.14l.1.7a.14.14,0,0,0,.05.08.12.12,0,0,0,.09,0h.86c.07,0,.11,0,.14-.11a6.88,6.88,0,0,0,.1-.72,1.78,1.78,0,0,0,.36-.14l.52.41a.14.14,0,0,0,.1,0c.06,0,.18-.09.36-.28a5.16,5.16,0,0,0,.38-.41A.12.12,0,0,0,11.26,15.14Zm-1.59-.82a1.14,1.14,0,0,1-.83.35,1.2,1.2,0,0,1-1.18-1.18A1.14,1.14,0,0,1,8,12.66a1.13,1.13,0,0,1,.83-.35A1.2,1.2,0,0,1,10,13.49,1.13,1.13,0,0,1,9.67,14.32Z"/><path class="cls-1" d="M14,15.38a.92.92,0,0,0-.13-.24,2.59,2.59,0,0,0,.23-.63s0,0,0,0l-.57-.33h0a5.79,5.79,0,0,0-.42.52h-.27l-.24-.31c-.12-.14-.19-.22-.22-.22l-.13.08-.28.15-.16.1a0,0,0,0,0,0,0,2.19,2.19,0,0,0,.23.63,1.38,1.38,0,0,0-.14.24c-.46,0-.68.1-.68.15v.64s.22.1.68.14a1,1,0,0,0,.14.24,2.32,2.32,0,0,0-.23.64,0,0,0,0,0,0,0l.57.33s.1-.08.22-.22l.24-.31h.27a3.42,3.42,0,0,0,.24.31c.12.14.19.22.21.22l.57-.33s0,0,0,0a2.75,2.75,0,0,0-.23-.64.92.92,0,0,0,.13-.24c.46,0,.69-.09.69-.14v-.64S14.5,15.43,14,15.38Zm-.66.88a.56.56,0,0,1-.42.18.62.62,0,0,1-.59-.59.58.58,0,0,1,.18-.42.58.58,0,0,1,.41-.17.58.58,0,0,1,.59.59A.57.57,0,0,1,13.38,16.26Z"/><path class="cls-1" d="M14,10.67a.92.92,0,0,0-.13-.24,2.94,2.94,0,0,0,.23-.63s0,0,0,0l-.57-.32h0a5.79,5.79,0,0,0-.42.52h-.27l-.24-.31c-.12-.15-.19-.22-.22-.22l-.13.07L12,9.67a.54.54,0,0,1-.16.09s0,0,0,0a2.43,2.43,0,0,0,.23.63,1.38,1.38,0,0,0-.14.24c-.46.05-.68.09-.68.14v.65s.22.09.68.14a1.49,1.49,0,0,0,.14.24,2.43,2.43,0,0,0-.23.63s0,0,0,0l.57.32s.1-.07.22-.21l.24-.32h.27a3.19,3.19,0,0,0,.24.32q.18.21.21.21l.57-.32s0,0,0,0a2.94,2.94,0,0,0-.23-.63A1.41,1.41,0,0,0,14,11.6c.46,0,.69-.09.69-.14v-.65C14.73,10.76,14.5,10.72,14,10.67Zm-.66.88a.55.55,0,0,1-.42.17.53.53,0,0,1-.41-.17.54.54,0,0,1-.18-.41.58.58,0,0,1,.18-.42.54.54,0,0,1,.41-.17.57.57,0,0,1,.42.17.61.61,0,0,1,.17.42A.57.57,0,0,1,13.38,11.55Z"/></svg>