<svg id="Layer_1" data-name="Layer 1" xmlns="http://www.w3.org/2000/svg" viewBox="0 0 22 22"><defs><style>.cls-1{fill:#808998;}</style></defs><title>Getlog</title><path class="cls-1" d="M18.68,20H3A2.23,2.23,0,0,1,.74,17.77V4.44A2.23,2.23,0,0,1,3,2.2H18.68a2.23,2.23,0,0,1,2.23,2.24V17.77A2.23,2.23,0,0,1,18.68,20ZM3,2.87A1.57,1.57,0,0,0,1.4,4.44V17.77A1.58,1.58,0,0,0,3,19.34H18.68a1.58,1.58,0,0,0,1.57-1.57V4.44a1.57,1.57,0,0,0-1.57-1.57Z"/><path class="cls-1" d="M18.67,20.25H3A2.48,2.48,0,0,1,.49,17.77V4.44A2.49,2.49,0,0,1,3,2h15.7a2.49,2.49,0,0,1,2.49,2.49V17.77A2.48,2.48,0,0,1,18.67,20.25ZM3,2.45a2,2,0,0,0-2,2V17.77a2,2,0,0,0,2,2h15.7a2,2,0,0,0,2-2V4.44a2,2,0,0,0-2-2Zm15.7,17.14H3a1.83,1.83,0,0,1-1.82-1.82V4.44A1.82,1.82,0,0,1,3,2.62h15.7A1.82,1.82,0,0,1,20.5,4.44V17.77A1.83,1.83,0,0,1,18.67,19.59ZM3,3.12A1.32,1.32,0,0,0,1.65,4.44V17.77A1.33,1.33,0,0,0,3,19.09h15.7A1.33,1.33,0,0,0,20,17.77V4.44a1.33,1.33,0,0,0-1.33-1.32Z"/><path class="cls-1" d="M20.58,7.54H1.07a.34.34,0,0,1,0-.67H20.58a.34.34,0,0,1,0,.67Z"/><path class="cls-1" d="M20.58,7.78H1.07a.58.58,0,0,1,0-1.16H20.58a.58.58,0,0,1,0,1.16ZM1.07,7.12A.08.08,0,0,0,1,7.2a.07.07,0,0,0,.08.08H20.58a.07.07,0,0,0,.08-.08.09.09,0,0,0-.08-.08Z"/><path class="cls-1" d="M13.33,5.84A.86.86,0,1,1,14.19,5,.85.85,0,0,1,13.33,5.84Zm0-1.18A.32.32,0,0,0,13,5a.32.32,0,1,0,.63,0A.31.31,0,0,0,13.33,4.66Z"/><path class="cls-1" d="M15.62,5.84A.86.86,0,1,1,16.48,5,.86.86,0,0,1,15.62,5.84Zm0-1.18A.32.32,0,0,0,15.3,5a.33.33,0,0,0,.32.32A.32.32,0,0,0,15.94,5,.32.32,0,0,0,15.62,4.66Z"/><path class="cls-1" d="M17.89,5.84A.86.86,0,1,1,18.75,5,.86.86,0,0,1,17.89,5.84Zm0-1.18a.32.32,0,0,0-.32.32.32.32,0,1,0,.63,0A.31.31,0,0,0,17.89,4.66Z"/><path class="cls-1" d="M13.16,9.09l.25.05a1.55,1.55,0,0,1,1.13,1.27,1.82,1.82,0,0,1,0,.32v1.15a.39.39,0,0,1-.3.4.38.38,0,0,1-.46-.37c0-.34,0-.68,0-1a1,1,0,0,0-.6-.93,1,1,0,0,0-.34-.07H9.07a1,1,0,0,0-.93.86c0,.06,0,.11,0,.17,0,1.71,0,3.43,0,5.15a1,1,0,0,0,.71,1,1,1,0,0,0,.24,0c.12,0,.25,0,.37,0a.4.4,0,0,1,.39.36.39.39,0,0,1-.31.43H8.75a1.25,1.25,0,0,1-.46-.12,1.57,1.57,0,0,1-.91-1.5c0-1.84,0-3.69,0-5.54a1.75,1.75,0,0,1,0-.46A1.53,1.53,0,0,1,8.55,9.14l.23-.05Z"/><path class="cls-1" d="M11.89,14c0-.14.09-.26.13-.39a.1.1,0,0,1,.15-.08.17.17,0,0,0,.21-.07.3.3,0,0,0,0-.44l.4-.29,0,0c.06.05.11.14.17.14a.57.57,0,0,0,.28-.08.17.17,0,0,0,.06-.14c0-.1.06-.13.14-.12a1.62,1.62,0,0,1,.31,0s.07.06.08.1,0,.14.06.17a.47.47,0,0,0,.26.1c.07,0,.14-.09.21-.15l.3.24a.13.13,0,0,1,0,.2c0,.06-.09.12,0,.21s.1.24.27.17.11,0,.13.09a1.17,1.17,0,0,1,.05.2c.05.2.05.2-.12.31s-.1.33,0,.37.14.14.09.26,0,.1-.05.15-.1.23-.25.16-.15.08-.2.15a.21.21,0,0,0,0,.14,1,1,0,0,0,.07.16l-.42.31-.07-.07c-.12-.13-.18-.15-.33-.05s-.06.1-.06.16-.05.12-.13.12h-.24c-.13,0-.21,0-.2-.19s-.05-.11-.08-.11-.16-.12-.25,0l-.14.13-.4-.3a.18.18,0,0,0,0-.06c.11-.22.11-.23-.05-.41a.15.15,0,0,0-.13,0c-.11,0-.18,0-.2-.13l-.06-.17c0-.13-.06-.23.11-.28a.22.22,0,0,0,.06-.12s0-.06,0-.09a.2.2,0,0,0-.14-.26S11.93,14.06,11.89,14Zm1.67-.52a.82.82,0,0,0-.81.83.8.8,0,1,0,1.59,0A.82.82,0,0,0,13.56,13.51Z"/><path class="cls-1" d="M10.67,17.21,10.43,17c0-.1.15-.16.05-.26s-.08-.08-.12-.08-.12,0-.12-.11l0-.18c0-.07,0-.11.08-.14a.17.17,0,0,0,.05-.27.13.13,0,0,1,0-.21c0-.07.07-.13.11-.21a.17.17,0,0,0,.27-.07s0-.07,0-.09,0-.18.11-.22L11,15c.16.19.3.17.4-.07l.19,0c.1,0,.18,0,.17.18s.18.16.25.12l.1-.07.23.25c-.12.26-.08.37.17.41a.76.76,0,0,1,0,.16,1.27,1.27,0,0,1,0,.2c-.1,0-.2.07-.18.2a.16.16,0,0,0,0,.12c.07.05.07.1,0,.17a1.62,1.62,0,0,1-.1.18.1.1,0,0,1-.07,0c-.25,0-.27,0-.22.28l-.21.11c-.07,0-.14.06-.19,0s-.21-.07-.22,0-.13.13-.23.11-.21,0-.19-.19-.13-.13-.2-.09Zm.69-.71a.28.28,0,0,0,.3-.29.3.3,0,1,0-.59,0A.29.29,0,0,0,11.36,16.5Z"/></svg>