<svg id="Layer_1" data-name="Layer 1" xmlns="http://www.w3.org/2000/svg" viewBox="0 0 22 22"><defs><style>.cls-1,.cls-2{fill:none;stroke-linecap:round;stroke-linejoin:round;stroke-width:1.5px;}.cls-1{stroke:#000;}.cls-2{stroke:#808998;}</style></defs><title>CreateCase</title><path class="cls-1" d="M20.41,17.59a1.88,1.88,0,0,1-1.88,1.88H3.47a1.88,1.88,0,0,1-1.88-1.88V4.41A1.88,1.88,0,0,1,3.47,2.53H8.18l1.88,2.82h8.47a1.89,1.89,0,0,1,1.88,1.89Z"/><line class="cls-1" x1="11" y1="9.46" x2="11" y2="16.3"/><line class="cls-1" x1="7.58" y1="12.88" x2="14.42" y2="12.88"/><path class="cls-2" d="M20.41,17.59a1.88,1.88,0,0,1-1.88,1.88H3.47a1.88,1.88,0,0,1-1.88-1.88V4.41A1.88,1.88,0,0,1,3.47,2.53H8.18l1.88,2.82h8.47a1.89,1.89,0,0,1,1.88,1.89Z"/><line class="cls-2" x1="11" y1="9.46" x2="11" y2="16.3"/><line class="cls-2" x1="7.58" y1="12.88" x2="14.42" y2="12.88"/></svg>