<svg id="Layer_1" data-name="Layer 1" xmlns="http://www.w3.org/2000/svg" viewBox="0 0 22 22"><defs><style>.cls-1,.cls-2{fill:none;stroke-linecap:round;stroke-linejoin:round;stroke-width:1.5px;}.cls-1{stroke:#000;}.cls-2{stroke:#808998;}.cls-3{fill:#00a1e4;}</style></defs><title>GetCase-hover</title><path class="cls-1" d="M20.41,17.59a1.88,1.88,0,0,1-1.88,1.88H3.47a1.88,1.88,0,0,1-1.88-1.88V4.41A1.88,1.88,0,0,1,3.47,2.53H8.18l1.88,2.82h8.47a1.89,1.89,0,0,1,1.88,1.89Z"/><path class="cls-2" d="M20.41,17.59a1.88,1.88,0,0,1-1.88,1.88H3.47a1.88,1.88,0,0,1-1.88-1.88V4.41A1.88,1.88,0,0,1,3.47,2.53H8.18l1.88,2.82h8.47a1.89,1.89,0,0,1,1.88,1.89Z"/><path class="cls-3" d="M9.48,9.72,7.35,11.81a.28.28,0,0,0-.1.2.26.26,0,0,0,.1.2l2.1,2.07a.27.27,0,0,0,.44-.2l0-1.27h4.56a.27.27,0,0,0,.27-.26V11.48a.27.27,0,0,0-.27-.27H9.92V9.92a.27.27,0,0,0-.15-.24A.28.28,0,0,0,9.48,9.72Z"/></svg>