<svg id="Layer_1" data-name="Layer 1" xmlns="http://www.w3.org/2000/svg" viewBox="0 0 22 22"><defs><style>.cls-1{fill:none;stroke:#808998;stroke-linecap:round;stroke-linejoin:round;stroke-width:1.5px;}.cls-2{fill:#808998;}</style></defs><title>GetUser</title><path class="cls-1" d="M13,19.53V18.07a2.91,2.91,0,0,0-2.92-2.91H5a2.91,2.91,0,0,0-2.91,2.91v1.46"/><circle class="cls-1" cx="7.53" cy="9.33" r="2.91"/><path class="cls-2" d="M14.48,2.54,12.26,4.7a.29.29,0,0,0-.09.21.27.27,0,0,0,.09.21l2.18,2.14a.27.27,0,0,0,.3,0,.26.26,0,0,0,.16-.25l0-1.31h4.72a.27.27,0,0,0,.27-.27V4.36a.28.28,0,0,0-.27-.28H14.94V2.75a.27.27,0,0,0-.17-.25A.26.26,0,0,0,14.48,2.54Z"/></svg>