<svg id="Layer_1" data-name="Layer 1" xmlns="http://www.w3.org/2000/svg" viewBox="0 0 22 22"><defs><style>.cls-1{fill:#00a1e4;}.cls-2{fill:#808998;}</style></defs><title>ocrwithtesseract-hover</title><path class="cls-1" d="M13,12c0,.73,0,1.45,0,2.18,0,.33-.17.54-.43.55s-.47-.22-.47-.56c0-1.47,0-2.94,0-4.42,0-.36.17-.56.46-.56s.44.18.44.57C13,10.52,13,11.27,13,12Z"/><path class="cls-1" d="M7.81,12.58V14.2c0,.33-.19.54-.45.54a.49.49,0,0,1-.46-.54V10.93c0-.32.21-.55.48-.52a.45.45,0,0,1,.43.51C7.8,11.48,7.81,12,7.81,12.58Z"/><path class="cls-1" d="M11.27,12.59c0,.54,0,1.08,0,1.62,0,.32-.19.55-.45.53a.47.47,0,0,1-.45-.51V10.92a.46.46,0,0,1,.45-.51c.26,0,.45.2.45.52C11.27,11.49,11.27,12,11.27,12.59Z"/><path class="cls-1" d="M9.54,13.52v.76a.45.45,0,0,1-.9,0c0-.52,0-1,0-1.55a.41.41,0,0,1,.47-.43.4.4,0,0,1,.42.44C9.54,13,9.54,13.27,9.54,13.52Z"/><path class="cls-1" d="M6.08,13.53v.72a.42.42,0,0,1-.43.48.42.42,0,0,1-.47-.41c0-.54,0-1.08,0-1.61a.4.4,0,0,1,.48-.39.4.4,0,0,1,.4.42c0,.26,0,.53,0,.79Z"/><path class="cls-2" d="M20,17.21a1.52,1.52,0,0,0-.34-.33L16.89,15c-.12-.08-.16-.14-.1-.29a3.1,3.1,0,0,0-3.17-4.23h0v.92h0a2.18,2.18,0,0,1,2.51,2.34,2.19,2.19,0,0,1-3.62,1.5H11.31a3.08,3.08,0,0,0,4.59.7c.18-.15.28-.13.46,0L19,17.76c.47.33.79.24,1-.29Z"/><path class="cls-2" d="M19,6.82a1.07,1.07,0,0,0-.15-.22L13,.73a.8.8,0,0,0-.21-.15.8.8,0,0,0-.26,0H4.64A2.63,2.63,0,0,0,2,3.16V18.84a2.63,2.63,0,0,0,2.63,2.63H16.39A2.62,2.62,0,0,0,19,19.1H17.63a1.27,1.27,0,0,1-1.24,1H4.64a1.28,1.28,0,0,1-1.28-1.28V3.16A1.28,1.28,0,0,1,4.64,1.88H11.8v5.2a.68.68,0,0,0,.68.68h5.2V9.62H19V7.08A.75.75,0,0,0,19,6.82Zm-5.83-4,3.57,3.58H13.15Z"/></svg>