<svg id="Layer_1" data-name="Layer 1" xmlns="http://www.w3.org/2000/svg" viewBox="0 0 22 22"><defs><style>.cls-1,.cls-3{fill:#808998;}.cls-2{fill:#00a1e4;stroke:#00a1e4;}.cls-2,.cls-3{stroke-miterlimit:10;stroke-width:0.2px;}.cls-3{stroke:#808998;}</style></defs><title>Windows-Service-Managment-hover</title><path class="cls-1" d="M18.68,20H3A2.23,2.23,0,0,1,.74,17.77V4.44A2.23,2.23,0,0,1,3,2.2H18.68a2.23,2.23,0,0,1,2.23,2.24V17.77A2.23,2.23,0,0,1,18.68,20ZM3,2.87A1.57,1.57,0,0,0,1.4,4.44V17.77A1.58,1.58,0,0,0,3,19.34H18.68a1.58,1.58,0,0,0,1.57-1.57V4.44a1.57,1.57,0,0,0-1.57-1.57Z"/><path class="cls-1" d="M18.67,20.25H3A2.48,2.48,0,0,1,.49,17.77V4.44A2.49,2.49,0,0,1,3,2h15.7a2.49,2.49,0,0,1,2.49,2.49V17.77A2.48,2.48,0,0,1,18.67,20.25ZM3,2.45a2,2,0,0,0-2,2V17.77a2,2,0,0,0,2,2h15.7a2,2,0,0,0,2-2V4.44a2,2,0,0,0-2-2Zm15.7,17.14H3a1.83,1.83,0,0,1-1.82-1.82V4.44A1.82,1.82,0,0,1,3,2.62h15.7A1.82,1.82,0,0,1,20.5,4.44V17.77A1.83,1.83,0,0,1,18.67,19.59ZM3,3.12A1.32,1.32,0,0,0,1.65,4.44V17.77A1.33,1.33,0,0,0,3,19.09h15.7A1.33,1.33,0,0,0,20,17.77V4.44a1.33,1.33,0,0,0-1.33-1.32Z"/><path class="cls-1" d="M20.58,7.54H1.07a.34.34,0,0,1,0-.67H20.58a.34.34,0,0,1,0,.67Z"/><path class="cls-1" d="M20.58,7.78H1.07a.58.58,0,0,1,0-1.16H20.58a.58.58,0,0,1,0,1.16ZM1.07,7.12A.08.08,0,0,0,1,7.2a.07.07,0,0,0,.08.08H20.58a.07.07,0,0,0,.08-.08.09.09,0,0,0-.08-.08Z"/><path class="cls-1" d="M13.33,5.84A.86.86,0,1,1,14.19,5,.85.85,0,0,1,13.33,5.84Zm0-1.18A.32.32,0,0,0,13,5a.32.32,0,1,0,.63,0A.31.31,0,0,0,13.33,4.66Z"/><path class="cls-1" d="M15.62,5.84A.86.86,0,1,1,16.48,5,.86.86,0,0,1,15.62,5.84Zm0-1.18A.32.32,0,0,0,15.3,5a.33.33,0,0,0,.32.32A.32.32,0,0,0,15.94,5,.32.32,0,0,0,15.62,4.66Z"/><path class="cls-1" d="M17.89,5.84A.86.86,0,1,1,18.75,5,.86.86,0,0,1,17.89,5.84Zm0-1.18a.32.32,0,0,0-.32.32.32.32,0,1,0,.63,0A.31.31,0,0,0,17.89,4.66Z"/><path class="cls-2" d="M14.61,12.78l-.72-.07a2.71,2.71,0,0,0-.36-.86l.46-.56a.14.14,0,0,0,0-.18l-.78-.78a.14.14,0,0,0-.18,0l-.56.46a3,3,0,0,0-.86-.36l-.07-.72a.15.15,0,0,0-.14-.13H10.33a.15.15,0,0,0-.14.13l-.06.72a3,3,0,0,0-.87.36l-.55-.46a.15.15,0,0,0-.19,0l-.78.78a.14.14,0,0,0,0,.18l.45.56a3.26,3.26,0,0,0-.36.86l-.72.07a.14.14,0,0,0-.12.14V14a.14.14,0,0,0,.12.14l.72.07a3.41,3.41,0,0,0,.36.86l-.45.55a.14.14,0,0,0,0,.19l.59.53a.2.2,0,0,0,.11,0,.15.15,0,0,0,.09-.06l.85-1.21a.14.14,0,0,0,0-.18,2.08,2.08,0,1,1,3,0,.15.15,0,0,0,0,.18l.88,1.21a.14.14,0,0,0,.2,0l.59-.53a.14.14,0,0,0,0-.19l-.46-.55a3.08,3.08,0,0,0,.36-.86l.72-.07a.15.15,0,0,0,.13-.14v-1.1A.15.15,0,0,0,14.61,12.78Zm-.15,1.12-.69.06a.14.14,0,0,0-.12.11,2.8,2.8,0,0,1-.4,1,.12.12,0,0,0,0,.16l.43.53-.37.33-.73-1a2.36,2.36,0,1,0-3.49,0l-.69,1L8,15.72l.44-.53a.14.14,0,0,0,0-.16,3,3,0,0,1-.41-1A.14.14,0,0,0,8,14l-.69-.06V13L8,13a.14.14,0,0,0,.12-.11,2.82,2.82,0,0,1,.41-1,.13.13,0,0,0,0-.16L8,11.21l.6-.6.53.45a.14.14,0,0,0,.16,0,3.11,3.11,0,0,1,1-.4.14.14,0,0,0,.11-.12l.06-.69h.82l.07.69a.12.12,0,0,0,.1.12,3,3,0,0,1,1,.4.13.13,0,0,0,.16,0l.54-.45.6.6-.44.54a.12.12,0,0,0,0,.16,2.8,2.8,0,0,1,.4,1,.14.14,0,0,0,.12.11l.69.06Z"/><path class="cls-3" d="M11.34,15.87V13.8a1.16,1.16,0,0,0,.57-1,1,1,0,0,0-.81-1,.12.12,0,0,0-.12,0,.13.13,0,0,0-.05.11l0,.58a.38.38,0,0,1-.36,0l.05-.58a.17.17,0,0,0-.05-.12.12.12,0,0,0-.13,0,1.1,1.1,0,0,0-.1,2v2.07a1.11,1.11,0,0,0-.56,1,1,1,0,0,0,.8,1,.13.13,0,0,0,.12,0,.13.13,0,0,0,0-.11l0-.58a.38.38,0,0,1,.36,0l0,.58a.18.18,0,0,0,0,.12.15.15,0,0,0,.13,0,1,1,0,0,0,.75-1A1,1,0,0,0,11.34,15.87Zm0,1.71,0-.44a.17.17,0,0,0-.05-.12h0a.66.66,0,0,0-.81,0,.11.11,0,0,0,0,.12l0,.45a.75.75,0,0,1-.41-.71.87.87,0,0,1,.49-.76.13.13,0,0,0,.08-.12V13.76a.15.15,0,0,0-.1-.14.78.78,0,0,1-.56-.78.8.8,0,0,1,.37-.7l0,.44a.17.17,0,0,0,.05.12h0a.66.66,0,0,0,.81,0h0a.11.11,0,0,0,.05-.12l0-.45a.72.72,0,0,1,.42.7.87.87,0,0,1-.5.76.16.16,0,0,0-.07.13V16a.13.13,0,0,0,.09.13.77.77,0,0,1,.56.78.8.8,0,0,1-.37.7Z"/></svg>