<svg id="Layer_1" data-name="Layer 1" xmlns="http://www.w3.org/2000/svg" viewBox="0 0 22 22"><defs><style>.cls-1{fill:#808998;}.cls-2{fill:none;stroke:#808998;stroke-miterlimit:10;stroke-width:0.5px;}</style></defs><title>Windows-Shell</title><path class="cls-1" d="M18.68,20H3A2.23,2.23,0,0,1,.74,17.77V4.44A2.23,2.23,0,0,1,3,2.2H18.68a2.23,2.23,0,0,1,2.23,2.24V17.77A2.23,2.23,0,0,1,18.68,20ZM3,2.87A1.57,1.57,0,0,0,1.4,4.44V17.77A1.58,1.58,0,0,0,3,19.34H18.68a1.58,1.58,0,0,0,1.57-1.57V4.44a1.57,1.57,0,0,0-1.57-1.57Z"/><path class="cls-1" d="M18.67,20.25H3A2.48,2.48,0,0,1,.49,17.77V4.44A2.49,2.49,0,0,1,3,2h15.7a2.49,2.49,0,0,1,2.49,2.49V17.77A2.48,2.48,0,0,1,18.67,20.25ZM3,2.45a2,2,0,0,0-2,2V17.77a2,2,0,0,0,2,2h15.7a2,2,0,0,0,2-2V4.44a2,2,0,0,0-2-2Zm15.7,17.14H3a1.83,1.83,0,0,1-1.82-1.82V4.44A1.82,1.82,0,0,1,3,2.62h15.7A1.82,1.82,0,0,1,20.5,4.44V17.77A1.83,1.83,0,0,1,18.67,19.59ZM3,3.12A1.32,1.32,0,0,0,1.65,4.44V17.77A1.33,1.33,0,0,0,3,19.09h15.7A1.33,1.33,0,0,0,20,17.77V4.44a1.33,1.33,0,0,0-1.33-1.32Z"/><path class="cls-1" d="M20.58,7.54H1.07a.34.34,0,0,1,0-.67H20.58a.34.34,0,0,1,0,.67Z"/><path class="cls-1" d="M20.58,7.78H1.07a.58.58,0,0,1,0-1.16H20.58a.58.58,0,0,1,0,1.16ZM1.07,7.12A.08.08,0,0,0,1,7.2a.07.07,0,0,0,.08.08H20.58a.07.07,0,0,0,.08-.08.09.09,0,0,0-.08-.08Z"/><path class="cls-1" d="M13.33,5.84A.86.86,0,1,1,14.19,5,.85.85,0,0,1,13.33,5.84Zm0-1.18A.32.32,0,0,0,13,5a.32.32,0,1,0,.63,0A.31.31,0,0,0,13.33,4.66Z"/><path class="cls-1" d="M15.62,5.84A.86.86,0,1,1,16.48,5,.86.86,0,0,1,15.62,5.84Zm0-1.18A.32.32,0,0,0,15.3,5a.33.33,0,0,0,.32.32A.32.32,0,0,0,15.94,5,.32.32,0,0,0,15.62,4.66Z"/><path class="cls-1" d="M17.89,5.84A.86.86,0,1,1,18.75,5,.86.86,0,0,1,17.89,5.84Zm0-1.18a.32.32,0,0,0-.32.32.32.32,0,1,0,.63,0A.31.31,0,0,0,17.89,4.66Z"/><path class="cls-2" d="M14.32,10.12a.24.24,0,0,0-.16,0l-6.35.79a.21.21,0,0,0-.18.2v4.35a.21.21,0,0,0,.18.2l6.35.79h0a.24.24,0,0,0,.14,0,.2.2,0,0,0,.06-.15V10.27A.2.2,0,0,0,14.32,10.12Zm-3.91,5.41L8,15.24V13.43h2.38Zm0-2.49H8v-1.8l2.38-.3ZM14,16l-3.18-.4V13.43H14ZM14,13H10.81V10.89l3.18-.4Z"/></svg>