<svg id="Layer_1" data-name="Layer 1" xmlns="http://www.w3.org/2000/svg" viewBox="0 0 22 22"><defs><style>.cls-1{fill:#808998;}.cls-2{stroke:#808998;stroke-miterlimit:10;stroke-width:0.3px;}</style></defs><title>Window-shell-connection</title><path class="cls-1" d="M18.68,20H3A2.23,2.23,0,0,1,.74,17.77V4.44A2.23,2.23,0,0,1,3,2.2H18.68a2.23,2.23,0,0,1,2.23,2.24V17.77A2.23,2.23,0,0,1,18.68,20ZM3,2.87A1.57,1.57,0,0,0,1.4,4.44V17.77A1.58,1.58,0,0,0,3,19.34H18.68a1.58,1.58,0,0,0,1.57-1.57V4.44a1.57,1.57,0,0,0-1.57-1.57Z"/><path class="cls-1" d="M18.67,20.25H3A2.48,2.48,0,0,1,.49,17.77V4.44A2.49,2.49,0,0,1,3,2h15.7a2.49,2.49,0,0,1,2.49,2.49V17.77A2.48,2.48,0,0,1,18.67,20.25ZM3,2.45a2,2,0,0,0-2,2V17.77a2,2,0,0,0,2,2h15.7a2,2,0,0,0,2-2V4.44a2,2,0,0,0-2-2Zm15.7,17.14H3a1.83,1.83,0,0,1-1.82-1.82V4.44A1.82,1.82,0,0,1,3,2.62h15.7A1.82,1.82,0,0,1,20.5,4.44V17.77A1.83,1.83,0,0,1,18.67,19.59ZM3,3.12A1.32,1.32,0,0,0,1.65,4.44V17.77A1.33,1.33,0,0,0,3,19.09h15.7A1.33,1.33,0,0,0,20,17.77V4.44a1.33,1.33,0,0,0-1.33-1.32Z"/><path class="cls-1" d="M20.58,7.54H1.07a.34.34,0,0,1,0-.67H20.58a.34.34,0,0,1,0,.67Z"/><path class="cls-1" d="M20.58,7.78H1.07a.58.58,0,0,1,0-1.16H20.58a.58.58,0,0,1,0,1.16ZM1.07,7.12A.08.08,0,0,0,1,7.2a.07.07,0,0,0,.08.08H20.58a.07.07,0,0,0,.08-.08.09.09,0,0,0-.08-.08Z"/><path class="cls-1" d="M13.33,5.84A.86.86,0,1,1,14.19,5,.85.85,0,0,1,13.33,5.84Zm0-1.18A.32.32,0,0,0,13,5a.32.32,0,1,0,.63,0A.31.31,0,0,0,13.33,4.66Z"/><path class="cls-1" d="M15.62,5.84A.86.86,0,1,1,16.48,5,.86.86,0,0,1,15.62,5.84Zm0-1.18A.32.32,0,0,0,15.3,5a.33.33,0,0,0,.32.32A.32.32,0,0,0,15.94,5,.32.32,0,0,0,15.62,4.66Z"/><path class="cls-1" d="M17.89,5.84A.86.86,0,1,1,18.75,5,.86.86,0,0,1,17.89,5.84Zm0-1.18a.32.32,0,0,0-.32.32.32.32,0,1,0,.63,0A.31.31,0,0,0,17.89,4.66Z"/><circle class="cls-2" cx="14.01" cy="17.2" r="0.1"/><path class="cls-2" d="M15.46,13.66h-4.1a.49.49,0,0,0-.49.5v3a.5.5,0,0,0,.49.5h1.55v.45h-.09a.53.53,0,0,0-.36.15.5.5,0,0,0-.14.35.09.09,0,0,0,.1.1h2a.09.09,0,0,0,.09-.1.5.5,0,0,0-.49-.5h-.1V17.7h1.55a.51.51,0,0,0,.5-.5v-3A.5.5,0,0,0,15.46,13.66ZM14,18.35a.3.3,0,0,1,.28.2H12.53a.41.41,0,0,1,.07-.11.31.31,0,0,1,.22-.09Zm-.9-.2V17.7h.6v.45Zm2.65-.95a.31.31,0,0,1-.3.3h-4.1a.3.3,0,0,1-.29-.3v-.3h4.69Zm0-.5H11.07V14.16a.29.29,0,0,1,.29-.3h4.1a.3.3,0,0,1,.3.3Z"/><path class="cls-2" d="M13,17.3h.6a.1.1,0,0,0,.1-.1.09.09,0,0,0-.1-.1H13a.1.1,0,0,0-.1.1A.11.11,0,0,0,13,17.3Z"/><circle class="cls-2" cx="8.74" cy="12.32" r="0.1"/><path class="cls-2" d="M10.19,8.78H6.1a.5.5,0,0,0-.5.5v3a.5.5,0,0,0,.5.49H7.65v.46h-.1a.47.47,0,0,0-.35.15.51.51,0,0,0-.15.35.11.11,0,0,0,.1.1h2a.1.1,0,0,0,.1-.1.5.5,0,0,0-.5-.5h-.1v-.46h1.55a.49.49,0,0,0,.5-.49v-3A.5.5,0,0,0,10.19,8.78ZM8.74,13.47a.29.29,0,0,1,.28.2H7.27a.26.26,0,0,1,.07-.11.29.29,0,0,1,.21-.09Zm-.89-.2v-.46h.6v.46Zm2.64-.95a.3.3,0,0,1-.3.3H6.1a.31.31,0,0,1-.3-.3V12h4.69Zm0-.5H5.8V9.28A.3.3,0,0,1,6.1,9h4.09a.29.29,0,0,1,.3.3Z"/><path class="cls-2" d="M7.75,12.42h.6a.11.11,0,0,0,.1-.1.1.1,0,0,0-.1-.1h-.6a.09.09,0,0,0-.1.1A.1.1,0,0,0,7.75,12.42Z"/><circle class="cls-1" cx="5.8" cy="13.87" r="0.29"/><circle class="cls-1" cx="5.8" cy="14.66" r="0.29"/><circle class="cls-1" cx="5.8" cy="15.45" r="0.29"/><circle class="cls-1" cx="5.8" cy="16.25" r="0.29"/><circle class="cls-1" cx="5.8" cy="17.04" r="0.29"/><circle class="cls-1" cx="6.5" cy="17.47" r="0.29"/><circle class="cls-1" cx="7.3" cy="17.47" r="0.29"/><circle class="cls-1" cx="8.09" cy="17.47" r="0.29"/><circle class="cls-1" cx="8.88" cy="17.47" r="0.29"/><circle class="cls-1" cx="9.68" cy="17.47" r="0.29"/><circle class="cls-1" cx="15.68" cy="12.91" r="0.29"/><circle class="cls-1" cx="15.68" cy="12.12" r="0.29"/><circle class="cls-1" cx="15.68" cy="11.33" r="0.29"/><circle class="cls-1" cx="15.68" cy="10.53" r="0.29"/><circle class="cls-1" cx="15.68" cy="9.74" r="0.29"/><circle class="cls-1" cx="14.97" cy="9.31" r="0.29"/><circle class="cls-1" cx="14.18" cy="9.31" r="0.29"/><circle class="cls-1" cx="13.38" cy="9.31" r="0.29"/><circle class="cls-1" cx="12.59" cy="9.31" r="0.29"/><circle class="cls-1" cx="11.8" cy="9.31" r="0.29"/></svg>