<svg id="Layer_1" data-name="Layer 1" xmlns="http://www.w3.org/2000/svg" viewBox="0 0 22 22"><defs><style>.cls-1,.cls-2{fill:none;stroke:#808998;stroke-linecap:round;stroke-linejoin:round;}.cls-1{stroke-width:1.2px;}.cls-2{stroke-width:1.5px;}</style></defs><title>ServiceCall</title><path class="cls-1" d="M16.65,4.45a1.61,1.61,0,0,1,1.28,1.28M17.25,2.6a2.91,2.91,0,0,1,2.57,2.57m-.76,3.56V9.88a.77.77,0,0,1-.76.77h-.08a7.7,7.7,0,0,1-3.31-1.17,7.64,7.64,0,0,1-3.47-5.63A.76.76,0,0,1,12.13,3h1.22a.76.76,0,0,1,.77.66,5.09,5.09,0,0,0,.27,1.07.78.78,0,0,1-.18.81L13.73,6A6.12,6.12,0,0,0,16,8.34l.48-.49a.76.76,0,0,1,.81-.17A5,5,0,0,0,18.4,8,.76.76,0,0,1,19.06,8.73Z"/><path class="cls-2" d="M12.58,19.4V18a2.77,2.77,0,0,0-2.77-2.77H5A2.77,2.77,0,0,0,2.18,18V19.4"/><circle class="cls-2" cx="7.38" cy="9.69" r="2.77"/></svg>