<svg id="Layer_1" data-name="Layer 1" xmlns="http://www.w3.org/2000/svg" viewBox="0 0 22 22"><defs><style>.cls-1{opacity:0.5;}.cls-2,.cls-3{fill:#fd6363;}.cls-2{stroke:#fd6363;stroke-miterlimit:10;}.cls-4{fill:#808998;}</style></defs><title>ServiceAuthenticator-hover</title><g class="cls-1"><path class="cls-2" d="M20.24,14.68a2,2,0,0,0-1.78-1.14H16.2a1.91,1.91,0,0,0-1.81,1.22c0,.1-.09.22-.14.37H9.52a.71.71,0,0,0-.52.22L7.75,16.63a.72.72,0,0,0,0,1L9,18.93a.73.73,0,0,0,.52.22h2.35a.73.73,0,0,0,.72-.73.72.72,0,0,0-.72-.72H9.84l-.56-.57.54-.55h5a.72.72,0,0,0,.7-.56,5.26,5.26,0,0,1,.24-.74.48.48,0,0,1,.46-.3h2.26a.5.5,0,0,1,.46.29,4.94,4.94,0,0,1,.43,1.85A4.69,4.69,0,0,1,18.92,19a.49.49,0,0,1-.45.3H16.18a.52.52,0,0,1-.47-.32,6.27,6.27,0,0,1-.22-.72.71.71,0,0,0-.87-.53.72.72,0,0,0-.54.87,6,6,0,0,0,.3.93,1.94,1.94,0,0,0,1.8,1.22h2.29a2,2,0,0,0,1.78-1.17,5.76,5.76,0,0,0,0-4.89Z"/><circle class="cls-2" cx="17.86" cy="17.12" r="0.72"/></g><path class="cls-3" d="M20.24,14.68a2,2,0,0,0-1.78-1.14H16.2a1.91,1.91,0,0,0-1.81,1.22c0,.1-.09.22-.14.37H9.52a.71.71,0,0,0-.52.22L7.75,16.63a.72.72,0,0,0,0,1L9,18.93a.73.73,0,0,0,.52.22h2.35a.73.73,0,0,0,.72-.73.72.72,0,0,0-.72-.72H9.84l-.56-.57.54-.55h5a.72.72,0,0,0,.7-.56,5.26,5.26,0,0,1,.24-.74.48.48,0,0,1,.46-.3h2.26a.5.5,0,0,1,.46.29,4.94,4.94,0,0,1,.43,1.85A4.69,4.69,0,0,1,18.92,19a.49.49,0,0,1-.45.3H16.18a.52.52,0,0,1-.47-.32,6.27,6.27,0,0,1-.22-.72.71.71,0,0,0-.87-.53.72.72,0,0,0-.54.87,6,6,0,0,0,.3.93,1.94,1.94,0,0,0,1.8,1.22h2.29a2,2,0,0,0,1.78-1.17,5.76,5.76,0,0,0,0-4.89Z"/><circle class="cls-3" cx="17.86" cy="17.12" r="0.72"/><path class="cls-4" d="M8.45,9.65a4.2,4.2,0,1,1,4.19-4.2A4.2,4.2,0,0,1,8.45,9.65Zm0-7a2.79,2.79,0,1,0,2.78,2.78A2.79,2.79,0,0,0,8.45,2.67Z"/><path class="cls-4" d="M13.51,12.26a4.15,4.15,0,0,0-2-.53H5.4a4.2,4.2,0,0,0-4.19,4.19v1.74a.7.7,0,0,0,.7.71.71.71,0,0,0,.71-.71V15.92A2.78,2.78,0,0,1,5.4,13.13h6.1a1.67,1.67,0,0,1,.89.16A1.82,1.82,0,0,1,13.51,12.26Z"/></svg>