<svg id="Layer_1" data-name="Layer 1" xmlns="http://www.w3.org/2000/svg" viewBox="0 0 22 22"><defs><style>.cls-1,.cls-3,.cls-4{fill:none;stroke-linecap:round;stroke-linejoin:round;}.cls-1{stroke:#00a1e4;}.cls-1,.cls-4{stroke-width:1.5px;}.cls-2{fill:#808998;stroke-miterlimit:10;stroke-width:0.5px;}.cls-2,.cls-3,.cls-4{stroke:#808998;}.cls-3{stroke-width:0.8px;}</style></defs><title>TwitterLogin-hover</title><path class="cls-1" d="M19.36,7.33V6.68a1.3,1.3,0,0,0-1.29-1.3H15.8a1.3,1.3,0,0,0-1.29,1.3v.65"/><circle class="cls-1" cx="16.93" cy="2.8" r="1.29"/><path class="cls-2" d="M17.46,15.55H4.54a2.48,2.48,0,1,0,0,4.95H17.46a2.48,2.48,0,1,0,0-4.95ZM2.77,18a1.76,1.76,0,0,1,1.77-1.76h9.71v3.53H4.54A1.77,1.77,0,0,1,2.77,18Zm14.69,1.77H15V16.26h2.51a1.77,1.77,0,1,1,0,3.53Z"/><line class="cls-3" x1="5.79" y1="17.62" x2="4.82" y2="18.59"/><line class="cls-3" x1="4.82" y1="17.62" x2="5.8" y2="18.59"/><line class="cls-3" x1="8.05" y1="17.6" x2="7.08" y2="18.57"/><line class="cls-3" x1="7.08" y1="17.6" x2="8.06" y2="18.57"/><line class="cls-3" x1="10.18" y1="17.56" x2="9.21" y2="18.53"/><line class="cls-3" x1="9.21" y1="17.56" x2="10.19" y2="18.53"/><line class="cls-3" x1="12.44" y1="17.53" x2="11.47" y2="18.5"/><line class="cls-3" x1="11.47" y1="17.53" x2="12.45" y2="18.51"/><path class="cls-2" d="M17.29,18.19l-.56.66a.12.12,0,0,0,0,.07.09.09,0,0,0,0,.07.1.1,0,0,0,.14,0l.69-.83a.09.09,0,0,0,0-.12l-.69-.83a.12.12,0,0,0-.08,0,.09.09,0,0,0-.06,0,.11.11,0,0,0,0,.14l.56.66H16.06a.1.1,0,0,0-.1.1.11.11,0,0,0,.1.1Z"/><path class="cls-4" d="M11,4.67a4.73,4.73,0,0,1-1.39.68,2,2,0,0,0-2.8-.2,2,2,0,0,0-.69,1.53v.44a4.7,4.7,0,0,1-4-2s-1.78,4,2.21,5.77a5.1,5.1,0,0,1-3.1.88c4,2.22,8.86,0,8.86-5.09a2.22,2.22,0,0,0,0-.37A3.45,3.45,0,0,0,11,4.67Z"/></svg>