<svg id="Layer_1" data-name="Layer 1" xmlns="http://www.w3.org/2000/svg" viewBox="0 0 22 22"><defs><style>.cls-1{fill:none;stroke:#808998;stroke-linecap:round;stroke-linejoin:round;stroke-width:1.5px;}.cls-2{fill:#808998;}</style></defs><title>TwitterPost</title><path class="cls-1" d="M13.82,10.17A5.54,5.54,0,0,1,12.2,11a2.31,2.31,0,0,0-4,1.54V13a5.5,5.5,0,0,1-4.64-2.33s-2.06,4.63,2.58,6.69a6,6,0,0,1-3.61,1c4.64,2.58,10.31,0,10.31-5.92a3.13,3.13,0,0,0,0-.43A4.06,4.06,0,0,0,13.82,10.17Z"/><path class="cls-2" d="M15.9,6.21a.78.78,0,0,1,0-.22c0-.16.09-.32.14-.47a.75.75,0,0,1,.18-.3l1.81-1.88s0,0,.05,0l.67.68s0,0,0,0c-.36.38-.71.76-1.07,1.13s-.47.48-.7.73a1,1,0,0,1-.33.21,4.35,4.35,0,0,1-.61.2H16a.09.09,0,0,1-.1-.1Z"/><path class="cls-2" d="M16,6.45h0a.21.21,0,0,1-.21-.22v0a.85.85,0,0,1,0-.23c0-.17.09-.33.15-.49a.84.84,0,0,1,.21-.35L18,3.26a.15.15,0,0,1,.22,0l.67.68a.15.15,0,0,1,0,.22l-.41.43-.65.69-.36.37L17.1,6a1.05,1.05,0,0,1-.37.25,4.19,4.19,0,0,1-.63.19Zm0-.24h0A4.06,4.06,0,0,0,16.65,6a.73.73,0,0,0,.28-.19l.35-.36c.12-.12.24-.24.35-.37s.44-.45.65-.68L18.64,4c-.18-.18-.36-.37-.55-.55L16.35,5.3a.82.82,0,0,0-.16.25c-.05.16-.09.31-.13.47A.72.72,0,0,0,16,6.21Z"/><path class="cls-2" d="M19.4,3.28a.37.37,0,0,1-.12.27,2.08,2.08,0,0,0-.21.21s0,0,0,0l-.68-.69a0,0,0,0,1,0,0l.22-.21a.44.44,0,0,1,.51-.07.6.6,0,0,1,.31.4A.41.41,0,0,1,19.4,3.28Z"/><path class="cls-2" d="M19.05,3.89a.13.13,0,0,1-.1,0l-.68-.69,0,0V3.05a.15.15,0,0,1,.05-.1l.22-.2a.53.53,0,0,1,.64-.09.69.69,0,0,1,.38.47.66.66,0,0,1,0,.15.54.54,0,0,1-.16.36l-.21.21A.14.14,0,0,1,19.05,3.89Zm-.54-.83.54.55a1.85,1.85,0,0,1,.14-.14.26.26,0,0,0,.09-.19h0a.25.25,0,0,0,0-.09A.43.43,0,0,0,19,2.87a.3.3,0,0,0-.37,0A1.85,1.85,0,0,1,18.51,3.06Z"/><polyline class="cls-1" points="16.22 3.51 13.8 3.51 13.84 7.62 18.47 7.6 18.47 6.53"/></svg>