<?xml version="1.0" encoding="utf-8"?>
<!-- Generator: Adobe Illustrator 23.0.1, SVG Export Plug-In . SVG Version: 6.00 Build 0)  -->
<svg version="1.1" id="Layer_1" xmlns="http://www.w3.org/2000/svg" xmlns:xlink="http://www.w3.org/1999/xlink" x="0px" y="0px"
	 viewBox="0 0 22 22" style="enable-background:new 0 0 22 22;" xml:space="preserve">
<style type="text/css">
	.st0{fill:#FFFFFF;stroke:#E1E8EF;stroke-miterlimit:10;}
	.st1{fill:none;stroke:#808998;stroke-width:1.5;stroke-linecap:round;stroke-linejoin:round;}
	.st2{fill:none;stroke:#808998;stroke-width:2;stroke-linecap:round;stroke-linejoin:round;}
	.st3{fill:none;}
	.st4{fill:none;stroke:#808998;stroke-width:1.8;stroke-miterlimit:10;}
	.st5{fill:none;stroke:#808998;stroke-width:1.8;stroke-linecap:round;stroke-linejoin:round;}
	.st6{opacity:0.4;fill:none;stroke:#808998;stroke-width:1.5;stroke-linecap:round;stroke-linejoin:round;}
	.st7{fill:#808998;}
	.st8{fill:none;stroke:#808998;stroke-width:1.2;stroke-linecap:round;stroke-linejoin:round;}
	.st9{fill:none;stroke:#808998;stroke-width:0.5;stroke-miterlimit:10;}
	.st10{fill:none;stroke:#808998;stroke-linecap:round;stroke-linejoin:round;}
	.st11{fill:#808998;stroke:#808998;stroke-width:0.5;stroke-miterlimit:10;}
	.st12{fill:none;stroke:#808998;stroke-width:0.8;stroke-linecap:round;stroke-linejoin:round;}
	.st13{fill:url(#SVGID_1_);stroke:#808998;stroke-width:1.4;stroke-linecap:round;stroke-linejoin:round;}
	.st14{fill:url(#SVGID_2_);stroke:#808998;stroke-width:1.4;stroke-linecap:round;stroke-linejoin:round;}
	.st15{fill:#808998;stroke:#808998;stroke-width:0.2;stroke-miterlimit:10;}
	.st16{fill:#808998;stroke:#808998;stroke-width:0.6;stroke-miterlimit:10;}
	.st17{fill:url(#SVGID_3_);stroke:#808998;stroke-width:1.5;stroke-linecap:round;stroke-linejoin:round;}
	.st18{fill:url(#SVGID_4_);stroke:#808998;stroke-width:1.5;stroke-linecap:round;stroke-linejoin:round;}
	.st19{fill:#808998;stroke:#808998;stroke-width:0.3;stroke-miterlimit:10;}
	.st20{fill:url(#SVGID_5_);stroke:#808998;stroke-width:1.5;stroke-linecap:round;stroke-linejoin:round;}
	.st21{fill:url(#SVGID_6_);stroke:#808998;stroke-width:1.5;stroke-linecap:round;stroke-linejoin:round;}
	.st22{fill:none;stroke:#808998;stroke-width:0.8;stroke-miterlimit:10;}
	.st23{fill:#808998;stroke:#808998;stroke-width:0.4;stroke-miterlimit:10;}
	.st24{fill:none;stroke:#808998;stroke-width:0.6;stroke-linecap:round;stroke-linejoin:round;}
	.st25{fill:url(#SVGID_7_);stroke:#808998;stroke-width:0.96;stroke-linecap:round;stroke-linejoin:round;}
	.st26{fill:url(#SVGID_8_);stroke:#808998;stroke-width:0.96;stroke-linecap:round;stroke-linejoin:round;}
</style>
<g>
	<g>
		<g>
			<path class="st10" d="M17.2,11.1v4.8c0,0.7-0.5,1.2-1.2,1.2H5.8c-0.7,0-1.2-0.5-1.2-1.2V8.4c0-0.7,0.5-1.2,1.2-1.2H11"/>
			<polyline class="st10" points="5,7.8 10.7,13.1 13.1,11 			"/>
			<line class="st10" x1="4.9" y1="16.6" x2="9.6" y2="12.3"/>
			<line class="st10" x1="16.6" y1="16.6" x2="11.9" y2="12.4"/>
		</g>
	</g>
	<g>
		<path class="st23" d="M16.9,7.7h0.3h0.3V6.3c0-0.8-0.6-1.4-1.4-1.4c-0.8,0-1.4,0.6-1.4,1.4v2.2c0,0.2,0.1,0.4,0.2,0.6
			c0.3,0.3,0.9,0.3,1.2,0c0.2-0.2,0.2-0.4,0.2-0.6V6.6h-0.6v1.9c0,0.1,0,0.1-0.1,0.2c-0.1,0.1-0.3,0.1-0.4,0
			c-0.1-0.1-0.1-0.1-0.1-0.2V6.3c0-0.5,0.4-0.8,0.8-0.8c0.5,0,0.8,0.4,0.8,0.8V7.7z"/>
		
			<linearGradient id="SVGID_1_" gradientUnits="userSpaceOnUse" x1="1813.668" y1="6.4548" x2="1813.668" y2="6.4548" gradientTransform="matrix(-1 0 0 1 1829.7212 0)">
			<stop  offset="0" style="stop-color:#FFFFFF"/>
			<stop  offset="1" style="stop-color:#000000"/>
		</linearGradient>
		
			<line style="fill:url(#SVGID_1_);stroke:#808998;stroke-width:0.96;stroke-linecap:round;stroke-linejoin:round;" x1="16.1" y1="6.6" x2="16.1" y2="6.3"/>
		
			<linearGradient id="SVGID_2_" gradientUnits="userSpaceOnUse" x1="1812.5452" y1="7.277" x2="1812.5452" y2="7.277" gradientTransform="matrix(-1 0 0 1 1829.7212 0)">
			<stop  offset="0" style="stop-color:#FFFFFF"/>
			<stop  offset="1" style="stop-color:#000000"/>
		</linearGradient>
		
			<line style="fill:url(#SVGID_2_);stroke:#808998;stroke-width:0.96;stroke-linecap:round;stroke-linejoin:round;" x1="17.2" y1="7.9" x2="17.2" y2="6.6"/>
	</g>
</g>
</svg>
