<svg id="Layer_1" data-name="Layer 1" xmlns="http://www.w3.org/2000/svg" viewBox="0 0 22 22"><defs><style>.cls-1{fill:none;stroke:#808998;stroke-linecap:round;stroke-linejoin:round;stroke-width:1.3px;}.cls-2{fill:#00a1e4;stroke:#00a1e4;stroke-miterlimit:10;stroke-width:0.3px;}</style></defs><title>DownloadAttachments-hover</title><path class="cls-1" d="M20.39,10.86v7.22A1.91,1.91,0,0,1,18.51,20H3.2a1.91,1.91,0,0,1-1.88-1.87V6.81A1.92,1.92,0,0,1,3.2,4.93h7.94"/><polyline class="cls-1" points="2.05 5.95 10.71 13.89 14.18 10.71"/><line class="cls-1" x1="1.9" y1="19.09" x2="8.98" y2="12.73"/><line class="cls-1" x1="19.52" y1="19.23" x2="12.44" y2="12.88"/><path class="cls-2" d="M18.34,1.88a2.18,2.18,0,0,1,2.17,2.27,2,2,0,0,1-.62,1.43c-.73.73-1.47,1.45-2.21,2.17a1.63,1.63,0,0,1-2.23,0,1.57,1.57,0,0,1,0-2.21c.66-.66,1.33-1.31,2-2a1,1,0,0,1,1.39,0,1,1,0,0,1,0,1.4l-.63.63a.22.22,0,0,1-.34,0l-.24-.25a.21.21,0,0,1,0-.36c.19-.19.38-.39.58-.58a.19.19,0,0,0,.05-.2c-.06-.13-.17-.14-.28,0L16.55,5.58l-.48.47a.74.74,0,0,0,0,1.07.77.77,0,0,0,1.07,0L19.28,5a1.32,1.32,0,0,0,0-1.87,1.35,1.35,0,0,0-1.88,0c-.28.26-.55.54-.82.81a.23.23,0,0,1-.39,0L16,3.68a.22.22,0,0,1,0-.33c.3-.3.6-.61.91-.9A2.14,2.14,0,0,1,18.34,1.88Z"/></svg>