<?xml version="1.0" encoding="utf-8"?>
<!-- Generator: Adobe Illustrator 23.0.1, SVG Export Plug-In . SVG Version: 6.00 Build 0)  -->
<svg version="1.1" id="Layer_1" xmlns="http://www.w3.org/2000/svg" xmlns:xlink="http://www.w3.org/1999/xlink" x="0px" y="0px"
	 viewBox="0 0 22 22" style="enable-background:new 0 0 22 22;" xml:space="preserve">
<style type="text/css">
	.st0{fill:#FFFFFF;stroke:#E1E8EF;stroke-miterlimit:10;}
	.st1{fill:none;stroke:#808998;stroke-width:1.5;stroke-linecap:round;stroke-linejoin:round;}
	.st2{fill:none;stroke:#808998;stroke-width:2;stroke-linecap:round;stroke-linejoin:round;}
	.st3{fill:none;}
	.st4{fill:none;stroke:#808998;stroke-width:1.8;stroke-miterlimit:10;}
	.st5{fill:none;stroke:#808998;stroke-width:1.8;stroke-linecap:round;stroke-linejoin:round;}
	.st6{opacity:0.4;fill:none;stroke:#808998;stroke-width:1.5;stroke-linecap:round;stroke-linejoin:round;}
	.st7{fill:#808998;}
	.st8{fill:none;stroke:#808998;stroke-width:1.2;stroke-linecap:round;stroke-linejoin:round;}
	.st9{fill:none;stroke:#808998;stroke-width:0.5;stroke-miterlimit:10;}
	.st10{fill:none;stroke:#808998;stroke-linecap:round;stroke-linejoin:round;}
	.st11{fill:#808998;stroke:#808998;stroke-width:0.5;stroke-miterlimit:10;}
	.st12{fill:none;stroke:#808998;stroke-width:0.8;stroke-linecap:round;stroke-linejoin:round;}
	.st13{fill:url(#SVGID_1_);stroke:#808998;stroke-width:1.4;stroke-linecap:round;stroke-linejoin:round;}
	.st14{fill:url(#SVGID_2_);stroke:#808998;stroke-width:1.4;stroke-linecap:round;stroke-linejoin:round;}
	.st15{fill:#808998;stroke:#808998;stroke-width:0.2;stroke-miterlimit:10;}
	.st16{fill:#808998;stroke:#808998;stroke-width:0.6;stroke-miterlimit:10;}
	.st17{fill:url(#SVGID_3_);stroke:#808998;stroke-width:1.5;stroke-linecap:round;stroke-linejoin:round;}
	.st18{fill:url(#SVGID_4_);stroke:#808998;stroke-width:1.5;stroke-linecap:round;stroke-linejoin:round;}
	.st19{fill:#808998;stroke:#808998;stroke-width:0.3;stroke-miterlimit:10;}
	.st20{fill:url(#SVGID_5_);stroke:#808998;stroke-width:1.5;stroke-linecap:round;stroke-linejoin:round;}
	.st21{fill:url(#SVGID_6_);stroke:#808998;stroke-width:1.5;stroke-linecap:round;stroke-linejoin:round;}
	.st22{fill:none;stroke:#808998;stroke-width:0.8;stroke-miterlimit:10;}
	.st23{fill:#808998;stroke:#808998;stroke-width:0.4;stroke-miterlimit:10;}
	.st24{fill:none;stroke:#808998;stroke-width:0.6;stroke-linecap:round;stroke-linejoin:round;}
</style>
<g>
	<g>
		<path class="st10" d="M17.7,8.6v5.2c0,0.7-0.6,1.3-1.3,1.3H5.3c-0.7,0-1.3-0.6-1.3-1.3V5.6c0-0.7,0.6-1.3,1.3-1.3h5"/>
		<polyline class="st10" points="4.5,5 10.7,10.7 13.2,8.5 		"/>
		<line class="st10" x1="4.4" y1="14.5" x2="9.5" y2="9.9"/>
		<line class="st10" x1="17" y1="14.6" x2="11.9" y2="9.9"/>
	</g>
	<path class="st23" d="M16.2,17.1H5.8c-1.1,0-2,0.9-2,2c0,1.1,0.9,2,2,2h10.4c1.1,0,2-0.9,2-2C18.2,17.9,17.3,17.1,16.2,17.1z
		 M4.4,19c0-0.8,0.6-1.4,1.4-1.4h7.8v2.8H5.8C5,20.5,4.4,19.8,4.4,19z M16.2,20.5h-2v-2.8h2c0.8,0,1.4,0.6,1.4,1.4
		C17.6,19.8,17,20.5,16.2,20.5z"/>
	<g>
		<path class="st10" d="M17.7,5.7V5.1c0-0.6-0.5-1-1-1h-1.8c-0.6,0-1,0.5-1,1v0.5"/>
		<circle class="st10" cx="15.7" cy="2" r="1"/>
	</g>
	<g>
		<line class="st24" x1="6.8" y1="18.7" x2="6" y2="19.5"/>
		<line class="st24" x1="6" y1="18.7" x2="6.8" y2="19.5"/>
	</g>
	<g>
		<line class="st24" x1="8.6" y1="18.7" x2="7.9" y2="19.5"/>
		<line class="st24" x1="7.9" y1="18.7" x2="8.6" y2="19.5"/>
	</g>
	<g>
		<line class="st24" x1="10.3" y1="18.7" x2="9.6" y2="19.4"/>
		<line class="st24" x1="9.6" y1="18.7" x2="10.4" y2="19.4"/>
	</g>
	<g>
		<line class="st24" x1="12.2" y1="18.6" x2="11.4" y2="19.4"/>
		<line class="st24" x1="11.4" y1="18.6" x2="12.2" y2="19.4"/>
	</g>
	<path class="st23" d="M16,19.2l-0.4,0.5c0,0,0,0,0,0.1c0,0,0,0,0,0.1c0,0,0.1,0,0.1,0l0.6-0.7c0,0,0-0.1,0-0.1l-0.6-0.7
		c0,0,0,0-0.1,0c0,0,0,0-0.1,0c0,0,0,0.1,0,0.1L16,19h-1c0,0-0.1,0-0.1,0.1s0,0.1,0.1,0.1H16z"/>
</g>
</svg>
