<svg id="Layer_1" data-name="Layer 1" xmlns="http://www.w3.org/2000/svg" viewBox="0 0 22 22"><defs><style>.cls-1,.cls-3,.cls-4{fill:none;stroke-linecap:round;stroke-linejoin:round;}.cls-1,.cls-2,.cls-4{stroke:#808998;}.cls-2{fill:#808998;stroke-miterlimit:10;stroke-width:0.4px;}.cls-3{stroke:#00a1e4;}.cls-4{stroke-width:0.6px;}</style></defs><title>EmailLogin-hover</title><path class="cls-1" d="M17.7,8.55v5.2a1.32,1.32,0,0,1-1.3,1.3H5.3A1.32,1.32,0,0,1,4,13.75V5.55a1.32,1.32,0,0,1,1.3-1.3h5"/><polyline class="cls-1" points="4.5 4.95 10.7 10.65 13.2 8.45"/><line class="cls-1" x1="4.4" y1="14.45" x2="9.5" y2="9.85"/><line class="cls-1" x1="17" y1="14.55" x2="11.9" y2="9.85"/><path class="cls-2" d="M16.2,17.05H5.8a2,2,0,0,0,0,4H16.2a2,2,0,0,0,2-2A1.94,1.94,0,0,0,16.2,17.05ZM4.4,19a1.37,1.37,0,0,1,1.4-1.4h7.8v2.8H5.8A1.31,1.31,0,0,1,4.4,19Zm11.8,1.5h-2v-2.8h2a1.37,1.37,0,0,1,1.4,1.4A1.43,1.43,0,0,1,16.2,20.45Z"/><path class="cls-3" d="M17.7,5.65v-.6a1,1,0,0,0-1-1H14.9a1,1,0,0,0-1,1v.5"/><circle class="cls-3" cx="15.7" cy="1.95" r="1"/><line class="cls-4" x1="6.8" y1="18.65" x2="6" y2="19.45"/><line class="cls-4" x1="6" y1="18.65" x2="6.8" y2="19.45"/><line class="cls-4" x1="8.6" y1="18.65" x2="7.9" y2="19.45"/><line class="cls-4" x1="7.9" y1="18.65" x2="8.6" y2="19.45"/><line class="cls-4" x1="10.3" y1="18.65" x2="9.6" y2="19.35"/><line class="cls-4" x1="9.6" y1="18.65" x2="10.4" y2="19.35"/><line class="cls-4" x1="12.2" y1="18.55" x2="11.4" y2="19.35"/><line class="cls-4" x1="11.4" y1="18.55" x2="12.2" y2="19.35"/><path class="cls-2" d="M16,19.15l-.4.5v.2h.1l.6-.7v-.1l-.6-.7h-.2v.1l.5.5H15a.1.1,0,0,0-.1.1c0,.1,0,.1.1.1Z"/></svg>