<svg id="Layer_1" data-name="Layer 1" xmlns="http://www.w3.org/2000/svg" viewBox="0 0 22 22"><defs><style>.cls-1{fill:none;stroke:#808998;stroke-linecap:round;stroke-linejoin:round;}</style></defs><title>ReadEmail</title><path class="cls-1" d="M19.71,8.59v9.64c0,1.88-.81,2.55-1.61,2.55H3.9a1.63,1.63,0,0,1-1.61-1.61V8.86"/><polyline class="cls-1" points="2.96 8.86 10.73 16.09 19.04 8.72"/><line class="cls-1" x1="2.83" y1="20.11" x2="8.72" y2="14.35"/><line class="cls-1" x1="18.9" y1="20.24" x2="12.74" y2="14.48"/><line class="cls-1" x1="4.7" y1="10.33" x2="4.7" y2="6.18"/><polyline class="cls-1" points="2.29 8.72 4.71 6.18 4.71 3.63 8.05 3.77 11 1.22 13.81 3.63 17.3 3.63 17.16 6.04 19.71 8.59"/><line class="cls-1" x1="17.16" y1="10.33" x2="17.16" y2="5.91"/><line class="cls-1" x1="13.14" y1="6.98" x2="8.46" y2="6.98"/><line class="cls-1" x1="12.07" y1="9.53" x2="9.39" y2="9.53"/></svg>