<svg id="Layer_1" data-name="Layer 1" xmlns="http://www.w3.org/2000/svg" viewBox="0 0 22 22"><defs><style>.cls-1{opacity:0.5;}.cls-2,.cls-3,.cls-4{fill:none;stroke-linecap:round;stroke-linejoin:round;}.cls-2,.cls-4{stroke:#fd6363;}.cls-2{stroke-width:2px;}.cls-3{stroke:#808998;}.cls-3,.cls-4{stroke-width:1.3px;}</style></defs><title>Reply-hover</title><g class="cls-1"><polyline class="cls-2" points="16.57 3.43 15.27 4.73 16.57 6.03"/><path class="cls-2" d="M15.26,4.73l3.93,0a1,1,0,0,1,1,1v1.8"/></g><path class="cls-3" d="M20.39,10.86v7.22A1.91,1.91,0,0,1,18.51,20H3.2a1.91,1.91,0,0,1-1.88-1.87V6.81A1.92,1.92,0,0,1,3.2,4.93h7.94"/><polyline class="cls-3" points="2.05 5.95 10.71 13.89 14.18 10.71"/><line class="cls-3" x1="1.9" y1="19.09" x2="8.98" y2="12.73"/><line class="cls-3" x1="19.52" y1="19.23" x2="12.44" y2="12.88"/><polyline class="cls-4" points="16.57 3.43 15.27 4.73 16.57 6.03"/><path class="cls-4" d="M15.26,4.73l3.93,0a1,1,0,0,1,1,1v1.8"/></svg>