<svg id="Layer_1" data-name="Layer 1" xmlns="http://www.w3.org/2000/svg" viewBox="0 0 22 22"><defs><style>.cls-1{fill:none;stroke-linecap:round;stroke-linejoin:round;stroke-width:1.3px;}.cls-1,.cls-2{stroke:#808998;}.cls-2{fill:#808998;stroke-miterlimit:10;stroke-width:0.2px;}</style></defs><title>SendEmail</title><path class="cls-1" d="M20.39,10.86v7.22A1.91,1.91,0,0,1,18.51,20H3.2a1.91,1.91,0,0,1-1.88-1.87V6.81A1.92,1.92,0,0,1,3.2,4.93h7.94"/><polyline class="cls-1" points="2.05 5.95 10.71 13.89 14.18 10.71"/><line class="cls-1" x1="1.9" y1="19.09" x2="8.98" y2="12.73"/><line class="cls-1" x1="19.52" y1="19.23" x2="12.44" y2="12.88"/><path class="cls-2" d="M16.91,8c-.14,0-.42,0-.42-.27L15,5.65c-.13-.27-.13-.69.14-.83s.7-.14.84.14l1,1.39,2.5-4a.52.52,0,0,1,.83-.14.53.53,0,0,1,.14.84L17.32,7.87a.57.57,0,0,1-.41.14Z"/></svg>