<svg id="Layer_1" data-name="Layer 1" xmlns="http://www.w3.org/2000/svg" viewBox="0 0 22 22"><defs><style>.cls-1{fill:none;stroke:#808998;stroke-linecap:round;stroke-linejoin:round;stroke-width:1.5px;}.cls-2{fill:#808998;}</style></defs><title>Click</title><path class="cls-1" d="M20.31,17.73l-3.54-3.45,2.49-1.43a.59.59,0,0,0,.28-.58.65.65,0,0,0-.38-.48l-11-4.4a.85.85,0,0,0-.67.1.85.85,0,0,0-.1.67l4.4,11.1a.65.65,0,0,0,.48.38.71.71,0,0,0,.58-.29l1.43-2.49,3.45,3.45a.72.72,0,0,0,.38.19.52.52,0,0,0,.38-.19l1.72-1.72A.6.6,0,0,0,20.31,17.73Z"/><path class="cls-2" d="M4.55,3.56a.74.74,0,0,0-1,1.05L5.13,6.24a.7.7,0,0,0,.57.19,1.36,1.36,0,0,0,.58-.19.76.76,0,0,0,0-1Z"/><path class="cls-2" d="M5.48,9a.82.82,0,0,0-.76-.76H2.32A.75.75,0,0,0,1.56,9a.83.83,0,0,0,.76.77h2.4A.83.83,0,0,0,5.48,9Z"/><path class="cls-2" d="M5.14,11.49,3.41,13.12a.76.76,0,0,0,0,1.05.72.72,0,0,0,.58.19,1.28,1.28,0,0,0,.57-.19l1.63-1.62a.77.77,0,0,0,0-1.06A.76.76,0,0,0,5.14,11.49Z"/><path class="cls-2" d="M8.84,5.42a.82.82,0,0,0,.77-.76V2.27a.82.82,0,0,0-.77-.77.82.82,0,0,0-.76.77V4.66A.82.82,0,0,0,8.84,5.42Z"/><path class="cls-2" d="M11.89,6.44a1.42,1.42,0,0,0,.57-.19l1.63-1.63A.74.74,0,1,0,13,3.57L11.41,5.19a.69.69,0,0,0-.09,1.06A1.42,1.42,0,0,0,11.89,6.44Z"/></svg>