<svg id="Layer_1" data-name="Layer 1" xmlns="http://www.w3.org/2000/svg" viewBox="0 0 22 22"><defs><style>.cls-1{fill:#808998;}.cls-2,.cls-4,.cls-5,.cls-6{fill:#fd6363;}.cls-3{opacity:0.5;}.cls-4,.cls-6{stroke:#fd6363;stroke-miterlimit:10;}.cls-4{stroke-width:0.7px;}.cls-5,.cls-6{fill-rule:evenodd;}.cls-6{stroke-width:0.8px;}</style></defs><title>fillform-hover</title><path class="cls-1" d="M16.56,8h-5.4a.65.65,0,0,1-.6-.6V2a.6.6,0,0,1,1.2,0v4.8h4.8a.65.65,0,0,1,.6.6C17.26,7.75,17,8,16.56,8Z"/><path class="cls-2" d="M13,12.55H5.76a.6.6,0,0,1,0-1.2H13a.65.65,0,0,1,.6.6A.58.58,0,0,1,13,12.55Z"/><path class="cls-2" d="M13,16.15H5.76a.6.6,0,0,1,0-1.2H13a.65.65,0,0,1,.6.6A.58.58,0,0,1,13,16.15Z"/><path class="cls-2" d="M7.56,8.85H5.76a.53.53,0,0,1-.6-.6.58.58,0,0,1,.6-.6h1.8a.65.65,0,0,1,.6.6A.65.65,0,0,1,7.56,8.85Z"/><path class="cls-1" d="M16,18.25a1.16,1.16,0,0,1-1.2,1.2H4a1.16,1.16,0,0,1-1.2-1.2V3.75A1.16,1.16,0,0,1,4,2.55h7l5.1,5.1v2.1h1.2V7.35a.52.52,0,0,0-.2-.4l-5.4-5.4a.76.76,0,0,0-.4-.2H4a2.43,2.43,0,0,0-2.4,2.4v14.5A2.43,2.43,0,0,0,4,20.65h10.8a2.43,2.43,0,0,0,2.4-2.4v-.7l-1.2.7Z"/><g class="cls-3"><path class="cls-4" d="M13,12.55H5.76a.6.6,0,0,1,0-1.2H13a.65.65,0,0,1,.6.6A.58.58,0,0,1,13,12.55Z"/></g><g class="cls-3"><path class="cls-4" d="M13,16.15H5.76a.6.6,0,0,1,0-1.2H13a.65.65,0,0,1,.6.6A.58.58,0,0,1,13,16.15Z"/></g><g class="cls-3"><path class="cls-4" d="M7.56,8.85H5.76a.53.53,0,0,1-.6-.6.58.58,0,0,1,.6-.6h1.8a.65.65,0,0,1,.6.6A.65.65,0,0,1,7.56,8.85Z"/></g><path class="cls-5" d="M14.88,17.52a3.73,3.73,0,0,1,.36-2c1.08-1.81,3.34-5.7,3.43-5.88a6.79,6.79,0,0,1,1.09.63c-.09.18-2.26,4-3.26,5.79A3.19,3.19,0,0,1,14.88,17.52Z"/><path class="cls-5" d="M20.44,9.17c-.18.27-.27.45-.46.72L18.9,9.26c.18-.27.27-.46.45-.73Z"/><g class="cls-3"><path class="cls-6" d="M14.88,17.52a3.73,3.73,0,0,1,.36-2c1.08-1.81,3.34-5.7,3.43-5.88a6.79,6.79,0,0,1,1.09.63c-.09.18-2.26,4-3.26,5.79A3.19,3.19,0,0,1,14.88,17.52Z"/><path class="cls-6" d="M20.44,9.17c-.18.27-.27.45-.46.72L18.9,9.26c.18-.27.27-.46.45-.73Z"/></g></svg>