<svg id="Layer_1" data-name="Layer 1" xmlns="http://www.w3.org/2000/svg" viewBox="0 0 22 22"><defs><style>.cls-1{fill:#00a1e4;fill-rule:evenodd;}.cls-2{fill:none;stroke:#808998;stroke-miterlimit:10;stroke-width:1.3px;}</style></defs><title>Submit-hover</title><path class="cls-1" d="M14.16,7.4v4.76a1,1,0,0,1-.11.56l-.23.22c-.11,0-.22.11-.33.11H8.4c-.11,0-.11,0-.11.11v1c-.11,0-.11-.11-.22-.11s-.23-.23-.34-.23c-.33-.22-.55-.55-.88-.77-.11-.11-.22-.22-.34-.22l-.22-.22c-.11-.11-.11-.11,0-.11l2-2v1.11c0,.11,0,.11.11.11h4.32c.11,0,.11,0,.11-.11V7.4c0-.11,0-.11.11-.11a4.62,4.62,0,0,1,1.22.11Z"/><path class="cls-2" d="M17.59,20.91H4.52a3.45,3.45,0,0,1-3.43-3.43v-13A3.45,3.45,0,0,1,4.52,1.09h13a3.45,3.45,0,0,1,3.43,3.43v13A3.29,3.29,0,0,1,17.59,20.91Z"/></svg>