<svg id="Layer_1" data-name="Layer 1" xmlns="http://www.w3.org/2000/svg" viewBox="0 0 1920 600"><defs><style>.cls-1,.cls-3{fill:#fff;}.cls-2{fill:#001b48;}.cls-3{font-size:34.93px;font-family:Roboto-Regular, Roboto;}</style></defs><title>EPSoft-new-white-logo</title><path class="cls-1" d="M287.44,389.42c0-27.5.12-55-.11-82.52,0-5.11,1.25-6.84,6.6-6.83q126.95.23,253.88,0c5.09,0,6.88,1.27,6.76,6.66-.57,26.3-5.49,51.79-13.08,76.87-1.41,4.64-4,5.81-8.66,5.81q-122.75-.23-245.48-.09Z"/><path class="cls-1" d="M153.54,300.17c-41.95,0-83.9-.14-125.84.13-6.25,0-8-1.7-7.72-7.89A291.94,291.94,0,0,1,33.12,217c1.77-5.52,4.9-5.75,9.38-5.74q85.29.09,170.59,0c22.37,0,44.74.2,67.11-.13,5.95-.09,7.41,1.86,7.34,7.56q-.44,37,0,74.11c.07,5.83-1.67,7.46-7.47,7.43C237.9,300.06,195.72,300.17,153.54,300.17Z"/><path class="cls-1" d="M413.64,211.27c-39.63,0-79.26-.13-118.89.13-5.95,0-7.49-1.79-7.43-7.51.27-25.17.23-50.35,0-75.53,0-4.82,1.28-6.45,6.28-6.43q93.72.22,187.43,0c3.79,0,6.58,1,9.1,4a280.16,280.16,0,0,1,47,78.79c2.18,5.52,1.05,6.68-4.61,6.65C492.91,211.18,453.27,211.27,413.64,211.27Z"/><path class="cls-1" d="M88.35,477.71C78.59,469.3,71.68,458.47,64.67,448c-11.55-17.33-21.35-35.72-28.08-55.58l1-.92c3-1,6-.59,9-.59q114.87,0,229.73,0c3.2,0,6.54-.78,9.56,1,1.28,2.91.6,6,.61,9q.1,35,0,69.91c0,2.3.51,4.67-.57,6.89v0c-1.74,1-3.65.59-5.48.59q-93.33,0-186.66,0C92,478.26,90.11,478.62,88.35,477.71Z"/><path class="cls-1" d="M382.22,550.15c-28.42,10.23-57.62,16.37-87.91,17.18-5.61.15-7.07-1.47-7-7,.3-25.39.22-50.79,0-76.18,0-4.49,1.08-5.94,5.85-5.93q94,.27,188,.11c1.35,0,2.81-.49,4.09,1.5a284.18,284.18,0,0,1-57.58,47.73c-12.28,7.63-25.33,13.67-38.33,19.88C387.16,548.77,384.61,549.26,382.22,550.15Z"/><path class="cls-1" d="M92.55,117.81c6.36-9.07,15.09-15.8,23.39-22.77A263.55,263.55,0,0,1,216.39,42.23a278.17,278.17,0,0,1,64.75-9.55c5-.18,6.4,1.5,6.36,6.35q-.28,38.07,0,76.15c0,5.11-1.48,6.95-6.74,6.93q-92.56-.19-185.14-.12c-1.74,0-4,.92-5.06-1.15-.74-1.45.4-2.58,1.94-3,3.31,1.46,6.83,1,10.27,1q85.92,0,171.86,0c2.45,0,4.91-.37,6-.06-58.34,0-118,0-177.72,0C99.43,118.74,95.92,119,92.55,117.81Z"/><path class="cls-1" d="M286,477.7l-.18-85.51c-1.95-1.13-4.1-.63-6.16-.63q-118.08,0-236.16,0c-2.07,0-4.2-.46-6.19.54a2.53,2.53,0,0,1-.7.29c-.86-1.12-.86-2.32.52-2.77a13.4,13.4,0,0,1,4.12-.35l243.41,0c.93,0,1.87.09,2.8.13l-.09-.08q.06,42.07.11,84.15C287.46,475,288,476.83,286,477.7Z"/><path class="cls-1" d="M88.35,477.71l197.64,0c-1.64,1.25-3.56.84-5.38.84q-93.78,0-187.55,0A27.55,27.55,0,0,1,88.35,477.71Z"/><ellipse class="cls-2" cx="1131.52" cy="239.21" rx="0.39" ry="22.44"/><path class="cls-1" d="M1325.33,347.15c-2-23.85-13.1-41.73-34.46-53a220.63,220.63,0,0,0-30.54-13.54c-19.72-6.88-39.79-12.8-58.76-21.7-11-5.17-17-13.54-15.82-26.09,1.12-12.37,8.24-19.84,19.66-23.64,13.79-4.59,28-4.14,42.21-3.15,20.45,1.43,40.9,2.89,61.25,5.51,2.92.38,6.77,1.84,7.23-3.62,1.06-12.53,2.32-25,3.51-37.57.24-2.61-.27-4.85-3.38-5-5.82-.31-11.25-3.14-17.19-2.6-17.32-4.6-35.17-5.58-52.88-7.21-11.46-1.06-23.05-1.64-34.56.18h0c-5.07.58-10.21.8-15.2,1.8-17.56,3.53-34,9.7-47,22.65-19.49,19.44-23,43.94-20.92,69.81,1.89,23.9,13.09,42.14,34.08,54.4,13.54,7.91,27.9,13.69,42.69,18.56,15.65,5.15,31.72,9,46.61,16.42,10.37,5.16,16.2,12.9,16.24,24.66,0,12.87-3.7,23.87-15.48,30.76-9,5.23-18.92,6.27-29,6.45-14.71.26-29.31-1.54-43.92-2.82-12.53-1.11-25-2.74-37.51-4.1-2.5-.27-5.2-1.06-5.7,3q-2.31,18.73-4.92,37.41c-.42,3,.61,4.18,3.5,4.67,5.27.91,10.48,2.16,15.72,3.21,28.61,5.71,57.35,10.4,86.66,8.72,21.32-1.22,41.39-7,58.29-20.47C1322.82,409.18,1328.13,379.52,1325.33,347.15Z"/><path class="cls-1" d="M1322.24,338.05v7.83l-.69,0v-8Z"/><path class="cls-1" d="M1539.15,318.59v45.22h-.7V318.3Z"/><path class="cls-1" d="M1402.6,361.08v-42.9h.7v42.94Z"/><path class="cls-1" d="M1533.71,285.11c-8.21-24.53-24.23-42-50-49.28-22.21-6.28-44.62-6.43-67.11-2.31-26.31,4.82-45.33,19-56.34,43.87-8.86,20-11.44,41-11.81,62.56a174.26,174.26,0,0,0,5.26,46.35c7.21,27.77,22.63,48.69,50.4,58.87,18.33,6.73,37.42,7.48,56.56,5.74,38.11-3.45,65.3-24.73,74.83-59.13C1545.38,356.17,1545.51,320.32,1533.71,285.11Zm-53.6,94.44c-5.49,20-24.27,26.12-41.84,23.64-15.34-2.17-24.49-11-28.27-25.95-5.78-22.82-5.62-45.71-1.18-68.62,2.47-12.76,8.85-22.91,21.48-28.08h0a71.92,71.92,0,0,1,30.6.08c14.15,6.2,19.82,18.1,21.83,32.48C1485.86,335.41,1486.18,357.5,1480.11,379.55Z"/><path class="cls-1" d="M1351.57,328.15v26.2h-.69v-26Z"/><path class="cls-1" d="M284,214.4H38.77v-.68H284.29Z"/><path class="cls-1" d="M23.94,273.71v22h-.7v-22Z"/><path class="cls-1" d="M1694.92,155c.19-3.07-2.42-3.64-4.78-4-15.42-2.3-30.82-5.15-46.47-4.57-10.41.38-20.93,1.1-30.33,6.58a34,34,0,0,0-18.58,17.7c-7.2,15.34-8.72,31.76-9.18,48.31s-.22,16.64-16.52,16.92a5.45,5.45,0,0,1-.7,0c-4.27-.56-5.71,1.27-5.58,5.56.28,9.08.09,18.17.09,27.25,0,15,0,15.4,14.87,14.75,7-.31,7.86,2.34,7.84,8.29-.2,49.38,0,98.77-.23,148.15,0,5.09,1,6.9,6.48,6.75,14.43-.39,28.88-.36,43.32,0,5.41.13,7.07-1.26,7-6.95-.25-49.15-.15-98.3-.13-147.45,0-3-.47-6.06,1-8.89,14.87.1,29.73.11,44.6.38,4.26.08,5.64-1.43,5.55-5.7-.25-11.64-.45-23.31.06-34.93.27-6.16-2-7.44-7.62-7.29-12.8.34-25.61,0-38.42.18-3.4,0-5.35-.65-5.22-4.49.23-7-.18-14,1.69-20.82,2.44-9,6.81-13,16.08-13.6,5.32-.34,10.67-.35,16-.51,5.84.53,11.68,2.19,17.5-.1v0l0,0h0C1695.74,182.7,1694.08,168.78,1694.92,155Z"/><path class="cls-1" d="M1851.43,440c-.54-11.39-1.5-22.77-1.85-34.17-.15-4.85-2.22-5.79-6.51-5.52-7.89.5-15.82.49-23.73.86a23.72,23.72,0,0,1-16.81-5.34h0c-2.84-5.31-3-11.11-3-16.92,0-29.6.07-59.19-.2-88.79,0-5.45,1.85-6.66,6.89-6.54,13,.32,26.1,0,39.15.19,4.4.07,6.21-1.09,6.07-5.91q-.51-17.81,0-35.65c.15-5-1.57-6.46-6.38-6.36-12.58.25-25.19-.36-37.74.27-6.89.34-8.16-2.22-8-8.35.38-14.91-.09-29.84.26-44.74.11-4.85-1.63-6-6-5.9-14.91.17-29.84.29-44.74-.06-5.22-.12-6.08,1.81-6,6.46.28,15.37,0,30.76.2,46.14.08,4.91-1.56,6.73-6.44,6.34-4.17-.33-8.4.16-12.57-.13-4.47-.31-6.3,1.09-6.08,5.88.36,7.9.1,15.84.1,23.76,0,18,0,18.21,18,18,5.68-.06,7,1.84,7,7.2-.24,27-.11,54.07-.1,81.11,0,12.59.65,25.12,3.11,37.54,4.51,22.8,16.18,35.62,36,39a37.5,37.5,0,0,0,4.6,1.43c21,3.68,41.57,1.26,61.93-4.21v0C1853,445.46,1851.53,442.16,1851.43,440Z"/><path class="cls-1" d="M37.29,392.1c1.85-2.19,4.36-1.16,6.54-1.16q117.35-.09,234.7,0c2.44,0,5.17-1,7.27,1.26Z"/><path class="cls-1" d="M1090.46,203c-3.82-12.89-10.53-24.27-22.23-31.92h0c-2.27-3.14-5.76-4.62-9-6.35-17.13-9.18-35.83-11.19-54.79-11.32-32.38-.21-64.76.14-97.14-.22-6.78-.07-8.56,1.86-8.55,8.55q.32,138.73.14,277.46c0,1.4,0,2.8,0,4.19,0,2,1.11,3.19,3,3.06,7.29-.51,14.71,1.49,21.9-1.07,2.09-1.92.94-4.4.94-6.57.09-28.21,0-56.42.08-84.62,0-9.7-1.85-9.23,9.24-9.53,31.88-.86,63.89,2.54,95.64-2.3,24.12-3.67,43.9-14.93,54.83-37.37C1100.57,272.05,1100.7,237.62,1090.46,203ZM903.14,442.84a6.58,6.58,0,0,0,.63.38l.06.07A2.57,2.57,0,0,1,903.14,442.84Zm115.78-122.07h0c-28.85.16-57.7.21-86.55.56-5.41.07-7.77-.89-7.72-7.19q.44-65.31,0-130.61c0-5.19,1.35-6.82,6.61-6.77q36.32.36,72.63,0c13.44-.12,26.39,1.81,38.79,7.06,14.3,8,20.86,21.36,25.1,36.32a177.8,177.8,0,0,1,0,53.17h0c-1.56,4.59-2.93,9.25-4.72,13.75C1055.16,307.18,1039.36,317,1018.92,320.77Z"/><path class="cls-1" d="M92.55,117.81h193.3c-3.55,2.33-5.88,1.6-8.06,1.6q-88.35.07-176.71,0c-2.89,0-6.13,1.11-8.57-1.6Z"/><path class="cls-1" d="M834.19,423.45c-45,.23-90,0-135,.26-5.52,0-7.15-1.38-7.11-6.92q.35-50.35,0-100.71c0-5.54,1.57-7,7.13-7,33.56.27,67.13.13,100.7.13,16.54,0,16.29,0,16.6-16.44.1-5.57-1.4-7.08-7-7-35,.27-69.94.14-104.9.14-12.41,0-12.37,0-12.41-12.45q-.16-47.48-.39-94.94c2.39-2.08,5.29-1.27,8-1.27q62.94-.07,125.88,0c16.1,0,15.77,0,16.35-15.73.24-6.56-1.7-8.3-8.19-8.27-52.92.25-105.84.14-158.76.14-9.32,0-9.31,0-9.31,9.67q0,137.78-.17,275.55c0,6.54,1.63,8.18,8,8.15,50.82-.25,101.64-.14,152.46-.14,15.74,0,15.39,0,16-15.46C842.3,424.65,840.12,423.42,834.19,423.45Z"/><text class="cls-3" transform="translate(1848.72 201.73)">TM</text></svg>