<?xml version="1.0" encoding="utf-8"?>
<!-- Generator: Adobe Illustrator 23.0.1, SVG Export Plug-In . SVG Version: 6.00 Build 0)  -->
<svg version="1.1" id="Layer_1" xmlns="http://www.w3.org/2000/svg" xmlns:xlink="http://www.w3.org/1999/xlink" x="0px" y="0px"
	 viewBox="0 0 1080 1080" style="enable-background:new 0 0 1080 1080;" xml:space="preserve">
<style type="text/css">
	.st0{fill:#006DD5;}
	.st1{fill:#FFFFFF;}
	.st2{fill:#FF0043;}
	.st3{fill:#3F4D67;}
	.st4{fill:#C6C6C6;}
	.st5{fill:#EBEBEB;}
	.st6{fill:#ADADAD;}
	.st7{fill:#F9F4F4;}
	.st8{fill:#A2A4AB;}
	.st9{fill:#C1C1C1;}
	.st10{opacity:5.000000e-02;}
	.st11{fill:#EBE8F0;}
	.st12{fill:#4C4C4C;}
	.st13{fill:#252123;}
	.st14{opacity:0.1;}
	.st15{opacity:0.15;}
	.st16{fill:#4BB8B5;}
	.st17{fill:#3882E2;}
	.st18{fill:#C5C5C5;}
	.st19{fill:#1B1B1B;}
	.st20{fill:#C8EEFB;}
	.st21{clip-path:url(#SVGID_4_);fill:#5084DA;}
	.st22{fill:#5084DA;}
	.st23{fill:#5193F4;}
	.st24{opacity:0.4;}
	.st25{opacity:0.2278;}
	.st26{opacity:0.5;fill:#605ACA;}
	.st27{fill:#4CA1FF;}
	.st28{fill:#52D2BC;}
	.st29{fill:none;stroke:#00AD9F;stroke-linecap:round;stroke-linejoin:round;stroke-miterlimit:10;}
	.st30{opacity:0.31;fill:none;stroke:#0B43A4;stroke-linecap:round;stroke-linejoin:round;stroke-miterlimit:10;}
	.st31{fill:#4A84D8;}
	.st32{fill:#00AD9F;}
	.st33{opacity:0.5;}
	.st34{fill:#7EE8D4;}
	.st35{opacity:0.37;fill:#5A4FD1;}
	.st36{opacity:0.5;fill:#C8EEFB;}
	.st37{opacity:0.5;fill:#5084DA;}
	.st38{opacity:0.2;fill:#5084DA;}
	.st39{opacity:9.000000e-02;}
	.st40{fill:#F9714E;}
	.st41{opacity:0.4;fill:#F9714E;}
	.st42{fill:#FFB255;}
	.st43{opacity:0.4;fill:#FFB255;}
	.st44{fill:#FFC2D3;}
	.st45{fill:#2E2C84;}
	.st46{opacity:0.3;}
	.st47{opacity:0.5;fill:#2E2C84;}
	.st48{fill:#001F64;}
	.st49{fill:#8FC2FF;}
	.st50{opacity:0.3;fill:#8FC2FF;}
	.st51{opacity:0.3;fill:#FFC2D3;}
	.st52{fill:none;stroke:#086356;stroke-linecap:round;stroke-linejoin:round;stroke-miterlimit:10;}
	.st53{opacity:0.5;fill:#FFC87C;}
	.st54{fill:#F9ACC8;}
	.st55{fill:#4B48B5;}
	.st56{fill:#568EDB;}
	.st57{fill:#5E9CE4;}
	.st58{opacity:0.16;}
	.st59{fill:#4E84D9;}
	.st60{opacity:0.3;fill:#F9714E;}
	.st61{fill:#DCF0FF;}
	.st62{opacity:0.5;fill:#005296;}
	.st63{font-family:'Neris-Light';}
	.st64{font-size:9.7712px;}
	.st65{opacity:0.4;fill:#3882E2;}
	.st66{fill:#7ABAF9;}
	.st67{font-family:'Roboto-Regular';}
	.st68{font-size:9px;}
	.st69{opacity:0.1;fill:#006DD5;enable-background:new    ;}
	.st70{fill:none;stroke:#535461;stroke-width:2;stroke-miterlimit:10;}
	.st71{opacity:0.25;enable-background:new    ;}
	.st72{fill:#C8CAD7;}
	.st73{opacity:0.1;enable-background:new    ;}
	.st74{fill:#F4F4F7;}
	.st75{fill:#EDEDF4;}
	.st76{fill:url(#SVGID_5_);}
	.st77{fill:#65617D;}
	.st78{fill:#FBBEBE;}
	.st79{fill:#E7EFFD;}
	.st80{fill:#3F3D56;}
	.st81{fill:#E3A79F;}
	.st82{opacity:0.2;}
	.st83{fill:url(#SVGID_6_);}
	.st84{opacity:0.8;fill:#FA5959;enable-background:new    ;}
	.st85{opacity:0.8;fill:#FED253;enable-background:new    ;}
	.st86{opacity:0.8;fill:#8CCF4D;enable-background:new    ;}
	.st87{fill:url(#SVGID_7_);}
	.st88{fill:#1B3D5B;}
	.st89{fill:url(#SVGID_8_);}
	.st90{fill:#48A4FF;}
	.st91{opacity:0.3;fill:#3882E2;}
</style>
<g>
	<g>
		<g>
			<path class="st61" d="M945.6,443.1c13.5,24.5,33.1,47.7,34.8,75.4c2.7,44.5-40.6,78-58.3,119.2c-21.8,50.6-3.5,110.2-22.8,161.6
				c-14,37.3-48.2,67.1-88.4,77c-30.2,7.4-61.9,4.1-93,4.4c-88.4,0.9-176.4,31.4-263.6,17.5c-43-6.9-83.7-24.3-127-29.9
				c-51.9-6.7-112.3,1.4-149.3-33.8c-51.8-49.2-13.3-139.8-52.2-198.8c-12.5-19-32.7-33.9-39.4-55.4c-7.9-25.1,4.9-51.9,20.8-73.4
				c15.9-21.4,35.5-41.2,44.1-66.1c7.8-22.6,3-47.2-6.6-69.2c-14.7-33.7,26.3-111,107.5-105.2c37.3,2.7,54-40.5,94.9-52.5
				c46.8-13.7,105.5-2.7,140,8.8c35,11.6,78.3,17.8,98.4-12c28.4-42,112.9-48.6,150.8,19.6c13.9,24.9,26.2,44.3,55.7,42.4
				C952.1,262.4,925.5,406.6,945.6,443.1z M509.7,212.6c0,5.7,0,15.5,25.2,13.9c7.7-0.5,14-4.6,14-10.4c0-5.7-6.3-10.4-14-10.4
				C527.2,205.8,509.7,203.5,509.7,212.6z M261.3,240.4c-0.8,0.4-1.2,1.3-1.7,2c-1.6,2.5-4.5,4.1-7.3,5.3c-1.7,0.7-3.5,1.2-4.8,2.5
				c-2,2-1.7,5.6,0.5,7.4c1.8,1.4,4.4,1.6,6.7,1.5c8.8-0.4,17.4-3.6,24.1-9C287.7,242.9,266.2,237.7,261.3,240.4z M237.3,253.6
				c-3-1.9-6.8-0.8-9.7,0.7c-0.6,0.3-1.3,0.8-1.5,1.4c-0.4,1.4,1.4,2.4,2.8,2.8c2.2,0.7,4.7,1.4,6.9,0.6
				C238.1,258.4,240.3,255.5,237.3,253.6z M125.8,435.9c-2.2-6.7-7.4-10-15.2-6.2c-4.7,2.3-7.9,6.5-10.7,10.7
				c-4.5,6.8-8.4,14.6-7.4,22.6c0.7,5.8,4.1,11.3,9,14.8c2,1.4,4.5,2.5,7,2.4c2.8-0.1,5.3-1.6,7.4-3.3c5.1-3.9,9-9.1,12.9-14.1
				c2-2.6,4.1-5.4,4.4-8.6C134.1,447.4,127.8,442.1,125.8,435.9z M943.5,641.3c-2,0.8-4,1.8-5.2,3.6c-0.9,1.4-1.1,3-1.3,4.7
				c-0.4,3.4-0.6,6.7-0.6,10.1c0,3.7,0.4,7.8,3.2,10.3c3.8,3.4,9.9,2.2,14.9,0.8c2.8-0.8,5.8-1.7,7.7-3.9c1.3-1.6,1.8-3.7,2.2-5.7
				c1.2-6.7,4.9-17,0.8-20.5C961.1,637.2,950.6,638.4,943.5,641.3z M661,902.6c-1,1-2,2-2.6,3.2c-1.7,3.4,0.1,7.9,3.7,9.4
				c1.8,0.7,3.8,0.7,5.8,0.7c16.8-0.2,34.9-0.8,48.3-10.5c1.6-1.2,3.3-2.8,3-4.8c-0.4-2.3-3.3-3.4-5.7-3.8
				C696.7,893.5,674.5,889.9,661,902.6z M341.6,876.6c-14.6-2-37.9-4.8-37.9,7.1c0,4.5,20.6,8.8,24.1,9.6
				c10.6,2.6,20.5,6.3,30.8,10.1c19.2,7.1,34.5-2.5,19.3-13.1C365.4,881.4,353.4,878.2,341.6,876.6z"/>
		</g>
		<g>
			<g>
				<g>
					<path class="st22" d="M932.3,556.5c-1.1-0.6-2-1.4-2.7-2.4c-8.8,9.6-20.5,17.1-32.9,22.9c-1.6,0.8-6.4,10-6.4,10
						s-0.6-6.9-1.6-6.5c-32.2,13.2-66.2,16.3-66.2,16.3l-4.6,63.5c93.2-16.1,114.6-74.3,119.4-102.8
						C935.5,557.6,933.7,557.2,932.3,556.5z"/>
				</g>
				<g>
					<path class="st22" d="M864,707.8c0,0,41.3,21.9,122,25.7c0,0-54.9,50.1-180.5,32.9l4.1-57.1L864,707.8z"/>
				</g>
				<g>
					<path class="st23" d="M806.3,652.3c0,0,18.6-11.9,48.9-22.2c1.2-0.4,3.8,6.7,3.8,6.7s4.1-9.3,6.3-9.9
						c36.1-10.8,85.6-17.9,138.8-2.9c0,0-16.1,22.5-49.1,47.1c-1.4,1-10.7,0.2-10.7,0.2s3.9,4.7,2.6,5.6
						c-31.4,21.8-75.8,44-133.9,52.8L806.3,652.3z"/>
				</g>
				<g class="st24">
					<g>
						<path class="st22" d="M1004,624.1c-15.6,10-31.9,18.8-48.6,26.9c-16.7,8.1-33.8,15.3-51.1,21.8c-8.7,3.3-17.5,6.1-26.3,9.1
							l-13.3,4c-2.2,0.7-4.4,1.4-6.7,2l-6.7,1.7c-17.9,4.8-36.2,8.1-54.5,10.7l13.6-2.8l6.8-1.4c2.3-0.5,4.5-1.1,6.7-1.6l13.5-3.2
							l13.4-3.7c8.9-2.4,17.7-5.3,26.5-8c8.7-3,17.5-5.9,26.1-9.3c17.4-6.3,34.4-13.5,51.2-21.2c8.4-3.8,16.7-7.9,25-12
							C987.8,633,995.9,628.6,1004,624.1z"/>
					</g>
					<g>
						<path class="st22" d="M891.1,676.2c3.4-3.2,6.8-6.5,10.1-9.8c3.3-3.3,6.6-6.6,9.7-10c3.2-3.4,6.1-7,9.1-10.6
							c2.9-3.7,5.5-7.5,8.1-11.4c-1.6,4.4-3.8,8.7-6.4,12.6c-2.6,3.9-5.6,7.7-8.8,11.2C906.5,665.1,899.3,671.4,891.1,676.2z"/>
					</g>
					<g>
						<path class="st22" d="M841.1,691.2c3.7-2.4,7.2-5.2,10.4-8.1c3.2-2.9,6.3-6,9-9.4c2.8-3.3,5.3-6.9,7.5-10.7
							c2.3-3.7,4.1-7.7,6-11.8c-0.9,4.4-2.1,8.7-4.1,12.8c-1.9,4.1-4.4,7.9-7.3,11.4c-2.9,3.5-6.2,6.6-9.8,9.3
							C849.3,687.4,845.3,689.7,841.1,691.2z"/>
					</g>
					<g>
						<path class="st22" d="M891.1,676.2c6.5,0.3,12.8,0.4,19.1-0.1c3.2-0.2,6.3-0.5,9.4-1c3.2-0.4,6.2-1.1,9.5-1.7
							c-2.8,1.6-5.9,3-9,3.8c-3.2,0.9-6.4,1.4-9.7,1.6c-3.3,0.2-6.6,0.1-9.8-0.3C897.4,678.1,894.2,677.4,891.1,676.2z"/>
					</g>
					<g>
						<path class="st22" d="M842.1,691.3c3.9,0.5,7.7,0.8,11.6,1.2c3.8,0.4,7.7,0.7,11.5,0.8c3.8,0.2,7.6,0.2,11.5,0.1
							c3.8-0.2,7.6-0.6,11.5-1.1c-3.6,1.6-7.4,2.7-11.3,3.2c-3.9,0.5-7.9,0.7-11.8,0.5C857.2,695.6,849.4,694.2,842.1,691.3z"/>
					</g>
				</g>
				<g class="st25">
					<g>
						<path class="st26" d="M925.8,566.8c-3.3,9.1-9.2,17.2-15.9,24.2c-6.7,7.1-14.6,13-23,18l-6.5,3.4c-2.1,1.2-4.4,2-6.7,3
							c-4.4,2-9.1,3.5-13.7,5c-2.3,0.8-4.7,1.3-7,1.9L846,624c-4.8,0.8-9.6,1.5-14.4,2.1c4.7-1.2,9.4-2.2,14.1-3.3l6.9-2
							c2.3-0.7,4.6-1.3,6.9-2.2c4.5-1.8,9-3.2,13.3-5.3c2.2-1,4.4-1.9,6.5-3l6.3-3.4c8.2-4.8,16-10.5,22.9-17.1
							c1.7-1.7,3.4-3.3,5-5.1c0.8-0.9,1.6-1.8,2.4-2.7l2.2-2.8C921,575.1,923.7,571.1,925.8,566.8z"/>
					</g>
				</g>
				<g>
					<g>
						<path class="st27" d="M959.6,740.4c-5.7,1.1-11.4,1.8-17.1,2.4c-5.7,0.6-11.5,1-17.2,1.3c-11.5,0.6-23.1,0.3-34.6-0.5
							c-5.8-0.5-11.5-1.1-17.2-2.1c-5.7-0.9-11.4-1.9-17-3.4c-11.2-2.9-22.2-6.9-32-12.9c5.2,2.5,10.5,4.7,15.9,6.4
							c5.4,1.8,10.9,3.3,16.5,4.5c11.2,2.4,22.5,4,33.9,4.8c11.4,1,22.9,1.2,34.3,1.1C936.7,741.9,948.2,741.4,959.6,740.4z"/>
					</g>
					<g>
						<path class="st27" d="M905.5,760.5c-7.5,0.6-15.2-1-22.1-4.4c-3.4-1.7-6.6-4-9.2-6.8c-2.7-2.8-4.5-6.3-5.7-9.8
							c2.1,3.1,4.4,6,7.2,8.3c2.8,2.3,5.7,4.3,9,5.9c3.2,1.6,6.6,2.9,10.1,4C898.3,758.9,901.8,759.8,905.5,760.5z"/>
					</g>
					<g>
						<path class="st27" d="M875.4,762.3c-7.5-1-14.6-4.3-20.6-9c-3-2.4-5.6-5.4-7.5-8.7c-2-3.3-3-7.1-3.4-10.8
							c1.4,3.5,3,6.8,5.2,9.7c2.2,2.9,4.7,5.5,7.5,7.7c2.8,2.3,5.8,4.3,9,6.1C868.7,759.1,872,760.8,875.4,762.3z"/>
					</g>
				</g>
			</g>
			<g>
				<path class="st23" d="M650.8,763.2c-0.5,5.9-1.7,11.9-4.6,17.3c-2,3.7-4.7,6.9-7.7,9.8c-1.6,1.5-3.2,2.9-4.9,4.2
					c-6.6,5-14,8.9-21.6,11.3c-11.1,3.5-23,4.2-33.2,10.5c-4.7,2.9-8.8,6.9-12,11.5c-2,2.9-3.6,6.1-4.7,9.3l0-10
					c1.1-11,2.2-22.3,6.3-32.8c2.6-6.8,6.5-13.2,10.7-19.2c6.7-9.7,14.4-18.7,23.3-26.2c7.2-6.1,15.4-11.2,24.2-12.5
					c8.8-1.3,18.1,1.9,22.1,9.7C651.2,751.2,651.4,757.3,650.8,763.2z"/>
				<path class="st30" d="M568.2,817.9c6.3-14.8,17.1-27.8,30.2-36.5c8.2-5.4,17.2-9.1,25.6-14.1c8.4-5.1,16.5-11.9,20.4-21.1"/>
			</g>
			<g>
				<path class="st23" d="M394,775c-9.1-3.6-21.2-5.1-27.1,2.8c-4.9,6.6-2.4,15.9,1,23.3c2.8,6.3,6.5,12.7,12.5,16.1
					c4.1,2.3,8.9,3,13.6,3.6c13.1,1.6,26.2,2.3,39.4,2.3c15.3,0,33.7,6.2,46.4,15.7C463.6,808.7,424.6,787.1,394,775z"/>
				<path class="st30" d="M378.1,794.6c11.6,0.5,23.2,1.3,34.4,4.6c11.4,3.4,55.1,23.4,61.9,31.9"/>
			</g>
			<g>
				<path class="st22" d="M457,777c-9.1-3.6-21.2-5.1-27.1,2.8c-4.9,6.6-2.4,15.9,1,23.3c2.8,6.3,6.5,12.7,12.5,16.1
					c4.1,2.3,8.9,3,13.6,3.6c13.1,1.6,26.2,2.3,39.4,2.3c15.3,0,33.7,6.2,46.4,15.7C526.6,810.7,487.6,789.1,457,777z"/>
				<path class="st30" d="M441.1,796.6c11.6,0.5,23.2,1.3,34.4,4.6c11.4,3.4,55.1,23.4,61.9,31.9"/>
			</g>
			<g>
				<path class="st22" d="M659,785.4c10.7-2.1,24.4-1.2,29.2,8.7c4,8.2-0.7,18-6,25.5c-4.4,6.3-9.7,12.6-17.1,15.1
					c-5,1.7-10.4,1.5-15.7,1.1c-14.7-1-29.3-2.9-43.8-5.7c-16.8-3.2-38.4-0.2-54.3,7.7C575.4,808,622.8,792.3,659,785.4z"/>
				<path class="st30" d="M672.4,810.2c-12.8-1.9-25.9-3.4-38.8-2.1c-13.2,1.3-65.4,14.3-74.7,22.3"/>
			</g>
			<g>
				<g>
					<path class="st22" d="M270.8,761.2c0,0-60.4-13.2-106.9-8.2c-1.5,0.2,0.3-9,0.3-9s-9.6,10.2-12,10.5
						c-25.5,4.1-50.4,12.9-67.4,30.1c0,0,30.9-127,200.1-108.1L270.8,761.2z"/>
				</g>
				<g class="st24">
					<g>
						<path class="st22" d="M128.7,568.6c22.7,10.1,44.6,22,66,34.7c21.4,12.7,42,26.7,62.1,41.3c10.1,7.3,19.7,15.2,29.5,22.8
							l14.3,12c2.4,2,4.8,4,7.1,6l6.9,6.3c18.6,16.5,35.7,34.7,52.1,53.3L353.6,732l-6.5-6.6c-2.2-2.2-4.5-4.2-6.8-6.4l-13.5-12.8
							l-14-12.3c-9.2-8.3-19-16-28.5-23.9c-9.8-7.5-19.5-15.3-29.6-22.5c-19.9-14.8-40.4-28.7-61.4-41.9
							c-10.5-6.6-21.1-13-31.9-19.2C150.6,580.3,139.8,574.3,128.7,568.6z"/>
					</g>
					<g>
						<path class="st22" d="M270.3,657c-6.1-1.5-12.3-2.8-18.4-4.2c-6.1-1.3-12.3-2.5-18.4-3.5c-6.1-1.1-12.3-1.8-18.5-2.4
							c-6.2-0.5-12.4-0.7-18.8-0.7c6.2-1.4,12.5-2.1,18.9-2.1c6.4,0.1,12.7,0.6,19,1.6C246.6,647.9,258.9,651.4,270.3,657z"/>
					</g>
					<g>
						<path class="st22" d="M210.9,616.3c-4.4-0.3-8.7-0.4-13.1-0.6c-4.3-0.1-8.7-0.2-13-0.1c-4.3,0-8.6,0.3-12.9,0.7
							c-4.3,0.4-8.6,1-12.9,1.8c4-1.7,8.3-3,12.6-3.8c4.3-0.7,8.8-1.1,13.2-1.2C193.6,613,202.4,613.8,210.9,616.3z"/>
					</g>
					<g>
						<path class="st22" d="M323.9,702c-5.5-2.4-11.1-4.2-16.8-5.7c-5.7-1.5-11.4-2.6-17.2-3.2c-5.8-0.7-11.6-0.9-17.5-0.6
							c-5.9,0.2-11.7,1.1-17.6,1.9c5.5-2.2,11.4-4.1,17.4-4.8c6-0.9,12.1-0.8,18.1-0.2c6,0.7,12,2,17.7,4.1
							C313.7,695.6,319.1,698.4,323.9,702z"/>
					</g>
					<g>
						<path class="st22" d="M270.3,657c-4.5-7.5-9-14.6-14.2-21.4c-2.5-3.4-5.2-6.7-8-9.9c-2.8-3.2-5.9-6.2-8.9-9.4
							c3.9,2,7.6,4.4,10.9,7.4c3.3,2.9,6.3,6.2,8.9,9.7c2.6,3.5,5,7.3,6.9,11.2C267.8,648.5,269.4,652.6,270.3,657z"/>
					</g>
					<g>
						<path class="st22" d="M323.3,700.8c-2.3-4.7-4.8-9.3-7.1-13.9c-2.4-4.6-4.9-9.1-7.5-13.5c-2.6-4.4-5.4-8.7-8.4-12.9
							c-3-4.1-6.2-8.2-9.8-12.1c4.4,2.8,8.5,6.3,12,10.3c3.5,4,6.5,8.3,9.3,12.8C317,680.7,321.2,690.5,323.3,700.8z"/>
					</g>
				</g>
				<g class="st33">
					<g>
						<path class="st27" d="M110.9,756.9c7.7-10.5,18.3-18.7,29.5-25.3c11.3-6.7,23.7-11.3,36.3-14.6l9.6-2c3.2-0.7,6.5-0.9,9.7-1.4
							c6.5-1,13-1.1,19.5-1.3c3.3-0.2,6.5,0.1,9.8,0.2l9.7,0.5c6.5,0.8,12.9,1.7,19.3,2.7c-6.5-0.2-12.9-0.7-19.4-1l-9.7,0
							c-3.2,0.1-6.4-0.1-9.6,0.3c-6.4,0.6-12.8,0.7-19.2,1.9c-3.2,0.5-6.4,0.7-9.5,1.5l-9.4,2.1c-12.4,3.1-24.5,7.5-35.9,13.5
							c-2.8,1.5-5.7,3-8.4,4.8c-1.4,0.9-2.7,1.7-4.1,2.6l-3.9,2.8C120.2,747.9,115.2,752.1,110.9,756.9z"/>
					</g>
				</g>
				<g class="st33">
					<g>
						<path class="st27" d="M215.3,713.9c-3.5,5.6-6.9,10.9-9.8,16.5c-1.5,2.8-2.7,5.7-3.8,8.6c-1.1,3-1.8,6-2.6,9.3
							c-1.6-6.5,0.1-13.6,3.2-19.5c1.6-3,3.4-5.8,5.6-8.3C210.1,718,212.5,715.7,215.3,713.9z"/>
					</g>
				</g>
			</g>
			<g>
				<rect x="482" y="754.6" class="st0" width="100" height="68.8"/>
				<rect x="482" y="754.6" class="st62" width="100" height="24.9"/>
				<path class="st0" d="M633.6,822.4h-203c-6.4,0-11.6,5.2-11.6,11.6c0,6.4,5.2,11.6,11.6,11.6h203c6.4,0,11.6-5.2,11.6-11.6l0,0
					C645.2,827.6,640,822.4,633.6,822.4z"/>
				<path class="st62" d="M645.2,834c0,6.4-5.2,11.6-11.6,11.6h-203c-6.4,0-11.6-5.2-11.6-11.6c0-1,0.1-1.9,0.4-2.8
					c1.2,5.1,5.8,8.8,11.2,8.8h203c5.4,0,10-3.7,11.2-8.8C645.1,832.1,645.2,833,645.2,834z"/>
				<g>
					<g>
						<g>
							<path class="st1" d="M219.1,764.2c-3.9,0-7.1-3.2-7.1-7.1V343.7c0-3.9,3.2-7.1,7.1-7.1h626c3.9,0,7.1,3.2,7.1,7.1v413.4
								c0,3.9-3.2,7.1-7.1,7.1H219.1z"/>
							<path class="st0" d="M845.1,341.7c1.1,0,2,0.9,2,2v413.4c0,1.1-0.9,2-2,2h-626c-1.1,0-2-0.9-2-2V343.7c0-1.1,0.9-2,2-2H845.1
								 M845.1,331.5h-626c-6.7,0-12.2,5.5-12.2,12.2v413.4c0,6.7,5.5,12.2,12.2,12.2h626c6.7,0,12.2-5.5,12.2-12.2V343.7
								C857.3,337,851.8,331.5,845.1,331.5L845.1,331.5z"/>
						</g>
					</g>
					<g>
						<path class="st0" d="M857.3,756.3v-40.4H206.9v40.4c0,7.6,6.2,13.8,13.8,13.8h622.8C851.1,770.1,857.3,763.9,857.3,756.3z"/>
					</g>
				</g>
				<g>
					<path class="st17" d="M705.3,659h-70.9c-2,0-3.7-1.7-3.7-3.7v-12.7c0-2,1.7-3.7,3.7-3.7h70.9c2,0,3.7,1.7,3.7,3.7v12.7
						C709,657.4,707.3,659,705.3,659z"/>
					<g>
						<g>
							<path class="st36" d="M546.8,424.1H401.3c-1.5,0-2.7-1.2-2.7-2.7v-14.5c0-1.5,1.2-2.7,2.7-2.7h145.5c1.5,0,2.7,1.2,2.7,2.7
								v14.5C549.4,422.9,548.3,424.1,546.8,424.1z"/>
							<path class="st37" d="M542.2,416.8H405.8c-0.7,0-1.3-0.6-1.3-1.3v-2.6c0-0.7,0.6-1.3,1.3-1.3h136.4c0.7,0,1.3,0.6,1.3,1.3
								v2.6C543.5,416.2,542.9,416.8,542.2,416.8z"/>
						</g>
						<g>
							<path class="st36" d="M546.8,508.4H401.3c-1.5,0-2.7-1.2-2.7-2.7v-14.5c0-1.5,1.2-2.7,2.7-2.7h145.5c1.5,0,2.7,1.2,2.7,2.7
								v14.5C549.4,507.3,548.3,508.4,546.8,508.4z"/>
							<path class="st37" d="M542.2,501.2H405.8c-0.7,0-1.3-0.6-1.3-1.3v-2.6c0-0.7,0.6-1.3,1.3-1.3h136.4c0.7,0,1.3,0.6,1.3,1.3
								v2.6C543.5,500.6,542.9,501.2,542.2,501.2z"/>
						</g>
						<g>
							<path class="st36" d="M546.8,466H401.3c-1.5,0-2.7-1.2-2.7-2.7v-14.5c0-1.5,1.2-2.7,2.7-2.7h145.5c1.5,0,2.7,1.2,2.7,2.7
								v14.5C549.4,464.8,548.3,466,546.8,466z"/>
							<path class="st37" d="M542.2,458.7H405.8c-0.7,0-1.3-0.6-1.3-1.3v-2.6c0-0.7,0.6-1.3,1.3-1.3h136.4c0.7,0,1.3,0.6,1.3,1.3
								v2.6C543.5,458.2,542.9,458.7,542.2,458.7z"/>
						</g>
						<g>
							<path class="st36" d="M546.8,549.2H401.3c-1.5,0-2.7-1.2-2.7-2.7V532c0-1.5,1.2-2.7,2.7-2.7h145.5c1.5,0,2.7,1.2,2.7,2.7
								v14.5C549.4,548,548.3,549.2,546.8,549.2z"/>
							<path class="st37" d="M514.7,541.9h-109c-0.7,0-1.2-0.5-1.2-1.2v-2.9c0-0.7,0.5-1.2,1.2-1.2h109c0.7,0,1.2,0.5,1.2,1.2v2.9
								C515.9,541.4,515.3,541.9,514.7,541.9z"/>
							<path class="st37" d="M540.6,541.9h-0.7c-0.2,0-2.9-5-2.9-5c0-0.2,0.1-0.3,0.3-0.3h6c0.2,0,0.3,0.1,0.3,0.3
								C543.5,536.9,540.8,541.9,540.6,541.9z"/>
						</g>
						<g>
							<path class="st36" d="M546.8,590.2H401.3c-1.5,0-2.7-1.2-2.7-2.7V573c0-1.5,1.2-2.7,2.7-2.7h145.5c1.5,0,2.7,1.2,2.7,2.7
								v14.5C549.4,589,548.3,590.2,546.8,590.2z"/>
							<path class="st37" d="M542.2,582.9H405.8c-0.7,0-1.3-0.6-1.3-1.3V579c0-0.7,0.6-1.3,1.3-1.3h136.4c0.7,0,1.3,0.6,1.3,1.3v2.6
								C543.5,582.3,542.9,582.9,542.2,582.9z"/>
						</g>
						<g>
							<path class="st36" d="M707.5,424.2H562c-1.5,0-2.7-1.2-2.7-2.7v-14.5c0-1.5,1.2-2.7,2.7-2.7h145.5c1.5,0,2.7,1.2,2.7,2.7
								v14.5C710.2,423,709,424.2,707.5,424.2z"/>
							<path class="st37" d="M702.9,417H566.6c-0.7,0-1.3-0.6-1.3-1.3V413c0-0.7,0.6-1.3,1.3-1.3h136.4c0.7,0,1.3,0.6,1.3,1.3v2.6
								C704.2,416.4,703.7,417,702.9,417z"/>
						</g>
						<g>
							<path class="st36" d="M707.5,465.4H562c-1.5,0-2.7-1.2-2.7-2.7v-14.5c0-1.5,1.2-2.7,2.7-2.7h145.5c1.5,0,2.7,1.2,2.7,2.7
								v14.5C710.2,464.2,709,465.4,707.5,465.4z"/>
							<path class="st37" d="M702.9,458.1H566.6c-0.7,0-1.3-0.6-1.3-1.3v-2.6c0-0.7,0.6-1.3,1.3-1.3h136.4c0.7,0,1.3,0.6,1.3,1.3
								v2.6C704.2,457.5,703.7,458.1,702.9,458.1z"/>
						</g>
						<g>
							<g>
								<path class="st36" d="M605,549.1h-44.4c-0.8,0-1.5-0.7-1.5-1.5v-16.8c0-0.8,0.7-1.5,1.5-1.5H605c0.8,0,1.5,0.7,1.5,1.5v16.8
									C606.5,548.4,605.8,549.1,605,549.1z"/>
								<path class="st36" d="M708.3,549.1h-91.6c-1.2,0-2.1-1-2.1-2.1v-15.6c0-1.2,1-2.1,2.1-2.1h91.6c1.2,0,2.1,1,2.1,2.1V547
									C710.4,548.1,709.5,549.1,708.3,549.1z"/>
							</g>
							<path class="st37" d="M596.8,541.9h-0.7c-0.2,0-2.9-5-2.9-5c0-0.2,0.1-0.3,0.3-0.3h6c0.2,0,0.3,0.1,0.3,0.3
								C599.8,536.9,597,541.9,596.8,541.9z"/>
						</g>
						<g>
							<path class="st36" d="M706.3,590.4h-143c-1.5,0-2.7-1.2-2.7-2.7v-14.5c0-1.5,1.2-2.7,2.7-2.7h143c1.5,0,2.7,1.2,2.7,2.7v14.5
								C708.9,589.2,707.7,590.4,706.3,590.4z"/>
							<path class="st37" d="M572.9,583.1L572.9,583.1c-1.5,0-2.7-1.2-2.7-2.7l0,0c0-1.5,1.2-2.7,2.7-2.7l0,0c1.5,0,2.7,1.2,2.7,2.7
								l0,0C575.5,581.9,574.3,583.1,572.9,583.1z M583.5,580.4L583.5,580.4c0-1.5-1.2-2.7-2.7-2.7l0,0c-1.5,0-2.7,1.2-2.7,2.7l0,0
								c0,1.5,1.2,2.7,2.7,2.7l0,0C582.3,583.1,583.5,581.9,583.5,580.4z M591.4,580.4L591.4,580.4c0-1.5-1.2-2.7-2.7-2.7l0,0
								c-1.5,0-2.7,1.2-2.7,2.7l0,0c0,1.5,1.2,2.7,2.7,2.7l0,0C590.2,583.1,591.4,581.9,591.4,580.4z M599.4,580.4L599.4,580.4
								c0-1.5-1.2-2.7-2.7-2.7l0,0c-1.5,0-2.7,1.2-2.7,2.7l0,0c0,1.5,1.2,2.7,2.7,2.7l0,0C598.2,583.1,599.4,581.9,599.4,580.4z
								 M607.4,580.4L607.4,580.4c0-1.5-1.2-2.7-2.7-2.7l0,0c-1.5,0-2.7,1.2-2.7,2.7l0,0c0,1.5,1.2,2.7,2.7,2.7l0,0
								C606.2,583.1,607.4,581.9,607.4,580.4z M615.3,580.4L615.3,580.4c0-1.5-1.2-2.7-2.7-2.7l0,0c-1.5,0-2.7,1.2-2.7,2.7l0,0
								c0,1.5,1.2,2.7,2.7,2.7l0,0C614.1,583.1,615.3,581.9,615.3,580.4z M623.3,580.4L623.3,580.4c0-1.5-1.2-2.7-2.7-2.7l0,0
								c-1.5,0-2.7,1.2-2.7,2.7l0,0c0,1.5,1.2,2.7,2.7,2.7l0,0C622.1,583.1,623.3,581.9,623.3,580.4z"/>
							<circle class="st38" cx="694.7" cy="581.3" r="6.6"/>
							<text transform="matrix(1 0 0 1 693.4795 584.3271)" class="st22 st63 st64">i</text>
						</g>
					</g>
				</g>
			</g>
			<path class="st39" d="M875.6,820v-22.7c0-7.5-6-13.5-13.5-13.5h-1.2v-21c0-30.9-25.1-56-56-56c-30.9,0-56,25.1-56,56v21h-1.2
				c-7.5,0-13.5,6-13.5,13.5V820H875.6z M767.4,762.8c0-20.7,16.8-37.5,37.5-37.5c20.7,0,37.5,16.8,37.5,37.5v21h-75V762.8z"/>
			<path class="st39" d="M944.7,551.7c-6.6-5.5-14.8-8.9-24.6-9.7c0-0.9,0-1.8,0-3c5-0.8,9.3-5.2,11.8-11.1
				c6.8-6.5,11.4-14.6,9.2-24.8c-0.1-0.6,0-1.1,0.2-1.5c-2.9-5.2-8.3-7.7-14.3-13.1c-20.1-18.2-43.9,7.1-34.9,17.5
				c0.7,0.8,1.7,3,2.5,5.7c0,0.1,0,0.1-0.1,0.2c-0.4,2-0.1,5.2,1.5,6.9c0.1,1,0.2,2.1,0.2,3.1c0,0.1,0.1,0.2,0.1,0.3
				c0.3,1.6,0.9,3,1.7,4.3c1.2,4.9,4.1,10,10.2,12c0.5,0.2,1,0.3,1.5,0.4c0.3,1.4,0.4,2.2,0.2,3.3c-5.9,0.7-11.3,2.5-16.1,5.4
				c-38.4,18.5-76.3,78.3-72.1,91.5c4.2,13.2,14.8,28.6,21.9,38.9l1.1-0.2c0.6,2,1.1,4,1.7,6c0.3,1,0.6,2,1.4,2.7
				c1,0.9,2.6,0.9,3.9,0.8c1.7-0.1,3.5-0.2,4.8-1.4c0.7-0.7,1.2-1.6,1.4-2.6c0.7-2.6,0-5.3-1.3-7.7l0.8-0.1c0,0-16.5-24.7-15.9-39.8
				c0.2-5.5,13.1-18.5,23.6-28.2c-0.2,3.4-0.4,6.8-0.4,10.3l-5,120.3c0,0,4.3,0.9,11.3,2l6.8,71.8h27.2l0.6-67.6
				c0.4,0,0.7,0.1,1.1,0.1c0.3,0,0.6,0,0.9,0.1c1.3,0.1,2.7,0.2,4,0.3c0.5,0,0.9,0.1,1.4,0.1c0.5,0,1,0.1,1.5,0.1l2.7,67.1h26.8
				l5.5-68.3c0,0,0.1,0,0.1,0c1.1-0.2,2.2-0.4,3.3-0.6c0.5-0.1,0.9-0.2,1.4-0.3c0.9-0.2,1.8-0.4,2.6-0.6c0.5-0.1,0.9-0.2,1.4-0.4
				c0.9-0.2,1.7-0.5,2.5-0.8c0.4-0.1,0.8-0.3,1.1-0.4c1.1-0.4,2.2-0.9,3.3-1.4l-0.5-130.1c0-2.8-0.1-5.5-0.2-8.2c0-0.2,0-0.4,0-0.6
				c-0.2-2.5-0.4-4.9-0.7-7.2c0-0.2-0.1-0.5-0.1-0.7c0-0.2-0.1-0.4-0.1-0.6c5.3,1.1,12.2,2.3,21.2,3.8c5.9,1,11.6,0.5,17-1.1v-26.3
				C979.5,570.4,954.3,557.5,944.7,551.7z"/>
			<g>
				<path class="st17" d="M790.9,706.7c-30.9,0-56,25.1-56,56v53.9h112v-53.9C846.9,731.9,821.8,706.7,790.9,706.7z M753.4,798.1
					v-35.4c0-20.7,16.8-37.5,37.5-37.5c20.7,0,37.5,16.8,37.5,37.5v35.4H753.4z"/>
				<path class="st65" d="M790.9,717.8c-24.7,0-44.7,20.1-44.7,44.7v43h89.5v-43C835.6,737.9,815.6,717.8,790.9,717.8z M828.4,798.1
					h-75v-35.4c0-20.7,16.8-37.5,37.5-37.5c20.7,0,37.5,16.8,37.5,37.5V798.1z"/>
				<path class="st17" d="M847.8,896.6H734c-7.6,0-13.8-6.2-13.8-13.8v-85.3c0-7.6,6.2-13.8,13.8-13.8h113.9
					c7.6,0,13.8,6.2,13.8,13.8v85.3C861.6,890.4,855.4,896.6,847.8,896.6z"/>
				<path class="st62" d="M811.5,832.4c0-11.4-9.2-20.6-20.6-20.6s-20.6,9.2-20.6,20.6c0,7.9,4.5,14.8,11.1,18.2v22.2h18.9v-22.2
					C806.9,847.2,811.5,840.3,811.5,832.4z"/>
				<path class="st65" d="M848.1,783.8h-34c-7.4,23-19,44.9-33.7,64c-13.7,17.8-35.2,40.3-59.5,39.8c1.8,5.3,6.8,9,12.7,9h114.4
					c7.5,0,13.5-6,13.5-13.5v-85.8C861.6,789.8,855.6,783.8,848.1,783.8z"/>
			</g>
			<g>
				<path class="st44" d="M826.4,672.2c1.1,3.8,2.2,7.5,3.3,11.3c0.3,1,0.6,2,1.4,2.7c1,0.9,2.6,0.9,3.9,0.8
					c1.7-0.1,3.5-0.2,4.8-1.4c0.7-0.7,1.2-1.6,1.4-2.6c0.7-2.8-0.1-5.8-1.6-8.2c-1.5-2.5-3.5-4.5-5.6-6.5"/>
				<path class="st44" d="M1029.6,542.1c1.3-5.3,3.1-10.4,5.4-15.3c1.2,1.5,1,3.6,0.8,5.5c1.1-2.8,3.3-5.1,6-6.4
					c0.3-0.2,0.7-0.3,1-0.2c0.4,0.2,0.5,0.6,0.6,1c1,4,0.5,8.4-1.4,12.1c-1.9,3.7-5.2,6.7-9,8.3"/>
				<path class="st22" d="M918.6,893.4c9.6,2.3,17.6,5.2,22,9.1h-37l0.7-8.6L918.6,893.4z"/>
				<path class="st22" d="M873.3,893.4c-9.6,2.3-17.6,5.2-22,9.1h37l-0.7-8.6L873.3,893.4z"/>
				<g>
					<g>
						<path class="st18" d="M938.1,677.8l-17.5,217.2c0,0-6.1,1.5-8.2,1.5c-1,0-3-0.3-4.8-0.7c-2-0.4-3.8-0.8-3.8-0.8l-6.5-164.2
							h-8.2l-1.6,164.2c0,0-4.4,1.3-8.9,1.3c-4.4,0-9.7-1.3-9.7-1.3L848,672.2L938.1,677.8z"/>
					</g>
				</g>
				<g class="st46">
					<path class="st47" d="M904.6,675.7l-30.7-1.9c-0.4,40,5.6,183,6.3,222.4c4-0.2,7.4-1.3,7.4-1.3l1.6-164.2h8.2l6.5,164.2
						c0,0,1.8,0.4,3.8,0.8c0.6,0.1,1.2,0.2,1.8,0.3C909.4,851.4,905.4,694.1,904.6,675.7z"/>
				</g>
				<g>
					<path class="st0" d="M879.4,521.8c0,0.1,0.1,0.2,0.1,0.3c1.3,7.2,8.1,10.9,15.7,13c6.2,1.7,7.6,2.4,12.5-1.1
						c10.3-7.4,19.4-17.2,16.4-30.8c-0.1-0.6,0-1.1,0.2-1.5c-2.9-5.2-8.3-7.7-14.3-13.1c-20.1-18.2-43.9,7.1-34.9,17.5
						C876.7,507.6,879.4,515,879.4,521.8z"/>
				</g>
				<path class="st49" d="M947.8,608.7c0-41.3-17.1-67-49.8-67s-49.9,34.5-49.9,75.8l-5,120.3c0,0,76.3,15.1,105.3,1L947.8,608.7z"
					/>
				<path class="st50" d="M947.8,608.7c0-11.5-1.3-21.9-4-30.8c-2.9,44.9-6.8,164.6-73.7,164.1c24.9,3.1,60.4,5.5,78.2-3.2
					L947.8,608.7z"/>
				<path class="st44" d="M914.8,516.9c-1.2-8.1-8.5-16.3-17.3-12c-5.7,2.7-11.5,3-16.2,0.5c-0.1,1.6-0.3,3.8-0.5,6.2
					c-1-1.8-2.6-2.1-3.1,0.2c-0.5,2.4,0.1,6.9,2.7,7.7c0,0.4,0,0.8,0,1.2c0.1,6.1,2.6,15.7,12.5,18c0.5,2.1,0.3,2.8-0.3,5.7
					c0.5,1.9,8.2,3.1,10.7,0.9c-0.2-2.6-0.3-3.9-0.2-6.3c5.8-0.9,10.7-6.7,12.9-14.1C924.9,520,918.6,511.1,914.8,516.9z"/>
				<path class="st51" d="M914.8,516.9c-0.5-3.2-1.9-6.4-4-8.9c0.2,14.1-5.8,27.2-19.4,30.3c0.5,0.2,1,0.3,1.5,0.4
					c0.5,2.1,0.3,2.8-0.3,5.7c0.5,1.9,8.2,3.1,10.7,0.9c-0.2-2.6-0.3-3.9-0.2-6.3c5.8-0.9,10.7-6.7,12.9-14.1
					C924.9,520,918.6,511.1,914.8,516.9z"/>
				<path class="st49" d="M877.1,547.4c-38.4,18.5-76.3,78.3-72.1,91.5c4.2,13.2,14.8,28.6,21.9,38.9l13.9-2.5
					c0,0-16.5-24.7-15.9-39.8c0.4-9.3,36.9-40,36.9-40L877.1,547.4z"/>
				<path class="st49" d="M924.3,549.5c6,4.3,56.1,34.3,83.7,7.8c19.9-19.2,21.9-22.9,21.9-22.9l6.8,12.1c0,0-31.1,55-68.8,48.6
					c-37.7-6.4-38.6-8.3-38.6-8.3L924.3,549.5z"/>
			</g>
			<g>
				<path class="st39" d="M153.8,784.8c-14.3,4.1-26.5,13.5-34.3,25.9h101.8c-7.8-12.4-19.9-21.7-34.3-25.9V535.3h-33.3v4.1h-35.6
					v30h35.6v7.1h-35.6v30h35.6V784.8z"/>
				<g>
					
						<rect x="129" y="539.4" transform="matrix(-1 -1.224647e-16 1.224647e-16 -1 300.6562 1108.7893)" class="st17" width="42.7" height="30"/>
					
						<rect x="129" y="576.6" transform="matrix(-1 -1.224647e-16 1.224647e-16 -1 300.6562 1183.1372)" class="st17" width="42.7" height="30"/>
					
						<rect x="160.8" y="539.4" transform="matrix(-1 -1.224647e-16 1.224647e-16 -1 332.4382 1108.7891)" class="st53" width="10.9" height="30"/>
					
						<rect x="160.8" y="576.6" transform="matrix(-1 -1.224647e-16 1.224647e-16 -1 332.4382 1183.1372)" class="st53" width="10.9" height="30"/>
					
						<rect x="164.6" y="535.3" transform="matrix(-1 -1.224647e-16 1.224647e-16 -1 362.4252 1331.5968)" class="st17" width="33.3" height="261"/>
					<path class="st53" d="M180.7,805.3h1c1.1,0,2-0.9,2-2V546.3c0-1.1-0.9-2-2-2h-1c-1.1,0-2,0.9-2,2v256.9
						C178.7,804.4,179.6,805.3,180.7,805.3z"/>
					<g>
						<path class="st17" d="M121.1,842.5c0-33.1,27-60.1,60.1-60.1c33.1,0,60.1,27,60.1,60.1c0,33.1-27,60.1-60.1,60.1
							C148.1,902.6,121.1,875.6,121.1,842.5z M152.1,842.5c0,16,13.1,29.1,29.1,29.1c16,0,29.1-13.1,29.1-29.1
							c0-16-13.1-29.1-29.1-29.1C165.2,813.4,152.1,826.4,152.1,842.5z"/>
					</g>
					<path class="st53" d="M149.3,842.5c0,17.6,14.3,31.9,31.9,31.9s31.9-14.3,31.9-31.9c0-17.6-14.3-31.9-31.9-31.9
						S149.3,824.9,149.3,842.5z M152.1,842.5c0-16,13.1-29.1,29.1-29.1c16,0,29.1,13.1,29.1,29.1c0,16-13.1,29.1-29.1,29.1
						C165.2,871.6,152.1,858.5,152.1,842.5z"/>
				</g>
				<g>
					<path class="st39" d="M391.7,591.3c-10.5,9.3-48.5,49.1-55.5,27.5c-5.5-17.1-17.1-40.7-23.8-48.6c-4.5-5.1-10.2-8.5-16.4-10.1
						v-2.7c6.6,0,16.9-1.3,16.9-25.1c0-7.2-0.7-11.9-1.9-15c2-2,1.8-5.9,0.4-8.2c-1.8-3-6.7-5.7-9.9-7.1c-7.6-3.4-17.6-4.9-24.9-0.2
						c-2.6-3.5-6.7-6.7-9.2-8c-3.1-1.7-6.5-3.2-10-3.2c-7-0.1-13.1,5.2-16.4,11.5c-2.6,5-3.9,10.9-2.8,16.5
						c1.1,5.6,4.7,10.8,9.8,13.2c1.5,0.7,3.2,1.2,4.9,1c2.2-0.3,4.1-1.8,5.6-3.4c3.8-3.9,4.4-8.6,7.1-12.8c0.4-0.6,1-1.1,1.5-1.4
						c-0.8,2.7-1.3,5.6-1.3,8.5c-0.1,8.2,2.8,16.2,6.6,23.4c1,1.9,2.1,3.9,3.9,5.1c1.7,1.2,6.2,2.4,8,1.2l-0.8,5.8
						c-5.2,0.5-10.4,2-15.4,4.5c0,0,0,0,0,0c-28.6,6.6-50.1,76.7-88.3,72v0.1c-4.6-1.3-9.7-1.7-10,2.9c-0.5,8.9,5,10,10,9.3v0.2
						c16,0,37.2-4.6,55.8-25.2c-10.3,57.9-6.2,133.7-6.2,133.7c2.8,0.4,5.5,0.8,8.2,1.1l4.7,53.1h24.3l0.1-50.6
						c4.9,0.2,9.8,0.3,14.6,0.3l0.6,50.4h28.2l5.4-52.8c5-0.7,9.9-1.5,14.8-2.6c-1-31.9-1.1-73.5-3.3-109.5c1.5,1.4,3.2,2.5,5.2,3
						c3.3,0.8,17.6,17.3,27.9,4.8c10.4-12.7,32.2-38.9,40.2-52.4C398.7,596.7,394.1,595.4,391.7,591.3z"/>
					<polygon class="st54" points="299.2,551.1 297.5,563.4 310.5,564.8 310.5,551.8 					"/>
					<path class="st14" d="M199.6,641c0,0-17.1-8.4-17.6,0c-0.9,16,17.6,7,17.6,7V641z"/>
					<path class="st44" d="M202,638.6c0,0-17.1-8.4-17.6,0c-0.9,16,17.6,7,17.6,7V638.6z"/>
					<g>
						<path class="st44" d="M287.5,532.2c0,11.2,11.5,25.1,22.7,25.1c6.6,0,17.2-1,17.2-25.1c0-25.3-8.5-20.2-19.7-20.2
							C296.5,512,287.5,521.1,287.5,532.2z"/>
					</g>
					<path class="st51" d="M304.5,541.6c0-9.4,1.2-20.6,4.7-29.6c-0.5,0-1,0-1.5,0c-11.2,0-20.2,9.1-20.2,20.2
						c0,11,11.1,24.5,22.1,25C306,553.2,304.5,548,304.5,541.6z"/>
					<path class="st0" d="M323.1,518.7c-1.8,0.3-3.7-0.6-5.4,0.1c-2.7,1.1-2.9,5.2-5.3,6.7c-3.1,1.9-7.8-1.4-10.5,1
						c-1.6,1.4-1.4,3.9-1.2,6.1c0.4,5.6-0.2,11.4-1.8,16.8c-0.4,1.3,1.3,3.5,0.3,4.4c-1.6,1.4-6.4,0.2-8.2-1.1
						c-1.8-1.3-2.9-3.2-3.9-5.2c-3.8-7.3-6.7-15.4-6.6-23.7s3.4-16.8,10.1-21.6c7.4-5.3,17.7-3.7,25.5-0.2c3.2,1.4,8.1,4.1,9.9,7.2
						C327.7,512.3,327.4,518.1,323.1,518.7z"/>
					<path class="st53" d="M321,504.8c-2.6,2.4-5.3,6.6-7.3,8c-2.7,1.9-6,2.3-9.2,3.3c-14.4,4.4-15.4,26.5-9.1,38.3
						c1.5,0.2,2.9,0.1,3.7-0.5c1-0.9-0.7-3.1-0.3-4.4c1.7-5.4,2.3-11.1,1.8-16.8c-0.2-2.1-0.4-4.6,1.2-6.1c2.7-2.4,7.4,0.8,10.5-1
						c2.5-1.5,2.7-5.6,5.3-6.7c1.7-0.7,3.6,0.2,5.4-0.1c4.3-0.6,4.6-6.4,2.8-9.4C324.9,507.6,323,506.1,321,504.8z"/>
					<path class="st0" d="M281.9,493.8c-3.1-1.7-6.5-3.2-10-3.3c-7-0.1-13.1,5.3-16.4,11.6c-2.6,5.1-3.9,11.1-2.8,16.7
						c1.1,5.6,4.7,10.9,9.8,13.3c1.5,0.7,3.2,1.2,4.9,1c2.2-0.3,4.1-1.8,5.6-3.4c3.8-3.9,4.4-8.6,7.1-12.9c2.2-3.4,7.1-2,10.4-4.3
						C298.8,506.8,287,496.6,281.9,493.8z"/>
					<path class="st53" d="M285.7,509c-1.5-0.8-2.7-2.2-4.2-2.9c-2.1-2.3-13.1-3.5-15.3,11.7c-0.7,4.5-4.2,9.3-7.8,11.5
						c1.2,1.2,2.6,2.2,4.2,2.9c1.5,0.7,3.2,1.2,4.9,1c2.2-0.3,4.1-1.8,5.6-3.4c3.8-3.9,4.4-8.6,7.1-12.9c2.2-3.4,7.1-2,10.4-4.3
						c1.2-0.8,1.9-1.7,2.4-2.7C290.7,510.6,288.4,510.4,285.7,509z"/>
					<path class="st22" d="M278.5,893.4c9.6,2.3,17.6,5.2,22,9.1h-37l0.7-8.6L278.5,893.4z"/>
					<path class="st22" d="M311.6,893.4c9.6,2.3,17.6,5.2,22,9.1h-37l0.7-8.6L311.6,893.4z"/>
					<path class="st14" d="M407.6,583c-0.2-0.1-0.6-0.3-0.8-0.3c-1.4-0.4-2.7,0.6-3.8,1.4c-2,1.5-5.8,4.6-7.5,6.5c0,0,0,0,0,0
						c-0.5,0.5-1,1-1.4,1.6c-1.3,1.9-1.7,4.5-0.4,6.4c0.9,1.5,2.7,2.6,4.4,2.6c2.6,0,6-1.4,7.8-3.4c1.7-2,1.6-4.3,0.3-6.6
						c-0.8-1.6-2.1-2.4-3.4-2.8c1.6-1,3.1-2,4.4-3.3c0.3-0.3,0.6-0.6,0.8-1C408.1,583.7,408,583.2,407.6,583z"/>
					<g>
						<g>
							<path class="st44" d="M406.7,588.4c1.2,2.3,1.4,4.6-0.3,6.6c-1.7,2-5.2,3.4-7.8,3.4c-1.8,0-3.5-1.1-4.4-2.6
								c-1.2-1.9-0.8-4.5,0.4-6.4C397.3,585.4,404,583.3,406.7,588.4z"/>
						</g>
						<g>
							<path class="st44" d="M402.4,586.2c1.9-1.1,3.7-2.4,5.4-3.8c0.3-0.3,0.6-0.6,0.8-1c0.1-0.4,0-0.9-0.3-1.1
								c-0.2-0.1-0.6-0.3-0.8-0.3c-1.4-0.4-2.7,0.6-3.8,1.4c-2,1.5-5.8,4.6-7.5,6.5C397.4,588.1,401.1,586.8,402.4,586.2z"/>
						</g>
					</g>
					<g>
						<path class="st49" d="M355.2,620.2c13.7-9.1,24.6-18.9,37-30c0.8-0.7,2-0.6,2.7,0.2c2.3,2.7,6,6.7,5.6,8.5
							c-0.2,0.9-0.9,1.7-1.5,2.4c-11.6,12.9-23.2,25.7-34.8,38.6c-2.3,2.5-4.6,5.1-7.5,6.9c-2.9,1.8-6.4,2.9-9.7,2.1
							c-5.6-1.4-8.7-7.1-11.8-12c-15-24.1-12.5-32.8-10.7-40.2c1.3-5.2,2.9-10.3,3.8-15.5c0.3-1.7-3.7-10.9-1.4-11
							c6.8,7.9,16.9,32,23.8,48.6C351.5,620.5,353.6,621.2,355.2,620.2z"/>
					</g>
					<g>
						<g>
							<path class="st18" d="M246.9,697.2l17.5,197.9c0,0,6.1,1.4,8.2,1.4c1,0,3-0.3,4.8-0.6c2-0.4,3.8-0.8,3.8-0.8l0.2-149.6h14.4
								l1.7,149.6c0,0,4.4,1.2,8.9,1.2c4.4,0,9.7-1.2,9.7-1.2l20.9-203L246.9,697.2z"/>
						</g>
						<g>
							<path class="st56" d="M291.8,712c0.1,6.7-0.4,12.8,2,18.8c1.8,4.8,6,7.9,11.9,7.7c8.6-0.2,14.6-4.9,14.7-13.6
								c0-1.1,0.6-13,1.1-13C321.5,712,291.8,712,291.8,712z"/>
						</g>
						<g>
							<path class="st56" d="M250.8,712c0.1,6.7-0.2,12.8,1.5,18.9c1.3,4.8,4.2,7.9,8.3,7.8c6-0.1,9.4-6.8,10.2-13.5
								c0.1-1.1,0.3-12.9,0.7-13C271.5,712.1,250.8,712,250.8,712z"/>
						</g>
						<g>
							<path class="st57" d="M281.3,745.5C281.3,745.5,281.3,745.4,281.3,745.5c0.3,0,0.4-0.2,0.4-0.4c-2.3-13.4-0.7-39.2-0.7-39.4
								c0-0.1,0-0.2-0.1-0.3c-0.1-0.1-0.2-0.1-0.3-0.1c-0.2,0-23.3,1.1-33-1.4c-0.2-0.1-0.4,0.1-0.4,0.3c0,0.2,0.1,0.4,0.3,0.4
								c9.1,2.3,29.6,1.5,32.8,1.4c-0.2,3.3-1.4,26.6,0.7,39.2C281,745.3,281.1,745.5,281.3,745.5z"/>
						</g>
						<g>
							<path class="st57" d="M284.2,745.5C284.2,745.5,284.2,745.5,284.2,745.5c0.2,0,0.4-0.2,0.4-0.4c-1.4-15.7-1.5-28.1-0.5-39
								c13.8-0.1,30.5-1.9,49.7-5.4c0.2,0,0.3-0.2,0.3-0.4c0-0.2-0.2-0.3-0.4-0.3c-19.3,3.5-36.1,5.3-49.9,5.4
								c-0.2,0-0.3,0.1-0.4,0.3c-1.1,11-0.9,23.5,0.5,39.4C283.9,745.3,284,745.5,284.2,745.5z"/>
						</g>
						<g class="st58">
							<path class="st59" d="M277.4,895.8c2-0.4,3.8-0.8,3.8-0.8l0.2-149.6h1.2c-0.3-0.5-0.7-0.6-1.2-0.4c-2.8,1.3-4.2,3.2-5.9,5.5
								c-1.4,1.9-2.2,4.2-2.3,6.5C272,803.3,274.7,838.4,277.4,895.8z"/>
						</g>
						<g>
							<path class="st57" d="M314.5,890.9c-0.2,0-0.3-0.2-0.3-0.4l0.3-3c0-0.2,0.2-0.4,0.4-0.3c0.2,0,0.3,0.2,0.3,0.4l-0.3,3
								C314.9,890.8,314.7,890.9,314.5,890.9C314.5,890.9,314.5,890.9,314.5,890.9z M315.4,882.2c-0.2,0-0.3-0.2-0.3-0.4l0.6-5.7
								c0-0.2,0.2-0.4,0.4-0.3c0.2,0,0.3,0.2,0.3,0.4l-0.6,5.7C315.8,882.1,315.6,882.2,315.4,882.2
								C315.4,882.2,315.4,882.2,315.4,882.2z M316.6,870.7c-0.2,0-0.3-0.2-0.3-0.4l0.6-5.7c0-0.2,0.2-0.4,0.4-0.3
								c0.2,0,0.3,0.2,0.3,0.4l-0.6,5.7C317,870.6,316.8,870.7,316.6,870.7C316.6,870.7,316.6,870.7,316.6,870.7z M317.7,859.2
								c-0.2,0-0.3-0.2-0.3-0.4l0.6-5.8c0-0.2,0.2-0.4,0.4-0.3c0.2,0,0.3,0.2,0.3,0.4l-0.6,5.8C318.1,859.1,318,859.2,317.7,859.2
								C317.8,859.2,317.8,859.2,317.7,859.2z M318.9,847.7c-0.2,0-0.3-0.2-0.3-0.4l0.6-5.8c0-0.2,0.2-0.4,0.4-0.3
								c0.2,0,0.3,0.2,0.3,0.4l-0.6,5.8C319.3,847.6,319.1,847.7,318.9,847.7C318.9,847.7,318.9,847.7,318.9,847.7z M320.1,836.2
								c-0.2,0-0.3-0.2-0.3-0.4l0.6-5.7c0-0.2,0.2-0.4,0.4-0.3c0.2,0,0.3,0.2,0.3,0.4l-0.6,5.7C320.5,836.1,320.3,836.2,320.1,836.2
								C320.1,836.2,320.1,836.2,320.1,836.2z M321.3,824.7c-0.2,0-0.3-0.2-0.3-0.4l0.6-5.7c0-0.2,0.2-0.4,0.4-0.3
								c0.2,0,0.3,0.2,0.3,0.4l-0.6,5.7C321.6,824.6,321.5,824.7,321.3,824.7C321.3,824.7,321.3,824.7,321.3,824.7z M322.4,813.2
								c-0.2,0-0.3-0.2-0.3-0.4l0.6-5.7c0-0.2,0.2-0.4,0.4-0.3c0.2,0,0.3,0.2,0.3,0.4l-0.6,5.7C322.8,813.1,322.7,813.2,322.4,813.2
								C322.5,813.2,322.5,813.2,322.4,813.2z M323.6,801.7c-0.2,0-0.3-0.2-0.3-0.4l0.6-5.8c0-0.2,0.2-0.4,0.4-0.3
								c0.2,0,0.3,0.2,0.3,0.4l-0.6,5.8C324,801.6,323.8,801.7,323.6,801.7C323.6,801.7,323.6,801.7,323.6,801.7z M324.8,790.2
								c-0.2,0-0.3-0.2-0.3-0.4l0.6-5.8c0-0.2,0.2-0.3,0.4-0.3c0,0,0,0,0,0c0.2,0,0.3,0.2,0.3,0.4l-0.6,5.8
								C325.2,790.1,325,790.2,324.8,790.2C324.8,790.2,324.8,790.2,324.8,790.2z M326,778.7c-0.2,0-0.3-0.2-0.3-0.4l0.6-5.7
								c0-0.2,0.2-0.4,0.4-0.3c0.2,0,0.3,0.2,0.3,0.4l-0.6,5.7C326.3,778.6,326.2,778.7,326,778.7C326,778.7,326,778.7,326,778.7z
								 M327.1,767.2c-0.2,0-0.3-0.2-0.3-0.4l0.6-5.7c0-0.2,0.2-0.4,0.4-0.3c0.2,0,0.3,0.2,0.3,0.4l-0.6,5.7
								C327.5,767.1,327.4,767.2,327.1,767.2C327.2,767.2,327.2,767.2,327.1,767.2z M328.3,755.7c-0.2,0-0.3-0.2-0.3-0.4l0.6-5.8
								c0-0.2,0.2-0.4,0.4-0.3c0.2,0,0.3,0.2,0.3,0.4l-0.6,5.8C328.7,755.6,328.5,755.7,328.3,755.7
								C328.3,755.7,328.3,755.7,328.3,755.7z M329.5,744.2c-0.2,0-0.3-0.2-0.3-0.4l0.6-5.8c0-0.2,0.2-0.4,0.4-0.3
								c0.2,0,0.3,0.2,0.3,0.4l-0.6,5.8C329.9,744.1,329.7,744.2,329.5,744.2C329.5,744.2,329.5,744.2,329.5,744.2z M330.7,732.7
								c-0.2,0-0.3-0.2-0.3-0.4l0.6-5.7c0-0.2,0.2-0.4,0.4-0.3c0.2,0,0.3,0.2,0.3,0.4l-0.6,5.7C331,732.6,330.9,732.7,330.7,732.7
								C330.7,732.7,330.7,732.7,330.7,732.7z M331.8,721.2c-0.2,0-0.3-0.2-0.3-0.4l0.6-5.7c0-0.2,0.2-0.4,0.4-0.3
								c0.2,0,0.3,0.2,0.3,0.4l-0.6,5.7C332.2,721.1,332.1,721.2,331.8,721.2C331.9,721.2,331.9,721.2,331.8,721.2z M333,709.7
								c-0.2,0-0.3-0.2-0.3-0.4l0.6-5.7c0-0.2,0.2-0.4,0.4-0.3c0.2,0,0.3,0.2,0.3,0.4l-0.6,5.7C333.4,709.6,333.2,709.7,333,709.7
								C333,709.7,333,709.7,333,709.7z"/>
						</g>
					</g>
					<path class="st40" d="M282.7,563.6c-28.6,6.6-50.1,76.7-88.3,72v12.5c17.9,0,42.3-5.7,62.3-33.1
						C285.6,575.3,282.7,563.6,282.7,563.6z"/>
					<path class="st66" d="M282.7,563.6c-28.6,6.6-50.1,76.7-88.3,72v12.5c17.9,0,42.3-5.7,62.3-33.1
						C285.6,575.3,282.7,563.6,282.7,563.6z"/>
					<path class="st49" d="M326.9,570.1c17.5,20.1,16.1,122,18.1,185.3c-31.6,6.6-65.5,6.4-101,1.2c0,0-5.5-101.9,12.3-159.7
						C268.3,557.7,308.4,548.9,326.9,570.1z"/>
					<path class="st50" d="M268.2,704.5c-6.6-21.6-9.5-43.7-9.4-66.2c0.1-18.9,0.5-39.5,5.5-58.1c-3.3,4.8-6,10.4-8,16.8
						C238.5,654.7,244,756.6,244,756.6c17.9,2.6,35.5,3.9,52.5,3.8C283.6,744.1,274.4,724.9,268.2,704.5z"/>
				</g>
			</g>
		</g>
	</g>
	<text transform="matrix(1 0 0 1 652.5293 652.7354)" class="st1 st67 st68">Continue</text>
</g>
</svg>
