<svg id="Layer_1" data-name="Layer 1" xmlns="http://www.w3.org/2000/svg" viewBox="0 0 22 22"><defs><style>.cls-1{fill:#808998;}.cls-2{fill:none;stroke:#00a1e4;stroke-miterlimit:10;stroke-width:0.8px;}</style></defs><title>Selector-hover</title><path class="cls-1" d="M3.55,7.88a.68.68,0,0,0,.68-.68V5.82a2,2,0,0,1,.27-1,.68.68,0,1,0-1.18-.69,3.45,3.45,0,0,0-.45,1.7V7.2A.67.67,0,0,0,3.55,7.88Z"/><path class="cls-1" d="M4.24,12.17V10a.68.68,0,0,0-1.36,0v2.21Z"/><path class="cls-1" d="M6.25,3.8H9A.68.68,0,1,0,9,2.44H6.23a.67.67,0,0,0-.67.68A.68.68,0,0,0,6.25,3.8Z"/><path class="cls-1" d="M11.83,3.8h2.81a.68.68,0,0,0,0-1.36H11.83a.68.68,0,0,0,0,1.36Z"/><path class="cls-1" d="M20.19,6.45a.69.69,0,0,0-.69.68V9.94a.69.69,0,0,0,1.37,0V7.13A.69.69,0,0,0,20.19,6.45Z"/><path class="cls-1" d="M11.88,16.15H9.08a.68.68,0,1,0,0,1.36h2.8a.68.68,0,1,0,0-1.36Z"/><path class="cls-1" d="M20.19,12.06a.68.68,0,0,0-.69.68v1.4a2.07,2.07,0,0,1-.26,1,.68.68,0,0,0,.25.93.68.68,0,0,0,.93-.25,3.41,3.41,0,0,0,.45-1.68v-1.4A.68.68,0,0,0,20.19,12.06Z"/><path class="cls-1" d="M19.79,5.09a.74.74,0,0,0,.35-.1.68.68,0,0,0,.23-.94,3.36,3.36,0,0,0-2.88-1.61h0a.66.66,0,0,0-.66.68.7.7,0,0,0,.71.68,2,2,0,0,1,1.72,1A.68.68,0,0,0,19.79,5.09Z"/><path class="cls-1" d="M17.49,16.15h-2.8a.68.68,0,1,0,0,1.36h2.83v0a.67.67,0,0,0,.67-.68A.7.7,0,0,0,17.49,16.15Z"/><path class="cls-2" d="M1.22,18.09,2.6,19.47a.31.31,0,0,0,.44,0l1.32-1.31,1.17,1.16a.28.28,0,0,0,.29.08A.3.3,0,0,0,6,19.2l2-6.2a.31.31,0,0,0-.39-.39l-6.19,2a.32.32,0,0,0-.21.23.34.34,0,0,0,.08.29l1.17,1.16L1.22,17.65A.31.31,0,0,0,1.22,18.09Zm2-1.54a.31.31,0,0,0,0-.44l-1-1L7.3,13.4,5.61,18.52l-1-1a.32.32,0,0,0-.45,0L2.82,18.81l-.93-.94Z"/></svg>