<svg id="Layer_1" data-name="Layer 1" xmlns="http://www.w3.org/2000/svg" viewBox="0 0 22 22"><defs><style>.cls-1{opacity:0.5;}.cls-2,.cls-8{fill:#fd6363;stroke:#fd6363;}.cls-2,.cls-3,.cls-4,.cls-6,.cls-7,.cls-8{stroke-linecap:round;stroke-linejoin:round;}.cls-2{stroke-width:0.5px;}.cls-3,.cls-4,.cls-6,.cls-7{fill:none;stroke:#808998;stroke-width:1.5px;}.cls-4{stroke-dasharray:1.72 1.72;}.cls-5{fill:#808998;}.cls-6{stroke-dasharray:1.69 1.69;}.cls-7{stroke-dasharray:1.63 1.63;}.cls-8{stroke-width:0.1px;}</style></defs><title>SetText-hover</title><g class="cls-1"><path class="cls-2" d="M20,4.85a2.57,2.57,0,0,1-2.55,2.54,2.52,2.52,0,0,1-1.71-.68L16,6.49a.21.21,0,0,0,0-.2.24.24,0,0,0-.15-.13s-1.33-.42-1.25-.41a.18.18,0,0,0-.17.06.18.18,0,0,0-.06.17s.29,1.46.28,1.38a.18.18,0,0,0,.13.15.22.22,0,0,0,.2,0l.18-.19a3.33,3.33,0,0,0,5.6-2.42Z"/><path class="cls-2" d="M20.22,2.2a.21.21,0,0,0-.14-.15.2.2,0,0,0-.19.05l-.19.19a3.33,3.33,0,0,0-5.59,2.4h.78a2.56,2.56,0,0,1,2.55-2.51,2.61,2.61,0,0,1,1.71.67l-.23.23a.21.21,0,0,0-.05.2.2.2,0,0,0,.15.13s1.33.42,1.25.41a.2.2,0,0,0,.23-.23S20.2,2.12,20.22,2.2Z"/></g><line class="cls-3" x1="1.18" y1="4.98" x2="1.18" y2="5.98"/><line class="cls-4" x1="1.18" y1="7.7" x2="1.18" y2="17.15"/><line class="cls-3" x1="1.18" y1="18.01" x2="1.18" y2="19.01"/><line class="cls-5" x1="3.02" y1="20.6" x2="17.06" y2="20.6"/><line class="cls-3" x1="3.02" y1="20.6" x2="4.02" y2="20.6"/><line class="cls-4" x1="5.74" y1="20.6" x2="15.2" y2="20.6"/><line class="cls-3" x1="16.06" y1="20.6" x2="17.06" y2="20.6"/><line class="cls-5" x1="2.9" y1="3.26" x2="9.95" y2="3.24"/><line class="cls-3" x1="2.9" y1="3.26" x2="3.9" y2="3.26"/><line class="cls-6" x1="5.58" y1="3.25" x2="8.11" y2="3.25"/><line class="cls-3" x1="8.95" y1="3.25" x2="9.95" y2="3.24"/><line class="cls-5" x1="18.87" y1="12.19" x2="18.84" y2="19.07"/><line class="cls-3" x1="18.87" y1="12.19" x2="18.87" y2="13.19"/><line class="cls-7" x1="18.86" y1="14.81" x2="18.85" y2="17.26"/><line class="cls-3" x1="18.85" y1="18.07" x2="18.84" y2="19.07"/><line class="cls-3" x1="10.11" y1="9.73" x2="10.11" y2="16.33"/><line class="cls-3" x1="7.36" y1="9.18" x2="12.86" y2="9.18"/><path class="cls-8" d="M20,4.85a2.57,2.57,0,0,1-2.55,2.54,2.52,2.52,0,0,1-1.71-.68L16,6.49a.21.21,0,0,0,0-.2.24.24,0,0,0-.15-.13s-1.33-.42-1.25-.41a.18.18,0,0,0-.17.06.18.18,0,0,0-.06.17s.29,1.46.28,1.38a.18.18,0,0,0,.13.15.22.22,0,0,0,.2,0l.18-.19a3.33,3.33,0,0,0,5.6-2.42Z"/><path class="cls-8" d="M20.22,2.2a.21.21,0,0,0-.14-.15.2.2,0,0,0-.19.05l-.19.19a3.33,3.33,0,0,0-5.59,2.4h.78a2.56,2.56,0,0,1,2.55-2.51,2.61,2.61,0,0,1,1.71.67l-.23.23a.21.21,0,0,0-.05.2.2.2,0,0,0,.15.13s1.33.42,1.25.41a.2.2,0,0,0,.23-.23S20.2,2.12,20.22,2.2Z"/></svg>