<svg id="Layer_1" data-name="Layer 1" xmlns="http://www.w3.org/2000/svg" viewBox="0 0 22 22"><defs><style>.cls-1{fill:#808998;}</style></defs><title>Switch</title><path class="cls-1" d="M5.29,4.39,1.71,7.89a.46.46,0,0,0,0,.68L5.23,12a.45.45,0,0,0,.48.08A.46.46,0,0,0,6,11.69L6,9.57h7.64a.44.44,0,0,0,.44-.44V7.34a.45.45,0,0,0-.44-.45H6V4.73a.44.44,0,0,0-.26-.41A.46.46,0,0,0,5.29,4.39Z"/><path class="cls-1" d="M16.71,10l3.58,3.5a.41.41,0,0,1,.15.33.45.45,0,0,1-.15.34l-3.52,3.46a.46.46,0,0,1-.48.07.44.44,0,0,1-.26-.41L16,15.16H8.33a.45.45,0,0,1-.44-.45V12.92a.45.45,0,0,1,.44-.45H16V10.31a.46.46,0,0,1,.26-.41A.45.45,0,0,1,16.71,10Z"/></svg>