<svg id="Layer_1" data-name="Layer 1" xmlns="http://www.w3.org/2000/svg" viewBox="0 0 22 22"><defs><style>.cls-1{fill:#808998;}.cls-2{fill:#00a1e4;}</style></defs><title>getimage-hover</title><path class="cls-1" d="M17.86,19.72H4.12A3.12,3.12,0,0,1,1,16.6V5.67A3.13,3.13,0,0,1,4.12,2.54h6.66a.78.78,0,0,1,0,1.56H4.12A1.57,1.57,0,0,0,2.56,5.67V16.6a1.56,1.56,0,0,0,1.56,1.56H17.86a1.56,1.56,0,0,0,1.56-1.56V10.07a.79.79,0,0,1,1.57,0V16.6A3.13,3.13,0,0,1,17.86,19.72ZM4.27,15.27a.79.79,0,0,0,1.1-.15l1.1-1.46,2.06,2.6a.79.79,0,0,0,.62.3h0a.77.77,0,0,0,.61-.3L14.57,11l1.22,1.48a.78.78,0,1,0,1.21-1L15.16,9.28A.75.75,0,0,0,14.55,9a.79.79,0,0,0-.61.29L9.15,14.52,7.07,11.9a.77.77,0,0,0-1.23,0L4.12,14.17A.79.79,0,0,0,4.27,15.27Zm.09-6.5a2.1,2.1,0,1,1,2.1,2.11A2.1,2.1,0,0,1,4.36,8.77Zm1.32,0A.78.78,0,1,0,6.46,8,.78.78,0,0,0,5.68,8.77Z"/><path class="cls-2" d="M16.05,2.34l-2,2A.26.26,0,0,0,14,4.5a.27.27,0,0,0,.08.19l2,1.94a.27.27,0,0,0,.27,0,.25.25,0,0,0,.15-.23l0-1.19h4.29A.25.25,0,0,0,21,5V4a.25.25,0,0,0-.25-.25H16.46V2.53a.25.25,0,0,0-.41-.19Z"/></svg>