<svg id="Layer_1" data-name="Layer 1" xmlns="http://www.w3.org/2000/svg" viewBox="0 0 22 22"><defs><style>.cls-1{fill:none;stroke:#808998;stroke-linecap:round;stroke-linejoin:round;stroke-width:1.5px;}.cls-2{fill:#808998;}</style></defs><title>Create_1</title><line class="cls-1" x1="17.13" y1="7.84" x2="17.16" y2="1.86"/><line class="cls-1" x1="20.11" y1="4.86" x2="14.13" y2="4.88"/><path class="cls-2" d="M12.77,12.31h0v1.18h1.15a1.19,1.19,0,1,0-1.15-1.21h0Z"/><rect class="cls-2" x="8.71" y="6.56" width="2.23" height="6.95" rx="1.11"/><path class="cls-2" d="M6.64,9.4h1.2V8.27h0A1.19,1.19,0,1,0,6.63,9.4h0Z"/><rect class="cls-2" x="3.25" y="8.78" width="2.23" height="6.95" rx="1.11" transform="translate(-7.89 16.62) rotate(-90)"/><path class="cls-2" d="M3.45,15.4v0h0V14.2H2.3a1.19,1.19,0,0,0,0,2.37,1.16,1.16,0,0,0,1.14-1.16h0Z"/><rect class="cls-2" x="5.61" y="14.19" width="2.23" height="6.95" rx="1.11" transform="translate(13.44 35.34) rotate(-180)"/><path class="cls-2" d="M10,18.3H8.78v1.14h0A1.19,1.19,0,1,0,10,18.3h0Z"/><rect class="cls-2" x="11.12" y="11.84" width="2.23" height="6.95" rx="1.11" transform="translate(27.54 3.08) rotate(90)"/></svg>