<svg id="Layer_1" data-name="Layer 1" xmlns="http://www.w3.org/2000/svg" viewBox="0 0 22 22"><defs><style>.cls-1{fill:#808998;}.cls-2,.cls-3{fill:none;stroke:#808998;stroke-linecap:round;stroke-linejoin:round;}.cls-2{stroke-width:1.4px;}.cls-3{stroke-width:1.3px;}</style></defs><title>Create-gorup</title><path class="cls-1" d="M11.62,6.66a.47.47,0,0,1-.47-.48V5.73a.42.42,0,0,0-.43-.42H9.15a.42.42,0,0,0-.42.42v.45a.48.48,0,1,1-1,0V5.73A1.37,1.37,0,0,1,9.15,4.36h1.57A1.38,1.38,0,0,1,12.1,5.73v.45A.47.47,0,0,1,11.62,6.66Z"/><path class="cls-1" d="M9.94,4.41A1.38,1.38,0,1,1,11.31,3,1.37,1.37,0,0,1,9.94,4.41Zm0-1.79a.42.42,0,1,0,.42.42A.42.42,0,0,0,9.94,2.62Z"/><line class="cls-2" x1="17.22" y1="1.71" x2="17.19" y2="8.48"/><line class="cls-2" x1="13.82" y1="5.08" x2="20.65" y2="5.06"/><path class="cls-1" d="M14,14.6h0v.89h.88a.88.88,0,0,0,.85-.9.87.87,0,1,0-1.73,0h0Z"/><rect class="cls-1" x="10.87" y="10.22" width="1.7" height="5.3" rx="0.85"/><path class="cls-1" d="M9.29,12.38h.91v-.86h0a.87.87,0,0,0-.9-.85.87.87,0,1,0,0,1.73h0Z"/><rect class="cls-1" x="6.71" y="11.91" width="1.7" height="5.3" rx="0.85" transform="translate(-7 22.11) rotate(-90)"/><path class="cls-1" d="M6.86,17h0V16H6a.91.91,0,1,0,.88.92h0Z"/><rect class="cls-1" x="8.5" y="16.04" width="1.7" height="5.3" rx="0.85" transform="translate(18.7 37.37) rotate(180)"/><path class="cls-1" d="M11.84,19.17h-.92V20h0a.9.9,0,0,0,.91.86.87.87,0,1,0,0-1.74h0Z"/><rect class="cls-1" x="12.7" y="14.24" width="1.7" height="5.3" rx="0.85" transform="translate(30.44 3.34) rotate(90)"/><path class="cls-3" d="M6.93,8.51V7.76A1.49,1.49,0,0,0,5.44,6.28H2.84A1.49,1.49,0,0,0,1.35,7.76v.75"/><circle class="cls-3" cx="4.14" cy="3.31" r="1.49"/></svg>