<svg id="Layer_1" data-name="Layer 1" xmlns="http://www.w3.org/2000/svg" viewBox="0 0 22 22"><defs><style>.cls-1{fill:none;stroke:#808998;stroke-linecap:round;stroke-linejoin:round;stroke-width:1.5px;}.cls-2{fill:#808998;}</style></defs><title>Delete_2</title><line class="cls-1" x1="15.11" y1="2" x2="19.71" y2="6.64"/><line class="cls-1" x1="15.11" y1="6.6" x2="19.72" y2="1.97"/><path class="cls-2" d="M13.16,12.2h0V13.4h1.15a1.18,1.18,0,0,0,1.13-1.19,1.14,1.14,0,1,0-2.28,0h0Z"/><rect class="cls-2" x="9.1" y="6.45" width="2.23" height="6.95" rx="1.11"/><path class="cls-2" d="M7,9.29H8.22V8.16h0A1.19,1.19,0,1,0,7,9.29H7Z"/><rect class="cls-2" x="3.64" y="8.67" width="2.23" height="6.95" rx="1.11" transform="translate(-7.39 16.9) rotate(-90)"/><path class="cls-2" d="M3.84,15.29v0h0V14.09H2.68a1.19,1.19,0,0,0,0,2.37A1.17,1.17,0,0,0,3.84,15.3h0Z"/><rect class="cls-2" x="5.99" y="14.08" width="2.23" height="6.95" rx="1.11" transform="translate(14.22 35.12) rotate(180)"/><path class="cls-2" d="M10.37,18.19H9.17v1.14h0a1.19,1.19,0,1,0,1.21-1.15h0Z"/><rect class="cls-2" x="11.5" y="11.73" width="2.23" height="6.95" rx="1.11" transform="translate(27.82 2.58) rotate(90)"/></svg>