<svg id="Layer_1" data-name="Layer 1" xmlns="http://www.w3.org/2000/svg" viewBox="0 0 22 22"><defs><style>.cls-1{opacity:0.5;}.cls-2,.cls-3{fill:#fd6363;}.cls-2{stroke:#fd6363;stroke-miterlimit:10;stroke-width:0.8px;}.cls-4{fill:#808998;}</style></defs><title>Get-hover</title><g class="cls-1"><path class="cls-2" d="M15.19,1.8l-2,2a.26.26,0,0,0-.09.19.28.28,0,0,0,.09.19l2,1.94a.25.25,0,0,0,.27,0,.25.25,0,0,0,.15-.23l0-1.19h4.3a.25.25,0,0,0,.25-.25v-1a.25.25,0,0,0-.25-.25H15.6V2a.25.25,0,0,0-.41-.19Z"/></g><path class="cls-3" d="M15.19,1.8l-2,2a.26.26,0,0,0-.09.19.28.28,0,0,0,.09.19l2,1.94a.25.25,0,0,0,.27,0,.25.25,0,0,0,.15-.23l0-1.19h4.3a.25.25,0,0,0,.25-.25v-1a.25.25,0,0,0-.25-.25H15.6V2a.25.25,0,0,0-.41-.19Z"/><path class="cls-4" d="M12.73,12.43h0v1.19h1.15a1.19,1.19,0,0,0,0-2.37,1.15,1.15,0,0,0-1.13,1.16h0Z"/><rect class="cls-4" x="8.67" y="6.68" width="2.23" height="6.95" rx="1.11"/><path class="cls-4" d="M6.59,9.53h1.2V8.39h0A1.19,1.19,0,1,0,6.58,9.53h0Z"/><rect class="cls-4" x="3.21" y="8.9" width="2.23" height="6.95" rx="1.11" transform="translate(-8.06 16.7) rotate(-90)"/><path class="cls-4" d="M3.4,15.52h0V14.32H2.25a1.19,1.19,0,0,0,0,2.37A1.16,1.16,0,0,0,3.4,15.53h0Z"/><rect class="cls-4" x="5.56" y="14.32" width="2.23" height="6.95" rx="1.11" transform="translate(13.35 35.58) rotate(180)"/><path class="cls-4" d="M9.93,18.43H8.74v1.13h0A1.15,1.15,0,0,0,9.92,20.7a1.14,1.14,0,1,0,0-2.27h0Z"/><rect class="cls-4" x="11.07" y="11.96" width="2.23" height="6.95" rx="1.11" transform="translate(27.62 3.25) rotate(90)"/></svg>