<svg id="Layer_1" data-name="Layer 1" xmlns="http://www.w3.org/2000/svg" viewBox="0 0 22 22"><defs><style>.cls-1{fill:none;stroke:#808998;stroke-linecap:round;stroke-linejoin:round;stroke-width:1.4px;}.cls-2{fill:#808998;}</style></defs><title>reply</title><polyline class="cls-1" points="15.75 2.01 14.23 3.53 15.75 5.05"/><path class="cls-1" d="M14.23,3.53h3.64a1.21,1.21,0,0,1,1.22,1.21V6.87"/><path class="cls-2" d="M13.79,12.16h0v1.17h1.15a1.19,1.19,0,0,0,0-2.37,1.17,1.17,0,0,0-1.14,1.17h0Z"/><rect class="cls-2" x="9.73" y="6.41" width="2.23" height="6.95" rx="1.11"/><path class="cls-2" d="M7.66,9.25h1.2V8.12h0A1.19,1.19,0,1,0,7.65,9.25h0Z"/><rect class="cls-2" x="4.27" y="8.63" width="2.23" height="6.95" rx="1.11" transform="translate(-6.72 17.49) rotate(-90)"/><path class="cls-2" d="M4.47,15.24h0V14H3.32a1.19,1.19,0,0,0,0,2.37,1.17,1.17,0,0,0,1.14-1.17h0Z"/><rect class="cls-2" x="6.63" y="14.04" width="2.23" height="6.95" rx="1.11" transform="translate(15.48 35.03) rotate(-180)"/><path class="cls-2" d="M11,18.15H9.8v1.13h0A1.18,1.18,0,0,0,11,20.43a1.14,1.14,0,1,0,0-2.28h0Z"/><rect class="cls-2" x="12.13" y="11.68" width="2.23" height="6.95" rx="1.11" transform="translate(28.41 1.91) rotate(90)"/></svg>