<svg id="Layer_1" data-name="Layer 1" xmlns="http://www.w3.org/2000/svg" viewBox="0 0 22 22"><defs><style>.cls-1{opacity:0.5;}.cls-2,.cls-3{fill:#fd6363;stroke:#fd6363;stroke-miterlimit:10;}.cls-2{stroke-width:1.1px;}.cls-3{stroke-width:0.4px;}.cls-4{fill:#808998;}</style></defs><title>Send-hover</title><g class="cls-1"><path class="cls-2" d="M16.6,7a.56.56,0,0,1-.44-.22L14.74,4.94a.55.55,0,0,1,.89-.66l.93,1.23,2.35-3.77a.55.55,0,1,1,.94.58L17.07,6.78a.55.55,0,0,1-.44.26Z"/></g><path class="cls-3" d="M16.6,7a.56.56,0,0,1-.44-.22L14.74,4.94a.55.55,0,0,1,.89-.66l.93,1.23,2.35-3.77a.55.55,0,1,1,.94.58L17.07,6.78a.55.55,0,0,1-.44.26Z"/><path class="cls-4" d="M13,12.69h0v1.18H14.1A1.19,1.19,0,1,0,13,12.68h0Z"/><rect class="cls-4" x="8.89" y="6.94" width="2.23" height="6.95" rx="1.11"/><path class="cls-4" d="M6.81,9.78H8V8.65H8A1.19,1.19,0,1,0,6.8,9.78h0Z"/><rect class="cls-4" x="3.43" y="9.16" width="2.23" height="6.95" rx="1.11" transform="translate(-8.09 17.18) rotate(-90)"/><path class="cls-4" d="M3.62,15.78v0h0V14.58H2.47a1.19,1.19,0,0,0,0,2.37,1.15,1.15,0,0,0,1.13-1.16h0Z"/><rect class="cls-4" x="5.78" y="14.58" width="2.23" height="6.95" rx="1.11" transform="matrix(-1, 0, 0, -1, 13.79, 36.1)"/><path class="cls-4" d="M10.16,18.68H9v1.14H9a1.19,1.19,0,1,0,1.21-1.15h0Z"/><rect class="cls-4" x="11.29" y="12.22" width="2.23" height="6.95" rx="1.11" transform="translate(28.1 3.29) rotate(90)"/></svg>