<svg id="Layer_1" data-name="Layer 1" xmlns="http://www.w3.org/2000/svg" viewBox="0 0 22 22"><defs><style>.cls-1{fill:none;stroke-width:1.5px;}.cls-1,.cls-3{stroke:#808998;stroke-miterlimit:10;}.cls-2{fill:#00a1e4;}.cls-3{fill:#808998;stroke-width:0.6px;}</style></defs><title>else-hover</title><path class="cls-1" d="M5,15a2.55,2.55,0,1,0,2.55,2.55A2.55,2.55,0,0,0,5,15Z"/><path class="cls-1" d="M17.12,5.53a2.55,2.55,0,1,0,2.56,2.55A2.56,2.56,0,0,0,17.12,5.53Z"/><path class="cls-2" d="M8.18,4.43a3.31,3.31,0,1,0-4,3.22v3.78l-.4-.36a.7.7,0,0,0-.95,0,.61.61,0,0,0,0,.94L4.4,13.43a.8.8,0,0,0,.22.13.75.75,0,0,0,.26,0,.74.74,0,0,0,.25,0,.67.67,0,0,0,.22-.13L6.92,12a.61.61,0,0,0,0-.94.7.7,0,0,0-1,0l-.4.36V7.65A3.29,3.29,0,0,0,8.18,4.43Zm-5.11,0a1.81,1.81,0,1,1,1.81,1.8A1.81,1.81,0,0,1,3.07,4.43Z"/><path class="cls-3" d="M16.79,14.61A2.75,2.75,0,0,1,14,17.35H10.27l.9-.89a.4.4,0,0,0,0-.56.39.39,0,0,0-.55,0L9.05,17.47a.36.36,0,0,0-.1.18s0,0,0,.05a.35.35,0,0,0,0,.2H9a.38.38,0,0,0,.09.13l1.57,1.57a.39.39,0,0,0,.28.11.39.39,0,0,0,.27-.67l-.9-.9H14a3.54,3.54,0,0,0,3.53-3.53V11.19h-.78Z"/></svg>