<svg id="Layer_1" data-name="Layer 1" xmlns="http://www.w3.org/2000/svg" viewBox="0 0 22 22"><defs><style>.cls-1{fill:#00a1e4;}</style></defs><title>iterator-hover</title><path class="cls-1" d="M5.09,12.43c-.42.86-.84,1.73-1.25,2.59-.08.17-.17.17-.32.09-.85-.42-1.71-.82-2.67-1.28a8.16,8.16,0,0,1,1-.37c.34-.08.38-.27.33-.57A7.18,7.18,0,0,1,4.89,6c.2-.16.27-.22,0-.44a1.46,1.46,0,0,1-.35-1.84,1.53,1.53,0,0,1,1.6-.81A1.5,1.5,0,0,1,7.44,4.38c0,.18,0,.35.27.29a7.29,7.29,0,0,1,5.13.65A4.12,4.12,0,0,1,14,2.51,3.83,3.83,0,0,1,18.72,2a3.77,3.77,0,0,1,1.6,4.52c-.16.41-.13.61.3.75a6.72,6.72,0,0,1,.84.4l-2.83,1c-.16.06-.24,0-.3-.17-.3-.9-.61-1.79-1-2.8.42.2.75.33,1.05.5s.4.11.49-.19a2.26,2.26,0,0,0-.58-2.39,2.2,2.2,0,0,0-2.45-.51A2.18,2.18,0,0,0,14.4,5a2.93,2.93,0,0,0,.69,2.21,7.24,7.24,0,0,1-.88,10c-.08.07-.22.11-.21.32,1.32,0,2.65,0,4,0,.25,0,.27-.14.27-.33,0-.36,0-.72,0-1.23l2.16,2.16c.15.14.07.23,0,.34l-2.12,2.11c0-.48,0-.83,0-1.18s-.1-.39-.39-.38c-.66,0-1.32,0-2,0H1.63a2.14,2.14,0,0,1-.57,0,.75.75,0,0,1,.07-1.44,2.27,2.27,0,0,1,.52,0H9.3a5.79,5.79,0,1,0-5.7-6.11c-.1,1.31,0,1.38,1.2,1A.29.29,0,0,1,5.09,12.43Z"/></svg>