<svg id="Layer_1" data-name="Layer 1" xmlns="http://www.w3.org/2000/svg" viewBox="0 0 22 22"><defs><style>.cls-1{fill:none;stroke:#00a1e4;stroke-linecap:round;stroke-linejoin:round;stroke-width:1.2px;}.cls-2{fill:#808998;stroke:#808998;stroke-miterlimit:10;stroke-width:0.2px;}</style></defs><title>OneDtoScalar-hover</title><path class="cls-1" d="M6.5,4.55s1.9-3.3,6.4-1.9l2.5,1"/><polyline class="cls-1" points="15.4 1.45 15.9 4.35 13.1 4.65"/><path class="cls-2" d="M7.5,10.05H3a.22.22,0,0,1-.2-.2v-3a.22.22,0,0,1,.2-.2H7.4a.22.22,0,0,1,.2.2v3C7.7,10,7.6,10.05,7.5,10.05Zm-4.2-.4h4V7.05h-4Z"/><path class="cls-2" d="M7.5,10.25H3a.43.43,0,0,1-.4-.4v-3a.43.43,0,0,1,.4-.4H7.4c.3,0,.5.1.5.4v3A.43.43,0,0,1,7.5,10.25ZM3,6.75v3.1H7.5v-3Zm4.5,3.1H3.1v-3H7.5Zm-4-.4H7.1V7.25H3.5Z"/><path class="cls-2" d="M7.5,15.25H3a.22.22,0,0,1-.2-.2V12a.22.22,0,0,1,.2-.2H7.4a.22.22,0,0,1,.2.2v3A.19.19,0,0,1,7.5,15.25Zm-4.2-.5h4v-2.6h-4Z"/><path class="cls-2" d="M7.5,15.35H3a.43.43,0,0,1-.4-.4v-3.1a.43.43,0,0,1,.4-.4H7.4a.43.43,0,0,1,.4.4v3A.35.35,0,0,1,7.5,15.35ZM3,12v3.1H7.5v-3Zm4.5,3H3.1V12H7.5Zm-4-.4H7.1v-2.3H3.5Z"/><path class="cls-2" d="M7.5,20.35H3a.22.22,0,0,1-.2-.2v-3c0-.2.1-.3.2-.3H7.4a.22.22,0,0,1,.2.2v3C7.7,20.25,7.6,20.35,7.5,20.35Zm-4.2-.5h4v-2.6h-4Z"/><path class="cls-2" d="M7.5,20.55H3a.43.43,0,0,1-.4-.4v-3a.43.43,0,0,1,.4-.4H7.4a.35.35,0,0,1,.5.3v3A.46.46,0,0,1,7.5,20.55ZM3,17.05v3.1H7.5v-3Zm4.5,3H3.1v-3H7.5Zm-4-.3H7.1v-2.2H3.5Z"/><path class="cls-2" d="M19,10.05H14.6a.22.22,0,0,1-.2-.2v-3a.22.22,0,0,1,.2-.2H19a.22.22,0,0,1,.2.2v3C19.3,10,19.1,10.05,19,10.05Zm-4.2-.4h4V7.05h-4Z"/><path class="cls-2" d="M19,10.25H14.6a.43.43,0,0,1-.4-.4v-3a.43.43,0,0,1,.4-.4H19a.43.43,0,0,1,.4.4v3A.37.37,0,0,1,19,10.25Zm-4.4-3.5v3.1h4.5v-3ZM19,9.85H14.6v-3H19Zm-4-.4h3.6V7.25H15Z"/></svg>