<svg id="Layer_1" data-name="Layer 1" xmlns="http://www.w3.org/2000/svg" viewBox="0 0 22 22"><defs><style>.cls-1{fill:none;stroke:#808998;stroke-linecap:round;stroke-linejoin:round;stroke-width:1.5px;}.cls-2{fill:#808998;}</style></defs><title>Artboard 140 copy 6</title><line class="cls-1" x1="14.1" y1="9.75" x2="12.7" y2="9.75"/><line class="cls-1" x1="14.1" y1="13.05" x2="12.7" y2="13.05"/><line class="cls-1" x1="14.1" y1="16.55" x2="12.6" y2="16.55"/><line class="cls-1" x1="9.5" y1="9.75" x2="8" y2="9.75"/><line class="cls-1" x1="9.5" y1="13.05" x2="8" y2="13.05"/><line class="cls-1" x1="9.4" y1="16.45" x2="8" y2="16.45"/><line class="cls-1" x1="5.3" y1="9.75" x2="3.8" y2="9.75"/><line class="cls-1" x1="5.3" y1="13.05" x2="3.8" y2="13.05"/><line class="cls-1" x1="5.2" y1="16.45" x2="3.8" y2="16.45"/><rect class="cls-1" x="1" y="5.95" width="15.8" height="14.5"/><path class="cls-2" d="M20.2,1.55H4.4a.77.77,0,0,0-.8.7v3.6H5.1V3.05H19.4v13H16.8v1.5h3.4a.79.79,0,0,0,.8-.8V2.25A.85.85,0,0,0,20.2,1.55Z"/></svg>