<svg id="Layer_1" data-name="Layer 1" xmlns="http://www.w3.org/2000/svg" viewBox="0 0 22 22"><defs><style>.cls-1,.cls-2{fill:none;stroke-linecap:round;stroke-linejoin:round;stroke-width:1.2px;}.cls-1{stroke:#808998;}.cls-2{stroke:#00a1e4;}</style></defs><title>GenerateReport-hover</title><path class="cls-1" d="M9.18,1.06H4.58A1.14,1.14,0,0,0,3.43,2.21V11.4a1.14,1.14,0,0,0,1.15,1.15h6.89a1.14,1.14,0,0,0,1.15-1.15V4.51Z"/><polyline class="cls-1" points="9.18 1.06 9.18 4.51 12.62 4.51"/><line class="cls-2" x1="10.32" y1="7.38" x2="5.73" y2="7.38"/><line class="cls-2" x1="10.32" y1="9.68" x2="5.73" y2="9.68"/><polyline class="cls-2" points="6.88 5.08 6.3 5.08 5.73 5.08"/><rect class="cls-1" x="11.28" y="14.16" width="7.29" height="6.79" rx="0.92"/><polyline class="cls-2" points="16.09 15.95 14.09 15.95 13.52 15.95"/><polyline class="cls-2" points="16.1 17.63 14.1 17.63 13.53 17.63"/><polyline class="cls-2" points="16.09 19.24 14.09 19.24 13.51 19.24"/><polyline class="cls-2" points="7.82 18.83 9 17.65 7.82 16.47"/><path class="cls-2" d="M9,17.65H6.16a1,1,0,0,1-.94-.95V15.05"/></svg>