<svg id="Layer_1" data-name="Layer 1" xmlns="http://www.w3.org/2000/svg" viewBox="0 0 22 22"><defs><style>.cls-1{fill:none;}.cls-2{fill:#808998;}</style></defs><title>NavigateReport</title><path class="cls-1" d="M16.66,19h0a4.21,4.21,0,0,1-5.9-1.2l-2.4-3.6a4.21,4.21,0,0,1,1.2-5.9h0a4.21,4.21,0,0,1,5.9,1.2l2.4,3.6A4.3,4.3,0,0,1,16.66,19Z"/><path class="cls-2" d="M3.43,6.48a1,1,0,0,1-.82-1.37A5.71,5.71,0,0,1,4.87,2.33,6.33,6.33,0,0,1,8.56,1.24a.92.92,0,0,1,.9.9.75.75,0,0,1-.31.64.86.86,0,0,1-.22.2l-.15.15H8.56a4.62,4.62,0,0,0-2.63.71,4.7,4.7,0,0,0-1.69,2,.76.76,0,0,1-.33.46A.92.92,0,0,1,3.43,6.48ZM8.53,2l.23.45L8.55,2Z"/><path class="cls-2" d="M6.83,7.58a1,1,0,0,1-.4-.1A.86.86,0,0,1,6,6.38,2.55,2.55,0,0,1,7.06,4.94l0,0A2.63,2.63,0,0,1,9,4.45a.78.78,0,0,1,.62.38.74.74,0,0,1,.07.63.9.9,0,0,1-.25.45.63.63,0,0,1-.63.33A1.23,1.23,0,0,0,8,6.45a1,1,0,0,0-.38.5.74.74,0,0,1-.34.49A.92.92,0,0,1,6.83,7.58Zm2-2.15h0Z"/><path class="cls-2" d="M12.18,13.3a.81.81,0,0,1-.31-.05.78.78,0,0,1-.46-.39l-1.17-1.75a.75.75,0,0,1-.18-.67.89.89,0,0,1,.4-.61.88.88,0,0,1,1.34.28L13,11.86a.76.76,0,0,1,.18.67.86.86,0,0,1-.47.65h0A1.11,1.11,0,0,1,12.18,13.3Zm0-.85a.05.05,0,0,0,0,0Zm.08-.1h0ZM11,10.48l0,0A.05.05,0,0,0,11,10.48Z"/><path class="cls-2" d="M14.22,20.77a5.11,5.11,0,0,1-4.28-2.36l-2.4-3.6a5.23,5.23,0,0,1,5.38-8,5.05,5.05,0,0,1,3.26,2.26l2.39,3.59a5.07,5.07,0,0,1-1.43,7.19A5.22,5.22,0,0,1,14.22,20.77Zm-5.15-7,2.4,3.6a3.07,3.07,0,0,0,2.07,1.42,3.62,3.62,0,0,0,2.56-.47,3.16,3.16,0,0,0,1.43-2A3.33,3.33,0,0,0,17,13.71l-2.4-3.6a3.28,3.28,0,0,0-4.6-1A3.5,3.5,0,0,0,9.07,13.76Z"/></svg>