<svg id="Layer_1" data-name="Layer 1" xmlns="http://www.w3.org/2000/svg" viewBox="0 0 22 22"><defs><style>.cls-1{fill:#808998;}.cls-2{fill:#00a1e4;stroke:#00a1e4;stroke-miterlimit:10;stroke-width:0.5px;}</style></defs><title>ClassifyImage-hover</title><path class="cls-1" d="M17.17,20.83H3.43A3.13,3.13,0,0,1,.31,17.7V6.77A3.12,3.12,0,0,1,3.43,3.65h6.66a.78.78,0,0,1,0,1.56H3.43A1.56,1.56,0,0,0,1.87,6.77V17.7a1.56,1.56,0,0,0,1.56,1.56H17.17a1.56,1.56,0,0,0,1.57-1.56V11.17a.78.78,0,1,1,1.56,0V17.7A3.13,3.13,0,0,1,17.17,20.83ZM3.58,16.37a.78.78,0,0,0,1.1-.15l1.11-1.46,2.06,2.61a.78.78,0,0,0,.61.29h0a.79.79,0,0,0,.61-.29l4.81-5.24L15.1,13.6a.78.78,0,0,0,1.1.11.79.79,0,0,0,.11-1.1l-1.84-2.23a.78.78,0,0,0-.61-.28.74.74,0,0,0-.6.3l-4.8,5.22L6.39,13a.76.76,0,0,0-.63-.29.77.77,0,0,0-.61.3L3.43,15.28A.78.78,0,0,0,3.58,16.37Zm.09-6.49A2.11,2.11,0,1,1,5.77,12,2.11,2.11,0,0,1,3.67,9.88ZM5,9.88a.78.78,0,1,0,.78-.78A.78.78,0,0,0,5,9.88Z"/><path class="cls-2" d="M20.58,6s0,0-.08,0c0-.35,0-.71,0-1.07s-.14-.47-.46-.47H17.71v-.8H18a.83.83,0,0,0,.91-.91c0-.49,0-1,0-1.46a.78.78,0,0,0-.81-.83c-.52,0-1,0-1.57,0a.78.78,0,0,0-.81.79c0,.53,0,1.07,0,1.6a.78.78,0,0,0,.8.8h.38v.8H14.61c-.37,0-.5.13-.51.5V6h-.25c-.66,0-.95.3-.95,1V8.4a.8.8,0,0,0,.84.84h1.49a.81.81,0,0,0,.87-.88V7A.83.83,0,0,0,15.17,6h-.24V5.26h4.75V6h-.25a.82.82,0,0,0-.93,1c0,.47,0,.93,0,1.4a.81.81,0,0,0,.86.85h1.5a.8.8,0,0,0,.83-.84c0-.4,0-.8,0-1.2C21.75,6.43,21.46,6,20.58,6Zm-5.29.82V8.42H13.72V6.86Zm1.23-4V1.27h1.55V2.84Zm4.36,4V8.43H19.32V6.86h1.56Z"/></svg>