<svg id="Layer_1" data-name="Layer 1" xmlns="http://www.w3.org/2000/svg" viewBox="0 0 22 22"><defs><style>.cls-1{fill:#808998;}.cls-2{fill:none;stroke:#808998;stroke-linecap:round;stroke-linejoin:round;stroke-width:1.5px;}</style></defs><title>Download</title><path class="cls-1" d="M17.94,18.61a1.17,1.17,0,0,1-1.17,1.17H5.24a1.17,1.17,0,0,1-1.18-1.17V3.24A1.17,1.17,0,0,1,5.24,2.07h6.93v5a.75.75,0,0,0,.75.75h5V18.66h1.5V7.08a.72.72,0,0,0-.06-.29,1,1,0,0,0-.16-.24L13.45.79a.63.63,0,0,0-.24-.16.72.72,0,0,0-.29-.06H5.24A2.68,2.68,0,0,0,2.56,3.24V18.61a2.68,2.68,0,0,0,2.68,2.67H16.77a2.68,2.68,0,0,0,2.67-2.67v0h-1.5ZM13.67,3.13l3.21,3.2H13.67Z"/><path class="cls-2" d="M14.16,14.67v1.4a.71.71,0,0,1-.7.71H8.54a.71.71,0,0,1-.7-.71v-1.4"/><polyline class="cls-2" points="9.25 11.84 11 13.59 12.75 11.84"/><line class="cls-2" x1="11" y1="13.59" x2="11" y2="9.38"/></svg>