<svg id="Layer_1" data-name="Layer 1" xmlns="http://www.w3.org/2000/svg" viewBox="0 0 22 22"><defs><style>.cls-1,.cls-2,.cls-4,.cls-5{fill:none;stroke:#808998;stroke-linecap:round;stroke-linejoin:round;stroke-width:1.5px;}.cls-2{stroke-dasharray:2.21 2.21;}.cls-3{fill:#808998;}.cls-4{stroke-dasharray:1.52 1.52;}.cls-5{stroke-dasharray:1.47 1.47;}.cls-6{fill:#00a1e4;}</style></defs><title>GetText_2</title><line class="cls-1" x1="2.49" y1="4.86" x2="2.49" y2="5.86"/><line class="cls-2" x1="2.49" y1="8.07" x2="2.49" y2="15.81"/><line class="cls-1" x1="2.49" y1="16.91" x2="2.49" y2="17.91"/><line class="cls-3" x1="4.08" y1="3.27" x2="10.64" y2="3.25"/><line class="cls-1" x1="4.08" y1="3.27" x2="5.08" y2="3.27"/><line class="cls-4" x1="6.6" y1="3.26" x2="8.88" y2="3.26"/><line class="cls-1" x1="9.64" y1="3.25" x2="10.64" y2="3.25"/><line class="cls-3" x1="18.93" y1="11.57" x2="18.9" y2="17.97"/><line class="cls-1" x1="18.93" y1="11.57" x2="18.93" y2="12.57"/><line class="cls-5" x1="18.92" y1="14.03" x2="18.91" y2="16.23"/><line class="cls-1" x1="18.91" y1="16.97" x2="18.9" y2="17.97"/><path class="cls-6" d="M14.9,2.67,13,4.5a.25.25,0,0,0-.08.18.23.23,0,0,0,.08.17l1.84,1.81a.23.23,0,0,0,.25,0,.23.23,0,0,0,.14-.21l0-1.11h4a.23.23,0,0,0,.23-.23V4.21A.23.23,0,0,0,19.28,4h-4V2.85a.24.24,0,0,0-.14-.22A.25.25,0,0,0,14.9,2.67Z"/><line class="cls-3" x1="4.2" y1="19.39" x2="17.25" y2="19.39"/><line class="cls-1" x1="4.2" y1="19.39" x2="5.2" y2="19.39"/><line class="cls-2" x1="7.41" y1="19.39" x2="15.15" y2="19.39"/><line class="cls-1" x1="16.25" y1="19.39" x2="17.25" y2="19.39"/><line class="cls-1" x1="10.78" y1="9.28" x2="10.78" y2="15.42"/><line class="cls-1" x1="8.23" y1="8.77" x2="13.34" y2="8.77"/></svg>