<svg id="Layer_1" data-name="Layer 1" xmlns="http://www.w3.org/2000/svg" viewBox="0 0 22 22"><defs><style>.cls-1,.cls-3{fill:none;stroke:#808998;stroke-linecap:round;stroke-linejoin:round;}.cls-1{stroke-width:1.5px;}.cls-2{fill:#808998;}.cls-3{stroke-width:1.3px;}</style></defs><title>Invite</title><line class="cls-1" x1="15.91" y1="3.48" x2="20.71" y2="3.46"/><line class="cls-1" x1="18.32" y1="5.85" x2="18.26" y2="1.05"/><path class="cls-2" d="M9.52,14.71h0v.79h.77a.8.8,0,1,0-.77-.81h0Z"/><rect class="cls-2" x="6.8" y="10.86" width="1.49" height="4.66" rx="0.75"/><path class="cls-2" d="M5.41,12.76h.8V12h0a.76.76,0,0,0-.79-.75.76.76,0,1,0,0,1.52Z"/><rect class="cls-2" x="3.14" y="12.34" width="1.49" height="4.66" rx="0.75" transform="translate(-10.78 18.56) rotate(-90)"/><path class="cls-2" d="M3.27,16.78h0V16H2.5a.79.79,0,0,0-.75.8.76.76,0,1,0,1.52,0Z"/><rect class="cls-2" x="4.72" y="15.97" width="1.49" height="4.66" rx="0.75" transform="translate(10.93 36.6) rotate(-180)"/><path class="cls-2" d="M7.65,18.72h-.8v.76h0a.8.8,0,1,0,.81-.77h0Z"/><rect class="cls-2" x="8.41" y="14.39" width="1.49" height="4.66" rx="0.75" transform="translate(25.88 7.56) rotate(90)"/><path class="cls-3" d="M14.77,8.71V8a1.49,1.49,0,0,0-1.49-1.48h-2.6A1.49,1.49,0,0,0,9.19,8v.74"/><circle class="cls-3" cx="11.98" cy="3.51" r="1.49"/></svg>