<svg id="Layer_1" data-name="Layer 1" xmlns="http://www.w3.org/2000/svg" viewBox="0 0 22 22"><defs><style>.cls-1{opacity:0.5;}.cls-2,.cls-3,.cls-4{fill:none;stroke-linecap:round;stroke-linejoin:round;}.cls-2,.cls-4{stroke:#fd6363;}.cls-2{stroke-width:2.2px;}.cls-3{stroke:#808998;}.cls-3,.cls-4{stroke-width:1.5px;}</style></defs><title>Extract-hover</title><g class="cls-1"><polyline class="cls-2" points="17.55 11.4 20.7 8.26 17.55 5.11"/><path class="cls-2" d="M10.64,15.17v-4.4a2.51,2.51,0,0,1,2.51-2.51H20.7"/></g><path class="cls-3" d="M20.75,14.33v2.45a1.87,1.87,0,0,1-1.87,1.86H3.12a1.87,1.87,0,0,1-1.87-1.86V5.22A1.87,1.87,0,0,1,3.12,3.36H8.26"/><polyline class="cls-4" points="17.55 11.4 20.7 8.26 17.55 5.11"/><path class="cls-4" d="M10.64,15.17v-4.4a2.51,2.51,0,0,1,2.51-2.51H20.7"/></svg>