<svg id="Layer_1" data-name="Layer 1" xmlns="http://www.w3.org/2000/svg" viewBox="0 0 22 22"><defs><style>.cls-1{fill:none;}.cls-1,.cls-3{stroke:#808998;stroke-miterlimit:10;}.cls-2,.cls-3{fill:#808998;}.cls-3{stroke-width:0.4px;}</style></defs><title>EntityValidation</title><circle class="cls-1" cx="15.78" cy="8.79" r="0.89"/><path class="cls-2" d="M18,4.1H4A2.16,2.16,0,0,0,1.88,6.22v5A2.16,2.16,0,0,0,4,13.3h7.43A3.23,3.23,0,0,1,11.71,12H4a.79.79,0,0,1-.8-.79v-5a.8.8,0,0,1,.8-.8H18a.8.8,0,0,1,.8.8v4.43a3.77,3.77,0,0,1,1,1.77,1.77,1.77,0,0,0,.36-1.15v-5A2.16,2.16,0,0,0,18,4.1Z"/><path class="cls-2" d="M15.69,17.9a4.24,4.24,0,0,1-4.25-4.24,4.25,4.25,0,1,1,4.25,4.24Zm0-7.25a2.92,2.92,0,1,0,2.92,2.92A2.94,2.94,0,0,0,15.69,10.65Z"/><circle class="cls-1" cx="5.95" cy="8.7" r="0.89"/><circle class="cls-1" cx="10.82" cy="8.79" r="0.89"/><path class="cls-3" d="M15.25,15.43c-.09,0-.18-.09-.27-.18L14.1,14a.38.38,0,1,1,.62-.44l.62.79L16.84,12c.09-.17.36-.17.53-.08a.3.3,0,0,1,.09.44l-1.77,2.83c-.26.18-.35.27-.44.27Z"/></svg>