<svg id="Layer_1" data-name="Layer 1" xmlns="http://www.w3.org/2000/svg" viewBox="0 0 22 22"><defs><style>.cls-1{fill:#808998;stroke:#808998;stroke-miterlimit:10;stroke-width:0.1px;}.cls-1,.cls-2{fill-rule:evenodd;}.cls-2{fill:#00a1e4;}</style></defs><title>SentenceFormation-hover</title><path class="cls-1" d="M15.7,19.8v1c0,.6-.2.8-.8.8H7c-.5,0-.7-.2-.7-.7V16.5a.63.63,0,0,1,.7-.7h7.9c.5,0,.7.2.7.8v2.2h4.2c.2,0,.4-.3.5-.5s0-.3,0-.5V5.2c0-.9-.1-1-1-1H18.2a5,5,0,0,1,.7.8c.3.3.3.6,0,.8a.52.52,0,0,1-.8,0,10.63,10.63,0,0,0-1.6-1.9.56.56,0,0,1,0-.9l1.7-1.7a.52.52,0,0,1,.8-.1c.3.3.2.6,0,.9a4.35,4.35,0,0,1-.7.6c0,.1.1.1.1.2h1.3a1.68,1.68,0,0,1,1.8,1.8V18a1.68,1.68,0,0,1-1.8,1.8Zm-1.2.5V16.9H7.6v3.4Z"/><path class="cls-1" d="M3.7,18c-.3-.3-.5-.6-.7-.8s-.3-.6,0-.8a1.1,1.1,0,0,1,.8,0l1.8,1.8c.3.3.3.6,0,.8-.6.6-1.1,1.2-1.7,1.7a.56.56,0,0,1-.9,0,.52.52,0,0,1,0-.8,4.35,4.35,0,0,1,.7-.6c0-.1-.1-.1-.1-.2H2.3A1.73,1.73,0,0,1,.5,17.3V4.6A1.78,1.78,0,0,1,2.4,2.7h4V1.2c0-.5.2-.8.8-.8H15c.5,0,.8.2.8.8V5.5c0,.6-.2.8-.8.8H7.3c-.7,0-.8-.2-.8-.8V4H2.2c-.4,0-.6.3-.6.7V17.1c0,.7.2.9.8.9ZM7.5,5.1h6.9V1.7H7.5Z"/><path class="cls-2" d="M11,8.1h3.9c.6,0,.8.2.8.8v4.3c0,.6-.2.8-.8.8H7.1c-.5,0-.8-.2-.8-.8V8.9c0-.5.2-.8.8-.8ZM7.5,9.3v3.4h6.9V9.3Z"/></svg>