<svg id="Layer_1" data-name="Layer 1" xmlns="http://www.w3.org/2000/svg" viewBox="0 0 22 22"><defs><style>.cls-1{fill:#808998;}.cls-2{fill:none;stroke:#808998;stroke-miterlimit:10;stroke-width:0.3px;}</style></defs><title>Linux-Connection</title><path class="cls-1" d="M18.68,20H3A2.23,2.23,0,0,1,.74,17.77V4.44A2.23,2.23,0,0,1,3,2.2H18.68a2.23,2.23,0,0,1,2.23,2.24V17.77A2.23,2.23,0,0,1,18.68,20ZM3,2.87A1.57,1.57,0,0,0,1.4,4.44V17.77A1.58,1.58,0,0,0,3,19.34H18.68a1.58,1.58,0,0,0,1.57-1.57V4.44a1.57,1.57,0,0,0-1.57-1.57Z"/><path class="cls-1" d="M18.67,20.25H3A2.48,2.48,0,0,1,.49,17.77V4.44A2.49,2.49,0,0,1,3,2h15.7a2.49,2.49,0,0,1,2.49,2.49V17.77A2.48,2.48,0,0,1,18.67,20.25ZM3,2.45a2,2,0,0,0-2,2V17.77a2,2,0,0,0,2,2h15.7a2,2,0,0,0,2-2V4.44a2,2,0,0,0-2-2Zm15.7,17.14H3a1.83,1.83,0,0,1-1.82-1.82V4.44A1.82,1.82,0,0,1,3,2.62h15.7A1.82,1.82,0,0,1,20.5,4.44V17.77A1.83,1.83,0,0,1,18.67,19.59ZM3,3.12A1.32,1.32,0,0,0,1.65,4.44V17.77A1.33,1.33,0,0,0,3,19.09h15.7A1.33,1.33,0,0,0,20,17.77V4.44a1.33,1.33,0,0,0-1.33-1.32Z"/><path class="cls-1" d="M20.58,7.54H1.07a.34.34,0,0,1,0-.67H20.58a.34.34,0,0,1,0,.67Z"/><path class="cls-1" d="M20.58,7.78H1.07a.58.58,0,0,1,0-1.16H20.58a.58.58,0,0,1,0,1.16ZM1.07,7.12A.08.08,0,0,0,1,7.2a.07.07,0,0,0,.08.08H20.58a.07.07,0,0,0,.08-.08.09.09,0,0,0-.08-.08Z"/><path class="cls-1" d="M3.66,5.84A.86.86,0,1,1,4.52,5,.85.85,0,0,1,3.66,5.84Zm0-1.18A.32.32,0,0,0,3.34,5a.32.32,0,0,0,.32.32A.33.33,0,0,0,4,5,.32.32,0,0,0,3.66,4.66Z"/><path class="cls-1" d="M6,5.84A.86.86,0,1,1,6.81,5,.86.86,0,0,1,6,5.84ZM6,4.66A.31.31,0,0,0,5.64,5a.32.32,0,1,0,.63,0A.32.32,0,0,0,6,4.66Z"/><path class="cls-1" d="M8.22,5.84A.86.86,0,1,1,9.08,5,.85.85,0,0,1,8.22,5.84Zm0-1.18A.32.32,0,0,0,7.9,5a.32.32,0,1,0,.63,0A.31.31,0,0,0,8.22,4.66Z"/><path class="cls-2" d="M7.14,12.76l0,.37a.11.11,0,0,0,0,.08.13.13,0,0,0,.09,0H8.4a.12.12,0,0,0,.08,0,.11.11,0,0,0,0-.08l0-.37H10a.4.4,0,0,0,.42-.39V9.66A.4.4,0,0,0,10,9.27H5.56a.4.4,0,0,0-.41.39v2.71a.4.4,0,0,0,.41.39ZM8.27,13H7.33l0-.27h.88ZM5.56,9.48H10a.18.18,0,0,1,.19.18v2.39H5.37V9.66A.19.19,0,0,1,5.56,9.48Zm-.19,2.89v-.11h4.77v.11a.18.18,0,0,1-.19.18H5.56A.19.19,0,0,1,5.37,12.37Z"/><path class="cls-2" d="M12.24,17.39l0,.37a.07.07,0,0,0,0,.08.09.09,0,0,0,.08,0H13.5a.09.09,0,0,0,.08,0,.08.08,0,0,0,0-.08l0-.37h1.48a.4.4,0,0,0,.42-.39V14.29a.4.4,0,0,0-.42-.39H10.67a.4.4,0,0,0-.42.39V17a.4.4,0,0,0,.42.39Zm1.13.28h-.94l0-.28h.87Zm-2.7-3.56h4.38a.19.19,0,0,1,.2.18v2.39H10.47V14.29A.19.19,0,0,1,10.67,14.11ZM10.47,17v-.11h4.78V17a.19.19,0,0,1-.2.18H10.67A.19.19,0,0,1,10.47,17Z"/><circle class="cls-1" cx="5.33" cy="13.64" r="0.29"/><circle class="cls-1" cx="5.33" cy="14.43" r="0.29"/><circle class="cls-1" cx="5.33" cy="15.23" r="0.29"/><circle class="cls-1" cx="5.33" cy="16.02" r="0.29"/><circle class="cls-1" cx="5.33" cy="16.81" r="0.29"/><circle class="cls-1" cx="6.04" cy="17.24" r="0.29"/><circle class="cls-1" cx="6.83" cy="17.24" r="0.29"/><circle class="cls-1" cx="7.63" cy="17.24" r="0.29"/><circle class="cls-1" cx="8.42" cy="17.24" r="0.29"/><circle class="cls-1" cx="9.22" cy="17.24" r="0.29"/><circle class="cls-1" cx="15.22" cy="13.07" r="0.29"/><circle class="cls-1" cx="15.22" cy="12.27" r="0.29"/><circle class="cls-1" cx="15.22" cy="11.48" r="0.29"/><circle class="cls-1" cx="15.22" cy="10.69" r="0.29"/><circle class="cls-1" cx="15.22" cy="9.89" r="0.29"/><circle class="cls-1" cx="14.51" cy="9.46" r="0.29"/><circle class="cls-1" cx="13.72" cy="9.46" r="0.29"/><circle class="cls-1" cx="12.92" cy="9.46" r="0.29"/><circle class="cls-1" cx="12.13" cy="9.46" r="0.29"/><circle class="cls-1" cx="11.33" cy="9.46" r="0.29"/></svg>