<svg id="Layer_1" data-name="Layer 1" xmlns="http://www.w3.org/2000/svg" viewBox="0 0 22 22"><defs><style>.cls-1,.cls-4{fill:#808998;}.cls-2,.cls-3{fill:#00a1e4;}.cls-3{stroke:#00a1e4;}.cls-3,.cls-4{stroke-miterlimit:10;stroke-width:0.2px;}.cls-4{stroke:#808998;}</style></defs><title>Linux-shell_Service-managment-hover</title><path class="cls-1" d="M18.68,20H3A2.23,2.23,0,0,1,.74,17.77V4.44A2.23,2.23,0,0,1,3,2.2H18.68a2.23,2.23,0,0,1,2.23,2.24V17.77A2.23,2.23,0,0,1,18.68,20ZM3,2.87A1.57,1.57,0,0,0,1.4,4.44V17.77A1.58,1.58,0,0,0,3,19.34H18.68a1.58,1.58,0,0,0,1.57-1.57V4.44a1.57,1.57,0,0,0-1.57-1.57Z"/><path class="cls-1" d="M18.67,20.25H3A2.48,2.48,0,0,1,.49,17.77V4.44A2.49,2.49,0,0,1,3,2h15.7a2.49,2.49,0,0,1,2.49,2.49V17.77A2.48,2.48,0,0,1,18.67,20.25ZM3,2.45a2,2,0,0,0-2,2V17.77a2,2,0,0,0,2,2h15.7a2,2,0,0,0,2-2V4.44a2,2,0,0,0-2-2Zm15.7,17.14H3a1.83,1.83,0,0,1-1.82-1.82V4.44A1.82,1.82,0,0,1,3,2.62h15.7A1.82,1.82,0,0,1,20.5,4.44V17.77A1.83,1.83,0,0,1,18.67,19.59ZM3,3.12A1.32,1.32,0,0,0,1.65,4.44V17.77A1.33,1.33,0,0,0,3,19.09h15.7A1.33,1.33,0,0,0,20,17.77V4.44a1.33,1.33,0,0,0-1.33-1.32Z"/><path class="cls-1" d="M20.58,7.54H1.07a.34.34,0,0,1,0-.67H20.58a.34.34,0,0,1,0,.67Z"/><path class="cls-1" d="M20.58,7.78H1.07a.58.58,0,0,1,0-1.16H20.58a.58.58,0,0,1,0,1.16ZM1.07,7.12A.08.08,0,0,0,1,7.2a.07.07,0,0,0,.08.08H20.58a.07.07,0,0,0,.08-.08.09.09,0,0,0-.08-.08Z"/><path class="cls-1" d="M3.66,5.84A.86.86,0,1,1,4.52,5,.85.85,0,0,1,3.66,5.84Zm0-1.18A.32.32,0,0,0,3.34,5a.32.32,0,0,0,.32.32A.33.33,0,0,0,4,5,.32.32,0,0,0,3.66,4.66Z"/><path class="cls-1" d="M6,5.84A.86.86,0,1,1,6.81,5,.86.86,0,0,1,6,5.84ZM6,4.66A.31.31,0,0,0,5.64,5a.32.32,0,1,0,.63,0A.32.32,0,0,0,6,4.66Z"/><path class="cls-1" d="M8.22,5.84A.86.86,0,1,1,9.08,5,.85.85,0,0,1,8.22,5.84Zm0-1.18A.32.32,0,0,0,7.9,5a.32.32,0,1,0,.63,0A.31.31,0,0,0,8.22,4.66Z"/><path class="cls-2" d="M7,11.56l-2.56-1V9.82l3.31,1.46v.57L4.42,13.32v-.75Z"/><path class="cls-3" d="M17.91,12.83l-.72-.07a3,3,0,0,0-.37-.87l.46-.55a.14.14,0,0,0,0-.19l-.77-.77a.14.14,0,0,0-.19,0l-.55.46a3,3,0,0,0-.87-.37l-.07-.72a.12.12,0,0,0-.13-.12H13.62a.13.13,0,0,0-.13.12l-.07.72a3,3,0,0,0-.87.37L12,10.37a.13.13,0,0,0-.18,0l-.78.77a.15.15,0,0,0,0,.19l.46.55a3,3,0,0,0-.37.87l-.72.07a.13.13,0,0,0-.12.13v1.1a.15.15,0,0,0,.12.14l.72.07a3.17,3.17,0,0,0,.37.87l-.46.55a.13.13,0,0,0,0,.19l.58.52a.11.11,0,0,0,.11,0,.14.14,0,0,0,.1-.05l.84-1.22a.12.12,0,0,0,0-.17,2.08,2.08,0,1,1,2.94,0,.14.14,0,0,0,0,.17l.88,1.22a.11.11,0,0,0,.09.05.11.11,0,0,0,.11,0l.59-.52a.14.14,0,0,0,0-.19l-.46-.55a3.17,3.17,0,0,0,.37-.87l.72-.07a.14.14,0,0,0,.12-.14V13A.12.12,0,0,0,17.91,12.83Zm-.15,1.11-.7.07a.15.15,0,0,0-.12.1,2.8,2.8,0,0,1-.4,1,.13.13,0,0,0,0,.16l.44.53-.38.34-.72-1a2.35,2.35,0,1,0-3.49,0l-.7,1-.38-.33.44-.53a.13.13,0,0,0,0-.16,2.8,2.8,0,0,1-.4-1,.14.14,0,0,0-.12-.1l-.69-.07v-.85l.69-.07a.14.14,0,0,0,.12-.11,2.75,2.75,0,0,1,.4-.95.15.15,0,0,0,0-.17l-.44-.53.6-.6.54.44a.13.13,0,0,0,.16,0,2.94,2.94,0,0,1,1-.41.13.13,0,0,0,.1-.12l.07-.69h.81l.07.69a.14.14,0,0,0,.11.12,3,3,0,0,1,.95.41.15.15,0,0,0,.17,0l.53-.44.6.6-.44.53a.15.15,0,0,0,0,.17,2.75,2.75,0,0,1,.4.95.16.16,0,0,0,.12.11l.7.07Z"/><path class="cls-4" d="M14.63,15.92V13.84a1.12,1.12,0,0,0,.57-1,1,1,0,0,0-.81-1,.13.13,0,0,0-.12,0,.17.17,0,0,0,0,.12l0,.58a.4.4,0,0,1-.37,0L14,12a.11.11,0,0,0,0-.11.13.13,0,0,0-.12,0A1,1,0,0,0,13,12.89a1.06,1.06,0,0,0,.66,1V16a1.14,1.14,0,0,0-.57,1,1,1,0,0,0,.81,1,.17.17,0,0,0,.12,0,.18.18,0,0,0,.05-.12L14,17.24a.38.38,0,0,1,.36,0l0,.58a.11.11,0,0,0,.05.12.13.13,0,0,0,.12,0,1.07,1.07,0,0,0,.76-1A1,1,0,0,0,14.63,15.92Zm0,1.7,0-.44a.12.12,0,0,0,0-.12h0a.67.67,0,0,0-.81,0,.18.18,0,0,0-.05.12l0,.45a.73.73,0,0,1-.41-.71.84.84,0,0,1,.48-.75A.14.14,0,0,0,14,16V13.8a.14.14,0,0,0-.09-.13.84.84,0,0,1-.2-1.48l0,.43a.11.11,0,0,0,0,.12h0a.66.66,0,0,0,.81,0h0a.16.16,0,0,0,.05-.11l0-.46a.74.74,0,0,1,.42.71.87.87,0,0,1-.49.76.13.13,0,0,0-.08.12V16a.13.13,0,0,0,.1.13.8.8,0,0,1,.56.78.81.81,0,0,1-.37.7Z"/></svg>