<svg id="Layer_1" data-name="Layer 1" xmlns="http://www.w3.org/2000/svg" viewBox="0 0 22 22"><defs><style>.cls-1{fill:#808998;}.cls-2{fill:#00a1e4;}</style></defs><title>Linux-Sudo</title><path class="cls-1" d="M18.68,20H3A2.23,2.23,0,0,1,.74,17.77V4.44A2.23,2.23,0,0,1,3,2.2H18.68a2.23,2.23,0,0,1,2.23,2.24V17.77A2.23,2.23,0,0,1,18.68,20ZM3,2.87A1.57,1.57,0,0,0,1.4,4.44V17.77A1.58,1.58,0,0,0,3,19.34H18.68a1.58,1.58,0,0,0,1.57-1.57V4.44a1.57,1.57,0,0,0-1.57-1.57Z"/><path class="cls-1" d="M18.67,20.25H3A2.48,2.48,0,0,1,.49,17.77V4.44A2.49,2.49,0,0,1,3,2h15.7a2.49,2.49,0,0,1,2.49,2.49V17.77A2.48,2.48,0,0,1,18.67,20.25ZM3,2.45a2,2,0,0,0-2,2V17.77a2,2,0,0,0,2,2h15.7a2,2,0,0,0,2-2V4.44a2,2,0,0,0-2-2Zm15.7,17.14H3a1.83,1.83,0,0,1-1.82-1.82V4.44A1.82,1.82,0,0,1,3,2.62h15.7A1.82,1.82,0,0,1,20.5,4.44V17.77A1.83,1.83,0,0,1,18.67,19.59ZM3,3.12A1.32,1.32,0,0,0,1.65,4.44V17.77A1.33,1.33,0,0,0,3,19.09h15.7A1.33,1.33,0,0,0,20,17.77V4.44a1.33,1.33,0,0,0-1.33-1.32Z"/><path class="cls-1" d="M20.58,7.54H1.07a.34.34,0,0,1,0-.67H20.58a.34.34,0,0,1,0,.67Z"/><path class="cls-1" d="M20.58,7.78H1.07a.58.58,0,0,1,0-1.16H20.58a.58.58,0,0,1,0,1.16ZM1.07,7.12A.08.08,0,0,0,1,7.2a.07.07,0,0,0,.08.08H20.58a.07.07,0,0,0,.08-.08.09.09,0,0,0-.08-.08Z"/><path class="cls-1" d="M3.66,5.84A.86.86,0,1,1,4.52,5,.85.85,0,0,1,3.66,5.84Zm0-1.18A.32.32,0,0,0,3.34,5a.32.32,0,0,0,.32.32A.33.33,0,0,0,4,5,.32.32,0,0,0,3.66,4.66Z"/><path class="cls-1" d="M6,5.84A.86.86,0,1,1,6.81,5,.86.86,0,0,1,6,5.84ZM6,4.66A.31.31,0,0,0,5.64,5a.32.32,0,1,0,.63,0A.32.32,0,0,0,6,4.66Z"/><path class="cls-1" d="M8.22,5.84A.86.86,0,1,1,9.08,5,.85.85,0,0,1,8.22,5.84Zm0-1.18A.32.32,0,0,0,7.9,5a.32.32,0,1,0,.63,0A.31.31,0,0,0,8.22,4.66Z"/><path class="cls-2" d="M7,11.56l-2.56-1V9.82l3.31,1.46v.57L4.42,13.32v-.75Z"/><path class="cls-1" d="M8.92,16.33A.33.33,0,0,0,8.78,16a1.49,1.49,0,0,0-.48-.17,2.12,2.12,0,0,1-.54-.18.68.68,0,0,1-.3-.24.62.62,0,0,1-.1-.34.71.71,0,0,1,.28-.55,1.07,1.07,0,0,1,.7-.22,1.14,1.14,0,0,1,.73.23.73.73,0,0,1,.28.59H8.9a.43.43,0,0,0-.16-.32.71.71,0,0,0-.79,0,.34.34,0,0,0-.14.28.3.3,0,0,0,.13.25,2,2,0,0,0,.47.15,2.36,2.36,0,0,1,.55.18.81.81,0,0,1,.31.26.61.61,0,0,1,.1.36.66.66,0,0,1-.28.56,1.13,1.13,0,0,1-.73.22A1.45,1.45,0,0,1,7.79,17a.92.92,0,0,1-.38-.32.76.76,0,0,1-.14-.43h.46a.43.43,0,0,0,.18.36.69.69,0,0,0,.45.13.73.73,0,0,0,.41-.1A.33.33,0,0,0,8.92,16.33Z"/><path class="cls-1" d="M11.59,16.77a1,1,0,0,1-.77.31.79.79,0,0,1-.64-.25,1,1,0,0,1-.23-.72V14.39h.45v1.7c0,.4.17.61.49.61a.67.67,0,0,0,.69-.39V14.39H12V17H11.6Z"/><path class="cls-1" d="M12.61,15.69a1.51,1.51,0,0,1,.29-1,.89.89,0,0,1,.75-.37.91.91,0,0,1,.74.32V13.28h.45V17h-.42l0-.28a.92.92,0,0,1-.75.33.9.9,0,0,1-.75-.38,1.52,1.52,0,0,1-.29-1Zm.45.05a1.12,1.12,0,0,0,.19.7.59.59,0,0,0,.51.26.68.68,0,0,0,.63-.39V15.1a.68.68,0,0,0-.63-.38.59.59,0,0,0-.51.26A1.23,1.23,0,0,0,13.06,15.74Z"/><path class="cls-1" d="M15.42,15.68a1.55,1.55,0,0,1,.15-.69,1.06,1.06,0,0,1,.43-.48,1.07,1.07,0,0,1,.62-.17,1.1,1.1,0,0,1,.87.37,1.45,1.45,0,0,1,.33,1v0a1.67,1.67,0,0,1-.14.69,1.17,1.17,0,0,1-.43.48,1.19,1.19,0,0,1-.63.17,1.13,1.13,0,0,1-.87-.37,1.44,1.44,0,0,1-.33-1Zm.45.06a1.08,1.08,0,0,0,.21.7.63.63,0,0,0,.54.27.66.66,0,0,0,.55-.27,1.27,1.27,0,0,0,.2-.76,1.1,1.1,0,0,0-.21-.7.64.64,0,0,0-.54-.27.63.63,0,0,0-.54.27A1.19,1.19,0,0,0,15.87,15.74Z"/></svg>