<svg id="Layer_1" data-name="Layer 1" xmlns="http://www.w3.org/2000/svg" viewBox="0 0 22 22"><defs><style>.cls-1{fill:#fd6363;opacity:0.5;}.cls-2,.cls-3{fill:none;stroke-linecap:round;stroke-linejoin:round;stroke-width:1.5px;}.cls-2{stroke:#808998;}.cls-3{stroke:#fd6363;}</style></defs><title>ExportExcel-hover</title><path class="cls-1" d="M20.15,11.42a1,1,0,0,0,0-.84.88.88,0,0,0-.24-.36L15.39,5.7a1.09,1.09,0,0,0-1.55,0,1.1,1.1,0,0,0,0,1.56L16.48,9.9H8.29a1.1,1.1,0,0,0,0,2.2h8.19l-2.64,2.64a1.1,1.1,0,0,0,.78,1.88,1.09,1.09,0,0,0,.77-.32l4.53-4.52s0,0,0,0A1.11,1.11,0,0,0,20.15,11.42Z"/><path class="cls-2" d="M8.29,19.14H4.67a1.81,1.81,0,0,1-1.81-1.81V4.67A1.81,1.81,0,0,1,4.67,2.86H8.29"/><polyline class="cls-3" points="14.62 15.52 19.14 11 14.62 6.48"/><line class="cls-3" x1="19.14" y1="11" x2="8.29" y2="11"/></svg>