<svg id="Layer_1" data-name="Layer 1" xmlns="http://www.w3.org/2000/svg" viewBox="0 0 22 22"><defs><style>.cls-1{opacity:0.5;}.cls-2,.cls-4{fill:#808998;}.cls-2,.cls-3{stroke:#fd6363;stroke-miterlimit:10;stroke-width:0.5px;}.cls-3{fill:none;}.cls-3,.cls-6{fill-rule:evenodd;}.cls-5,.cls-6{fill:#fd6363;}</style></defs><title>FillForm-hover</title><g class="cls-1"><path class="cls-2" d="M13.2,12.56H5.83a.64.64,0,0,1-.64-.64.64.64,0,0,1,.64-.63H13.2a.63.63,0,0,1,.63.63A.64.64,0,0,1,13.2,12.56Z"/></g><g class="cls-1"><path class="cls-2" d="M13.2,16.24H5.83a.64.64,0,1,1,0-1.27H13.2a.64.64,0,0,1,0,1.27Z"/></g><g class="cls-1"><path class="cls-2" d="M7.67,8.87H5.83a.64.64,0,0,1-.64-.63.64.64,0,0,1,.64-.64H7.67a.64.64,0,0,1,.63.64A.63.63,0,0,1,7.67,8.87Z"/></g><g class="cls-1"><path class="cls-3" d="M14.22,18.24A3.49,3.49,0,0,1,14.64,16c1.26-2,2.42-4.12,3.63-6.19l.22-.37,1.2.69-.23.43c-1.17,2-2.38,4-3.51,6.1A3.41,3.41,0,0,1,14.22,18.24Z"/><path class="cls-3" d="M20.49,8.91,20,9.73,18.81,9l.48-.81Z"/></g><path class="cls-4" d="M16.88,8H11.35a.63.63,0,0,1-.63-.63V1.79a.63.63,0,0,1,.63-.63.64.64,0,0,1,.64.63V6.68h4.89a.64.64,0,0,1,.63.64A.63.63,0,0,1,16.88,8Z"/><path class="cls-5" d="M13.2,12.56H5.83a.64.64,0,0,1-.64-.64.64.64,0,0,1,.64-.63H13.2a.63.63,0,0,1,.63.63A.64.64,0,0,1,13.2,12.56Z"/><path class="cls-5" d="M13.2,16.24H5.83a.64.64,0,1,1,0-1.27H13.2a.64.64,0,0,1,0,1.27Z"/><path class="cls-5" d="M7.67,8.87H5.83a.64.64,0,0,1-.64-.63.64.64,0,0,1,.64-.64H7.67a.64.64,0,0,1,.63.64A.63.63,0,0,1,7.67,8.87Z"/><path class="cls-6" d="M14.22,18.24A3.49,3.49,0,0,1,14.64,16c1.26-2,2.42-4.12,3.63-6.19l.22-.37,1.2.69-.23.43c-1.17,2-2.38,4-3.51,6.1A3.41,3.41,0,0,1,14.22,18.24Z"/><path class="cls-6" d="M20.49,8.91,20,9.73,18.81,9l.48-.81Z"/><path class="cls-4" d="M16.25,18.37A1.22,1.22,0,0,1,15,19.58H4a1.21,1.21,0,0,1-1.21-1.21V3.63A1.21,1.21,0,0,1,4,2.42h7.1l5.16,5.16V9.71h1.26V7.32a.63.63,0,0,0-.18-.45L11.8,1.34a.63.63,0,0,0-.45-.18H4A2.48,2.48,0,0,0,1.51,3.63V18.37A2.48,2.48,0,0,0,4,20.84H15a2.48,2.48,0,0,0,2.47-2.47v-.75l-1.26.66Z"/></svg>