<svg id="Layer_1" data-name="Layer 1" xmlns="http://www.w3.org/2000/svg" viewBox="0 0 22 22"><defs><style>.cls-1,.cls-2{fill:none;stroke-linecap:round;stroke-linejoin:round;stroke-width:1.5px;}.cls-1{stroke:#808998;}.cls-2{stroke:#00a1e4;}</style></defs><title>SAPFileupload-hover</title><path class="cls-1" d="M13,.93H5a2,2,0,0,0-2,2V19.06a2,2,0,0,0,2,2H17a2,2,0,0,0,2-2V7Z"/><polyline class="cls-1" points="13.01 0.93 13.01 6.97 19.06 6.97"/><path class="cls-2" d="M14.16,14.82v1.41a.71.71,0,0,1-.7.7H8.54a.71.71,0,0,1-.7-.7V14.82"/><polyline class="cls-2" points="9.25 11.28 11 9.53 12.75 11.28"/><line class="cls-2" x1="11" y1="9.53" x2="11" y2="13.74"/></svg>