<svg id="Layer_1" data-name="Layer 1" xmlns="http://www.w3.org/2000/svg" viewBox="0 0 22 22"><defs><style>.cls-1{fill:none;stroke:#808998;stroke-linecap:round;stroke-linejoin:round;stroke-width:1.5px;}.cls-2{fill:#808998;}</style></defs><title>FacebookGet</title><path class="cls-1" d="M10.44,5.87H8.36A3.46,3.46,0,0,0,4.9,9.33v2.08H2.82v2.77H4.9v5.55H7.67V14.18H9.75l.69-2.77H7.67V9.33a.69.69,0,0,1,.69-.69h2.08Z"/><path class="cls-2" d="M14.67,2.33,12.84,4.12a.22.22,0,0,0,0,.34l1.8,1.77a.24.24,0,0,0,.24,0A.23.23,0,0,0,15,6.06l0-1.08H19a.23.23,0,0,0,.23-.23V3.83A.23.23,0,0,0,19,3.6h-3.9V2.5a.23.23,0,0,0-.14-.21A.22.22,0,0,0,14.67,2.33Z"/></svg>