<svg id="Layer_1" data-name="Layer 1" xmlns="http://www.w3.org/2000/svg" viewBox="0 0 22 22"><defs><style>.cls-1{fill:#808998;stroke-width:0.5px;fill-rule:evenodd;}.cls-1,.cls-2{stroke:#808998;stroke-linecap:round;stroke-linejoin:round;}.cls-2{fill:none;stroke-width:1.5px;}</style></defs><title>Classify</title><path class="cls-1" d="M19.26,19.24c-.08-.08-.16-.08-.24-.16l-1.15-1.14-.08-.08a3.22,3.22,0,0,1-.57.32,4.16,4.16,0,0,1-1.95.41,2.72,2.72,0,0,1-1.39-.41,2.36,2.36,0,0,1-1-.81,3.18,3.18,0,0,1-.9-1.88,3.61,3.61,0,0,1,.66-2.6,4.1,4.1,0,0,1,1.79-1.31,4.37,4.37,0,0,1,1.39-.16,3.12,3.12,0,0,1,1.71.65A3.06,3.06,0,0,1,18.85,14a3.4,3.4,0,0,1-.57,3.17v.09l.08.08,1.14,1.14a.42.42,0,0,1-.16.73h0A.08.08,0,0,1,19.26,19.24ZM18.2,15.09a1.58,1.58,0,0,0-.08-.57,2.42,2.42,0,0,0-1.06-1.72,2.42,2.42,0,0,0-2.45-.32,2.66,2.66,0,0,0-1.71,3.26A3,3,0,0,0,14,17.29a2.7,2.7,0,0,0,1.79.49,2.91,2.91,0,0,0,1.8-.9A2.33,2.33,0,0,0,18.2,15.09Z"/><rect class="cls-2" x="12.12" y="1.79" width="7" height="6.47" rx="0.75"/><rect class="cls-2" x="2.18" y="1.79" width="7" height="6.47" rx="0.75"/><rect class="cls-2" x="2.15" y="12.47" width="7" height="6.47" rx="0.75"/></svg>