<svg id="Layer_1" data-name="Layer 1" xmlns="http://www.w3.org/2000/svg" viewBox="0 0 22 22"><defs><style>.cls-1{opacity:0.5;}.cls-2,.cls-3{fill:none;stroke:#fd6363;stroke-linecap:round;stroke-linejoin:round;}.cls-2{stroke-width:2.2px;}.cls-3{stroke-width:1.5px;}</style></defs><title>Entity-hover</title><g class="cls-1"><polyline class="cls-2" points="13.42 5.05 15.46 5.05 15.46 8.96"/><polyline class="cls-2" points="8.58 2.91 4.03 2.91 4.03 7.09"/><polyline class="cls-2" points="13.42 18.72 15.46 18.72 15.46 14.81"/><polyline class="cls-2" points="8.86 16.95 5.14 16.95 5.14 13.04"/><polygon class="cls-2" points="15.46 8.86 19.27 8.86 19.37 15.46 15.37 15.46 15.46 8.86"/><polygon class="cls-2" points="8.96 14.35 13.23 14.35 13.23 20.2 8.96 20.2 8.96 14.35"/><polygon class="cls-2" points="2.63 7.19 6.17 7.19 6.26 13.04 2.63 13.04 2.63 7.19"/><polygon class="cls-2" points="8.86 1.8 13.14 1.8 13.14 6.54 8.86 6.54 8.86 1.8"/></g><polyline class="cls-3" points="13.42 5.05 15.46 5.05 15.46 8.96"/><polyline class="cls-3" points="8.58 2.91 4.03 2.91 4.03 7.09"/><polyline class="cls-3" points="13.42 18.72 15.46 18.72 15.46 14.81"/><polyline class="cls-3" points="8.86 16.95 5.14 16.95 5.14 13.04"/><polygon class="cls-3" points="15.46 8.86 19.27 8.86 19.37 15.46 15.37 15.46 15.46 8.86"/><polygon class="cls-3" points="8.96 14.35 13.23 14.35 13.23 20.2 8.96 20.2 8.96 14.35"/><polygon class="cls-3" points="2.63 7.19 6.17 7.19 6.26 13.04 2.63 13.04 2.63 7.19"/><polygon class="cls-3" points="8.86 1.8 13.14 1.8 13.14 6.54 8.86 6.54 8.86 1.8"/></svg>