<svg id="Layer_1" data-name="Layer 1" xmlns="http://www.w3.org/2000/svg" viewBox="0 0 22 22"><defs><style>.cls-1{fill:none;stroke:#808998;}.cls-1,.cls-3{stroke-miterlimit:10;}.cls-2{fill:#808998;}.cls-3{fill:#00a1e4;stroke:#00a1e4;stroke-width:0.2px;}</style></defs><title>EntityValidation-hover</title><circle class="cls-1" cx="15.78" cy="8.79" r="0.89"/><path class="cls-2" d="M18,4.1H4A2.16,2.16,0,0,0,1.88,6.22v5A2.16,2.16,0,0,0,4,13.3h7.43A3.23,3.23,0,0,1,11.71,12H4a.79.79,0,0,1-.8-.79v-5a.8.8,0,0,1,.8-.8H18a.8.8,0,0,1,.8.8v4.43a3.77,3.77,0,0,1,1,1.77,1.77,1.77,0,0,0,.36-1.15v-5A2.16,2.16,0,0,0,18,4.1Z"/><path class="cls-2" d="M15.69,17.9a4.34,4.34,0,0,1-4.33-4.33,4.33,4.33,0,1,1,4.33,4.33Zm0-7.4a3,3,0,1,0,3,3A3,3,0,0,0,15.69,10.5Z"/><circle class="cls-1" cx="5.95" cy="8.7" r="0.89"/><circle class="cls-1" cx="10.82" cy="8.79" r="0.89"/><path class="cls-3" d="M15.24,15.37c-.09,0-.18-.09-.27-.18l-.9-1.26a.39.39,0,1,1,.63-.45l.63.81,1.53-2.44c.09-.18.37-.18.55-.09a.31.31,0,0,1,.09.45L15.69,15.1c-.27.18-.36.27-.45.27Z"/></svg>