<svg id="Layer_1" data-name="Layer 1" xmlns="http://www.w3.org/2000/svg" viewBox="0 0 22 22"><defs><style>.cls-1,.cls-2{fill:#fd6363;}.cls-1{opacity:0.5;}.cls-2,.cls-4{stroke:#fd6363;}.cls-2,.cls-3,.cls-4{stroke-linecap:round;stroke-linejoin:round;stroke-width:1.5px;}.cls-3,.cls-4{fill:none;}.cls-3{stroke:#808998;}</style></defs><title>Match-hover</title><path class="cls-1" d="M18.7,7.1H17.26a1.08,1.08,0,0,0-.18-1.28,1.1,1.1,0,0,0-1.56,0l-1.6,1.6a1.11,1.11,0,0,0,0,1.56l1.6,1.6a1.11,1.11,0,0,0,1.56,0,1.08,1.08,0,0,0,.18-1.28H18.7a1.1,1.1,0,1,0,0-2.2Z"/><path class="cls-1" d="M8.08,7.32l-1.6-1.6a1.1,1.1,0,0,0-1.56,0A1.09,1.09,0,0,0,4.74,7H3.3a1.1,1.1,0,1,0,0,2.2H4.73a1.11,1.11,0,0,0,.19,1.28,1.11,1.11,0,0,0,1.56,0l1.6-1.6a1.11,1.11,0,0,0,0-1.56Z"/><polyline class="cls-2" points="16.3 6.6 14.7 8.2 16.3 9.8"/><line class="cls-2" x1="14.7" y1="8.2" x2="18.7" y2="8.2"/><polygon class="cls-3" points="12 2.7 12 19.4 17.8 19.4 17.8 13.6 21 13.6 21 2.7 12 2.7"/><polyline class="cls-4" points="5.7 9.7 7.3 8.1 5.7 6.5"/><line class="cls-4" x1="3.3" y1="8.1" x2="7.3" y2="8.1"/><polygon class="cls-3" points="10 2.6 10 19.3 4.2 19.3 4.2 13.6 1 13.6 1 2.6 10 2.6"/></svg>