<svg id="Layer_1" data-name="Layer 1" xmlns="http://www.w3.org/2000/svg" viewBox="0 0 22 22"><defs><style>.cls-1{fill:#808998;}</style></defs><title>Sentiment</title><path d="M6,12.25A5.65,5.65,0,1,1,11.65,6.6,5.65,5.65,0,0,1,6,12.25Zm0-10A4.35,4.35,0,1,0,10.35,6.6,4.35,4.35,0,0,0,6,2.25Z"/><path d="M6,9.25A3.52,3.52,0,0,1,3.49,8a.66.66,0,0,1,.1-.92.65.65,0,0,1,.91.1h0A2.22,2.22,0,0,0,6,8a2.16,2.16,0,0,0,1.49-.76.65.65,0,1,1,1,.82A3.52,3.52,0,0,1,6,9.25Z"/><path d="M4.5,5.75a.65.65,0,0,1-.65-.65.7.7,0,0,1,0-.25A.6.6,0,0,1,4,4.64a.66.66,0,0,1,.71-.14.64.64,0,0,1,.35.35.56.56,0,0,1,.05.25A.66.66,0,0,1,5,5.56.64.64,0,0,1,4.5,5.75Z"/><path d="M7.5,5.75a.74.74,0,0,1-.25,0A.6.6,0,0,1,7,5.56a.66.66,0,0,1-.19-.46.74.74,0,0,1,.05-.25.64.64,0,0,1,.35-.35A.66.66,0,0,1,8,4.64a.6.6,0,0,1,.14.21.7.7,0,0,1,.05.25.65.65,0,0,1-.65.65Z"/><path d="M16,21.05a5.65,5.65,0,1,1,5.65-5.65A5.66,5.66,0,0,1,16,21.05Zm0-10a4.35,4.35,0,1,0,4.35,4.35A4.35,4.35,0,0,0,16,11.05Z"/><path d="M18,18.05a.65.65,0,0,1-.51-.24A2.14,2.14,0,0,0,16,17.05a2.16,2.16,0,0,0-1.49.76.65.65,0,0,1-1-.82A3.52,3.52,0,0,1,16,15.75,3.52,3.52,0,0,1,18.51,17a.66.66,0,0,1-.1.92A.7.7,0,0,1,18,18.05Z"/><path d="M14.5,14.55a.65.65,0,1,1,.25-1.25.6.6,0,0,1,.21.14.66.66,0,0,1,.19.46.7.7,0,0,1-.05.25.64.64,0,0,1-.35.35A.53.53,0,0,1,14.5,14.55Z"/><path d="M17.5,14.55a.66.66,0,0,1-.46-.19.6.6,0,0,1-.14-.21.7.7,0,0,1,0-.25.66.66,0,0,1,.19-.46.68.68,0,0,1,.92,0,.66.66,0,0,1,.19.46.7.7,0,0,1,0,.25.6.6,0,0,1-.14.21A.66.66,0,0,1,17.5,14.55Z"/><path class="cls-1" d="M6,12.35A5.75,5.75,0,1,1,11.75,6.6,5.76,5.76,0,0,1,6,12.35Zm0-10A4.25,4.25,0,1,0,10.25,6.6,4.26,4.26,0,0,0,6,2.35Z"/><path class="cls-1" d="M6,9.35A3.65,3.65,0,0,1,3.41,8.07a.75.75,0,1,1,1.17-.94A2.1,2.1,0,0,0,6,7.85a2,2,0,0,0,1.41-.72.75.75,0,1,1,1.18.94A3.65,3.65,0,0,1,6,9.35Z"/><path class="cls-1" d="M4.5,5.85a.75.75,0,0,1-.29-.06A.63.63,0,0,1,4,5.63a.74.74,0,0,1-.16-.82A.75.75,0,0,1,5,4.57a.81.81,0,0,1,.17.24,1,1,0,0,1,0,.29A.75.75,0,0,1,5,5.63a.63.63,0,0,1-.24.16A.72.72,0,0,1,4.5,5.85Z"/><path class="cls-1" d="M7.5,5.85a.75.75,0,0,1-.69-1A.75.75,0,0,1,8,4.57a.63.63,0,0,1,.16.24A.74.74,0,0,1,8,5.63a.63.63,0,0,1-.24.16A.72.72,0,0,1,7.5,5.85Z"/><path class="cls-1" d="M16,21.15a5.75,5.75,0,1,1,5.75-5.75A5.76,5.76,0,0,1,16,21.15Zm0-10a4.25,4.25,0,1,0,4.25,4.25A4.26,4.26,0,0,0,16,11.15Z"/><path class="cls-1" d="M18,18.15a.75.75,0,0,1-.58-.28A2.13,2.13,0,0,0,16,17.15a2.08,2.08,0,0,0-1.42.72.75.75,0,0,1-1.17-.94A3.65,3.65,0,0,1,16,15.65a3.65,3.65,0,0,1,2.59,1.28A.75.75,0,0,1,18,18.15Z"/><path class="cls-1" d="M14.5,14.65a.75.75,0,0,1-.29-.06.63.63,0,0,1-.24-.16.75.75,0,0,1,0-1.06.77.77,0,0,1,1.06,0,.63.63,0,0,1,.16.24.74.74,0,0,1-.16.82.63.63,0,0,1-.24.16A.72.72,0,0,1,14.5,14.65Z"/><path class="cls-1" d="M17.5,14.65a.75.75,0,0,1-.29-.06.63.63,0,0,1-.24-.16.75.75,0,0,1,.82-1.22.78.78,0,0,1,.24.16.63.63,0,0,1,.16.24.74.74,0,0,1-.16.82.63.63,0,0,1-.24.16A.72.72,0,0,1,17.5,14.65Z"/></svg>