<svg id="Layer_1" data-name="Layer 1" xmlns="http://www.w3.org/2000/svg" viewBox="0 0 22 22"><defs><style>.cls-1{fill:#808998;}.cls-2{fill:#00a1e4;}</style></defs><title>Linux-Execute-hover</title><path class="cls-1" d="M18.68,20H3A2.23,2.23,0,0,1,.74,17.77V4.44A2.23,2.23,0,0,1,3,2.2H18.68a2.23,2.23,0,0,1,2.23,2.24V17.77A2.23,2.23,0,0,1,18.68,20ZM3,2.87A1.57,1.57,0,0,0,1.4,4.44V17.77A1.58,1.58,0,0,0,3,19.34H18.68a1.58,1.58,0,0,0,1.57-1.57V4.44a1.57,1.57,0,0,0-1.57-1.57Z"/><path class="cls-1" d="M18.67,20.25H3A2.48,2.48,0,0,1,.49,17.77V4.44A2.49,2.49,0,0,1,3,2h15.7a2.49,2.49,0,0,1,2.49,2.49V17.77A2.48,2.48,0,0,1,18.67,20.25ZM3,2.45a2,2,0,0,0-2,2V17.77a2,2,0,0,0,2,2h15.7a2,2,0,0,0,2-2V4.44a2,2,0,0,0-2-2Zm15.7,17.14H3a1.83,1.83,0,0,1-1.82-1.82V4.44A1.82,1.82,0,0,1,3,2.62h15.7A1.82,1.82,0,0,1,20.5,4.44V17.77A1.83,1.83,0,0,1,18.67,19.59ZM3,3.12A1.32,1.32,0,0,0,1.65,4.44V17.77A1.33,1.33,0,0,0,3,19.09h15.7A1.33,1.33,0,0,0,20,17.77V4.44a1.33,1.33,0,0,0-1.33-1.32Z"/><path class="cls-1" d="M20.58,7.54H1.07a.34.34,0,0,1,0-.67H20.58a.34.34,0,0,1,0,.67Z"/><path class="cls-1" d="M20.58,7.78H1.07a.58.58,0,0,1,0-1.16H20.58a.58.58,0,0,1,0,1.16ZM1.07,7.12A.08.08,0,0,0,1,7.2a.07.07,0,0,0,.08.08H20.58a.07.07,0,0,0,.08-.08.09.09,0,0,0-.08-.08Z"/><path class="cls-1" d="M3.66,5.84A.86.86,0,1,1,4.52,5,.85.85,0,0,1,3.66,5.84Zm0-1.18A.32.32,0,0,0,3.34,5a.32.32,0,0,0,.32.32A.33.33,0,0,0,4,5,.32.32,0,0,0,3.66,4.66Z"/><path class="cls-1" d="M6,5.84A.86.86,0,1,1,6.81,5,.86.86,0,0,1,6,5.84ZM6,4.66A.31.31,0,0,0,5.64,5a.32.32,0,1,0,.63,0A.32.32,0,0,0,6,4.66Z"/><path class="cls-1" d="M8.22,5.84A.86.86,0,1,1,9.08,5,.85.85,0,0,1,8.22,5.84Zm0-1.18A.32.32,0,0,0,7.9,5a.32.32,0,1,0,.63,0A.31.31,0,0,0,8.22,4.66Z"/><path class="cls-1" d="M13.53,9.07l.25,0a1.56,1.56,0,0,1,1.13,1.28,1.66,1.66,0,0,1,0,.32v1.15a.38.38,0,1,1-.76,0v-1a1,1,0,0,0-.6-.93.8.8,0,0,0-.34-.07H9.44a1,1,0,0,0-.93.86s0,.11,0,.16c0,1.72,0,3.44,0,5.15a1,1,0,0,0,.71,1l.24,0h.37a.4.4,0,0,1,.39.36.42.42,0,0,1-.31.43H9.12a1.25,1.25,0,0,1-.46-.12,1.57,1.57,0,0,1-.91-1.5c0-1.85,0-3.7,0-5.54a1.75,1.75,0,0,1,0-.46A1.55,1.55,0,0,1,8.92,9.11l.23,0Z"/><path class="cls-2" d="M12.26,14c.05-.13.09-.26.13-.39s.07-.1.15-.07.14,0,.2-.08a.29.29,0,0,0,0-.43l.4-.29,0,0c.06.05.11.15.17.15a.74.74,0,0,0,.28-.08.17.17,0,0,0,.06-.14c0-.1,0-.13.14-.13l.31,0s.06.06.08.1,0,.15.06.17a.46.46,0,0,0,.26.11c.07,0,.13-.1.21-.16l.3.25c.07,0,.08.11,0,.2s-.09.12,0,.2.1.24.26.18.12,0,.14.08,0,.13,0,.2.05.21-.12.32-.1.32,0,.36.14.14.09.26a1,1,0,0,0-.05.16c0,.13-.1.22-.25.16s-.15.08-.2.14a.22.22,0,0,0,0,.14.71.71,0,0,0,.07.16l-.42.31a.22.22,0,0,1-.07-.07c-.12-.12-.18-.14-.33,0a.29.29,0,0,0-.07.16c0,.09-.05.12-.12.12h-.24c-.13,0-.21,0-.2-.19a.15.15,0,0,0-.08-.11c-.08,0-.16-.12-.25,0a1.85,1.85,0,0,1-.14.14l-.4-.31s0,0,0-.06c.1-.22.11-.22-.06-.41a.16.16,0,0,0-.12,0c-.11,0-.18,0-.2-.12l-.06-.17c-.05-.13-.06-.24.1-.29s.05-.07.07-.11,0-.07,0-.1a.2.2,0,0,0-.14-.25Zm1.66-.51a.8.8,0,0,0-.8.82.8.8,0,1,0,1.59,0A.81.81,0,0,0,13.92,13.49Z"/><path class="cls-2" d="M11,17.19l-.24-.27c0-.1.15-.16,0-.26s-.08-.07-.12-.07-.12,0-.12-.11l0-.18c0-.08,0-.12.08-.14s.13-.22.05-.27-.09-.13-.05-.21.07-.14.12-.22a.16.16,0,0,0,.27-.07s0-.06,0-.08,0-.18.11-.23l.16-.07c.16.19.3.17.4-.07l.19,0c.1,0,.18,0,.17.17s.18.17.25.13l.1-.08.23.26c-.12.25-.08.36.17.41a.8.8,0,0,1,0,.15,1.47,1.47,0,0,1,0,.21c-.09,0-.19.06-.18.2s0,.1,0,.11a.12.12,0,0,1,0,.18,1,1,0,0,1-.1.17.09.09,0,0,1-.07.05c-.25,0-.27,0-.23.27l-.2.12c-.08,0-.14.05-.19,0s-.21-.06-.22,0-.13.13-.23.12-.21,0-.19-.19-.13-.13-.2-.1Zm.69-.71a.31.31,0,0,0,0-.62.31.31,0,0,0-.3.3A.3.3,0,0,0,11.73,16.48Z"/></svg>