<svg id="Layer_1" data-name="Layer 1" xmlns="http://www.w3.org/2000/svg" viewBox="0 0 22 22"><defs><style>.cls-1{fill:#808998;}.cls-2{fill:#00a1e4;}</style></defs><title>Linux-Sudo copy 2</title><path class="cls-1" d="M18.68,20H3A2.23,2.23,0,0,1,.74,17.77V4.44A2.23,2.23,0,0,1,3,2.2H18.68a2.23,2.23,0,0,1,2.23,2.24V17.77A2.23,2.23,0,0,1,18.68,20ZM3,2.87A1.57,1.57,0,0,0,1.4,4.44V17.77A1.58,1.58,0,0,0,3,19.34H18.68a1.58,1.58,0,0,0,1.57-1.57V4.44a1.57,1.57,0,0,0-1.57-1.57Z"/><path class="cls-1" d="M18.67,20.25H3A2.48,2.48,0,0,1,.49,17.77V4.44A2.49,2.49,0,0,1,3,2h15.7a2.49,2.49,0,0,1,2.49,2.49V17.77A2.48,2.48,0,0,1,18.67,20.25ZM3,2.45a2,2,0,0,0-2,2V17.77a2,2,0,0,0,2,2h15.7a2,2,0,0,0,2-2V4.44a2,2,0,0,0-2-2Zm15.7,17.14H3a1.83,1.83,0,0,1-1.82-1.82V4.44A1.82,1.82,0,0,1,3,2.62h15.7A1.82,1.82,0,0,1,20.5,4.44V17.77A1.83,1.83,0,0,1,18.67,19.59ZM3,3.12A1.32,1.32,0,0,0,1.65,4.44V17.77A1.33,1.33,0,0,0,3,19.09h15.7A1.33,1.33,0,0,0,20,17.77V4.44a1.33,1.33,0,0,0-1.33-1.32Z"/><path class="cls-1" d="M20.58,7.54H1.07a.34.34,0,0,1,0-.67H20.58a.34.34,0,0,1,0,.67Z"/><path class="cls-1" d="M20.58,7.78H1.07a.58.58,0,0,1,0-1.16H20.58a.58.58,0,0,1,0,1.16ZM1.07,7.12A.08.08,0,0,0,1,7.2a.07.07,0,0,0,.08.08H20.58a.07.07,0,0,0,.08-.08.09.09,0,0,0-.08-.08Z"/><path class="cls-1" d="M3.66,5.84A.86.86,0,1,1,4.52,5,.85.85,0,0,1,3.66,5.84Zm0-1.18A.32.32,0,0,0,3.34,5a.32.32,0,0,0,.32.32A.33.33,0,0,0,4,5,.32.32,0,0,0,3.66,4.66Z"/><path class="cls-1" d="M6,5.84A.86.86,0,1,1,6.81,5,.86.86,0,0,1,6,5.84ZM6,4.66A.31.31,0,0,0,5.64,5a.32.32,0,1,0,.63,0A.32.32,0,0,0,6,4.66Z"/><path class="cls-1" d="M8.22,5.84A.86.86,0,1,1,9.08,5,.85.85,0,0,1,8.22,5.84Zm0-1.18A.32.32,0,0,0,7.9,5a.32.32,0,1,0,.63,0A.31.31,0,0,0,8.22,4.66Z"/><path class="cls-1" d="M7,11.56l-2.56-1V9.82l3.31,1.46v.57L4.42,13.32v-.75Z"/><path class="cls-1" d="M10.85,16.94a.19.19,0,0,0,0-.07,4.41,4.41,0,0,1-.28-.39l.1-.26.48-.08a.1.1,0,0,0,0,0,.09.09,0,0,0,0-.07V15.4a.07.07,0,0,0,0-.06.07.07,0,0,0,0,0l-.48-.08c0-.08-.06-.17-.1-.28l.14-.2.13-.19a.14.14,0,0,0,0-.06c0-.06-.15-.25-.45-.55a.09.09,0,0,0-.07,0l-.06,0-.37.3a.89.89,0,0,0-.23-.1l-.08-.53a.09.09,0,0,0,0-.06l-.06,0H8.91a.11.11,0,0,0-.1.08,4.64,4.64,0,0,0-.07.53,1.33,1.33,0,0,0-.24.1l-.36-.3a.11.11,0,0,0-.07,0s-.12.07-.25.2a2.78,2.78,0,0,0-.25.31.09.09,0,0,0,0,.07.13.13,0,0,0,0,.07c.11.15.21.28.28.39a1.06,1.06,0,0,0-.1.26l-.49.08s0,0,0,0a.14.14,0,0,0,0,.06V16a.14.14,0,0,0,0,.07.07.07,0,0,0,.06,0l.47.08a2,2,0,0,0,.11.28l-.15.21-.12.18a.13.13,0,0,0,0,.07c0,.06.15.24.46.54a.09.09,0,0,0,.06,0,.08.08,0,0,0,.06,0l.37-.31a1.22,1.22,0,0,0,.24.11l.07.52a.07.07,0,0,0,0,.06.09.09,0,0,0,.07,0h.58a.09.09,0,0,0,.09-.08,4.78,4.78,0,0,0,.08-.53l.24-.11.36.31.06,0s.13-.07.25-.2.21-.24.26-.31A.08.08,0,0,0,10.85,16.94Zm-1.08-.61a.75.75,0,0,1-1.14,0,.88.88,0,0,1-.24-.62.89.89,0,0,1,.24-.62.77.77,0,0,1,1.14,0,.93.93,0,0,1,.23.62A.91.91,0,0,1,9.77,16.33Z"/><path class="cls-1" d="M12.75,17.12a.77.77,0,0,0-.1-.18,2,2,0,0,0,.16-.47,0,0,0,0,0,0,0l-.39-.24h0a4,4,0,0,0-.29.38h-.19a2.65,2.65,0,0,0-.16-.23.94.94,0,0,0-.14-.16l-.1.06-.18.11-.11.07a0,0,0,0,0,0,0,2,2,0,0,0,.16.47.77.77,0,0,0-.1.18c-.31,0-.47.07-.47.1v.48s.16.07.47.11a1,1,0,0,0,.1.17,2,2,0,0,0-.16.47,0,0,0,0,0,0,0l.39.24a.61.61,0,0,0,.14-.16,1.66,1.66,0,0,0,.16-.23h.19l.17.23c.08.11.12.16.14.16l.39-.24a0,0,0,0,0,0,0,2,2,0,0,0-.16-.47,1,1,0,0,0,.1-.17c.31,0,.46-.07.46-.11v-.48S13.06,17.15,12.75,17.12Zm-.46.65a.35.35,0,0,1-.28.13.37.37,0,0,1-.29-.13.49.49,0,0,1-.11-.31.45.45,0,0,1,.12-.31.37.37,0,0,1,.56,0,.46.46,0,0,1,0,.62Z"/><path class="cls-1" d="M12.75,13.62a.77.77,0,0,0-.1-.18,1.72,1.72,0,0,0,.16-.47s0,0,0,0l-.39-.24h0a4,4,0,0,0-.29.38h-.19a1.22,1.22,0,0,0-.16-.23.61.61,0,0,0-.14-.16l-.1,0-.18.12-.11.07s0,0,0,0a1.72,1.72,0,0,0,.16.47.77.77,0,0,0-.1.18c-.31,0-.47.07-.47.11v.47s.16.08.47.11a1.62,1.62,0,0,0,.1.18,1.72,1.72,0,0,0-.16.47s0,0,0,0l.39.24a.61.61,0,0,0,.14-.16,1.22,1.22,0,0,0,.16-.23h.19l.17.23c.08.11.12.16.14.16L12.8,15s0,0,0,0a1.72,1.72,0,0,0-.16-.47,1.62,1.62,0,0,0,.1-.18c.31,0,.46-.07.46-.11v-.47S13.06,13.65,12.75,13.62Zm-.46.65a.35.35,0,0,1-.28.13.37.37,0,0,1-.29-.13.44.44,0,0,1-.11-.3.43.43,0,0,1,.12-.31.37.37,0,0,1,.56,0,.43.43,0,0,1,.12.31A.41.41,0,0,1,12.29,14.27Z"/><path class="cls-2" d="M14.63,8.67,12.75,10.5a.24.24,0,0,0,0,.36l1.85,1.8a.23.23,0,0,0,.25,0,.23.23,0,0,0,.13-.21l0-1.11h4a.23.23,0,0,0,.23-.23v-.94A.23.23,0,0,0,19,10H15V8.85a.22.22,0,0,0-.13-.21A.23.23,0,0,0,14.63,8.67Z"/></svg>