<svg id="Layer_1" data-name="Layer 1" xmlns="http://www.w3.org/2000/svg" viewBox="0 0 22 22"><defs><style>.cls-1,.cls-2{fill:#808998;}.cls-2{stroke:#808998;stroke-miterlimit:10;stroke-width:0.3px;}</style></defs><title>Linux-Shell</title><path class="cls-1" d="M18.68,20H3A2.23,2.23,0,0,1,.74,17.77V4.44A2.23,2.23,0,0,1,3,2.2H18.68a2.23,2.23,0,0,1,2.23,2.24V17.77A2.23,2.23,0,0,1,18.68,20ZM3,2.87A1.57,1.57,0,0,0,1.4,4.44V17.77A1.58,1.58,0,0,0,3,19.34H18.68a1.58,1.58,0,0,0,1.57-1.57V4.44a1.57,1.57,0,0,0-1.57-1.57Z"/><path class="cls-1" d="M18.67,20.25H3A2.48,2.48,0,0,1,.49,17.77V4.44A2.49,2.49,0,0,1,3,2h15.7a2.49,2.49,0,0,1,2.49,2.49V17.77A2.48,2.48,0,0,1,18.67,20.25ZM3,2.45a2,2,0,0,0-2,2V17.77a2,2,0,0,0,2,2h15.7a2,2,0,0,0,2-2V4.44a2,2,0,0,0-2-2Zm15.7,17.14H3a1.83,1.83,0,0,1-1.82-1.82V4.44A1.82,1.82,0,0,1,3,2.62h15.7A1.82,1.82,0,0,1,20.5,4.44V17.77A1.83,1.83,0,0,1,18.67,19.59ZM3,3.12A1.32,1.32,0,0,0,1.65,4.44V17.77A1.33,1.33,0,0,0,3,19.09h15.7A1.33,1.33,0,0,0,20,17.77V4.44a1.33,1.33,0,0,0-1.33-1.32Z"/><path class="cls-1" d="M20.58,7.54H1.07a.34.34,0,0,1,0-.67H20.58a.34.34,0,0,1,0,.67Z"/><path class="cls-1" d="M20.58,7.78H1.07a.58.58,0,0,1,0-1.16H20.58a.58.58,0,0,1,0,1.16ZM1.07,7.12A.08.08,0,0,0,1,7.2a.07.07,0,0,0,.08.08H20.58a.07.07,0,0,0,.08-.08.09.09,0,0,0-.08-.08Z"/><path class="cls-1" d="M3.66,5.84A.86.86,0,1,1,4.52,5,.85.85,0,0,1,3.66,5.84Zm0-1.18A.32.32,0,0,0,3.34,5a.32.32,0,0,0,.32.32A.33.33,0,0,0,4,5,.32.32,0,0,0,3.66,4.66Z"/><path class="cls-1" d="M6,5.84A.86.86,0,1,1,6.81,5,.86.86,0,0,1,6,5.84ZM6,4.66A.31.31,0,0,0,5.64,5a.32.32,0,1,0,.63,0A.32.32,0,0,0,6,4.66Z"/><path class="cls-1" d="M8.22,5.84A.86.86,0,1,1,9.08,5,.85.85,0,0,1,8.22,5.84Zm0-1.18A.32.32,0,0,0,7.9,5a.32.32,0,1,0,.63,0A.31.31,0,0,0,8.22,4.66Z"/><path class="cls-2" d="M9.92,16.61l-.07.64a.19.19,0,0,0,.05.14.2.2,0,0,0,.15.06h2.06a.2.2,0,0,0,.15-.06.18.18,0,0,0,0-.14l-.07-.64H14.8a.71.71,0,0,0,.73-.68v-4.7a.71.71,0,0,0-.73-.68H7.2a.71.71,0,0,0-.73.68v4.7a.71.71,0,0,0,.73.68Zm2,.48H10.26l.06-.48h1.52ZM7.2,10.91h7.6a.33.33,0,0,1,.34.32v4.14H6.86V11.23A.33.33,0,0,1,7.2,10.91Zm-.34,5v-.19h8.28v.19a.33.33,0,0,1-.34.32H7.2A.33.33,0,0,1,6.86,15.93Z"/><rect class="cls-2" x="6.96" y="15.75" width="8.12" height="0.66"/></svg>