<svg id="Layer_1" data-name="Layer 1" xmlns="http://www.w3.org/2000/svg" viewBox="0 0 22 22"><defs><style>.cls-1{fill:#808998;fill-rule:evenodd;}.cls-2{fill:none;stroke:#808998;stroke-linecap:round;stroke-linejoin:round;stroke-width:1.5px;}</style></defs><title>Open</title><path class="cls-1" d="M19.45,1.32h.34a2.4,2.4,0,0,1,1.9,1.91v13.2a2.23,2.23,0,0,1-.78,1.8,2.12,2.12,0,0,1-1.35.56H14.3V17.22h4.93a.85.85,0,0,0,.78-.56V6.81H2v9.62a.74.74,0,0,0,.67.79H6.91v1.57H2.77A2.74,2.74,0,0,1,1,18.11a2.66,2.66,0,0,1-.67-1.23V3.45h0a2.09,2.09,0,0,1,.22-.78,3.14,3.14,0,0,1,1.8-1.35H19.45ZM6.91,3.67V5.24H20V3.67Zm-1.56,0H4.9a.49.49,0,0,0-.45.45v.67c0,.23.23.56.45.56h.78c.12,0,.23-.11.34-.22s.11-.22.11-.45V4.23c0-.22-.22-.56-.45-.56ZM2,4.46H2v.33c0,.23.22.56.45.56h.78a.75.75,0,0,0,.56-.44V4.23a.53.53,0,0,0-.56-.56H2.66A.69.69,0,0,0,2,4Z"/><path class="cls-2" d="M6.58,20.58a4.13,4.13,0,0,0,5-3.36l.44-2.58"/><polyline class="cls-2" points="13.74 15.88 11.62 13.97 9.94 15.99"/></svg>