<svg width="27" height="23" viewBox="0 0 27 23" fill="none" xmlns="http://www.w3.org/2000/svg">
<g id="Demo">
<g id="Group 10">
<g id="Shape">
<path fill-rule="evenodd" clip-rule="evenodd" d="M2.83362 22.5536H22.7293C24.2916 22.5536 25.5629 21.2826 25.5629 19.72V2.83362C25.5629 1.27127 24.2916 0 22.7293 0H2.83362C1.27127 0 0 1.27127 0 2.83362V19.72C0 21.2826 1.27127 22.5536 2.83362 22.5536ZM0.844058 2.83362C0.844058 1.73663 1.73663 0.844058 2.83362 0.844058H22.7293C23.8263 0.844058 24.7188 1.73663 24.7188 2.83362V19.72C24.7188 20.817 23.8263 21.7095 22.7293 21.7095H2.83362C1.73663 21.7095 0.844058 20.817 0.844058 19.72V2.83362Z" fill="white"/>
<path d="M22.7293 22.0536H2.83362V23.0536H22.7293V22.0536ZM25.0629 19.72C25.0629 21.0064 24.0155 22.0536 22.7293 22.0536V23.0536C24.5677 23.0536 26.0629 21.5587 26.0629 19.72H25.0629ZM25.0629 2.83362V19.72H26.0629V2.83362H25.0629ZM22.7293 0.5C24.0155 0.5 25.0629 1.54741 25.0629 2.83362H26.0629C26.0629 0.995126 24.5678 -0.5 22.7293 -0.5V0.5ZM2.83362 0.5H22.7293V-0.5H2.83362V0.5ZM0.5 2.83362C0.5 1.54741 1.54741 0.5 2.83362 0.5V-0.5C0.995126 -0.5 -0.5 0.995126 -0.5 2.83362H0.5ZM0.5 19.72V2.83362H-0.5V19.72H0.5ZM2.83362 22.0536C1.54738 22.0536 0.5 21.0064 0.5 19.72H-0.5C-0.5 21.5587 0.995153 23.0536 2.83362 23.0536V22.0536ZM2.83362 0.344058C1.46049 0.344058 0.344058 1.46049 0.344058 2.83362H1.34406C1.34406 2.01277 2.01277 1.34406 2.83362 1.34406V0.344058ZM22.7293 0.344058H2.83362V1.34406H22.7293V0.344058ZM25.2188 2.83362C25.2188 1.46049 24.1024 0.344058 22.7293 0.344058V1.34406C23.5501 1.34406 24.2188 2.01277 24.2188 2.83362H25.2188ZM25.2188 19.72V2.83362H24.2188V19.72H25.2188ZM22.7293 22.2095C24.1024 22.2095 25.2188 21.0931 25.2188 19.72H24.2188C24.2188 20.5408 23.5501 21.2095 22.7293 21.2095V22.2095ZM2.83362 22.2095H22.7293V21.2095H2.83362V22.2095ZM0.344058 19.72C0.344058 21.0931 1.46049 22.2095 2.83362 22.2095V21.2095C2.01277 21.2095 1.34406 20.5408 1.34406 19.72H0.344058ZM0.344058 2.83362V19.72H1.34406V2.83362H0.344058Z" fill="white"/>
</g>
<path id="Path" d="M25.1409 6.75788H0.422029C0.188877 6.75788 0 6.569 0 6.33585C0 6.10293 0.188877 5.91382 0.422029 5.91382H25.1409C25.374 5.91382 25.5629 6.10293 25.5629 6.33585C25.5629 6.569 25.374 6.75788 25.1409 6.75788Z" fill="white" stroke="white"/>
</g>
<path id="Path 9" d="M8 11L12 14L8 17" stroke="white" stroke-width="2" stroke-linecap="round" stroke-linejoin="round"/>
<path id="Line 2" d="M14.5 16.5H18.5" stroke="white" stroke-width="2" stroke-linecap="round"/>
</g>
</svg>
