<svg width="148" height="35" viewBox="0 0 148 35" fill="none" xmlns="http://www.w3.org/2000/svg">
<path d="M56.8868 17.319H47.2601V25.7148H58.3266V27.1848H45.5208V6.60486H58.2562V8.07486H47.2601V15.849H56.8868V17.319Z" fill="white"/>
<path d="M62.7656 25.7148H75.477V27.1848H60.6625V25.8709L72.8705 8.07489H61.0262V6.60489H75.0189V7.83702L62.7656 25.7148Z" fill="white"/>
<path d="M90.9195 18.7751H82.7779V27.1848H78.534V6.60483H91.9364V10.0394H82.7779V15.3543H90.9195V18.7751Z" fill="white"/>
<path d="M98.4381 27.1848H94.3403V5.4747H98.4381V27.1848Z" fill="white"/>
<path d="M101.167 19.3968C101.167 17.8799 101.46 16.5277 102.048 15.3405C102.596 14.193 103.472 13.2341 104.566 12.5855C105.664 11.9344 106.938 11.6093 108.39 11.6101C110.453 11.6101 112.137 12.2415 113.443 13.5043C114.748 14.767 115.476 16.482 115.626 18.6493L115.654 19.6951C115.654 22.0444 114.999 23.9264 113.689 25.341C112.38 26.7556 110.622 27.465 108.417 27.4692C106.212 27.4692 104.453 26.7623 103.139 25.3486C101.825 23.9348 101.168 22.0125 101.167 19.5818V19.3968ZM105.252 19.6863C105.252 21.1404 105.525 22.2517 106.071 23.0202C106.618 23.7888 107.4 24.1735 108.417 24.1743C109.406 24.1743 110.179 23.7942 110.736 23.0341C111.292 22.2739 111.57 21.0573 111.57 19.3843C111.57 17.9579 111.292 16.8537 110.736 16.0717C110.179 15.2897 109.397 14.8983 108.39 14.8975C107.39 14.8975 106.618 15.2868 106.071 16.0654C105.525 16.8441 105.252 18.051 105.252 19.6863Z" fill="white"/>
<path d="M131.47 21.6295L133.484 11.8921H137.427L133.525 27.1848H130.106L127.211 17.5594L124.317 27.1848H120.898L116.997 11.8921H120.94L122.933 21.6157L125.73 11.8921H128.684L131.47 21.6295Z" fill="white"/>
<path d="M142.516 7.52928e-07C143.524 -0.000546908 144.509 0.297684 145.346 0.856964C146.184 1.41624 146.837 2.21145 147.223 3.14197C147.609 4.0725 147.71 5.09654 147.514 6.08455C147.317 7.07256 146.832 7.98015 146.12 8.6925C145.408 9.40484 144.5 9.88995 143.512 10.0864C142.525 10.2829 141.5 10.182 140.57 9.79637C139.639 9.41075 138.844 8.75778 138.285 7.92008C137.725 7.08237 137.427 6.09757 137.427 5.09024C137.428 3.74053 137.964 2.44623 138.918 1.49176C139.873 0.53729 141.167 0.000734561 142.516 7.52928e-07ZM138.451 5.08936C138.451 5.89352 138.689 6.6796 139.136 7.34822C139.583 8.01684 140.218 8.53795 140.961 8.84567C141.704 9.15339 142.521 9.23389 143.31 9.07699C144.098 8.9201 144.823 8.53285 145.391 7.96422C145.96 7.39559 146.347 6.67111 146.504 5.88241C146.661 5.0937 146.581 4.27619 146.273 3.53325C145.965 2.79031 145.444 2.15532 144.775 1.70855C144.107 1.26179 143.321 1.02333 142.516 1.02333C141.438 1.02333 140.404 1.45172 139.641 2.21425C138.879 2.97677 138.45 4.01098 138.45 5.08936H138.451Z" fill="white"/>
<path d="M140.737 7.19402V3.03398H142.464C142.736 3.02859 143.008 3.06962 143.267 3.1553C143.467 3.21624 143.645 3.33531 143.777 3.49738C143.868 3.62704 143.926 3.77643 143.948 3.93322C143.976 4.1446 143.967 4.35912 143.923 4.56766C143.879 4.70186 143.807 4.82525 143.712 4.92981C143.617 5.03436 143.501 5.11775 143.371 5.17453C143.322 5.19656 143.25 5.22148 143.2 5.24627C143.225 5.24627 143.25 5.27144 143.275 5.27144C143.44 5.33417 143.584 5.44345 143.688 5.58608C143.782 5.71591 143.864 5.85449 143.931 5.9999C144.124 6.38879 144.32 6.75566 144.483 7.14519C144.483 7.15419 144.485 7.16312 144.488 7.17127C144.492 7.17942 144.498 7.18656 144.505 7.19213H143.402C143.376 7.19213 143.352 7.19213 143.352 7.1701C143.184 6.82803 143.012 6.46393 142.842 6.12462C142.799 6.03913 142.75 5.95704 142.695 5.87908C142.649 5.81007 142.588 5.75239 142.516 5.71035C142.445 5.66832 142.364 5.643 142.281 5.6363C142.135 5.61427 141.992 5.6363 141.846 5.61427V7.19125L140.737 7.19402ZM141.807 3.81214V4.88192H142.342C142.414 4.88192 142.488 4.85675 142.535 4.85675C142.612 4.83955 142.683 4.80088 142.739 4.74521C142.795 4.68954 142.835 4.61913 142.853 4.54211C142.872 4.4459 142.88 4.34784 142.878 4.24975C142.876 4.1712 142.85 4.09515 142.803 4.03189C142.767 3.97846 142.721 3.93333 142.666 3.89954C142.611 3.86576 142.55 3.84411 142.486 3.83606C142.261 3.80526 142.034 3.79788 141.807 3.81403L141.807 3.81214Z" fill="white"/>
<path opacity="0.5" d="M17.7709 22.654C17.3317 22.3768 16.9151 22.0654 16.5249 21.7227C15.367 20.8039 14.2217 19.8726 13.0513 18.9664C12.0607 18.1848 10.9988 17.4979 9.87969 16.915C8.39446 16.1511 6.78224 15.6649 5.12234 15.4802C3.84975 15.3403 2.56478 15.3572 1.29632 15.5306C0.994262 15.5683 0.692208 15.6061 0.402739 15.6564C0.0125856 15.7068 0 15.6942 0 15.3166C0.00898974 14.8272 0.0552709 14.3391 0.138442 13.8567C0.306276 12.6742 0.588683 11.5109 0.981676 10.3831C1.09495 10.0684 1.23339 9.91739 1.58578 9.90481C2.73045 9.8467 3.87744 9.8509 5.02165 9.91739C7.39235 10.1109 9.70172 10.7695 11.8179 11.8556C13.3785 12.6485 14.8258 13.6427 16.2102 14.7125C16.6759 15.0775 17.129 15.4425 17.5947 15.8074C17.6828 15.883 17.7583 15.9711 17.8464 16.0592C17.9479 16.2886 17.9953 16.5384 17.9848 16.7891V21.9366C17.9471 22.182 17.9848 22.4463 17.7709 22.654Z" fill="white"/>
<path d="M17.8212 4.90839C18.1988 5.19785 18.5763 5.47474 18.9539 5.76421C20.0551 6.62794 21.2349 7.3864 22.4779 8.02961C24.1391 8.85394 25.95 9.33344 27.8016 9.4392C29.7041 9.55018 31.612 9.35471 33.4525 8.86026C33.5154 8.84767 33.5783 8.8225 33.6413 8.80992C33.6652 8.80081 33.6908 8.79652 33.7164 8.79729C33.742 8.79805 33.7672 8.80386 33.7906 8.81438C33.814 8.8249 33.8351 8.83993 33.8526 8.8586C33.8702 8.87726 33.8839 8.89921 33.893 8.92319C33.9433 9.03646 33.9937 9.13714 34.044 9.23783C34.6754 10.6882 35.1113 12.216 35.3403 13.7812C35.3781 14.0078 35.3529 14.0581 35.1515 14.121C34.56 14.2972 33.9559 14.4483 33.3392 14.5741C31.3559 14.9706 29.3281 15.0976 27.3107 14.9517C25.2927 14.8091 23.3136 14.3239 21.4584 13.5169C20.2859 13.0006 19.1614 12.3815 18.0981 11.6668C17.9877 11.59 17.8826 11.5059 17.7834 11.4151C17.671 11.207 17.6187 10.9717 17.6324 10.7355V5.55654C17.6324 5.31742 17.5947 5.07829 17.8212 4.90839Z" fill="white"/>
<path d="M17.7708 22.6541C17.7834 22.4653 17.796 22.2891 17.796 22.1003V16.613C17.796 16.4242 17.8086 16.248 17.8086 16.0592C18.1232 16.3109 18.4504 16.5501 18.7651 16.8018C19.6964 17.5443 20.6403 18.2869 21.6346 18.9413C22.9482 19.8299 24.3917 20.5092 25.9137 20.955C27.2958 21.3254 28.7248 21.4908 30.155 21.4459C31.6531 21.4333 33.1429 21.2217 34.5852 20.8166C34.6733 20.7914 34.7739 20.7788 34.862 20.7537C34.9627 20.8418 34.8998 20.9299 34.8746 21.0054C34.3301 23.0233 33.4309 24.9282 32.2191 26.6311C32.1683 26.7179 32.097 26.7908 32.0114 26.8434C31.9258 26.8961 31.8285 26.9269 31.7282 26.9332C31.5772 26.9332 31.4262 26.9584 31.2751 26.9584C30.6585 26.9709 30.0292 26.9835 29.4125 26.9835C26.7109 26.9469 24.0523 26.3016 21.6346 25.0957C20.3547 24.4524 19.1335 23.6986 17.9848 22.8429C17.9093 22.7862 17.8463 22.7107 17.7708 22.6541Z" fill="white"/>
<path opacity="0.5" d="M17.7708 33.8552C17.4184 33.6539 17.129 33.377 16.8143 33.1253C15.7194 32.2569 14.6496 31.3633 13.5169 30.5452C12.2835 29.6517 10.9998 28.8714 9.56504 28.3302C8.3406 27.8521 7.05044 27.5635 5.73902 27.4743C5.18526 27.4366 4.63149 27.3988 4.07772 27.4114C4.00226 27.4201 3.92583 27.4097 3.85545 27.3811C3.78508 27.3525 3.72302 27.3067 3.67498 27.2478C2.50946 25.7438 1.59562 24.0606 0.969083 22.2639C0.969202 22.2382 0.964946 22.2127 0.956497 22.1884C1.1097 22.1013 1.28378 22.0578 1.45992 22.0625C2.27798 21.9996 3.09605 21.9115 3.9267 21.8863C4.85179 21.8639 5.77729 21.9101 6.69553 22.0248C8.45298 22.228 10.1707 22.6903 11.7927 23.3966C13.2072 24.0231 14.5527 24.795 15.8075 25.6998C16.3864 26.1151 16.9402 26.543 17.5065 26.9709C17.6072 27.0464 17.7079 27.1471 17.8086 27.2352C17.9032 27.4313 17.9506 27.6468 17.947 27.8645V33.2637C17.947 33.4588 17.9596 33.6853 17.7708 33.8552Z" fill="white"/>
<path opacity="0.5" d="M17.8212 4.90838C17.8086 5.09716 17.8086 5.27336 17.8086 5.46215V10.8488C17.8086 11.0376 17.796 11.2138 17.796 11.4025C17.2375 11.0626 16.7034 10.6841 16.1976 10.2698C15.0398 9.35109 13.8819 8.41976 12.724 7.50101C11.8057 6.76344 10.8432 6.08255 9.84191 5.46215C8.52297 4.64748 7.07644 4.06036 5.56282 3.72534C5.52506 3.71275 5.49989 3.71275 5.46213 3.70016C5.43765 3.68892 5.41861 3.66845 5.40918 3.64322C5.39975 3.61798 5.40068 3.59004 5.41179 3.5655C5.41596 3.55491 5.42192 3.54512 5.42941 3.53655C5.60561 3.36035 5.79439 3.18416 5.98317 3.02054C7.3453 1.8136 8.88434 0.822521 10.5467 0.0818096C10.6562 0.0241051 10.7788 -0.00393402 10.9025 0.000482062C11.0261 0.00489814 11.1464 0.0416154 11.2515 0.106981C12.5037 0.799837 13.6989 1.59102 14.8258 2.47307C15.7949 3.22821 16.7514 3.99593 17.7079 4.76365C17.7331 4.78882 17.7708 4.85175 17.8212 4.90838Z" fill="white"/>
<path d="M17.7708 33.8553C17.7834 33.6665 17.796 33.4903 17.796 33.3015V27.7638C17.796 27.5751 17.8086 27.3989 17.8212 27.2101C18.4001 27.6632 18.979 28.1288 19.558 28.5819C20.4264 29.2741 21.2948 29.9663 22.2009 30.6082C23.0777 31.2313 24.0086 31.7747 24.9824 32.2317C25.0727 32.2734 25.161 32.3196 25.2467 32.3702C25.1837 32.5338 25.0453 32.5464 24.9194 32.6093C23.7993 33.1055 22.6311 33.485 21.4332 33.742C20.4287 33.9432 19.4107 34.0694 18.3875 34.1196C18.1232 34.1259 17.9218 34.0755 17.7708 33.8553Z" fill="white"/>
</svg>
