<svg id="Layer_1" data-name="Layer 1" xmlns="http://www.w3.org/2000/svg" viewBox="0 0 22 22"><defs><style>.cls-1,.cls-2{fill:none;stroke-linecap:round;stroke-linejoin:round;stroke-width:1.5px;}.cls-1{stroke:#000;}.cls-2,.cls-3{stroke:#808998;}.cls-3{fill:#808998;stroke-miterlimit:10;stroke-width:0.6px;}</style></defs><title>UpdateCase</title><path class="cls-1" d="M20.41,17.59a1.88,1.88,0,0,1-1.88,1.88H3.47a1.88,1.88,0,0,1-1.88-1.88V4.41A1.88,1.88,0,0,1,3.47,2.53H8.18l1.88,2.82h8.47a1.89,1.89,0,0,1,1.88,1.89Z"/><path class="cls-2" d="M20.41,17.59a1.88,1.88,0,0,1-1.88,1.88H3.47a1.88,1.88,0,0,1-1.88-1.88V4.41A1.88,1.88,0,0,1,3.47,2.53H8.18l1.88,2.82h8.47a1.89,1.89,0,0,1,1.88,1.89Z"/><polygon class="cls-3" points="13.5 10.05 12.9 10.62 12.13 10.62 13.5 9.28 14.85 10.67 14.08 10.67 13.5 10.05"/><polyline class="cls-3" points="13.5 9.28 14.85 10.67 14.08 10.67 13.5 10.05 12.9 10.62"/><polygon class="cls-3" points="13.5 11.73 12.9 12.34 12.13 12.34 13.5 10.98 14.85 12.34 14.08 12.34 13.5 11.73"/><g id="Layer_1-2" data-name="Layer 1"><path class="cls-3" d="M13.13,13.15a2.63,2.63,0,1,1-3.27-2.72V9.82a3.22,3.22,0,1,0,3.86,3.33Z"/></g></svg>