<svg id="Layer_1" data-name="Layer 1" xmlns="http://www.w3.org/2000/svg" viewBox="0 0 22 22"><defs><style>.cls-1{opacity:0.5;}.cls-2,.cls-5{fill:#fd6363;}.cls-2{stroke:#fd6363;}.cls-2,.cls-4{stroke-miterlimit:10;stroke-width:0.5px;}.cls-3{fill:none;stroke-linecap:round;stroke-linejoin:round;stroke-width:1.3px;}.cls-3,.cls-4{stroke:#808998;}.cls-4{fill:#808998;}</style></defs><title>Concat-hover</title><g class="cls-1"><path class="cls-2" d="M5.86,13.43c.65,0,.75-.37.75-.75a2.42,2.42,0,0,0-.1-.84c0-.28-.09-.56-.09-.75,0-.84.56-1.21,1.4-1.21H8v.56H7.82c-.56,0-.74.28-.74.84a1.6,1.6,0,0,0,.09.65c0,.28.09.47.09.75a1,1,0,0,1-.65,1h0c.37.09.65.37.65,1a2.15,2.15,0,0,1-.09.75c0,.28-.09.46-.09.65,0,.56.18.84.74.84H8v.56H7.82a1.25,1.25,0,0,1-1.4-1.31,1.83,1.83,0,0,1,.09-.74c0-.28.1-.47.1-.75s-.1-.66-.75-.66Z"/></g><path class="cls-3" d="M12.87,1.75H5.49A1.87,1.87,0,0,0,3.62,3.62V18.38a1.87,1.87,0,0,0,1.87,1.87h11a1.87,1.87,0,0,0,1.87-1.87v-11Z"/><polyline class="cls-3" points="12.87 1.75 12.87 7.36 18.38 7.36"/><path class="cls-4" d="M11,11.37a1,1,0,0,0-1,1,1.1,1.1,0,0,0,.28.75,1.06,1.06,0,0,0,.75.28,1,1,0,0,0,0-2.06ZM11.56,13a.85.85,0,0,1-1.12,0,.67.67,0,0,1-.19-.56,1.38,1.38,0,0,1,.19-.56.85.85,0,0,1,1.12,0A.76.76,0,0,1,11.56,13Z"/><path class="cls-4" d="M11.65,13.71H10.53a1.44,1.44,0,0,0-1.4,1.4v.75a.09.09,0,0,0,.09.09h3.65a.09.09,0,0,0,.09-.09v-.75A1.35,1.35,0,0,0,11.65,13.71Zm1.13,2.06H9.32v-.66A1.08,1.08,0,0,1,10.44,14h1.12a1.08,1.08,0,0,1,1.12,1.12v.66Z"/><path class="cls-5" d="M16.33,13.9c-.66,0-.75.37-.75.65a2.15,2.15,0,0,0,.09.75c0,.28.1.56.1.75,0,.93-.56,1.3-1.41,1.3h-.18v-.56h.18c.56,0,.75-.28.75-.84A1.65,1.65,0,0,0,15,15.3c0-.19-.1-.47-.1-.75a1,1,0,0,1,.66-1h0c-.37-.09-.66-.37-.66-1a1.92,1.92,0,0,1,.1-.75c0-.19.09-.47.09-.66,0-.46-.19-.84-.75-.84h-.18V9.88h.18c.85,0,1.41.37,1.41,1.21a1.73,1.73,0,0,1-.1.75c0,.28-.09.56-.09.84s.09.75.75.75Z"/><path class="cls-5" d="M5.86,13.43c.65,0,.75-.37.75-.75a2.42,2.42,0,0,0-.1-.84c0-.28-.09-.56-.09-.75,0-.84.56-1.21,1.4-1.21H8v.56H7.82c-.56,0-.74.28-.74.84a1.6,1.6,0,0,0,.09.65c0,.28.09.47.09.75a1,1,0,0,1-.65,1h0c.37.09.65.37.65,1a2.15,2.15,0,0,1-.09.75c0,.28-.09.46-.09.65,0,.56.18.84.74.84H8v.56H7.82a1.25,1.25,0,0,1-1.4-1.31,1.83,1.83,0,0,1,.09-.74c0-.28.1-.47.1-.75s-.1-.66-.75-.66Z"/><g class="cls-1"><path class="cls-2" d="M16.33,13.9c-.66,0-.75.37-.75.65a2.15,2.15,0,0,0,.09.75c0,.28.1.56.1.75,0,.93-.56,1.3-1.41,1.3h-.18v-.56h.18c.56,0,.75-.28.75-.84A1.65,1.65,0,0,0,15,15.3c0-.19-.1-.47-.1-.75a1,1,0,0,1,.66-1h0c-.37-.09-.66-.37-.66-1a1.92,1.92,0,0,1,.1-.75c0-.19.09-.47.09-.66,0-.46-.19-.84-.75-.84h-.18V9.88h.18c.85,0,1.41.37,1.41,1.21a1.73,1.73,0,0,1-.1.75c0,.28-.09.56-.09.84s.09.75.75.75Z"/></g></svg>