<svg id="Layer_1" data-name="Layer 1" xmlns="http://www.w3.org/2000/svg" viewBox="0 0 22 22"><defs><style>.cls-1{fill:none;stroke:#808998;stroke-miterlimit:10;stroke-width:1.5px;}</style></defs><title>ElseIf</title><rect class="cls-1" x="2.06" y="2.04" width="5.56" height="3.58" rx="0.55"/><path class="cls-1" d="M14,2h3.1A1.91,1.91,0,0,1,19,4V4a1.67,1.67,0,0,1-1.67,1.67H14a.55.55,0,0,1-.55-.55V2.59A.55.55,0,0,1,14,2Z"/><rect class="cls-1" x="2.06" y="16.37" width="5.56" height="3.58" rx="0.55"/><line class="cls-1" x1="4.84" y1="5.63" x2="4.84" y2="9.01"/><line class="cls-1" x1="4.84" y1="13.27" x2="4.84" y2="16.66"/><line class="cls-1" x1="16.26" y1="5.63" x2="16.26" y2="9.01"/><circle class="cls-1" cx="4.84" cy="11" r="2.32"/><path class="cls-1" d="M16.19,13l-3.52-1.86a.16.16,0,0,1,0-.28L16.19,9a.19.19,0,0,1,.15,0l3.52,1.86a.16.16,0,0,1,0,.28L16.34,13A.19.19,0,0,1,16.19,13Z"/><line class="cls-1" x1="13.66" y1="11" x2="7.4" y2="11"/></svg>