<svg id="Layer_1" data-name="Layer 1" xmlns="http://www.w3.org/2000/svg" viewBox="0 0 22 22"><defs><style>.cls-1{fill:#808998;stroke-width:0.6px;}.cls-1,.cls-2{stroke:#808998;stroke-miterlimit:10;}.cls-2{fill:none;stroke-width:1.5px;}</style></defs><title>else</title><path class="cls-1" d="M4.48,12.1l-.9-.81a.41.41,0,0,0-.55,0,.32.32,0,0,0,0,.5L4.6,13.2a.29.29,0,0,0,.13.08.33.33,0,0,0,.15,0,.32.32,0,0,0,.14,0,.29.29,0,0,0,.13-.08l1.57-1.41a.32.32,0,0,0,0-.5.41.41,0,0,0-.55,0l-.9.81v-5H4.48Z"/><path class="cls-2" d="M5,15a2.55,2.55,0,1,0,2.55,2.55A2.55,2.55,0,0,0,5,15Z"/><path class="cls-2" d="M17.12,5.53a2.55,2.55,0,1,0,2.56,2.55A2.56,2.56,0,0,0,17.12,5.53Z"/><path class="cls-2" d="M4.88,1.88A2.55,2.55,0,1,0,7.43,4.43,2.56,2.56,0,0,0,4.88,1.88Z"/><path class="cls-1" d="M16.79,14.61A2.75,2.75,0,0,1,14,17.35H10.27l.9-.89a.4.4,0,0,0,0-.56.39.39,0,0,0-.55,0L9.05,17.47a.36.36,0,0,0-.1.18s0,0,0,.05a.35.35,0,0,0,0,.2H9a.38.38,0,0,0,.09.13l1.57,1.57a.39.39,0,0,0,.28.11.39.39,0,0,0,.27-.67l-.9-.9H14a3.54,3.54,0,0,0,3.53-3.53V11.19h-.78Z"/></svg>