<svg id="Layer_1" data-name="Layer 1" xmlns="http://www.w3.org/2000/svg" viewBox="0 0 22 22"><defs><style>.cls-1{fill:#808998;}.cls-2{fill:#00a1e4;}</style></defs><title>ifelse_1</title><path class="cls-1" d="M15.14,7H7.63a.28.28,0,0,1-.3-.3V2.38a.28.28,0,0,1,.3-.3h7.51a.28.28,0,0,1,.3.3V6.65A.3.3,0,0,1,15.14,7Zm-7.21-.6h6.91V2.68H7.93Z"/><path class="cls-1" d="M15.14,7.22H7.63a.55.55,0,0,1-.57-.57V2.38a.55.55,0,0,1,.57-.57h7.51a.55.55,0,0,1,.57.57V6.65A.58.58,0,0,1,15.14,7.22ZM7.63,2.35l0,4.3,7.54,0a0,0,0,0,0,0,0V2.38Zm7.48,4.27H7.66V2.41h7.45ZM8.2,6.08h6.37V3H8.2Z"/><path class="cls-2" d="M15.14,14.13H7.63a.28.28,0,0,1-.3-.3V9.53a.28.28,0,0,1,.3-.3h7.51a.28.28,0,0,1,.3.3V13.8A.33.33,0,0,1,15.14,14.13Zm-7.21-.6h6.91V9.83H7.93Z"/><path class="cls-2" d="M15.14,14.4H7.63a.55.55,0,0,1-.57-.57V9.53A.55.55,0,0,1,7.63,9h7.51a.55.55,0,0,1,.57.57V13.8A.6.6,0,0,1,15.14,14.4ZM7.63,9.5l0,4.33,7.53,0s0,0,0-.06V9.53Zm7.48,4.3H7.66V9.56h7.45ZM8.2,13.25h6.37V10.1H8.2Z"/><path class="cls-1" d="M15.14,21.3H7.63a.28.28,0,0,1-.3-.3V16.74a.28.28,0,0,1,.3-.3h7.51a.28.28,0,0,1,.3.3V21A.3.3,0,0,1,15.14,21.3Zm-7.21-.6h6.91V17H7.93Z"/><path class="cls-1" d="M15.14,21.57H7.63A.55.55,0,0,1,7.06,21V16.74a.55.55,0,0,1,.57-.57h7.51a.55.55,0,0,1,.57.57V21A.57.57,0,0,1,15.14,21.57ZM7.63,16.71,7.6,21l7.54,0a0,0,0,0,0,0,0V16.74ZM15.11,21H7.66v-4.2h7.45ZM8.2,20.43h6.37V17.31H8.2Z"/><path class="cls-1" d="M4.66,5.72a.29.29,0,0,1,.06-.42l1-.75-1-.75a.34.34,0,0,1-.06-.43.33.33,0,0,1,.42-.06l1.26,1a.2.2,0,0,1,.12.21.34.34,0,0,1-.09.24l-1.26,1A.33.33,0,0,1,4.66,5.72Z"/><path class="cls-1" d="M4.9,6.09a.62.62,0,0,1-.44-.18.63.63,0,0,1-.13-.5.49.49,0,0,1,.25-.34l.66-.52L4.55,4a.56.56,0,0,1-.21-.38.57.57,0,0,1,.1-.42.61.61,0,0,1,.8-.11l1.24,1a.49.49,0,0,1,.25.45A.61.61,0,0,1,6.56,5L5.27,6A.56.56,0,0,1,4.9,6.09Zm0-2.56,0,.05,1.24,1-1.24,1c0,.06,0,0,.06,0l1.26-1h0Z"/><path class="cls-1" d="M6.16,4.82H2.07a.3.3,0,0,1,0-.6H6.16a.3.3,0,1,1,0,.6Z"/><path class="cls-1" d="M6.16,5.09H2.07A.57.57,0,0,1,2.07,4H6.16a.57.57,0,0,1,0,1.14Zm-4.09-.6,0,0H6.19l0,0Z"/><path class="cls-1" d="M17.69,12.93l-1.26-1a.37.37,0,0,1-.12-.24.27.27,0,0,1,.12-.24l1.26-1a.3.3,0,0,1,.36.48l-1,.75,1,.75a.32.32,0,0,1,.06.42A.34.34,0,0,1,17.69,12.93Z"/><path class="cls-1" d="M17.85,13.25a.52.52,0,0,1-.32-.11l-1.27-1a.69.69,0,0,1-.22-.46.52.52,0,0,1,.24-.46l1.24-1a.58.58,0,0,1,.82.13.61.61,0,0,1,.09.45.5.5,0,0,1-.24.34l-.66.52.69.54a.6.6,0,0,1,.21.38.62.62,0,0,1-.1.42A.68.68,0,0,1,17.85,13.25Zm0-2.59-1.28,1s0,.05,0,.07l1.24,1h0s0,0,.07,0l-1.27-1,1.23-1h0Z"/><path class="cls-1" d="M20.69,12H16.61a.3.3,0,1,1,0-.6h3.78V4.82H17a.3.3,0,1,1,0-.6h3.66a.28.28,0,0,1,.3.3v7.14A.33.33,0,0,1,20.69,12Z"/><path class="cls-1" d="M20.69,12.26H16.61a.57.57,0,0,1,0-1.14h3.51v-6H17A.57.57,0,0,1,17,4h3.66a.55.55,0,0,1,.57.57v7.14A.6.6,0,0,1,20.69,12.26Zm-4.08-.6,0,.06h4.11s0,0,0-.06V4.52L17,4.49l0,0h3.66v7.11Z"/><path class="cls-1" d="M4.66,20a.29.29,0,0,1,.06-.42l1-.75-1-.75a.3.3,0,1,1,.36-.48l1.26,1a.37.37,0,0,1,.12.24.27.27,0,0,1-.12.24l-1.26,1A.33.33,0,0,1,4.66,20Z"/><path class="cls-1" d="M4.91,20.43a.64.64,0,0,1-.45-.2.61.61,0,0,1-.13-.49.51.51,0,0,1,.25-.35l.66-.52-.69-.54a.59.59,0,0,1-.11-.79.62.62,0,0,1,.8-.12l1.26,1a.63.63,0,0,1,.23.45.56.56,0,0,1-.24.47l-1.25,1A.5.5,0,0,1,4.91,20.43Zm0-2.58,0,.06,1.24,1-1.24,1a0,0,0,0,0,0,.05l1.25-1s0,0,0-.08Z"/><path class="cls-1" d="M6.16,19.14H2.07a.28.28,0,0,1-.3-.3V11.69a.28.28,0,0,1,.3-.3H5.74a.3.3,0,0,1,0,.6H2.37v6.55H6.16a.3.3,0,1,1,0,.6Z"/><path class="cls-1" d="M6.16,19.41H2.07a.55.55,0,0,1-.57-.57V11.69a.55.55,0,0,1,.57-.57H5.74a.57.57,0,0,1,0,1.14H2.64v6H6.16a.57.57,0,0,1,0,1.14ZM2.07,11.66l0,7.18,4.12,0h0l0-.06H2.1V11.72H5.74l0-.05Z"/><rect class="cls-1" x="9.83" y="4.18" width="0.6" height="0.6"/><rect class="cls-1" x="9.56" y="3.91" width="1.14" height="1.14"/><rect class="cls-1" x="12.3" y="4.22" width="0.6" height="0.6"/><rect class="cls-1" x="12.03" y="3.95" width="1.14" height="1.14"/><rect class="cls-2" x="9.83" y="11.36" width="0.6" height="0.6"/><rect class="cls-2" x="9.56" y="11.09" width="1.14" height="1.14"/><rect class="cls-2" x="12.3" y="11.39" width="0.6" height="0.6"/><rect class="cls-2" x="12.03" y="11.12" width="1.14" height="1.14"/><rect class="cls-1" x="9.83" y="18.54" width="0.6" height="0.6"/><rect class="cls-1" x="9.56" y="18.27" width="1.14" height="1.14"/><rect class="cls-1" x="12.3" y="18.57" width="0.6" height="0.6"/><rect class="cls-1" x="12.03" y="18.3" width="1.14" height="1.14"/></svg>