<svg id="Layer_1" data-name="Layer 1" xmlns="http://www.w3.org/2000/svg" viewBox="0 0 22 22"><defs><style>.cls-1,.cls-3{fill:none;stroke:#fd6363;stroke-linecap:round;stroke-linejoin:round;}.cls-1{stroke-width:1.6px;opacity:0.5;}.cls-2{fill:#808998;}</style></defs><title>LoopStart-hover</title><polygon class="cls-1" points="8.34 8.62 11.91 10.91 8.34 13.2 8.34 8.62"/><path class="cls-2" d="M17.23,12.61a.73.73,0,0,1-.54-.19L13.47,9.53a.75.75,0,0,1,1-1.11l2.66,2.4,2.4-2.67a.75.75,0,0,1,1.11,1l-2.9,3.22A.74.74,0,0,1,17.23,12.61Z"/><path class="cls-2" d="M18,11.44c0-.15,0-.29,0-.44a8.4,8.4,0,1,0-8.4,8.4,8.33,8.33,0,0,0,6-2.56.42.42,0,0,0,.12-.08,6.27,6.27,0,0,0,.89-1.18,4.89,4.89,0,0,0,.35-.88.74.74,0,0,0-1.46-.28,2.62,2.62,0,0,1-.49.87h0A6.89,6.89,0,1,1,16.48,11c0,.15,0,.29,0,.44Z"/><polygon class="cls-3" points="8.34 8.62 11.91 10.91 8.34 13.2 8.34 8.62"/></svg>