<svg id="Layer_1" data-name="Layer 1" xmlns="http://www.w3.org/2000/svg" viewBox="0 0 22 22"><defs><style>.cls-1,.cls-3{fill:none;stroke:#fd6363;stroke-linecap:round;stroke-linejoin:round;}.cls-1{stroke-width:1.6px;opacity:0.5;}.cls-2{fill:#808998;}</style></defs><title>LoopStop-hover</title><rect class="cls-1" x="7.26" y="9.18" width="4.42" height="3.76" rx="0.76"/><path class="cls-2" d="M17.26,12.62a.73.73,0,0,1-.54-.19L13.48,9.52a.76.76,0,0,1-.05-1.06.75.75,0,0,1,1.06-.05l2.67,2.41,2.41-2.68a.75.75,0,0,1,1.06-.06.76.76,0,0,1,.06,1.06l-2.91,3.23A.74.74,0,0,1,17.26,12.62Z"/><path class="cls-2" d="M18,11.44c0-.15,0-.29,0-.44a8.5,8.5,0,1,0-2.41,5.87.28.28,0,0,0,.11-.08,7.05,7.05,0,0,0,.9-1.18,4.72,4.72,0,0,0,.35-.89.75.75,0,1,0-1.47-.28,2.75,2.75,0,0,1-.49.88h0A6.93,6.93,0,1,1,16.51,11c0,.15,0,.29,0,.44Z"/><rect class="cls-3" x="7.26" y="9.18" width="4.42" height="3.76" rx="0.76"/></svg>