<svg id="Layer_1" data-name="Layer 1" xmlns="http://www.w3.org/2000/svg" viewBox="0 0 22 22"><defs><style>.cls-1{fill:#808998;}.cls-2,.cls-3{fill:none;stroke:#808998;stroke-linecap:round;stroke-linejoin:round;}.cls-3{stroke-width:0.5px;}</style></defs><title>noncegenerator</title><path class="cls-1" d="M18.85,19.9H3.15A2.24,2.24,0,0,1,.91,17.66V4.34A2.24,2.24,0,0,1,3.15,2.1h15.7a2.24,2.24,0,0,1,2.24,2.24V17.66A2.24,2.24,0,0,1,18.85,19.9ZM3.15,2.77A1.57,1.57,0,0,0,1.58,4.34V17.66a1.57,1.57,0,0,0,1.57,1.57h15.7a1.57,1.57,0,0,0,1.57-1.57V4.34a1.57,1.57,0,0,0-1.57-1.57Z"/><path class="cls-1" d="M18.85,20.15H3.15A2.49,2.49,0,0,1,.66,17.66V4.34A2.49,2.49,0,0,1,3.15,1.85h15.7a2.49,2.49,0,0,1,2.49,2.49V17.66A2.49,2.49,0,0,1,18.85,20.15ZM3.15,2.35a2,2,0,0,0-2,2V17.66a2,2,0,0,0,2,2h15.7a2,2,0,0,0,2-2V4.34a2,2,0,0,0-2-2Zm15.7,17.13H3.15a1.81,1.81,0,0,1-1.82-1.82V4.34A1.81,1.81,0,0,1,3.15,2.52h15.7a1.81,1.81,0,0,1,1.82,1.82V17.66A1.81,1.81,0,0,1,18.85,19.48ZM3.15,3A1.32,1.32,0,0,0,1.83,4.34V17.66A1.32,1.32,0,0,0,3.15,19h15.7a1.32,1.32,0,0,0,1.32-1.32V4.34A1.32,1.32,0,0,0,18.85,3Z"/><path class="cls-1" d="M20.76,7.43H1.24a.33.33,0,1,1,0-.66H20.76a.33.33,0,0,1,0,.66Z"/><path class="cls-1" d="M20.75,7.68H1.25a.58.58,0,1,1,0-1.16h19.5a.58.58,0,1,1,0,1.16ZM1.25,7a.08.08,0,1,0,0,.16h19.5a.08.08,0,1,0,0-.16Z"/><path class="cls-1" d="M3.84,5.74a.86.86,0,1,1,.86-.86A.87.87,0,0,1,3.84,5.74Zm0-1.18a.32.32,0,1,0,0,.63.32.32,0,0,0,0-.63Z"/><path class="cls-1" d="M6.13,5.74A.86.86,0,1,1,7,4.88.86.86,0,0,1,6.13,5.74Zm0-1.18a.32.32,0,1,0,0,.63.32.32,0,1,0,0-.63Z"/><path class="cls-1" d="M8.39,5.74a.86.86,0,1,1,.87-.86A.87.87,0,0,1,8.39,5.74Zm0-1.18a.32.32,0,1,0,.32.32A.31.31,0,0,0,8.39,4.56Z"/><path class="cls-1" d="M7.52,10.93l-2.65-1V9.13l3.42,1.52v.58L4.87,12.75V12Z"/><path class="cls-2" d="M16.32,15.09a.52.52,0,0,0,.1.56l0,0a.6.6,0,0,1,0,.86h0a.6.6,0,0,1-.86,0h0l0,0a.5.5,0,0,0-.55-.1.5.5,0,0,0-.31.46v.05a.61.61,0,0,1-.61.61.61.61,0,0,1-.61-.61v0a.48.48,0,0,0-.33-.46.48.48,0,0,0-.55.1h0a.61.61,0,0,1-.86,0h0a.6.6,0,0,1,0-.86h0l0,0a.5.5,0,0,0,.1-.55.53.53,0,0,0-.46-.31h-.05a.61.61,0,1,1,0-1.21h0a.51.51,0,0,0,.46-.33.49.49,0,0,0-.1-.56l0,0a.62.62,0,0,1,0-.86h0a.62.62,0,0,1,.87,0h0v0a.52.52,0,0,0,.56.1h0a.5.5,0,0,0,.31-.46v-.05a.61.61,0,1,1,1.22,0v0a.51.51,0,0,0,.86.36h0a.6.6,0,0,1,.86,0h0a.6.6,0,0,1,0,.86h0l0,0a.5.5,0,0,0-.1.55v0a.51.51,0,0,0,.46.3h0a.61.61,0,0,1,0,1.22h0A.51.51,0,0,0,16.32,15.09Z"/><circle class="cls-3" cx="14.07" cy="14.18" r="0.79"/></svg>