<svg id="Layer_1" data-name="Layer 1" xmlns="http://www.w3.org/2000/svg" viewBox="0 0 22 22"><defs><style>.cls-1{fill:none;stroke:#00a1e4;stroke-linecap:round;stroke-linejoin:round;stroke-width:1.2px;}.cls-2{fill:#808998;stroke:#808998;stroke-miterlimit:10;stroke-width:0.2px;}</style></defs><title>OneDtoTwoD-hover</title><path class="cls-1" d="M6.55,4.55s1.9-3.3,6.4-1.9l2.5,1"/><polyline class="cls-1" points="15.45 1.45 15.95 4.35 13.15 4.65"/><path class="cls-2" d="M14.55,10.05h-4.4a.22.22,0,0,1-.2-.2v-3a.22.22,0,0,1,.2-.2h4.4a.22.22,0,0,1,.2.2v3A.22.22,0,0,1,14.55,10.05Zm-4.2-.4h4V7.05h-4Z"/><path class="cls-2" d="M14.55,10.25h-4.4a.43.43,0,0,1-.4-.4v-3a.43.43,0,0,1,.4-.4h4.4a.37.37,0,0,1,.4.4v3A.43.43,0,0,1,14.55,10.25Zm-4.5-3.5v3.1h4.5v-3Zm4.5,3.1h-4.4v-3h4.4Zm-4-.4h3.6V7.25h-3.6Z"/><path class="cls-2" d="M14.55,15.25h-4.4a.22.22,0,0,1-.2-.2V12a.22.22,0,0,1,.2-.2h4.4a.22.22,0,0,1,.2.2v3C14.75,15.05,14.65,15.25,14.55,15.25Zm-4.2-.5h4v-2.6h-4Z"/><path class="cls-2" d="M14.55,15.35h-4.4a.43.43,0,0,1-.4-.4v-3.1a.43.43,0,0,1,.4-.4h4.4a.43.43,0,0,1,.4.4v3A.46.46,0,0,1,14.55,15.35ZM10.05,12v3.1h4.5v-3Zm4.5,3h-4.4V12h4.4Zm-4-.4h3.6v-2.3h-3.6Z"/><path class="cls-2" d="M14.55,20.35h-4.4a.22.22,0,0,1-.2-.2v-3a.22.22,0,0,1,.2-.2h4.4a.22.22,0,0,1,.2.2v3A.22.22,0,0,1,14.55,20.35Zm-4.2-.5h4v-2.6h-4Z"/><path class="cls-2" d="M14.55,20.55h-4.4a.43.43,0,0,1-.4-.4v-3a.43.43,0,0,1,.4-.4h4.4a.43.43,0,0,1,.4.4v3A.43.43,0,0,1,14.55,20.55Zm-4.5-3.5v3.1h4.5v-3Zm4.5,3h-4.4v-3h4.4Zm-4-.3h3.6v-2.2h-3.6Z"/><path class="cls-2" d="M20.35,10.05H16a.22.22,0,0,1-.2-.2v-3a.22.22,0,0,1,.2-.2h4.4a.22.22,0,0,1,.2.2v3A.22.22,0,0,1,20.35,10.05Zm-4.2-.4h4V7h-4Z"/><path class="cls-2" d="M20.35,10.25H16a.43.43,0,0,1-.4-.4v-3a.43.43,0,0,1,.4-.4h4.4a.43.43,0,0,1,.4.4v3A.43.43,0,0,1,20.35,10.25ZM16,6.75v3.1h4.5v-3Zm4.4,3.1H16v-3h4.4Zm-4-.4H20V7.15h-3.6Z"/><path class="cls-2" d="M20.35,15.15H16a.22.22,0,0,1-.2-.2v-3.1a.22.22,0,0,1,.2-.2h4.4a.22.22,0,0,1,.2.2v3C20.55,15.05,20.45,15.15,20.35,15.15Zm-4.2-.4h4v-2.6h-4Z"/><path class="cls-2" d="M20.35,15.35H16a.43.43,0,0,1-.4-.4v-3.1a.43.43,0,0,1,.4-.4h4.4a.43.43,0,0,1,.4.4v3A.46.46,0,0,1,20.35,15.35ZM16,11.85V15h4.5V12Zm4.4,3.1H16V12h4.4Zm-4-.4H20v-2.3h-3.6Z"/><path class="cls-2" d="M20.35,20.25H16a.22.22,0,0,1-.2-.2v-3a.22.22,0,0,1,.2-.2h4.4a.22.22,0,0,1,.2.2v3A.22.22,0,0,1,20.35,20.25Zm-4.2-.4h4v-2.6h-4Z"/><path class="cls-2" d="M20.35,20.45H16a.43.43,0,0,1-.4-.4v-3a.43.43,0,0,1,.4-.4h4.4a.43.43,0,0,1,.4.4v3A.43.43,0,0,1,20.35,20.45ZM16,17.05v3.1h4.5v-3Zm4.4,3H16v-3h4.4Zm-4-.4H20v-2.2h-3.6Z"/><path class="cls-2" d="M6.05,10.05H1.65a.22.22,0,0,1-.2-.2v-3a.22.22,0,0,1,.2-.2h4.4a.22.22,0,0,1,.2.2v3C6.35,10,6.15,10.05,6.05,10.05Zm-4.2-.4h4V7.05h-4Z"/><path class="cls-2" d="M6.05,10.25H1.65a.43.43,0,0,1-.4-.4v-3a.43.43,0,0,1,.4-.4h4.4a.43.43,0,0,1,.4.4v3A.37.37,0,0,1,6.05,10.25Zm-4.4-3.5v3.1h4.5v-3Zm4.4,3.1H1.65v-3h4.4Zm-4-.4h3.6V7.25H2.05Z"/><path class="cls-2" d="M6.05,15.25H1.65a.22.22,0,0,1-.2-.2V12a.22.22,0,0,1,.2-.2h4.4a.22.22,0,0,1,.2.2v3C6.35,15.05,6.15,15.25,6.05,15.25Zm-4.2-.5h4v-2.6h-4Z"/><path class="cls-2" d="M6.05,15.35H1.65a.43.43,0,0,1-.4-.4v-3.1a.43.43,0,0,1,.4-.4h4.4a.43.43,0,0,1,.4.4v3C6.45,15.15,6.35,15.35,6.05,15.35ZM1.65,12v3.1h4.5v-3Zm4.4,3H1.65V12h4.4Zm-4-.4h3.6v-2.3H2.05Z"/><path class="cls-2" d="M6.05,20.35H1.65a.22.22,0,0,1-.2-.2v-3a.22.22,0,0,1,.2-.2h4.4a.22.22,0,0,1,.2.2v3C6.35,20.25,6.15,20.35,6.05,20.35Zm-4.2-.5h4v-2.6h-4Z"/><path class="cls-2" d="M6.05,20.55H1.65a.43.43,0,0,1-.4-.4v-3a.43.43,0,0,1,.4-.4h4.4a.43.43,0,0,1,.4.4v3A.37.37,0,0,1,6.05,20.55Zm-4.4-3.5v3.1h4.5v-3Zm4.4,3H1.65v-3h4.4Zm-4-.3h3.6v-2.2H2.05Z"/></svg>