<svg id="Layer_1" data-name="Layer 1" xmlns="http://www.w3.org/2000/svg" viewBox="0 0 22 22"><defs><style>.cls-1{opacity:0.5;}.cls-2,.cls-3{fill:none;stroke:#fd6363;stroke-linecap:round;stroke-linejoin:round;}.cls-2{stroke-width:2px;}.cls-3{stroke-width:1.2px;}.cls-4{fill:#808998;stroke:#808998;stroke-miterlimit:10;stroke-width:0.2px;}</style></defs><title>TwoDtoScalar-hover</title><g class="cls-1"><path class="cls-2" d="M7,4.55s1.9-3.3,6.4-1.9l2.5,1"/><polyline class="cls-2" points="15.9 1.45 16.4 4.35 13.6 4.65"/></g><path class="cls-3" d="M7,4.55s1.9-3.3,6.4-1.9l2.5,1"/><polyline class="cls-3" points="15.9 1.45 16.4 4.35 13.6 4.65"/><path class="cls-4" d="M6,10.05H1.5a.22.22,0,0,1-.2-.2v-3a.22.22,0,0,1,.2-.2H5.9a.22.22,0,0,1,.2.2v3C6.2,10,6.1,10.05,6,10.05Zm-4.2-.4h4V7.05h-4Z"/><path class="cls-4" d="M6,10.25H1.5a.43.43,0,0,1-.4-.4v-3a.43.43,0,0,1,.4-.4H5.9c.3,0,.5.1.5.4v3A.43.43,0,0,1,6,10.25ZM1.5,6.75v3.1H6v-3ZM6,9.85H1.6v-3H6Zm-4-.4H5.6V7.25H2Z"/><path class="cls-4" d="M6,15.25H1.5a.22.22,0,0,1-.2-.2V12a.22.22,0,0,1,.2-.2H5.9a.22.22,0,0,1,.2.2v3A.19.19,0,0,1,6,15.25Zm-4.2-.5h4v-2.6h-4Z"/><path class="cls-4" d="M6,15.35H1.5a.43.43,0,0,1-.4-.4v-3.1a.43.43,0,0,1,.4-.4H5.9a.43.43,0,0,1,.4.4v3A.35.35,0,0,1,6,15.35ZM1.5,12v3.1H6v-3ZM6,15H1.6V12H6Zm-4-.4H5.6v-2.3H2Z"/><path class="cls-4" d="M6,20.35H1.5a.22.22,0,0,1-.2-.2v-3c0-.2.1-.3.2-.3H5.9a.22.22,0,0,1,.2.2v3C6.2,20.25,6.1,20.35,6,20.35Zm-4.2-.5h4v-2.6h-4Z"/><path class="cls-4" d="M6,20.55H1.5a.43.43,0,0,1-.4-.4v-3a.43.43,0,0,1,.4-.4H5.9a.35.35,0,0,1,.5.3v3A.46.46,0,0,1,6,20.55Zm-4.5-3.5v3.1H6v-3Zm4.5,3H1.6v-3H6Zm-4-.3H5.6v-2.2H2Z"/><path class="cls-4" d="M11.8,10.05H7.4a.22.22,0,0,1-.2-.2v-3a.22.22,0,0,1,.2-.2h4.4a.22.22,0,0,1,.2.2v3A.22.22,0,0,1,11.8,10.05Zm-4.2-.4h4V7h-4Z"/><path class="cls-4" d="M11.8,10.25H7.4a.43.43,0,0,1-.4-.4v-3a.43.43,0,0,1,.4-.4h4.4a.43.43,0,0,1,.4.4v3A.43.43,0,0,1,11.8,10.25ZM7.4,6.75v3.1h4.5v-3Zm4.4,3.1H7.4v-3h4.4Zm-4-.4h3.6V7.15H7.8Z"/><path class="cls-4" d="M11.8,15.15H7.4a.22.22,0,0,1-.2-.2v-3.1a.22.22,0,0,1,.2-.2h4.4a.22.22,0,0,1,.2.2v3C12,15.05,11.9,15.15,11.8,15.15Zm-4.2-.4h4v-2.6h-4Z"/><path class="cls-4" d="M11.8,15.35H7.4A.43.43,0,0,1,7,15v-3.1a.43.43,0,0,1,.4-.4h4.4a.43.43,0,0,1,.4.4v3A.46.46,0,0,1,11.8,15.35Zm-4.4-3.5V15h4.5V12ZM11.8,15H7.4V12h4.4Zm-4-.4h3.6v-2.3H7.8Z"/><path class="cls-4" d="M11.8,20.25H7.4a.22.22,0,0,1-.2-.2v-3c0-.2.1-.2.2-.2h4.4a.22.22,0,0,1,.2.2v3A.22.22,0,0,1,11.8,20.25Zm-4.2-.4h4v-2.6h-4Z"/><path class="cls-4" d="M11.8,20.45H7.4a.43.43,0,0,1-.4-.4v-3a.43.43,0,0,1,.4-.4h4.4a.43.43,0,0,1,.4.4v3A.43.43,0,0,1,11.8,20.45Zm-4.4-3.4v3.1h4.5v-3Zm4.4,3H7.4v-3h4.4Zm-4-.4h3.6v-2.2H7.8Z"/><path class="cls-4" d="M20.5,10.05H16.1a.22.22,0,0,1-.2-.2v-3a.22.22,0,0,1,.2-.2h4.4a.22.22,0,0,1,.2.2v3C20.8,10,20.6,10.05,20.5,10.05Zm-4.2-.4h4V7.05h-4Z"/><path class="cls-4" d="M20.5,10.25H16.1a.43.43,0,0,1-.4-.4v-3a.43.43,0,0,1,.4-.4h4.4a.43.43,0,0,1,.4.4v3A.37.37,0,0,1,20.5,10.25Zm-4.4-3.5v3.1h4.5v-3Zm4.4,3.1H16.1v-3h4.4Zm-4-.4h3.6V7.25H16.5Z"/></svg>