<svg id="Layer_1" data-name="Layer 1" xmlns="http://www.w3.org/2000/svg" viewBox="0 0 22 22"><defs><style>.cls-1{opacity:0.5;}.cls-2,.cls-3,.cls-4{fill:none;stroke-linecap:round;stroke-linejoin:round;}.cls-2,.cls-4{stroke:#fd6363;}.cls-2{stroke-width:2.3px;}.cls-3{stroke:#808998;}.cls-3,.cls-4{stroke-width:1.5px;}</style></defs><title>download-hover</title><g class="cls-1"><path class="cls-2" d="M14.16,14.82v1.41a.71.71,0,0,1-.7.7H8.54a.71.71,0,0,1-.7-.7V14.82"/><polyline class="cls-2" points="9.25 11.99 11 13.74 12.75 11.99"/><line class="cls-2" x1="11" y1="13.74" x2="11" y2="9.53"/></g><path class="cls-3" d="M13,.93H5a2,2,0,0,0-2,2V19.06a2,2,0,0,0,2,2H17a2,2,0,0,0,2-2V7Z"/><polyline class="cls-3" points="13.01 0.93 13.01 6.97 19.06 6.97"/><path class="cls-4" d="M14.16,14.82v1.41a.71.71,0,0,1-.7.7H8.54a.71.71,0,0,1-.7-.7V14.82"/><polyline class="cls-4" points="9.25 11.99 11 13.74 12.75 11.99"/><line class="cls-4" x1="11" y1="13.74" x2="11" y2="9.53"/></svg>