<svg id="Layer_1" data-name="Layer 1" xmlns="http://www.w3.org/2000/svg" viewBox="0 0 22 22"><defs><style>.cls-1{fill:none;stroke:#808998;stroke-linecap:round;stroke-linejoin:round;stroke-width:1.5px;}.cls-2{fill:#808998;}.cls-3{fill:#00a1e4;}</style></defs><title>Artboard 1 copy 21</title><line class="cls-1" x1="17" y1="6.85" x2="15.3" y2="6.85"/><line class="cls-1" x1="20.3" y1="6.85" x2="20.3" y2="8.55"/><line class="cls-1" x1="11.5" y1="6.85" x2="9.8" y2="6.85"/><line class="cls-1" x1="6.5" y1="6.85" x2="4.8" y2="6.85"/><line class="cls-1" x1="6.5" y1="10.85" x2="4.8" y2="10.85"/><line class="cls-1" x1="6.4" y1="14.95" x2="4.7" y2="14.95"/><path class="cls-2" d="M8.6,19H2.2V3.15H19.5v5.4H21V2.35a.79.79,0,0,0-.8-.8H1.5c-.5.1-.8.4-.8.8v17.3a.79.79,0,0,0,.8.8H8.6Z"/><line class="cls-1" x1="8.7" y1="19.75" x2="7" y2="19.75"/><polygon class="cls-3" points="18.38 11.52 17.55 12.25 16.51 12.25 18.38 10.48 20.15 12.35 19.11 12.35 18.38 11.52"/><path class="cls-3" d="M20.85,12.65H19l-.63-.71-.69.61H15.75l2.64-2.5Zm-1.6-.6h.21L18.37,10.9l-1.11,1h.18l1-.85Z"/><polyline class="cls-3" points="18.38 10.48 20.15 12.35 19.11 12.35 18.38 11.52 17.55 12.25"/><polygon class="cls-3" points="20.85 12.65 18.98 12.65 18.35 11.94 17.75 12.47 17.35 12.02 18.41 11.1 19.25 12.05 19.46 12.05 18.16 10.68 18.6 10.27 20.85 12.65"/><polygon class="cls-3" points="18.38 13.71 17.55 14.54 16.51 14.54 18.38 12.77 20.15 14.54 19.11 14.54 18.38 13.71"/><path class="cls-3" d="M20.88,14.84H19l-.61-.7-.7.7H15.75l2.64-2.49Zm-1.63-.6h.18l-1.05-1.05-1.12,1.05h.17l1-1Z"/><g id="Layer_1-2" data-name="Layer 1"><path class="cls-3" d="M17.86,15.58a3.42,3.42,0,0,1-3.44,3.23,3.51,3.51,0,0,1-3.54-3.54,3.6,3.6,0,0,1,2.61-3.44V11a4.26,4.26,0,1,0,5.1,4.37h-.73Z"/><path class="cls-3" d="M14.32,19.74a4.56,4.56,0,0,1-.89-9l.36-.07v1.43l-.22.06a3.29,3.29,0,0,0-2.39,3.15,3.21,3.21,0,0,0,3.24,3.24,3.13,3.13,0,0,0,3.14-2.94v-.5h1.35l0,.32A4.56,4.56,0,0,1,14.32,19.74Zm-1.13-8.36a4,4,0,1,0,5.07,4.29h-.1a3.74,3.74,0,0,1-3.74,3.44,3.8,3.8,0,0,1-3.84-3.84,3.9,3.9,0,0,1,2.61-3.66Z"/></g></svg>