<svg id="Layer_1" data-name="Layer 1" xmlns="http://www.w3.org/2000/svg" viewBox="0 0 22 22"><defs><style>.cls-1{fill:#fd6363;}.cls-1,.cls-2{opacity:0.5;}.cls-2,.cls-3,.cls-4,.cls-5{fill:none;stroke-linecap:round;stroke-linejoin:round;}.cls-2,.cls-3{stroke:#fd6363;}.cls-2{stroke-width:2.3px;}.cls-3,.cls-4{stroke-width:1.5px;}.cls-4,.cls-5{stroke:#808998;}.cls-5{stroke-width:1.6px;}.cls-6{fill:#808998;}</style></defs><title>GetCellValue-hover</title><path class="cls-1" d="M16.79,14.26,15,12.56a1.16,1.16,0,0,0-1.63,0A1.13,1.13,0,0,0,13.21,14h-2V11.87a1.14,1.14,0,0,0-1.15-1.15h0A1.15,1.15,0,0,0,9,11.87V15.1a1.15,1.15,0,0,0,1.15,1.15h3.11a1.13,1.13,0,0,0,.15,1.34,1.16,1.16,0,0,0,1.63.05l1.8-1.7a1.16,1.16,0,0,0,0-1.68Z"/><polyline class="cls-2" points="14.8 20.2 18.9 20.2 18.9 10.8 14.8 10.8"/><line class="cls-3" x1="10.1" y1="11.9" x2="10.1" y2="15.1"/><line class="cls-4" x1="17.5" y1="6.5" x2="15.7" y2="6.5"/><line class="cls-5" x1="21" y1="6.5" x2="21" y2="8.3"/><line class="cls-4" x1="11.7" y1="6.5" x2="9.9" y2="6.5"/><line class="cls-4" x1="6.3" y1="6.5" x2="4.5" y2="6.5"/><line class="cls-4" x1="6.3" y1="10.8" x2="4.5" y2="10.8"/><line class="cls-4" x1="6.3" y1="15.1" x2="4.5" y2="15.1"/><polyline class="cls-3" points="14.8 20.2 18.9 20.2 18.9 10.8 14.8 10.8"/><path class="cls-6" d="M8.6,19.4H1.8V2.6H20.2V8.4h1.6V1.8A.79.79,0,0,0,21,1H1a.79.79,0,0,0-.8.8V20.2A.79.79,0,0,0,1,21H8.6Z"/><line class="cls-5" x1="8.7" y1="20.2" x2="6.9" y2="20.2"/><polyline class="cls-3" points="14.2 13.4 16 15.1 14.2 16.8"/><line class="cls-3" x1="15.3" y1="15.1" x2="10.2" y2="15.1"/></svg>