<?xml version="1.0" encoding="utf-8"?>
<!-- Generator: Adobe Illustrator 23.0.1, SVG Export Plug-In . SVG Version: 6.00 Build 0)  -->
<svg version="1.1" id="Layer_1" xmlns="http://www.w3.org/2000/svg" xmlns:xlink="http://www.w3.org/1999/xlink" x="0px" y="0px"
	 viewBox="0 0 22 22" style="enable-background:new 0 0 22 22;" xml:space="preserve">
<style type="text/css">
	.st0{fill:none;}
	.st1{fill:none;stroke:#808998;stroke-width:1.5;stroke-linecap:round;stroke-linejoin:round;}
	.st2{fill:none;stroke:#808998;stroke-width:1.8;stroke-miterlimit:10;}
	.st3{fill:none;stroke:#808998;stroke-width:1.8;stroke-linecap:round;stroke-linejoin:round;}
	.st4{opacity:0.4;fill:none;stroke:#808998;stroke-width:1.5;stroke-linecap:round;stroke-linejoin:round;}
	.st5{fill:#808998;}
</style>
<g>
	<line class="st1" x1="17.5" y1="6.5" x2="15.7" y2="6.5"/>
	<line class="st1" x1="21" y1="6.5" x2="21" y2="8.3"/>
	<line class="st1" x1="11.7" y1="6.5" x2="9.9" y2="6.5"/>
	<line class="st1" x1="6.3" y1="6.5" x2="4.5" y2="6.5"/>
	<line class="st1" x1="6.3" y1="10.8" x2="4.5" y2="10.8"/>
	<line class="st1" x1="10" y1="11.9" x2="10.1" y2="15.1"/>
	<line class="st1" x1="6.3" y1="15.1" x2="4.5" y2="15.1"/>
	<polyline class="st1" points="14.2,13.4 16,15.1 14.2,16.8 	"/>
	<line class="st1" x1="15.3" y1="15.1" x2="10.2" y2="15.1"/>
	<polyline class="st1" points="14.8,20.2 18.9,20.2 18.9,10.8 14.8,10.8 	"/>
	<path class="st5" d="M8.6,19.4H1.8V2.6h18.4v5.8h1.6V1.8C21.8,1.4,21.5,1,21,1H1C0.5,1,0.2,1.4,0.2,1.8v18.4C0.2,20.6,0.5,21,1,21
		h7.6V19.4z"/>
	<line class="st1" x1="8.7" y1="20.2" x2="6.9" y2="20.2"/>
</g>
</svg>
