<svg id="Layer_1" data-name="Layer 1" xmlns="http://www.w3.org/2000/svg" viewBox="0 0 22 22"><defs><style>.cls-1,.cls-3{fill:none;stroke-linecap:round;stroke-linejoin:round;stroke-width:1.5px;}.cls-1{stroke:#808998;}.cls-2{fill:#fd6363;opacity:0.5;}.cls-3{stroke:#fd6363;}</style></defs><title>OpenExcel-hover</title><polygon class="cls-1" points="0.9 19.3 0.9 3.3 13.2 0.9 13.2 21.1 0.9 19.3"/><line class="cls-1" x1="18.9" y1="7.2" x2="17.2" y2="7.2"/><line class="cls-1" x1="14.7" y1="7.2" x2="13.7" y2="7.2"/><line class="cls-1" x1="18.9" y1="15.2" x2="17.2" y2="15.2"/><line class="cls-1" x1="14.6" y1="15.2" x2="13.7" y2="15.2"/><path class="cls-2" d="M15.38,10.46a1.13,1.13,0,0,0-1.62.06,4,4,0,0,1-5,.38,1.17,1.17,0,0,0,.8-1,1.14,1.14,0,0,0-1-1.26l-2.8-.3a1.16,1.16,0,0,0-.86.26,1.14,1.14,0,0,0-.41.8l-.2,2.9a1.17,1.17,0,0,0,1.07,1.23H5.4a1.15,1.15,0,0,0,1.15-1.07l0-.27.86.59a7.36,7.36,0,0,0,3.68,1,6.08,6.08,0,0,0,4.33-1.77A1.14,1.14,0,0,0,15.38,10.46Z"/><polyline class="cls-1" points="13.9 3.2 21.1 3.2 21.1 19.3 13.7 19.3"/><line class="cls-1" x1="18.9" y1="11.2" x2="17.2" y2="11.2"/><path class="cls-3" d="M14.6,11.3S12,14.1,8,11.8L5.8,10.3"/><polyline class="cls-3" points="5.4 12.4 5.6 9.5 8.4 9.8"/></svg>