<svg id="Layer_1" data-name="Layer 1" xmlns="http://www.w3.org/2000/svg" viewBox="0 0 22 22"><defs><style>.cls-1{fill:#fd6363;opacity:0.5;}.cls-2,.cls-4{fill:none;stroke-linecap:round;stroke-linejoin:round;stroke-width:1.5px;}.cls-2{stroke:#808998;}.cls-3{fill:#808998;}.cls-4{stroke:#fd6363;}</style></defs><title>SetCellValue-hover</title><path class="cls-1" d="M21.28,13.61a5.47,5.47,0,0,0-2.75-3.07,5.25,5.25,0,0,0-4.09-.23,6.49,6.49,0,0,0-2,1.26l-.29.27v-.12a1.15,1.15,0,1,0-2.3,0v2.8A1.14,1.14,0,0,0,11,15.67h2.8a1.14,1.14,0,0,0,.06-2.28l.09-.09a4.55,4.55,0,0,1,1.27-.82A3.11,3.11,0,0,1,19,16.79a2.89,2.89,0,0,1-1.73,1.51,2.88,2.88,0,0,1-3.56-1.19,1.15,1.15,0,1,0-2,1.18,5,5,0,0,0,4.41,2.5A6.29,6.29,0,0,0,18,20.5,5.18,5.18,0,0,0,21,17.8,5.36,5.36,0,0,0,21.28,13.61Z"/><line class="cls-2" x1="17.5" y1="6.5" x2="15.7" y2="6.5"/><line class="cls-2" x1="21" y1="6.5" x2="21" y2="8.3"/><line class="cls-2" x1="11.7" y1="6.5" x2="9.9" y2="6.5"/><line class="cls-2" x1="6.3" y1="6.5" x2="4.5" y2="6.5"/><line class="cls-2" x1="6.3" y1="10.8" x2="4.5" y2="10.8"/><line class="cls-2" x1="6.3" y1="15.1" x2="4.5" y2="15.1"/><path class="cls-3" d="M8.6,19.4H1.8V2.6H20.2V8.4h1.6V1.8A.79.79,0,0,0,21,1H1a.79.79,0,0,0-.8.8V20.2A.79.79,0,0,0,1,21H8.6Z"/><line class="cls-2" x1="8.7" y1="20.2" x2="6.9" y2="20.2"/><polyline class="cls-4" points="10.97 11.72 10.97 14.53 13.77 14.53"/><path class="cls-4" d="M12.7,17.7a4,4,0,0,0,4.9,1.7,4.24,4.24,0,0,0-2.8-8,5.37,5.37,0,0,0-1.6,1L11,14.5"/></svg>