<?xml version="1.0" encoding="utf-8"?>
<!-- Generator: Adobe Illustrator 23.0.1, SVG Export Plug-In . SVG Version: 6.00 Build 0)  -->
<svg version="1.1" id="Layer_1" xmlns="http://www.w3.org/2000/svg" xmlns:xlink="http://www.w3.org/1999/xlink" x="0px" y="0px"
	 viewBox="0 0 22 22" style="enable-background:new 0 0 22 22;" xml:space="preserve">
<style type="text/css">
	.st0{fill:none;}
	.st1{fill:none;stroke:#808998;stroke-width:1.5;stroke-linecap:round;stroke-linejoin:round;}
	.st2{fill:none;stroke:#808998;stroke-width:1.8;stroke-miterlimit:10;}
	.st3{fill:none;stroke:#808998;stroke-width:1.8;stroke-linecap:round;stroke-linejoin:round;}
	.st4{opacity:0.4;fill:none;stroke:#808998;stroke-width:1.5;stroke-linecap:round;stroke-linejoin:round;}
	.st5{fill:#808998;}
	.st6{fill:#808998;stroke:#808998;stroke-width:0.6;stroke-miterlimit:10;}
</style>
<g>
	<g>
		<line class="st1" x1="17" y1="6.8" x2="15.3" y2="6.8"/>
		<line class="st1" x1="20.3" y1="6.8" x2="20.3" y2="8.5"/>
		<line class="st1" x1="11.5" y1="6.8" x2="9.8" y2="6.8"/>
		<line class="st1" x1="6.5" y1="6.8" x2="4.8" y2="6.8"/>
		<line class="st1" x1="6.5" y1="10.8" x2="4.8" y2="10.8"/>
		<line class="st1" x1="6.4" y1="14.9" x2="4.7" y2="14.9"/>
		<path class="st5" d="M8.6,18.9H2.2V3.1h17.3v5.4h1.5V2.3c0-0.4-0.3-0.8-0.8-0.8H1.5C1,1.6,0.7,1.9,0.7,2.3v17.3
			c0,0.4,0.3,0.8,0.8,0.8h7.1V18.9z"/>
		<line class="st1" x1="8.7" y1="19.7" x2="7" y2="19.7"/>
	</g>
	<g>
		<g>
			<polygon class="st6" points="19.6,12.6 18.8,13.3 17.8,13.3 19.6,11.6 21.3,13.4 20.3,13.4 			"/>
			<polyline class="st6" points="19.6,11.6 21.3,13.4 20.3,13.4 19.6,12.6 18.8,13.3 			"/>
			<polygon class="st6" points="19.6,14.7 18.8,15.5 17.8,15.5 19.6,13.8 21.3,15.5 20.3,15.5 			"/>
		</g>
		<g>
			<g id="Layer_1_3_">
				<path class="st6" d="M19.1,16.5c-0.1,1.8-1.6,3.1-3.3,3.1c-1.9,0-3.4-1.5-3.4-3.4c0-1.6,1.1-2.9,2.5-3.3v-0.8
					c-1.9,0.4-3.3,2-3.3,4c0,2.3,1.8,4.1,4.1,4.1c2.2,0,4-1.7,4.1-3.9H19.1z"/>
			</g>
		</g>
	</g>
</g>
</svg>
