<svg id="Layer_1" data-name="Layer 1" xmlns="http://www.w3.org/2000/svg" viewBox="0 0 22 22"><defs><style>.cls-1,.cls-2{fill:none;stroke-linecap:round;stroke-linejoin:round;}.cls-1{stroke:#808998;stroke-width:1.5px;}.cls-2{stroke:#00a1e4;stroke-width:1.1px;}</style></defs><title>Connection-hover</title><ellipse class="cls-1" cx="6.95" cy="10.22" rx="5.66" ry="1.85"/><path class="cls-1" d="M12.61,14.61c0,1.07-2.54,1.85-5.66,1.85S1.4,15.61,1.4,14.64"/><path class="cls-1" d="M1.39,10.22V19c0,1.07,2.54,1.85,5.66,1.85S12.71,20,12.71,19V10.22"/><line class="cls-1" x1="7.15" y1="18.61" x2="7.15" y2="18.61"/><line class="cls-1" x1="7.15" y1="14.41" x2="7.15" y2="14.41"/><circle class="cls-2" cx="17.02" cy="5.35" r="3.56"/><line class="cls-2" x1="13.46" y1="5.35" x2="20.57" y2="5.35"/><path class="cls-2" d="M17,1.79a5.44,5.44,0,0,1,1.39,3.56A5.44,5.44,0,0,1,17,8.91a5.39,5.39,0,0,1-1.39-3.56A5.55,5.55,0,0,1,17,1.79Z"/></svg>