<svg id="Layer_1" data-name="Layer 1" xmlns="http://www.w3.org/2000/svg" viewBox="0 0 22 22"><defs><style>.cls-1,.cls-2{fill:none;stroke-linecap:round;stroke-linejoin:round;}.cls-1{stroke:#00a1e4;}.cls-2{stroke:#808998;stroke-width:1.3px;}</style></defs><title>InsertToDB-hover</title><ellipse class="cls-1" cx="17" cy="2.45" rx="3.6" ry="1.2"/><path class="cls-1" d="M20.7,5.25c0,.7-1.6,1.2-3.6,1.2s-3.6-.5-3.6-1.2"/><path class="cls-1" d="M13.4,2.45v5.6c0,.7,1.6,1.2,3.6,1.2s3.7-.5,3.7-1.2V2.45"/><line class="cls-1" x1="17.2" y1="7.85" x2="17.2" y2="7.85"/><line class="cls-1" x1="17.1" y1="5.15" x2="17.1" y2="5.15"/><path class="cls-2" d="M6.8,8.75H9.5a1.32,1.32,0,0,1,1.3,1.3v9.4a1.32,1.32,0,0,1-1.3,1.3H6.8"/><polyline class="cls-2" points="4.5 17.05 6.8 14.75 4.5 12.45"/><line class="cls-2" x1="6.8" y1="14.75" x2="1.3" y2="14.75"/></svg>