<svg id="Layer_1" data-name="Layer 1" xmlns="http://www.w3.org/2000/svg" viewBox="0 0 22 22"><defs><style>.cls-1,.cls-2,.cls-3{fill:none;stroke-linecap:round;stroke-linejoin:round;}.cls-1,.cls-3{stroke:#fd6363;}.cls-1{stroke-width:2.1px;opacity:0.5;}.cls-2{stroke:#808998;stroke-width:1.5px;}.cls-3{stroke-width:1.4px;}</style></defs><title>Read-hover</title><line class="cls-1" x1="13.88" y1="2.41" x2="20.29" y2="2.41"/><line class="cls-1" x1="13.88" y1="4.7" x2="18.44" y2="4.7"/><line class="cls-1" x1="13.79" y1="6.98" x2="18.35" y2="6.98"/><ellipse class="cls-2" cx="6.95" cy="10.22" rx="5.66" ry="1.85"/><path class="cls-2" d="M12.61,14.61c0,1.07-2.54,1.85-5.66,1.85S1.4,15.61,1.4,14.64"/><path class="cls-2" d="M1.39,10.22V19c0,1.07,2.54,1.85,5.66,1.85S12.71,20,12.71,19V10.22"/><line class="cls-2" x1="7.15" y1="18.61" x2="7.15" y2="18.61"/><line class="cls-2" x1="7.15" y1="14.41" x2="7.15" y2="14.41"/><line class="cls-3" x1="13.88" y1="2.41" x2="20.29" y2="2.41"/><line class="cls-3" x1="13.88" y1="4.7" x2="18.44" y2="4.7"/><line class="cls-3" x1="13.79" y1="6.98" x2="18.35" y2="6.98"/></svg>