<svg id="Layer_1" data-name="Layer 1" xmlns="http://www.w3.org/2000/svg" viewBox="0 0 22 22"><defs><style>.cls-1{opacity:0.5;}.cls-2,.cls-4{fill:#fd6363;stroke:#fd6363;stroke-miterlimit:10;}.cls-2{stroke-width:1.3px;}.cls-3{fill:none;stroke:#808998;stroke-linecap:round;stroke-linejoin:round;stroke-width:1.5px;}.cls-4{stroke-width:0.6px;}</style></defs><title>Update-hover</title><g class="cls-1"><polygon class="cls-2" points="19.08 2.61 18.53 3.13 17.83 3.13 19.08 1.91 20.32 3.18 19.62 3.18 19.08 2.61"/><polyline class="cls-2" points="19.08 1.91 20.32 3.18 19.62 3.18 19.08 2.61 18.53 3.13"/><polygon class="cls-2" points="19.08 4.16 18.53 4.71 17.83 4.71 19.08 3.47 20.32 4.71 19.62 4.71 19.08 4.16"/><g id="Layer_1-2" data-name="Layer 1"><path class="cls-2" d="M18.74,5.45a2.41,2.41,0,1,1-3-2.49V2.4a3,3,0,1,0,3.54,3.05Z"/></g></g><ellipse class="cls-3" cx="6.95" cy="10.22" rx="5.66" ry="1.85"/><path class="cls-3" d="M12.61,14.61c0,1.07-2.54,1.85-5.66,1.85S1.4,15.61,1.4,14.64"/><path class="cls-3" d="M1.39,10.22V19c0,1.07,2.54,1.85,5.66,1.85S12.71,20,12.71,19V10.22"/><line class="cls-3" x1="7.15" y1="18.61" x2="7.15" y2="18.61"/><line class="cls-3" x1="7.15" y1="14.41" x2="7.15" y2="14.41"/><polygon class="cls-4" points="19.08 2.61 18.53 3.13 17.83 3.13 19.08 1.91 20.32 3.18 19.62 3.18 19.08 2.61"/><polyline class="cls-4" points="19.08 1.91 20.32 3.18 19.62 3.18 19.08 2.61 18.53 3.13"/><polygon class="cls-4" points="19.08 4.16 18.53 4.71 17.83 4.71 19.08 3.47 20.32 4.71 19.62 4.71 19.08 4.16"/><g id="Layer_1-3" data-name="Layer 1"><path class="cls-4" d="M18.74,5.45a2.41,2.41,0,1,1-3-2.49V2.4a3,3,0,1,0,3.54,3.05Z"/></g></svg>