<svg id="Layer_1" data-name="Layer 1" xmlns="http://www.w3.org/2000/svg" viewBox="0 0 22 22"><defs><style>.cls-1{fill:#00a1e4;stroke:#808998;stroke-miterlimit:10;stroke-width:0.8px;}.cls-2{fill:#808998;}</style></defs><title>TrainImages</title><path class="cls-1" d="M21.35,4.7l-.47-.09a.83.83,0,0,1-.5-1.29l.29-.4a.14.14,0,0,0,0-.19L20,2.09a.14.14,0,0,0-.19,0l-.39.26a.78.78,0,0,1-.78.07.79.79,0,0,1-.48-.62L18.1,1.3A.15.15,0,0,0,18,1.17h-.9a.14.14,0,0,0-.14.13l-.12.6a.82.82,0,0,1-1.26.52L15,2.08a.15.15,0,0,0-.19,0l-.63.64a.15.15,0,0,0,0,.19l.3.4a.84.84,0,0,1,.1.78.81.81,0,0,1-.61.51l-.46.09a.14.14,0,0,0-.13.14v.9a.15.15,0,0,0,.13.15L14,6a.82.82,0,0,1,.63.48.81.81,0,0,1-.08.78l-.26.39a.15.15,0,0,0,0,.19l.64.64a.14.14,0,0,0,.19,0l.41-.29a.76.76,0,0,1,.77-.1.82.82,0,0,1,.51.6l.09.47a.14.14,0,0,0,.14.12H18a.14.14,0,0,0,.15-.12l0-.35a.83.83,0,0,1,.5-.63.8.8,0,0,1,.79.1l.28.2a.15.15,0,0,0,.2,0l.63-.64a.15.15,0,0,0,0-.19l-.27-.39a.83.83,0,0,1-.07-.78A.8.8,0,0,1,20.85,6l.5-.08a.14.14,0,0,0,.12-.15v-.9A.14.14,0,0,0,21.35,4.7Zm-.18.91-.36.06a1.12,1.12,0,0,0-.75,1.73l.19.29-.45.46L19.62,8a1.1,1.1,0,0,0-1.09-.14,1.12,1.12,0,0,0-.67.86l0,.22h-.64l-.07-.34a1.11,1.11,0,0,0-1.75-.69l-.3.22-.46-.46.2-.29a1.11,1.11,0,0,0,.1-1.07,1.09,1.09,0,0,0-.85-.66l-.37-.06V5L14,4.9a1.11,1.11,0,0,0,.69-1.75l-.22-.3L15,2.39l.41.28A1.1,1.1,0,0,0,17.08,2l.1-.49h.64l.06.37a1.09,1.09,0,0,0,.66.85,1.11,1.11,0,0,0,1.07-.1l.29-.2.46.46-.22.3a1.11,1.11,0,0,0,.69,1.75l.34.07Z"/><path class="cls-2" d="M17.17,20.83H3.43A3.13,3.13,0,0,1,.31,17.7V6.77A3.12,3.12,0,0,1,3.43,3.65h6.66a.78.78,0,0,1,0,1.56H3.43A1.56,1.56,0,0,0,1.87,6.77V17.7a1.56,1.56,0,0,0,1.56,1.56H17.17a1.56,1.56,0,0,0,1.57-1.56V11.17a.78.78,0,1,1,1.56,0V17.7A3.13,3.13,0,0,1,17.17,20.83ZM3.58,16.37a.78.78,0,0,0,1.1-.15l1.11-1.46,2.06,2.61a.78.78,0,0,0,.61.29h0a.79.79,0,0,0,.61-.29l4.81-5.24L15.1,13.6a.78.78,0,0,0,1.1.11.79.79,0,0,0,.11-1.1l-1.84-2.23a.78.78,0,0,0-.61-.28.74.74,0,0,0-.6.3l-4.8,5.22L6.39,13a.76.76,0,0,0-.63-.29.77.77,0,0,0-.61.3L3.43,15.28A.78.78,0,0,0,3.58,16.37Zm.09-6.49A2.11,2.11,0,1,1,5.77,12,2.11,2.11,0,0,1,3.67,9.88ZM5,9.88a.78.78,0,1,0,.78-.78A.78.78,0,0,0,5,9.88Z"/></svg>