<?xml version="1.0" encoding="utf-8"?>
<!-- Generator: Adobe Illustrator 23.0.1, SVG Export Plug-In . SVG Version: 6.00 Build 0)  -->
<svg version="1.1" id="Layer_1" xmlns="http://www.w3.org/2000/svg" xmlns:xlink="http://www.w3.org/1999/xlink" x="0px" y="0px"
	 viewBox="0 0 48 48" style="enable-background:new 0 0 48 48;" xml:space="preserve">
<style type="text/css">
	.st0{fill:#FFFFFF;stroke:#E1E8EF;stroke-miterlimit:10;}
	.st1{fill:#808998;}
	.st2{fill:none;stroke:#808998;stroke-width:1.5;stroke-linecap:round;stroke-linejoin:round;}
	.st3{fill:#808998;stroke:#808998;stroke-width:0.1;stroke-linecap:round;stroke-linejoin:round;stroke-miterlimit:10;}
	.st4{fill:none;stroke:#FF0000;stroke-width:0.1;stroke-miterlimit:10;}
	.st5{fill:none;stroke:#808998;stroke-width:0.8;stroke-miterlimit:10;}
	.st6{fill:none;stroke:#808998;stroke-width:1.2;stroke-linecap:round;stroke-linejoin:round;}
	.st7{fill:none;stroke:#808998;stroke-width:1.5;stroke-linecap:round;stroke-linejoin:round;stroke-dasharray:1.9869,1.9869;}
	.st8{fill:none;stroke:#808998;stroke-width:1.5;stroke-linecap:round;stroke-linejoin:round;stroke-dasharray:1.999,1.999;}
	.st9{fill:none;stroke:#808998;stroke-width:1.5;stroke-linecap:round;stroke-linejoin:round;stroke-dasharray:1.9339,1.9339;}
	.st10{fill:#808998;stroke:#808998;stroke-width:0.5;stroke-miterlimit:10;}
	.st11{fill:none;stroke:#808998;stroke-width:0.8;stroke-linecap:round;stroke-linejoin:round;}
	.st12{fill:none;stroke:#808998;stroke-width:1.4;stroke-linecap:round;stroke-linejoin:round;}
	.st13{fill:none;stroke:#808998;stroke-width:1.3;stroke-linecap:round;stroke-linejoin:round;}
	.st14{fill:none;stroke:#808998;stroke-width:1.1;stroke-linecap:round;stroke-linejoin:round;}
	.st15{fill:none;stroke:#000000;stroke-width:1.3;stroke-linecap:round;stroke-linejoin:round;}
	.st16{fill:none;stroke:#FF0000;stroke-width:0.1;stroke-linecap:round;stroke-linejoin:round;}
	.st17{fill:none;stroke:#808998;stroke-width:1.5;stroke-linecap:round;stroke-linejoin:round;stroke-miterlimit:10;}
	.st18{fill-rule:evenodd;clip-rule:evenodd;fill:#808998;stroke:#808998;stroke-width:0.1;stroke-miterlimit:10;}
	.st19{fill:none;stroke:#808998;stroke-miterlimit:10;}
	.st20{fill:#808998;stroke:#808998;stroke-width:0.4;stroke-miterlimit:10;}
	.st21{fill-rule:evenodd;clip-rule:evenodd;fill:none;stroke:#808998;stroke-width:1.5;stroke-miterlimit:10;}
	.st22{fill-rule:evenodd;clip-rule:evenodd;fill:#808998;stroke:#808998;stroke-width:0.5;stroke-miterlimit:10;}
	.st23{fill:none;}
	.st24{fill:none;stroke:#808998;stroke-width:1.8;stroke-linecap:round;stroke-linejoin:round;stroke-miterlimit:10;}
	.st25{fill-rule:evenodd;clip-rule:evenodd;fill:#808998;}
	.st26{fill-rule:evenodd;clip-rule:evenodd;fill:none;stroke:#808998;stroke-width:1.3;stroke-miterlimit:10;}
	.st27{fill:#808998;stroke:#808998;stroke-width:0.6;stroke-miterlimit:10;}
	.st28{fill:url(#SVGID_1_);stroke:#808998;stroke-width:1.67;stroke-linecap:round;stroke-linejoin:round;}
	.st29{fill:url(#SVGID_2_);stroke:#808998;stroke-width:1.67;stroke-linecap:round;stroke-linejoin:round;}
	.st30{fill:#808998;stroke:#808998;stroke-width:0.2;stroke-miterlimit:10;}
	.st31{fill:none;stroke:#808998;stroke-width:1.5;stroke-miterlimit:10;}
	.st32{fill:none;stroke:#000000;stroke-width:1.5;stroke-linecap:round;stroke-linejoin:round;}
	.st33{fill:none;stroke:#808998;stroke-linecap:round;stroke-linejoin:round;}
	.st34{fill:#808998;stroke:#808998;stroke-width:0.3;stroke-miterlimit:10;}
	.st35{fill:none;stroke:#808998;stroke-width:1.8;stroke-miterlimit:10;}
	.st36{fill:none;stroke:#808998;stroke-width:1.8;stroke-linecap:round;stroke-linejoin:round;}
	.st37{opacity:0.4;fill:none;stroke:#808998;stroke-width:1.5;stroke-linecap:round;stroke-linejoin:round;}
</style>
<g>
	<g>
		<g>
			<path class="st2" d="M23.3,30.1v-1.2c0-1.4-1.2-2.5-2.5-2.5h-4.4c-1.4-0.1-2.6,1.1-2.6,2.5v1.2"/>
			<circle class="st2" cx="18.6" cy="21.3" r="2.5"/>
		</g>
		<g>
			<line class="st2" x1="27.4" y1="14.1" x2="27.4" y2="22.2"/>
			<line class="st2" x1="23.3" y1="18.2" x2="31.6" y2="18.2"/>
		</g>
	</g>
	<g>
		<path class="st11" d="M44.8,35.4c-0.3,0-0.6,0.1-0.8,0.2c-0.1-0.8-0.7-1.4-1.5-1.4c-0.4,0-0.7,0.1-1,0.4c-0.3-0.4-0.8-0.7-1.3-0.7
			c-0.3,0-0.5,0.1-0.8,0.2V30c0-0.8-0.7-1.5-1.5-1.5c-0.8,0-1.5,0.7-1.5,1.5v10.3c0,0.2-0.1,0.3-0.2,0.3c-0.1,0-0.2,0.1-0.4,0
			l-2.5-1.2c-0.2-0.1-0.5-0.2-0.7-0.2c-0.9,0-1.6,0.7-1.6,1.6v0.3c0,0.1,0,0.2,0.1,0.3l4.4,4.1c0.9,0.9,2.1,1.3,3.4,1.3h2.4
			c2.8,0,5-2.2,5-5v-5C46.3,36.1,45.7,35.4,44.8,35.4z M43.5,35.7h0.6v0.9h-0.6V35.7z M41.1,34.6h0.6v0.9h-0.6V34.6z M45.6,41.9
			c0,2.3-1.9,4.2-4.2,4.2h-2.4c-1.1,0-2.1-0.4-2.9-1.1l-4.3-4v-0.1c0-0.5,0.4-0.9,0.9-0.9c0.1,0,0.3,0,0.4,0.1l2.5,1.2
			c0.4,0.2,0.8,0.2,1.1-0.1c0.3-0.2,0.5-0.6,0.5-1V30c0-0.4,0.3-0.8,0.8-0.8c0.4,0,0.8,0.3,0.8,0.8v5.8c0,0.2,0.2,0.4,0.4,0.4
			c0.2,0,0.4-0.2,0.4-0.4v-0.4c0-0.1,0-0.2,0.1-0.3h-0.6v-0.9h0.6v0.9c0.1-0.3,0.4-0.5,0.7-0.5c0.4,0,0.8,0.3,0.8,0.8v0.4
			c0,0,0,0,0,0v0c0,0.2,0.2,0.4,0.4,0.4c0.2,0,0.4-0.2,0.4-0.4v0c0-0.4,0.3-0.8,0.8-0.8c0.4,0,0.8,0.3,0.8,0.8v1.2
			c0,0.2,0.2,0.4,0.4,0.4c0.2,0,0.4-0.2,0.4-0.4c0-0.4,0.3-0.8,0.8-0.8c0.4,0,0.8,0.3,0.8,0.8V41.9z"/>
		<path class="st11" d="M39.5,35.1C39.5,35.1,39.5,35.1,39.5,35.1L39.5,35.1L39.5,35.1z"/>
	</g>
	<g>
		<path class="st1" d="M5,42.1c-1.4,0-2.5-1.1-2.5-2.5V4.4C2.4,3,3.6,1.8,5,1.8h35.4c1.4,0,2.5,1.1,2.5,2.5v25.8
			c0.3,0,0.5,0,0.8,0.1V4.4c0-1.8-1.5-3.3-3.3-3.3H5c-1.8,0-3.3,1.5-3.3,3.3v35.3c0,1.8,1.5,3.3,3.3,3.3h24.4c0-0.3-0.1-0.5-0.1-0.8
			H5z"/>
	</g>
</g>
</svg>
