<?xml version="1.0" encoding="utf-8"?>
<!-- Generator: Adobe Illustrator 23.0.1, SVG Export Plug-In . SVG Version: 6.00 Build 0)  -->
<svg version="1.1" id="Layer_1" xmlns="http://www.w3.org/2000/svg" xmlns:xlink="http://www.w3.org/1999/xlink" x="0px" y="0px"
	 viewBox="0 0 1080 1080" style="enable-background:new 0 0 1080 1080;" xml:space="preserve">
<style type="text/css">
	.st0{fill:#91CFF2;}
	.st1{fill:#349DD7;}
	.st2{fill:#3D6286;}
	.st3{opacity:0.8;fill:none;stroke:#606060;stroke-width:3;stroke-miterlimit:10;}
	.st4{fill:#E6F5FF;}
	.st5{fill:#606060;}
	.st6{fill:#FFFFFF;}
	.st7{fill:none;stroke:#606060;stroke-width:3.5;stroke-miterlimit:10;}
	.st8{fill:none;stroke:#349DD7;stroke-width:2;stroke-linecap:round;stroke-linejoin:round;}
	.st9{opacity:5.000000e-02;}
	.st10{fill:none;stroke:#349DD7;stroke-width:3;stroke-linecap:round;stroke-linejoin:round;}
	.st11{fill:url(#SVGID_1_);}
	.st12{fill:url(#SVGID_2_);}
	.st13{fill:url(#SVGID_3_);}
	.st14{fill:url(#SVGID_4_);}
	.st15{fill:url(#SVGID_5_);}
	.st16{fill:#E1E8EF;}
	.st17{fill:#70E8CF;}
	.st18{fill:#B7BDDE;}
	.st19{fill:#677ECE;}
	.st20{opacity:0.3;fill:#0D2545;}
	.st21{fill:#0D2545;}
	.st22{fill:#2D4C88;}
	.st23{fill:#DFE1F9;}
	.st24{fill:#697FD0;}
	.st25{fill:#244F72;}
	.st26{fill:#6BD4F9;}
	.st27{fill:#00FFFF;}
	.st28{fill:#D9F7FF;}
	.st29{fill:#4DDDFF;}
	.st30{fill:#1B75BA;}
	.st31{fill:#7DEDFF;}
	.st32{fill:#F0F6F7;}
	.st33{fill:#E9F0F4;}
	.st34{fill:#A1BF38;}
	.st35{fill:#5FBFE0;}
	.st36{fill:#546E7A;}
	.st37{fill:#AFBDC4;}
	.st38{fill:#8FA3AD;}
	.st39{fill:#7ACFE0;}
	.st40{fill:#5BC5D3;}
	.st41{fill:#24AECE;}
	.st42{fill-rule:evenodd;clip-rule:evenodd;fill:#E7F2F2;}
	.st43{fill:#7ACFE0;stroke:#363953;stroke-width:1.71;stroke-miterlimit:10;}
	.st44{fill:none;stroke:#46496C;stroke-width:1.368;stroke-miterlimit:10;}
	.st45{fill:none;stroke:#7A7FA4;stroke-width:0.855;stroke-miterlimit:10;}
	.st46{fill:#A1BF38;stroke:#363953;stroke-width:1.71;stroke-miterlimit:10;}
	.st47{fill:#FFFFFF;stroke:#363953;stroke-width:1.71;stroke-miterlimit:10;}
	.st48{fill:#244F72;stroke:#363953;stroke-width:1.71;stroke-miterlimit:10;}
	.st49{fill:#005893;stroke:#363953;stroke-width:1.71;stroke-miterlimit:10;}
	.st50{fill:#E3F1FC;}
	.st51{fill:#607D8A;}
	.st52{opacity:0.2;fill:#349DD7;}
	.st53{fill:#B2B2B2;}
	.st54{fill:none;stroke:#B2B2B2;stroke-miterlimit:10;stroke-dasharray:6,6;}
	.st55{fill:#303642;}
	.st56{fill:#3B414F;}
	.st57{fill:#252B35;}
	.st58{fill:#363E49;}
	.st59{fill:#2D353D;}
	.st60{fill:#515966;}
	.st61{fill:#6B7684;}
	.st62{fill:#365687;}
	.st63{fill:#597AAA;}
	.st64{fill:#2A4875;}
	.st65{fill:#1E385E;}
	.st66{fill:#FFD25E;}
	.st67{opacity:5.000000e-02;fill:#FFFFFF;}
	.st68{fill:#4C545E;}
	.st69{fill:#5A616D;}
	.st70{fill:#DADADA;}
	.st71{fill:#EDEDED;}
	.st72{opacity:0.15;fill:#FFFFFF;}
	.st73{opacity:0.1;}
	.st74{fill:#198CBF;}
	.st75{opacity:0.1;fill:#FFFFFF;}
	.st76{opacity:0.5;}
	.st77{opacity:0.5;fill:#FFFFFF;}
	.st78{fill:#BCBCBC;}
	.st79{fill:#D6D6D6;}
	.st80{fill:#49B3E2;}
	.st81{fill:#FCC015;}
</style>
<g>
	<g>
		<g>
			<g>
				<path class="st4" d="M734.1,339.2l-3.5-0.1l1.4-3.2c5.6-12.8,8.4-26.5,8.4-40.5c0-56.3-45.8-102.1-102.1-102.1
					c-35.5,0-68,18-86.8,48.3l-1.7,2.8l-2.1-2.5c-19.8-23.5-48.8-36.9-79.5-36.9c-57.4,0-104.1,46.7-104.1,104.1
					c0,9.2,1.2,18.3,3.6,27.2l0.8,3l-3.1,0c-81.7,0.2-148.2,66.9-148.2,148.6c0,82,66.7,148.6,148.6,148.6h363.8
					c82,0,148.6-66.7,148.6-148.6C878.3,406.9,815,341.6,734.1,339.2z"/>
			</g>
			<g>
				<path class="st5" d="M834.5,374.6c-27.1-27.9-63.2-44.2-101.9-46.2c4.9-12.5,7.5-25.7,7.5-39.2c0-58.9-47.9-106.9-106.9-106.9
					c-36.1,0-69.2,17.8-89.1,47.8c-20.7-23-50-36.2-81-36.2c-60,0-108.8,48.8-108.8,108.8c0,8.6,1,17.1,3,25.4
					c-82.9,1.8-149.9,70-149.9,153.3c0,84.6,68.8,153.4,153.4,153.4h363.8c84.6,0,153.4-68.8,153.4-153.4
					C877.9,441.4,862.5,403.4,834.5,374.6z M724.6,630.2H360.7c-82,0-148.6-66.7-148.6-148.6c0-81.7,66.5-148.4,148.2-148.6l3.1,0
					l-0.8-3c-2.4-8.9-3.6-18-3.6-27.2c0-57.4,46.7-104.1,104.1-104.1c30.7,0,59.7,13.5,79.5,36.9l2.1,2.5l1.7-2.8
					c18.8-30.2,51.2-48.3,86.8-48.3c56.3,0,102.1,45.8,102.1,102.1c0,14.1-2.8,27.7-8.4,40.5l-1.4,3.2l3.5,0.1
					c80.9,2.4,144.2,67.6,144.2,148.5C873.2,563.5,806.5,630.2,724.6,630.2z"/>
			</g>
			<rect x="399.6" y="614.4" class="st6" width="286.2" height="97.2"/>
			<rect x="399.6" y="762.1" class="st6" width="286.2" height="97.2"/>
			<g>
				<g>
					<path class="st5" d="M335.3,764c-5.5,0-10-4.7-10-10.5c0-5.8,4.5-10.5,10-10.5c5.5,0,10,4.7,10,10.5
						C345.4,759.3,340.9,764,335.3,764z M335.3,747.8c-3,0-5.4,2.5-5.4,5.7c0,3.1,2.4,5.7,5.4,5.7c3,0,5.4-2.5,5.4-5.7
						C340.7,750.4,338.3,747.8,335.3,747.8z"/>
				</g>
			</g>
			<g>
				<g>
					<path class="st5" d="M885.4,612.2h-19.6c-1.4,0-2.4-1.1-2.4-2.6c0-1.4,1.1-2.6,2.4-2.6h19.6c1.3,0,2.4,1.1,2.4,2.6
						C887.8,611,886.7,612.2,885.4,612.2z"/>
				</g>
			</g>
			<g>
				<g>
					<path class="st5" d="M864.5,329.9h-19.6c-1.4,0-2.4-1.1-2.4-2.6c0-1.4,1.1-2.6,2.4-2.6h19.6c1.3,0,2.4,1.1,2.4,2.6
						C867,328.7,865.9,329.9,864.5,329.9z"/>
				</g>
			</g>
			<g>
				<g>
					<path class="st5" d="M274.1,758.6h-19.6c-1.4,0-2.4-1.1-2.4-2.5c0-1.4,1.1-2.6,2.4-2.6h19.6c1.3,0,2.4,1.1,2.4,2.6
						C276.5,757.5,275.4,758.6,274.1,758.6z"/>
				</g>
			</g>
			<g>
				<g>
					<path class="st5" d="M786.2,219.7h-19.6c-1.4,0-2.4-1.1-2.4-2.6c0-1.4,1.1-2.6,2.4-2.6h19.6c1.3,0,2.4,1.1,2.4,2.6
						C788.7,218.6,787.6,219.7,786.2,219.7z"/>
				</g>
			</g>
			<g>
				<g>
					<path class="st5" d="M271.1,217.2h-19.6c-1.4,0-2.4-1.1-2.4-2.6c0-1.4,1.1-2.6,2.4-2.6h19.6c1.3,0,2.4,1.1,2.4,2.6
						C273.5,216,272.4,217.2,271.1,217.2z"/>
				</g>
			</g>
			<g>
				<g>
					<path class="st5" d="M626.2,901h-17.5c-1.2,0-2.2-1-2.2-2.2c0-1.2,1-2.2,2.2-2.2h17.5c1.2,0,2.2,1,2.2,2.2
						C628.3,900,627.4,901,626.2,901z"/>
				</g>
			</g>
			<g>
				<g>
					<path class="st5" d="M866.2,858.4h-17.5c-1.2,0-2.2-1-2.2-2.2c0-1.2,1-2.2,2.2-2.2h17.5c1.2,0,2.2,1,2.2,2.2
						C868.4,857.5,867.4,858.4,866.2,858.4z"/>
				</g>
			</g>
			<g>
				<g>
					<path class="st5" d="M365,909.2h-17.5c-1.2,0-2.2-1-2.2-2.2c0-1.2,1-2.2,2.2-2.2H365c1.2,0,2.2,1,2.2,2.2
						C367.2,908.2,366.2,909.2,365,909.2z"/>
				</g>
			</g>
			<g>
				<g>
					<path class="st5" d="M291.8,299.2c-7.6,0-13.8-6.5-13.8-14.5c0-8,6.2-14.5,13.8-14.5s13.8,6.5,13.8,14.5
						C305.6,292.7,299.4,299.2,291.8,299.2z M291.8,275.3c-4.9,0-8.9,4.2-8.9,9.4c0,5.2,4,9.4,8.9,9.4c4.9,0,9-4.2,9-9.4
						C300.7,279.5,296.7,275.3,291.8,275.3z"/>
				</g>
			</g>
			<g>
				<g>
					<path class="st5" d="M817.5,827c-7.6,0-13.8-6.5-13.8-14.5c0-8,6.2-14.5,13.8-14.5c7.6,0,13.8,6.5,13.8,14.5
						C831.3,820.5,825.1,827,817.5,827z M817.5,803.2c-4.9,0-8.9,4.2-8.9,9.4c0,5.2,4,9.4,8.9,9.4c4.9,0,9-4.2,9-9.4
						C826.4,807.4,822.4,803.2,817.5,803.2z"/>
				</g>
			</g>
			<g>
				<path class="st5" d="M505.7,898.8l6.6-6.6c0.8-0.9,0.8-2.2,0-3.1c-0.9-0.9-2.2-0.9-3.1,0l-6.6,6.6l-6.6-6.6
					c-0.9-0.9-2.2-0.9-3.1,0c-0.9,0.9-0.9,2.2,0,3.1l6.6,6.6l-6.6,6.6c-0.9,0.9-0.9,2.2,0,3.1c0.4,0.4,1,0.6,1.5,0.6
					s1.1-0.2,1.5-0.6l6.6-6.6l6.6,6.6c0.4,0.4,1,0.6,1.5,0.6c0.6,0,1.1-0.2,1.5-0.6c0.8-0.8,0.8-2.2,0-3.1L505.7,898.8z"/>
			</g>
			<g>
				<path class="st5" d="M200.4,783.2l6.6-6.6c0.8-0.9,0.8-2.2,0-3.1c-0.9-0.9-2.2-0.9-3.1,0l-6.6,6.6l-6.6-6.6
					c-0.9-0.9-2.2-0.9-3.1,0c-0.9,0.9-0.9,2.2,0,3.1l6.6,6.6l-6.6,6.6c-0.9,0.9-0.9,2.2,0,3.1c0.4,0.4,1,0.6,1.5,0.6
					c0.6,0,1.1-0.2,1.5-0.6l6.6-6.6l6.6,6.6c0.4,0.4,1,0.6,1.5,0.6c0.6,0,1.1-0.2,1.5-0.6c0.8-0.8,0.8-2.2,0-3.1L200.4,783.2z"/>
			</g>
			<g>
				<path class="st5" d="M806.2,276.2l7.4-7.8c1-1,1-2.6,0-3.6c-1-1-2.5-1-3.5,0l-7.4,7.8l-7.4-7.8c-1-1-2.5-1-3.5,0
					c-1,1-1,2.6,0,3.6l7.4,7.8l-7.4,7.8c-1,1-1,2.6,0,3.6c0.5,0.5,1.1,0.7,1.7,0.7c0.6,0,1.2-0.3,1.7-0.7l7.4-7.8l7.4,7.8
					c0.5,0.5,1.1,0.7,1.7,0.7c0.6,0,1.3-0.3,1.7-0.7c1-1,1-2.6,0-3.6L806.2,276.2z"/>
			</g>
			<g>
				<path class="st5" d="M212.4,323.4l7.4-7.8c1-1,1-2.6,0-3.6c-1-1-2.5-1-3.5,0l-7.4,7.8l-7.4-7.8c-1-1-2.5-1-3.5,0
					c-1,1-1,2.6,0,3.6l7.4,7.8l-7.4,7.8c-1,1-1,2.6,0,3.6c0.5,0.5,1.1,0.7,1.7,0.7c0.6,0,1.2-0.3,1.7-0.7l7.4-7.8l7.4,7.8
					c0.5,0.5,1.1,0.7,1.7,0.7c0.6,0,1.3-0.3,1.7-0.7c1-1,1-2.6,0-3.6L212.4,323.4z"/>
			</g>
			<g>
				<path class="st1" d="M404.7,865.6h286.2v-97.2H404.7V865.6z M442.3,796.5c11.3,0,20.4,9.2,20.4,20.4c0,11.3-9.2,20.4-20.4,20.4
					c-11.2,0-20.4-9.2-20.4-20.4C421.9,805.7,431.1,796.5,442.3,796.5z"/>
			</g>
			<g>
				<path class="st1" d="M404.7,717.9h286.2v-97.2H404.7V717.9z M442.3,648.9c11.3,0,20.4,9.1,20.4,20.4c0,11.3-9.2,20.4-20.4,20.4
					c-11.2,0-20.4-9.2-20.4-20.4C421.9,658,431.1,648.9,442.3,648.9z"/>
			</g>
			<g>
				<path class="st1" d="M690.8,473H404.7v97.2h286.2V473z M442.3,542c-11.2,0-20.4-9.2-20.4-20.4c0-11.3,9.1-20.4,20.4-20.4
					c11.3,0,20.4,9.2,20.4,20.4C462.7,532.9,453.6,542,442.3,542z"/>
			</g>
			<g>
				<path class="st5" d="M688.1,568.8c1.3,0,2.4-1.1,2.4-2.4V464.3c0-1.3-1.1-2.4-2.4-2.4h-291c-1.3,0-2.4,1.1-2.4,2.4v102.1
					c0,1.3,1.1,2.4,2.4,2.4h143.1v40.7H397.1c-1.3,0-2.4,1.1-2.4,2.5v102.1c0,1.3,1.1,2.4,2.4,2.4h143.1v40.7H397.1
					c-1.3,0-2.4,1.1-2.4,2.4v102c0,1.3,1.1,2.4,2.4,2.4h291c1.3,0,2.4-1.1,2.4-2.4v-102c0-1.3-1.1-2.4-2.4-2.4H545.1v-40.7h143.1
					c1.3,0,2.4-1.1,2.4-2.4V612c0-1.4-1.1-2.5-2.4-2.5H545.1v-40.7H688.1z M685.7,762.1v97.2H399.6v-97.2H685.7z M685.7,614.4v97.2
					H399.6v-97.2H685.7z M399.6,564v-97.2h286.2V564H399.6z"/>
			</g>
			<g>
				<path class="st5" d="M437.2,494.9c-11.2,0-20.4,9.2-20.4,20.4c0,11.2,9.1,20.4,20.4,20.4c11.3,0,20.4-9.2,20.4-20.4
					C457.6,504.1,448.5,494.9,437.2,494.9z M437.2,531.9c-9.1,0-16.5-7.4-16.5-16.5c0-9.1,7.4-16.5,16.5-16.5
					c9.1,0,16.5,7.4,16.5,16.5C453.7,524.5,446.3,531.9,437.2,531.9z"/>
			</g>
			<g>
				<path class="st6" d="M442.3,689.6c11.3,0,20.4-9.2,20.4-20.4c0-11.2-9.2-20.4-20.4-20.4c-11.2,0-20.4,9.1-20.4,20.4
					C421.9,680.4,431.1,689.6,442.3,689.6z M442.3,652.7c9.1,0,16.5,7.4,16.5,16.5c0,9.1-7.4,16.5-16.5,16.5
					c-9.1,0-16.5-7.4-16.5-16.5C425.8,660.1,433.2,652.7,442.3,652.7z"/>
			</g>
			<g>
				<path class="st6" d="M442.3,837.3c11.3,0,20.4-9.2,20.4-20.4c0-11.3-9.2-20.4-20.4-20.4c-11.2,0-20.4,9.2-20.4,20.4
					C421.9,828.1,431.1,837.3,442.3,837.3z M442.3,800.3c9.1,0,16.5,7.4,16.5,16.5c0,9.1-7.4,16.5-16.5,16.5
					c-9.1,0-16.5-7.4-16.5-16.5C425.8,807.8,433.2,800.3,442.3,800.3z"/>
			</g>
			<g>
				<path class="st5" d="M437.2,683.5c11.3,0,20.4-9.2,20.4-20.4c0-11.2-9.2-20.4-20.4-20.4c-11.2,0-20.4,9.1-20.4,20.4
					C416.8,674.3,426,683.5,437.2,683.5z M437.2,646.5c9.1,0,16.5,7.4,16.5,16.5c0,9.1-7.4,16.5-16.5,16.5
					c-9.1,0-16.5-7.4-16.5-16.5C420.7,653.9,428.1,646.5,437.2,646.5z"/>
			</g>
			<g>
				<path class="st5" d="M437.2,831.1c11.3,0,20.4-9.2,20.4-20.4c0-11.3-9.2-20.4-20.4-20.4c-11.2,0-20.4,9.2-20.4,20.4
					C416.8,822,426,831.1,437.2,831.1z M437.2,794.2c9.1,0,16.5,7.4,16.5,16.5c0,9.1-7.4,16.5-16.5,16.5c-9.1,0-16.5-7.4-16.5-16.5
					C420.7,801.6,428.1,794.2,437.2,794.2z"/>
			</g>
			<g>
				<path class="st6" d="M657.4,524H494.6c-1.3,0-2.4-1.1-2.4-2.4c0-1.3,1.1-2.4,2.4-2.4h162.8c1.3,0,2.4,1.1,2.4,2.4
					C659.7,522.9,658.7,524,657.4,524z"/>
			</g>
			<g>
				<path class="st6" d="M657.4,671.7H494.6c-1.3,0-2.4-1.1-2.4-2.4c0-1.3,1.1-2.4,2.4-2.4h162.8c1.3,0,2.4,1.1,2.4,2.4
					C659.7,670.6,658.7,671.7,657.4,671.7z"/>
			</g>
			<g>
				<path class="st6" d="M657.4,819.4H494.6c-1.3,0-2.4-1.1-2.4-2.4c0-1.3,1.1-2.4,2.4-2.4h162.8c1.3,0,2.4,1.1,2.4,2.4
					C659.7,818.3,658.7,819.4,657.4,819.4z"/>
			</g>
			<g>
				<path class="st5" d="M651.4,517.7H488.7c-1.3,0-2.4-1.1-2.4-2.4c0-1.3,1.1-2.4,2.4-2.4h162.8c1.3,0,2.4,1.1,2.4,2.4
					C653.8,516.7,652.7,517.7,651.4,517.7z"/>
			</g>
			<g>
				<path class="st5" d="M651.4,665.4H488.7c-1.3,0-2.4-1.1-2.4-2.4c0-1.3,1.1-2.4,2.4-2.4h162.8c1.3,0,2.4,1.1,2.4,2.4
					C653.8,664.3,652.7,665.4,651.4,665.4z"/>
			</g>
			<g>
				<path class="st5" d="M651.4,813.1H488.7c-1.3,0-2.4-1.1-2.4-2.4c0-1.3,1.1-2.4,2.4-2.4h162.8c1.3,0,2.4,1.1,2.4,2.4
					C653.8,812,652.7,813.1,651.4,813.1z"/>
			</g>
			<g>
				<polygon class="st5" points="505,461.9 500.3,461.9 500.3,329.7 457.6,329.7 457.6,324.9 505,324.9 				"/>
			</g>
			<g>
				<path class="st5" d="M448.1,315.5c-6.5,0-11.8,5.3-11.8,11.8c0,6.5,5.3,11.8,11.8,11.8c6.5,0,11.8-5.3,11.8-11.8
					C460,320.8,454.7,315.5,448.1,315.5z M448.1,334.4c-3.9,0-7.1-3.2-7.1-7.1c0-3.9,3.2-7.1,7.1-7.1c3.9,0,7.1,3.2,7.1,7.1
					C455.2,331.2,452.1,334.4,448.1,334.4z"/>
				<path class="st5" d="M218.4,631.4c-6.5,0-11.8,5.3-11.8,11.8c0,6.5,5.3,11.8,11.8,11.8c6.5,0,11.8-5.3,11.8-11.8
					C230.3,636.7,225,631.4,218.4,631.4z M218.4,650.3c-3.9,0-7.1-3.2-7.1-7.1c0-3.9,3.2-7.1,7.1-7.1c3.9,0,7.1,3.2,7.1,7.1
					C225.5,647.1,222.4,650.3,218.4,650.3z"/>
				<path class="st5" d="M749,706.8c-6.5,0-11.8,5.3-11.8,11.8c0,6.5,5.3,11.8,11.8,11.8c6.5,0,11.8-5.3,11.8-11.8
					C760.9,712.1,755.6,706.8,749,706.8z M749,725.8c-3.9,0-7.1-3.2-7.1-7.1s3.2-7.1,7.1-7.1s7.1,3.2,7.1,7.1S752.9,725.8,749,725.8
					z"/>
				<path class="st5" d="M803.8,729.3c-6.5,0-11.8,5.3-11.8,11.8c0,6.5,5.3,11.8,11.8,11.8c6.5,0,11.8-5.3,11.8-11.8
					C815.6,734.6,810.3,729.3,803.8,729.3z M803.8,748.2c-3.9,0-7.1-3.2-7.1-7.1c0-3.9,3.2-7.1,7.1-7.1s7.1,3.2,7.1,7.1
					C810.9,745.1,807.7,748.2,803.8,748.2z"/>
				<path class="st5" d="M857.5,651.2c-6.5,0-11.8,5.3-11.8,11.8c0,6.5,5.3,11.8,11.8,11.8c6.5,0,11.8-5.3,11.8-11.8
					C869.3,656.5,864,651.2,857.5,651.2z M857.5,670.2c-3.9,0-7.1-3.2-7.1-7.1c0-3.9,3.2-7.1,7.1-7.1c3.9,0,7.1,3.2,7.1,7.1
					C864.6,667,861.4,670.2,857.5,670.2z"/>
				<path class="st5" d="M749,921.6c-6.5,0-11.8,5.3-11.8,11.8c0,6.5,5.3,11.8,11.8,11.8c6.5,0,11.8-5.3,11.8-11.8
					C760.9,927,755.6,921.6,749,921.6z M749,940.6c-3.9,0-7.1-3.2-7.1-7.1c0-3.9,3.2-7.1,7.1-7.1s7.1,3.2,7.1,7.1
					C756.1,937.4,752.9,940.6,749,940.6z"/>
				<path class="st5" d="M749,450c-6.5,0-11.8,5.3-11.8,11.8c0,6.5,5.3,11.8,11.8,11.8c6.5,0,11.8-5.3,11.8-11.8
					C760.9,455.4,755.6,450,749,450z M749,469c-3.9,0-7.1-3.2-7.1-7.1c0-3.9,3.2-7.1,7.1-7.1s7.1,3.2,7.1,7.1
					C756.1,465.8,752.9,469,749,469z"/>
				<path class="st5" d="M335.3,554.7c-6.5,0-11.8,5.3-11.8,11.8c0,6.5,5.3,11.8,11.8,11.8c6.5,0,11.8-5.3,11.8-11.8
					C347.2,560,341.8,554.7,335.3,554.7z M335.3,573.7c-3.9,0-7.1-3.2-7.1-7.1c0-3.9,3.2-7.1,7.1-7.1c3.9,0,7.1,3.2,7.1,7.1
					C342.4,570.5,339.2,573.7,335.3,573.7z"/>
				<path class="st5" d="M607.9,311.6c-6.5,0-11.8,5.3-11.8,11.8c0,6.5,5.3,11.8,11.8,11.8c6.5,0,11.8-5.3,11.8-11.8
					C619.8,316.9,614.5,311.6,607.9,311.6z M607.9,330.5c-3.9,0-7.1-3.2-7.1-7.1c0-3.9,3.2-7.1,7.1-7.1c3.9,0,7.1,3.2,7.1,7.1
					C615,327.4,611.8,330.5,607.9,330.5z"/>
			</g>
			<g>
				<rect x="540.3" y="171.7" class="st5" width="4.7" height="290.2"/>
			</g>
			<g>
				<polygon class="st5" points="582.2,461.9 577.5,461.9 577.5,350.9 605.6,350.9 605.6,332.9 610.3,332.9 610.3,355.6 
					582.2,355.6 				"/>
			</g>
			<g>
				<polygon class="st5" points="332.9,517.7 332.9,473.3 174.1,473.3 174.1,468.6 337.7,468.6 337.7,513 394.7,513 394.7,517.7 
									"/>
			</g>
			<g>
				<rect x="332.9" y="515.4" class="st5" width="4.7" height="41.7"/>
			</g>
			<g>
				<polygon class="st5" points="751.4,517.7 690.6,517.7 690.6,513 746.7,513 746.7,471 751.4,471 				"/>
			</g>
			<g>
				<polygon class="st5" points="801.9,559.5 746.7,559.5 746.7,515.4 751.4,515.4 751.4,554.7 797.2,554.7 797.2,513 902.7,513 
					902.7,517.7 801.9,517.7 				"/>
			</g>
			<g>
				<polygon class="st5" points="751.4,924 746.7,924 746.7,813.1 690.6,813.1 690.6,808.4 751.4,808.4 				"/>
			</g>
			<g>
				<polygon class="st5" points="337.7,849.2 257.6,849.2 257.6,844.4 332.9,844.4 332.9,808.4 394.7,808.4 394.7,813.1 
					337.7,813.1 				"/>
			</g>
			<g>
				<path class="st5" d="M260.6,868.2c0.6,0,1.2,0,1.7,0.1v-22.4c-0.9,0-1.9,0.1-2.8,0c-0.7,0-1.3-0.1-1.9-0.2v22.8
					C258.5,868.3,259.5,868.2,260.6,868.2z"/>
			</g>
			<g>
				<polygon class="st5" points="751.4,709.2 746.7,709.2 746.7,665.4 690.6,665.4 690.6,660.7 751.4,660.7 				"/>
			</g>
			<g>
				<polygon class="st5" points="806.2,731.7 801.4,731.7 801.4,665.4 749,665.4 749,660.7 806.2,660.7 				"/>
			</g>
			<g>
				<rect x="803.8" y="660.7" class="st5" width="44.2" height="4.7"/>
			</g>
			<g>
				<polygon class="st5" points="347.2,699.7 270.4,699.7 222.9,652.1 226.2,648.8 272.4,695 342.4,695 342.4,660.7 394.7,660.7 
					394.7,665.4 347.2,665.4 				"/>
			</g>
		</g>
		<g>
			<path class="st6" d="M173.8,522.8H78.1c-1.8,0-3.2-1.5-3.2-3.2v-95.7c0-1.8,1.5-3.2,3.2-3.2h95.7c1.8,0,3.2,1.5,3.2,3.2v95.7
				C177,521.3,175.6,522.8,173.8,522.8z"/>
			<path class="st7" d="M173.8,522.8H78.1c-1.8,0-3.2-1.5-3.2-3.2v-95.7c0-1.8,1.5-3.2,3.2-3.2h95.7c1.8,0,3.2,1.5,3.2,3.2v95.7
				C177,521.3,175.6,522.8,173.8,522.8z"/>
		</g>
		<g>
			<g>
				<g>
					<path class="st8" d="M129.5,453.6h-14.4c-2,0-3.6,1.6-3.6,3.6v28.9c0,2,1.6,3.6,3.6,3.6h21.6c2,0,3.6-1.6,3.6-3.6v-21.6
						L129.5,453.6z"/>
					<polyline class="st8" points="129.5,453.6 129.5,464.5 140.4,464.5 					"/>
				</g>
				<line class="st8" x1="133.6" y1="475.8" x2="119.1" y2="475.8"/>
			</g>
			<polyline class="st8" points="122.7,468.6 120.9,468.6 119.1,468.6 			"/>
		</g>
		<g>
			<path class="st6" d="M590,170.6h-95.7c-1.8,0-3.2-1.5-3.2-3.2V71.7c0-1.8,1.5-3.2,3.2-3.2H590c1.8,0,3.2,1.5,3.2,3.2v95.7
				C593.2,169.1,591.7,170.6,590,170.6z"/>
			<path class="st7" d="M590,170.6h-95.7c-1.8,0-3.2-1.5-3.2-3.2V71.7c0-1.8,1.5-3.2,3.2-3.2H590c1.8,0,3.2,1.5,3.2,3.2v95.7
				C593.2,169.1,591.7,170.6,590,170.6z"/>
		</g>
		<g>
			<path class="st6" d="M1000.1,565.8h-95.7c-1.8,0-3.2-1.5-3.2-3.2v-95.7c0-1.8,1.5-3.2,3.2-3.2h95.7c1.8,0,3.2,1.5,3.2,3.2v95.7
				C1003.3,564.4,1001.9,565.8,1000.1,565.8z"/>
			<path class="st7" d="M1000.1,565.8h-95.7c-1.8,0-3.2-1.5-3.2-3.2v-95.7c0-1.8,1.5-3.2,3.2-3.2h95.7c1.8,0,3.2,1.5,3.2,3.2v95.7
				C1003.3,564.4,1001.9,565.8,1000.1,565.8z"/>
		</g>
		<g>
			<path class="st6" d="M307.8,969.2h-95.7c-1.8,0-3.2-1.5-3.2-3.2v-95.7c0-1.8,1.5-3.2,3.2-3.2h95.7c1.8,0,3.2,1.5,3.2,3.2V966
				C311,967.7,309.6,969.2,307.8,969.2z"/>
			<path class="st7" d="M307.8,969.2h-95.7c-1.8,0-3.2-1.5-3.2-3.2v-95.7c0-1.8,1.5-3.2,3.2-3.2h95.7c1.8,0,3.2,1.5,3.2,3.2V966
				C311,967.7,309.6,969.2,307.8,969.2z"/>
		</g>
		<g>
			<ellipse class="st8" cx="259.8" cy="906.4" rx="15.4" ry="5.1"/>
			<path class="st8" d="M275.2,918.4c0,2.8-6.9,5.1-15.4,5.1s-15.4-2.3-15.4-5.1"/>
			<path class="st8" d="M244.4,906.4v24c0,2.8,6.9,5.1,15.4,5.1s15.4-2.3,15.4-5.1v-24"/>
			<line class="st8" x1="260.4" y1="929.6" x2="260.4" y2="929.6"/>
			<line class="st8" x1="260.2" y1="917.8" x2="260.2" y2="917.8"/>
		</g>
		<g>
			<path class="st6" d="M797.7,969H702c-1.8,0-3.2-1.5-3.2-3.2v-95.7c0-1.8,1.5-3.2,3.2-3.2h95.7c1.8,0,3.2,1.5,3.2,3.2v95.7
				C800.9,967.6,799.5,969,797.7,969z"/>
			<path class="st7" d="M797.7,969H702c-1.8,0-3.2-1.5-3.2-3.2v-95.7c0-1.8,1.5-3.2,3.2-3.2h95.7c1.8,0,3.2,1.5,3.2,3.2v95.7
				C800.9,967.6,799.5,969,797.7,969z"/>
		</g>
		<g>
			<path class="st8" d="M967.2,521.1c-3.5,8.2-13,12.1-21.2,8.6c-8.2-3.5-12.1-13-8.6-21.2c1.6-3.8,4.6-6.9,8.4-8.5"/>
			<path class="st8" d="M968.4,514.8c0-8.9-7.2-16.2-16.2-16.2v16.2H968.4z"/>
		</g>
		<polyline class="st8" points="556.7,118.7 550.3,118.7 545.6,132.9 536.1,104.4 531.3,118.7 525,118.7 		"/>
	</g>
	<g class="st9">
		<path class="st7" d="M1054.2,798.4h-95.7c-1.8,0-3.2-1.5-3.2-3.2v-95.7c0-1.8,1.5-3.2,3.2-3.2h95.7c1.8,0,3.2,1.5,3.2,3.2v95.7
			C1057.4,796.9,1056,798.4,1054.2,798.4z"/>
	</g>
	<g class="st9">
		<path class="st7" d="M152.5,755.4H56.8c-1.8,0-3.2-1.5-3.2-3.2v-95.7c0-1.8,1.5-3.2,3.2-3.2h95.7c1.8,0,3.2,1.5,3.2,3.2v95.7
			C155.8,754,154.3,755.4,152.5,755.4z"/>
	</g>
	<g class="st9">
		<path class="st7" d="M231,215.4h-95.7c-1.8,0-3.2-1.5-3.2-3.2v-95.7c0-1.8,1.5-3.2,3.2-3.2H231c1.8,0,3.2,1.5,3.2,3.2v95.7
			C234.2,214,232.7,215.4,231,215.4z"/>
	</g>
	<g class="st9">
		<path class="st7" d="M1041.4,322.2h-95.7c-1.8,0-3.2-1.5-3.2-3.2v-95.7c0-1.8,1.5-3.2,3.2-3.2h95.7c1.8,0,3.2,1.5,3.2,3.2V319
			C1044.7,320.8,1043.2,322.2,1041.4,322.2z"/>
	</g>
	<line class="st3" x1="13.9" y1="1011.6" x2="1068.1" y2="1011.6"/>
	<g>
		<g>
			<path class="st10" d="M762.6,929.5v-3.2c0-3.5-2.9-6.4-6.4-6.4H745c-3.5,0-6.4,2.9-6.4,6.4v3.2"/>
			<circle class="st10" cx="750.6" cy="907.2" r="6.4"/>
		</g>
	</g>
</g>
</svg>
