<svg id="Layer_1" data-name="Layer 1" xmlns="http://www.w3.org/2000/svg" viewBox="0 0 22 22"><defs><style>.cls-1{fill:#808998;}.cls-2{fill:none;stroke:#808998;stroke-miterlimit:10;}</style></defs><title>robot</title><path class="cls-1" d="M18.11,7.9H3.89A3.18,3.18,0,0,0,.71,11.08V20H21.29V11.08A3.18,3.18,0,0,0,18.11,7.9ZM1.71,18.84V11.08A2.17,2.17,0,0,1,3.89,8.9H18.11a2.17,2.17,0,0,1,2.18,2.18v7.76Z"/><rect class="cls-1" x="15.72" y="4.33" width="0.97" height="4.04" rx="0.38"/><circle class="cls-2" cx="16.18" cy="3.21" r="1.16"/><circle class="cls-2" cx="7" cy="12.97" r="1.59"/><circle class="cls-2" cx="15" cy="12.97" r="1.59"/><rect class="cls-1" x="10.69" y="15.47" width="0.71" height="2.94" rx="0.28"/><rect class="cls-1" x="11.8" y="15.9" width="0.5" height="2.08" rx="0.2"/><rect class="cls-1" x="12.89" y="16.29" width="0.31" height="1.3" rx="0.12"/><rect class="cls-1" x="9.7" y="15.9" width="0.5" height="2.08" rx="0.2" transform="translate(19.91 33.87) rotate(180)"/><rect class="cls-1" x="8.8" y="16.29" width="0.31" height="1.3" rx="0.12" transform="translate(17.91 33.87) rotate(180)"/></svg>