<svg id="Layer_1" data-name="Layer 1" xmlns="http://www.w3.org/2000/svg" viewBox="0 0 22 22"><defs><style>.cls-1,.cls-3{fill:none;stroke-linecap:round;stroke-linejoin:round;}.cls-1{stroke:#00a1e4;stroke-width:1.5px;}.cls-2,.cls-4{fill:#808998;}.cls-2,.cls-3{stroke:#808998;}.cls-2{stroke-miterlimit:10;stroke-width:0.5px;}.cls-3{stroke-width:0.8px;}</style></defs><title>Login-hover_2</title><path class="cls-1" d="M9.82,10.55V10A1.05,1.05,0,0,0,8.77,9H6.92a1.05,1.05,0,0,0-1,1.06v.52"/><circle class="cls-1" cx="7.85" cy="6.86" r="1.06"/><path class="cls-2" d="M19.32,12.32H6.39a2.47,2.47,0,1,0,0,4.94H19.32a2.47,2.47,0,0,0,0-4.94ZM4.62,14.79A1.77,1.77,0,0,1,6.39,13H16.1v3.54H6.39A1.77,1.77,0,0,1,4.62,14.79Zm14.7,1.77H16.81V13h2.51a1.77,1.77,0,0,1,0,3.54Z"/><line class="cls-3" x1="7.64" y1="14.39" x2="6.67" y2="15.36"/><line class="cls-3" x1="6.67" y1="14.39" x2="7.66" y2="15.36"/><line class="cls-3" x1="9.9" y1="14.37" x2="8.93" y2="15.33"/><line class="cls-3" x1="8.93" y1="14.37" x2="9.92" y2="15.34"/><line class="cls-3" x1="12.03" y1="14.32" x2="11.06" y2="15.29"/><line class="cls-3" x1="11.06" y1="14.32" x2="12.04" y2="15.29"/><line class="cls-3" x1="14.29" y1="14.3" x2="13.32" y2="15.27"/><line class="cls-3" x1="13.32" y1="14.3" x2="14.3" y2="15.27"/><path class="cls-2" d="M19.15,15l-.56.67a.07.07,0,0,0,0,.07.07.07,0,0,0,0,.06.1.1,0,0,0,.14,0l.69-.82a.11.11,0,0,0,0-.13L18.74,14a.1.1,0,0,0-.08,0,.08.08,0,0,0-.06,0,.1.1,0,0,0,0,.14l.56.66H17.92a.1.1,0,0,0-.1.1.09.09,0,0,0,.1.1Z"/><path class="cls-4" d="M17.19,18.61A1.17,1.17,0,0,1,16,19.78H4.49a1.17,1.17,0,0,1-1.17-1.17V3.24A1.17,1.17,0,0,1,4.49,2.07h6.94v5a.74.74,0,0,0,.75.75h5V11h1.5V7.08a.72.72,0,0,0-.06-.29.78.78,0,0,0-.16-.24L12.71.79a.63.63,0,0,0-.24-.16.75.75,0,0,0-.29-.06H4.49A2.68,2.68,0,0,0,1.82,3.24V18.61a2.68,2.68,0,0,0,2.67,2.67H16a2.68,2.68,0,0,0,2.67-2.67v0h-1.5ZM12.93,3.13l3.2,3.2h-3.2Z"/></svg>