<svg id="Layer_1" data-name="Layer 1" xmlns="http://www.w3.org/2000/svg" viewBox="0 0 22 22"><defs><style>.cls-1,.cls-3{fill:none;stroke:#fd6363;stroke-linecap:round;stroke-linejoin:round;}.cls-1{stroke-width:1.5px;}.cls-2{opacity:0.5;}.cls-3{stroke-width:2.5px;}</style></defs><title>Facebook-hover</title><path class="cls-1" d="M15.67,2.51H13.12A4.24,4.24,0,0,0,8.88,6.76V9.3H6.33v3.4H8.88v6.79h3.39V12.7h2.55l.85-3.4h-3.4V6.76a.85.85,0,0,1,.85-.85h2.55Z"/><g class="cls-2"><path class="cls-3" d="M15.67,2.51H13.12A4.24,4.24,0,0,0,8.88,6.76V9.3H6.33v3.4H8.88v6.79h3.39V12.7h2.55l.85-3.4h-3.4V6.76a.85.85,0,0,1,.85-.85h2.55Z"/></g></svg>