<svg id="Layer_1" data-name="Layer 1" xmlns="http://www.w3.org/2000/svg" viewBox="0 0 22 22"><defs><style>.cls-1{fill:none;stroke:#808998;stroke-linecap:round;stroke-linejoin:round;stroke-width:1.5px;}.cls-2{fill:#808998;}</style></defs><title>FacebookPost</title><path class="cls-1" d="M10.85,9.53H9.31A2.57,2.57,0,0,0,6.74,12.1v1.55H5.19v2H6.74v4.12h2V15.7h1.55l.51-2H8.79V12.1a.51.51,0,0,1,.52-.51h1.54Z"/><path class="cls-2" d="M15.58,5.76a.78.78,0,0,1,0-.21,4.34,4.34,0,0,1,.14-.48.79.79,0,0,1,.18-.29c.6-.63,1.2-1.26,1.81-1.88,0,0,0,0,0,0,.23.22.45.45.67.68,0,0,0,0,0,0L17.4,4.75l-.71.72a.77.77,0,0,1-.32.22,4.82,4.82,0,0,1-.61.2h-.08a.09.09,0,0,1-.1-.1S15.58,5.77,15.58,5.76Z"/><path class="cls-2" d="M15.7,6h0a.21.21,0,0,1-.2-.22v0a.85.85,0,0,1,0-.23c.05-.18.09-.34.14-.49a1.13,1.13,0,0,1,.21-.35c.61-.62,1.21-1.25,1.81-1.87a.15.15,0,0,1,.22,0c.22.23.44.46.67.68a.14.14,0,0,1,0,.21l-.41.44-.66.69-.35.36-.35.37a1,1,0,0,1-.37.24,3.3,3.3,0,0,1-.63.2Zm0-.24h0a4.06,4.06,0,0,0,.59-.19.77.77,0,0,0,.29-.19L17,5l.35-.37c.22-.22.44-.45.65-.68l.36-.38-.55-.55L16,4.86a.56.56,0,0,0-.16.25l-.14.47A1.62,1.62,0,0,0,15.69,5.77Z"/><path class="cls-2" d="M19.07,2.83a.34.34,0,0,1-.12.28l-.21.21s0,0,0,0L18,2.63s0,0,0,0l.22-.21a.41.41,0,0,1,.5-.07.56.56,0,0,1,.32.4A.4.4,0,0,1,19.07,2.83Z"/><path class="cls-2" d="M18.72,3.45a.14.14,0,0,1-.1,0l-.68-.69,0,0V2.61a.15.15,0,0,1,.05-.1l.21-.2a.56.56,0,0,1,.65-.1.69.69,0,0,1,.37.48.35.35,0,0,1,0,.15A.48.48,0,0,1,19,3.2l-.21.21A.15.15,0,0,1,18.72,3.45Zm-.54-.83.54.55L18.87,3A.23.23,0,0,0,19,2.84h0a.27.27,0,0,0,0-.09.43.43,0,0,0-.25-.31.3.3,0,0,0-.37,0Z"/><path class="cls-2" d="M13.51,7.93a.75.75,0,0,1-.75-.74l0-4.12a.75.75,0,0,1,.75-.75H15.9a.75.75,0,1,1,0,1.5H14.23l0,2.61,3.14,0V6.09a.75.75,0,0,1,1.5,0V7.16a.76.76,0,0,1-.75.75l-4.63,0Z"/></svg>