<svg id="Layer_1" data-name="Layer 1" xmlns="http://www.w3.org/2000/svg" viewBox="0 0 22 22"><defs><style>.cls-1{opacity:0.5;}.cls-2,.cls-4{fill:#fd6363;}.cls-2{stroke:#fd6363;stroke-miterlimit:10;}.cls-3{fill:none;stroke:#808998;stroke-linecap:round;stroke-linejoin:round;stroke-width:1.5px;}</style></defs><title>TwitterGet-hover</title><g class="cls-1"><path class="cls-2" d="M15.21,2.57,13.38,4.36a.21.21,0,0,0-.08.17.23.23,0,0,0,.08.17l1.8,1.77a.25.25,0,0,0,.25,0,.23.23,0,0,0,.13-.21l0-1.08H19.5A.24.24,0,0,0,19.73,5V4.07a.23.23,0,0,0-.23-.23H15.59V2.74a.23.23,0,0,0-.38-.17Z"/></g><path class="cls-3" d="M15.39,8.8a6.49,6.49,0,0,1-1.87.91A2.67,2.67,0,0,0,8.83,11.5v.6A6.36,6.36,0,0,1,3.47,9.4s-2.39,5.36,3,7.75a7,7,0,0,1-4.18,1.19c5.37,3,11.93,0,11.93-6.86a2.72,2.72,0,0,0,0-.49A4.58,4.58,0,0,0,15.39,8.8Z"/><path class="cls-4" d="M15.21,2.57,13.38,4.36a.21.21,0,0,0-.08.17.23.23,0,0,0,.08.17l1.8,1.77a.25.25,0,0,0,.25,0,.23.23,0,0,0,.13-.21l0-1.08H19.5A.24.24,0,0,0,19.73,5V4.07a.23.23,0,0,0-.23-.23H15.59V2.74a.23.23,0,0,0-.38-.17Z"/></svg>